<svg width="730" height="885" xmlns="http://www.w3.org/2000/svg">
 <!-- Created with Method Draw - http://github.com/duopixel/Method-Draw/ -->

 <g>
  <title>background</title>
  <rect fill="#fff" id="canvas_background" height="887" width="732" y="-1" x="-1"/>
  <g display="none" overflow="visible" y="0" x="0" height="100%" width="100%" id="canvasGrid">
   <rect fill="url(#gridpattern)" stroke-width="0" y="0" x="0" height="100%" width="100%"/>
  </g>
 </g>
 <g>
  <title>Layer 1</title>
  <rect id="svg_1" height="63" width="144" y="52.683804" x="314.75" stroke-width="1.5" stroke="#000" fill="#fff"/>
  <line stroke="#000" stroke-linecap="undefined" stroke-linejoin="undefined" id="svg_2" y2="86.683804" x2="458.249994" y1="86.683804" x1="315.25" stroke-width="1.5" fill="none"/>
  <text stroke="#000" transform="matrix(0.6540021300315857,0,0,0.6000000238418579,62.10661765933037,25.999998450279236) " xml:space="preserve" text-anchor="start" font-family="Helvetica, Arial, sans-serif" font-size="24" id="svg_3" y="81.473006" x="444.36888" fill-opacity="null" stroke-opacity="null" stroke-width="0" fill="#000000">gfp_mask</text>
  <text stroke="#000" transform="matrix(0.7440584897994995,0,0,0.6000000238418579,35.95978218317032,63.19999623298645) " xml:space="preserve" text-anchor="start" font-family="Helvetica, Arial, sans-serif" font-size="24" id="svg_4" y="74.47301" x="442.054841" fill-opacity="null" stroke-opacity="null" stroke-width="0" fill="#000000">rnode</text>
  <text stroke="#000" transform="matrix(0.6592779159545898,0,0,0.8545454740524291,79.45029401779175,11.509090304374695) " xml:space="preserve" text-anchor="start" font-family="Helvetica, Arial, sans-serif" font-size="24" id="svg_5" y="31.566154" x="385.406984" fill-opacity="null" stroke-opacity="null" stroke-width="0" fill="#000000">radix_tree_root</text>
  <rect stroke="#000" id="svg_6" height="172.999991" width="209.999996" y="430" x="112.5" fill-opacity="null" stroke-opacity="null" stroke-width="1.5" fill="#fff"/>
  <line stroke="#000" stroke-linecap="null" stroke-linejoin="null" id="svg_14" y2="569" x2="321.500003" y1="569" x1="113.5" fill-opacity="null" stroke-opacity="null" stroke-width="1.5" fill="none"/>
  <line stroke="#000" stroke-linecap="null" stroke-linejoin="null" id="svg_15" y2="542" x2="321.500003" y1="542" x1="113.5" fill-opacity="null" stroke-opacity="null" stroke-width="1.5" fill="none"/>
  <line stroke="#000" stroke-linecap="null" stroke-linejoin="null" id="svg_16" y2="514" x2="321.500003" y1="514" x1="113.5" fill-opacity="null" stroke-opacity="null" stroke-width="1.5" fill="none"/>
  <line stroke="#000" stroke-linecap="null" stroke-linejoin="null" id="svg_17" y2="486" x2="321.500003" y1="486" x1="113.5" fill-opacity="null" stroke-opacity="null" stroke-width="1.5" fill="none"/>
  <line stroke="#000" stroke-linecap="null" stroke-linejoin="null" id="svg_18" y2="458" x2="321.500003" y1="458" x1="113.5" fill-opacity="null" stroke-opacity="null" stroke-width="1.5" fill="none"/>
  <line stroke="#000" stroke-linecap="null" stroke-linejoin="null" id="svg_19" y2="602" x2="126.5" y1="569" x1="126.5" fill-opacity="null" stroke-opacity="null" stroke-width="1.5" fill="none"/>
  <line stroke="#000" stroke-linecap="null" stroke-linejoin="null" id="svg_20" y2="602" x2="138.5" y1="569" x1="138.5" fill-opacity="null" stroke-opacity="null" stroke-width="1.5" fill="none"/>
  <line stroke="#000" stroke-linecap="null" stroke-linejoin="null" id="svg_21" y2="602" x2="151.5" y1="569" x1="151.5" fill-opacity="null" stroke-opacity="null" stroke-width="1.5" fill="none"/>
  <line stroke="#000" stroke-linecap="null" stroke-linejoin="null" id="svg_22" y2="602" x2="164.5" y1="569" x1="164.5" fill-opacity="null" stroke-opacity="null" stroke-width="1.5" fill="none"/>
  <line stroke="#000" stroke-linecap="null" stroke-linejoin="null" id="svg_23" y2="602" x2="176.5" y1="569" x1="176.5" fill-opacity="null" stroke-opacity="null" stroke-width="1.5" fill="none"/>
  <line stroke="#000" stroke-linecap="null" stroke-linejoin="null" id="svg_24" y2="602" x2="189.5" y1="569" x1="189.5" fill-opacity="null" stroke-opacity="null" stroke-width="1.5" fill="none"/>
  <line stroke="#000" stroke-linecap="null" stroke-linejoin="null" id="svg_25" y2="602" x2="282.5" y1="569" x1="282.5" fill-opacity="null" stroke-opacity="null" stroke-width="1.5" fill="none"/>
  <line stroke="#000" stroke-linecap="null" stroke-linejoin="null" id="svg_26" y2="602" x2="294.5" y1="569" x1="294.5" fill-opacity="null" stroke-opacity="null" stroke-width="1.5" fill="none"/>
  <line stroke="#000" stroke-linecap="null" stroke-linejoin="null" id="svg_27" y2="602" x2="307.5" y1="569" x1="307.5" fill-opacity="null" stroke-opacity="null" stroke-width="1.5" fill="none"/>
  <text xml:space="preserve" text-anchor="start" font-family="Helvetica, Arial, sans-serif" font-size="24" id="svg_29" y="587" x="213.5" fill-opacity="null" stroke-opacity="null" stroke-width="0" stroke="#000" fill="#000000">......</text>
  <text stroke="#000" transform="matrix(-0.4489313193304109,0,0,0.7090908885002135,202.90583194488812,129.61819106340408) " xml:space="preserve" text-anchor="start" font-family="Helvetica, Arial, sans-serif" font-size="24" id="svg_30" y="613.435902" x="178.732781" fill-opacity="null" stroke-opacity="null" stroke-width="0" fill="#000000">0</text>
  <text stroke="#000" transform="matrix(0.3629976511001587,0,0,0.7090908885002136,195.24121993780136,129.74546372890472) " xml:space="preserve" text-anchor="start" font-family="Helvetica, Arial, sans-serif" font-size="24" id="svg_31" y="613.256414" x="320.274194" fill-opacity="null" stroke-opacity="null" stroke-width="0" fill="#000000">63</text>
  <text stroke="#000" transform="matrix(0.6819311380386353,0,0,0.5272727012634277,65.99928885698318,209.4181933403015) " xml:space="preserve" text-anchor="start" font-family="Helvetica, Arial, sans-serif" font-size="29" id="svg_32" y="510.517244" x="154.708746" fill-opacity="null" stroke-opacity="null" stroke-width="0" fill="#000000">shift = 0</text>
  <text style="cursor: move;" stroke="#000" transform="matrix(0.6819311380386353,0,0,0.5272727012634277,65.99928885698318,209.4181933403015) " xml:space="preserve" text-anchor="start" font-family="Helvetica, Arial, sans-serif" font-size="29" id="svg_33" y="612.931042" x="153.242322" fill-opacity="null" stroke-opacity="null" stroke-width="0" fill="#000000">count = 2</text>
  <text style="cursor: move;" stroke="#000" transform="matrix(0.6819311380386353,0,0,0.5272727012634277,65.99928885698318,209.4181933403015) " xml:space="preserve" text-anchor="start" font-family="Helvetica, Arial, sans-serif" font-size="29" id="svg_34" y="557.931039" x="151.775898" fill-opacity="null" stroke-opacity="null" stroke-width="0" fill="#000000">offset = 0</text>
  <text style="cursor: move;" stroke="#000" transform="matrix(0.6819311380386353,0,0,0.5272727012634277,65.99928885698318,209.4181933403015) " xml:space="preserve" text-anchor="start" font-family="Helvetica, Arial, sans-serif" font-size="29" id="svg_35" y="455.517241" x="148.843051" fill-opacity="null" stroke-opacity="null" stroke-width="0" fill="#000000">parent</text>
  <line stroke="#000" stroke-linecap="null" stroke-linejoin="null" id="svg_37" y2="100" x2="536.5" y1="100" x1="434.5" fill-opacity="null" stroke-opacity="null" stroke-width="1.5" fill="none"/>
  <line stroke="#000" stroke-linecap="null" stroke-linejoin="null" id="svg_38" y2="148.000001" x2="536.5" y1="100.000002" x1="536.5" fill-opacity="null" stroke-opacity="null" stroke-width="1.5" fill="none"/>
  <line stroke-linecap="null" stroke-linejoin="null" id="svg_40" y2="149" x2="537.5" y1="149" x1="500.5" fill-opacity="null" stroke-opacity="null" stroke-width="1.5" stroke="#000" fill="none"/>
  <line stroke-linecap="null" stroke-linejoin="null" id="svg_42" y2="148" x2="502.5" y1="136" x1="512.5" fill-opacity="null" stroke-opacity="null" stroke-width="1.5" stroke="#000" fill="none"/>
  <line stroke-linecap="null" stroke-linejoin="null" id="svg_43" y2="161" x2="515.5" y1="149" x1="502.5" fill-opacity="null" stroke-opacity="null" stroke-width="1.5" stroke="#000" fill="none"/>
  <rect id="svg_45" height="48" width="77" y="718" x="113.5" fill-opacity="null" stroke-opacity="null" stroke-width="1.5" stroke="#000" fill="#fff"/>
  <text stroke="#000" transform="matrix(0.6055813931309899,0,0,0.6436275777994638,36.41488395025564,177.5287481473248) " xml:space="preserve" text-anchor="start" font-family="Helvetica, Arial, sans-serif" font-size="29" id="svg_46" y="881.456898" x="158.626237" fill-opacity="null" stroke-opacity="null" stroke-width="0" fill="#000000">page</text>
  <rect id="svg_47" height="48" width="77" y="718" x="241.5" fill-opacity="null" stroke-opacity="null" stroke-width="1.5" stroke="#000" fill="#fff"/>
  <text stroke="#000" transform="matrix(0.6055813931309899,0,0,0.6436275777994638,36.41488395025564,177.5287481473248) " xml:space="preserve" text-anchor="start" font-family="Helvetica, Arial, sans-serif" font-size="29" id="svg_48" y="881.456898" x="369.993365" fill-opacity="null" stroke-opacity="null" stroke-width="0" fill="#000000">page</text>
  <line stroke-linecap="null" stroke-linejoin="null" id="svg_54" y2="716" x2="119.5" y1="597" x1="119.5" fill-opacity="null" stroke-opacity="null" stroke-width="null" stroke="#000" fill="none"/>
  <line stroke-linecap="null" stroke-linejoin="null" id="svg_55" y2="662" x2="262.5" y1="717" x1="262.5" fill-opacity="null" stroke-opacity="null" stroke-width="null" stroke="#000" fill="none"/>
  <line stroke-linecap="null" stroke-linejoin="null" id="svg_56" y2="661" x2="171.5" y1="597" x1="171.5" fill-opacity="null" stroke-opacity="null" stroke-width="null" stroke="#000" fill="none"/>
  <line stroke-linecap="null" stroke-linejoin="null" id="svg_57" y2="661" x2="170.5" y1="662" x1="262.5" fill-opacity="null" stroke-opacity="null" stroke-width="null" stroke="#000" fill="none"/>
  <path d="m106.5,706c0,0 1,0 1,1c0,0 0.292892,-0.707092 1,0c0.707108,0.707092 1,1 1,1c0,1 0.292892,0.292908 1,1c0.707108,0.707092 -0.707108,1.292908 0,2c0.707108,0.707092 1,0 1,0c0,0 1,1 1,1c0,0 0,0 0,0c1,0 1,1 1,1c0,0 0,0 0,0c1,1 1,1 1,1c0,0 0.292892,-0.707092 1,0c0.707108,0.707092 0,1 0,1c1,0 1,0 1,0c0,1 0,1 1,1c0,0 0,0 0,0c1,0 1,0 1,0c0,0 0,0 0,0c1,-1 1,-1 1,-1c1,-1 1,-1 2,-2c0,0 0.617317,-0.076111 1,-1c0.541199,-1.306549 1.076118,-0.61731 2,-1c1.306564,-0.541199 1,-1 2,-1c0,0 1,-1 1,-1c1,0 1,0 1,0c1,0 1,0 1,0c0,-1 0,-1 0,-1c-1,0 -1,0 -1,0l0,1" id="svg_58" fill-opacity="null" stroke-opacity="null" stroke-width="null" stroke="#000" fill="none"/>
  <path d="m250.5,705c1,0 1.292892,0.292908 2,1c0.707108,0.707092 1,1 1,1c0,1 1,1 1,1c0,1 1,1 1,1c0,1 0,1 1,1c0,0 0,1 1,1c0,0 0,0 0,0c0,1 1,1 1,1c0,0 -0.707092,0.292908 0,1c0.707092,0.707092 1,0 1,0c0,0 1,0 1,0c0,0 0,1 1,1c0,0 0,0 0,0c0,0 0,1 1,1c0,0 0,0 0,0c0,0 0.292908,0.707092 1,0c0.707092,-0.707092 0,-1 0,-1c0,-1 0.292908,-0.292908 1,-1c0.707092,-0.707092 0,-1 1,-1c0,0 0,-1 1,-1c0,0 1,-1 1,-1c0,0 1,0 1,0c0,0 0,-1 1,-1c0,0 0,0 1,0c0,0 0,0 0,0c1,-1 1,-1 1,-1c1,0 1,0 1,0c1,-1 1,-1 1,-1c0,0 1,0 1,-1c0,0 1,0 1,0c0,0 0,0 1,-1c0,0 0,0 0,0c0,0 1,0 1,0l0,0" id="svg_59" fill-opacity="null" stroke-opacity="null" stroke-width="null" stroke="#000" fill="none"/>
  <text stroke="#000" transform="matrix(0.7440584897994995,0,0,0.5986321475458175,35.95978218317032,63.30845334213714) " xml:space="preserve" text-anchor="start" font-family="Helvetica, Arial, sans-serif" font-size="24" id="svg_62" y="1233.752151" x="107.40373" fill-opacity="null" stroke-opacity="null" stroke-width="0" fill="#000000">index=0</text>
  <text stroke="#000" transform="matrix(0.7440584897994995,0,0,0.5986321475458175,35.95978218317032,63.30845334213714) " xml:space="preserve" text-anchor="start" font-family="Helvetica, Arial, sans-serif" font-size="24" id="svg_63" y="1232.081676" x="307.656804" fill-opacity="null" stroke-opacity="null" stroke-width="0" fill="#000000">index=4</text>
  <text style="cursor: move;" xml:space="preserve" text-anchor="start" font-family="Helvetica, Arial, sans-serif" font-size="24" id="svg_64" y="834" x="300.5" fill-opacity="null" stroke-opacity="null" stroke-width="0" stroke="#000" fill="#000000">深度为2的基树</text>
  <rect stroke="#000" id="svg_65" height="172.999991" width="209.999996" y="150" x="289.5" fill-opacity="null" stroke-opacity="null" stroke-width="1.5" fill="#fff"/>
  <line stroke="#000" stroke-linecap="null" stroke-linejoin="null" id="svg_66" y2="289" x2="498.500003" y1="289" x1="290.5" fill-opacity="null" stroke-opacity="null" stroke-width="1.5" fill="none"/>
  <line stroke="#000" stroke-linecap="null" stroke-linejoin="null" id="svg_67" y2="262" x2="498.500003" y1="262" x1="290.5" fill-opacity="null" stroke-opacity="null" stroke-width="1.5" fill="none"/>
  <line stroke="#000" stroke-linecap="null" stroke-linejoin="null" id="svg_68" y2="234" x2="498.500003" y1="234" x1="290.5" fill-opacity="null" stroke-opacity="null" stroke-width="1.5" fill="none"/>
  <line stroke="#000" stroke-linecap="null" stroke-linejoin="null" id="svg_69" y2="206" x2="498.500003" y1="206" x1="290.5" fill-opacity="null" stroke-opacity="null" stroke-width="1.5" fill="none"/>
  <line stroke="#000" stroke-linecap="null" stroke-linejoin="null" id="svg_70" y2="178" x2="498.500003" y1="178" x1="290.5" fill-opacity="null" stroke-opacity="null" stroke-width="1.5" fill="none"/>
  <line stroke="#000" stroke-linecap="null" stroke-linejoin="null" id="svg_71" y2="322" x2="303.5" y1="289" x1="303.5" fill-opacity="null" stroke-opacity="null" stroke-width="1.5" fill="none"/>
  <line stroke="#000" stroke-linecap="null" stroke-linejoin="null" id="svg_72" y2="322" x2="315.5" y1="289" x1="315.5" fill-opacity="null" stroke-opacity="null" stroke-width="1.5" fill="none"/>
  <line stroke="#000" stroke-linecap="null" stroke-linejoin="null" id="svg_73" y2="322" x2="328.5" y1="289" x1="328.5" fill-opacity="null" stroke-opacity="null" stroke-width="1.5" fill="none"/>
  <line stroke="#000" stroke-linecap="null" stroke-linejoin="null" id="svg_74" y2="322" x2="341.5" y1="289" x1="341.5" fill-opacity="null" stroke-opacity="null" stroke-width="1.5" fill="none"/>
  <line stroke="#000" stroke-linecap="null" stroke-linejoin="null" id="svg_75" y2="322" x2="353.5" y1="289" x1="353.5" fill-opacity="null" stroke-opacity="null" stroke-width="1.5" fill="none"/>
  <line stroke="#000" stroke-linecap="null" stroke-linejoin="null" id="svg_76" y2="322" x2="366.5" y1="289" x1="366.5" fill-opacity="null" stroke-opacity="null" stroke-width="1.5" fill="none"/>
  <line stroke="#000" stroke-linecap="null" stroke-linejoin="null" id="svg_77" y2="322" x2="459.5" y1="289" x1="459.5" fill-opacity="null" stroke-opacity="null" stroke-width="1.5" fill="none"/>
  <line stroke="#000" stroke-linecap="null" stroke-linejoin="null" id="svg_78" y2="322" x2="471.5" y1="289" x1="471.5" fill-opacity="null" stroke-opacity="null" stroke-width="1.5" fill="none"/>
  <line stroke="#000" stroke-linecap="null" stroke-linejoin="null" id="svg_79" y2="322" x2="484.5" y1="289" x1="484.5" fill-opacity="null" stroke-opacity="null" stroke-width="1.5" fill="none"/>
  <text xml:space="preserve" text-anchor="start" font-family="Helvetica, Arial, sans-serif" font-size="24" id="svg_80" y="307" x="390.5" fill-opacity="null" stroke-opacity="null" stroke-width="0" stroke="#000" fill="#000000">......</text>
  <text stroke="#000" transform="matrix(-0.4489313193304109,0,0,0.7090908885002135,202.90583194488812,129.61819106340408) " xml:space="preserve" text-anchor="start" font-family="Helvetica, Arial, sans-serif" font-size="24" id="svg_81" y="218.564095" x="-215.536882" fill-opacity="null" stroke-opacity="null" stroke-width="0" fill="#000000">0</text>
  <text stroke="#000" transform="matrix(0.3629976511001587,0,0,0.7090908885002136,195.24121993780136,129.74546372890472) " xml:space="preserve" text-anchor="start" font-family="Helvetica, Arial, sans-serif" font-size="24" id="svg_82" y="218.384608" x="807.880655" fill-opacity="null" stroke-opacity="null" stroke-width="0" fill="#000000">63</text>
  <text style="cursor: move;" stroke="#000" transform="matrix(0.6819311380386353,0,0,0.5272727012634277,65.99928885698318,209.4181933403015) " xml:space="preserve" text-anchor="start" font-family="Helvetica, Arial, sans-serif" font-size="29" id="svg_83" y="-20.517265" x="414.265745" fill-opacity="null" stroke-opacity="null" stroke-width="0" fill="#000000">shift = 6</text>
  <text stroke="#000" transform="matrix(0.6819311380386353,0,0,0.5272727012634277,65.99928885698318,209.4181933403015) " xml:space="preserve" text-anchor="start" font-family="Helvetica, Arial, sans-serif" font-size="29" id="svg_84" y="81.896533" x="412.799322" fill-opacity="null" stroke-opacity="null" stroke-width="0" fill="#000000">count = 2</text>
  <text stroke="#000" transform="matrix(0.6819311380386353,0,0,0.5272727012634277,65.99928885698318,209.4181933403015) " xml:space="preserve" text-anchor="start" font-family="Helvetica, Arial, sans-serif" font-size="29" id="svg_85" y="26.89653" x="411.332898" fill-opacity="null" stroke-opacity="null" stroke-width="0" fill="#000000">offset = 0</text>
  <text style="cursor: move;" stroke="#000" transform="matrix(0.6819311380386353,0,0,0.5272727012634277,65.99928885698318,209.4181933403015) " xml:space="preserve" text-anchor="start" font-family="Helvetica, Arial, sans-serif" font-size="29" id="svg_86" y="-75.517268" x="408.40005" fill-opacity="null" stroke-opacity="null" stroke-width="0" fill="#000000">parent=NULL</text>
  <line stroke-linecap="null" stroke-linejoin="null" id="svg_87" y2="431" x2="296.5" y1="312" x1="296.5" fill-opacity="null" stroke-opacity="null" stroke-width="null" stroke="#000" fill="none"/>
  <line stroke-linecap="null" stroke-linejoin="null" id="svg_88" y2="381" x2="323.5" y1="317" x1="323.5" fill-opacity="null" stroke-opacity="null" stroke-width="null" stroke="#000" fill="none"/>
  <text stroke="#000" transform="matrix(0.6819311380386353,0,0,0.5272727012634277,65.99928885698318,209.4181933403015) " xml:space="preserve" text-anchor="start" font-family="Helvetica, Arial, sans-serif" font-size="29" id="svg_89" y="328.448269" x="244.160593" fill-opacity="null" stroke-opacity="null" stroke-width="0" fill="#000000">slots[0]</text>
  <text stroke="#000" transform="matrix(0.6819311380386353,0,0,0.5272727012634277,65.99928885698318,209.4181933403015) " xml:space="preserve" text-anchor="start" font-family="Helvetica, Arial, sans-serif" font-size="29" id="svg_90" y="307.586199" x="430.396406" fill-opacity="null" stroke-opacity="null" stroke-width="0" fill="#000000">slots[2]</text>
  <text stroke="#000" transform="matrix(0.6819311380386353,0,0,0.5272727012634277,65.99928885698318,209.4181933403015) " xml:space="preserve" text-anchor="start" font-family="Helvetica, Arial, sans-serif" font-size="29" id="svg_91" y="916.379333" x="294.019" fill-opacity="null" stroke-opacity="null" stroke-width="0" fill="#000000">slots[4]</text>
  <text stroke="#000" transform="matrix(0.6819311380386353,0,0,0.5272727012634277,65.99928885698318,209.4181933403015) " xml:space="preserve" text-anchor="start" font-family="Helvetica, Arial, sans-serif" font-size="29" id="svg_92" y="905.000022" x="-13.929983" fill-opacity="null" stroke-opacity="null" stroke-width="0" fill="#000000">slots[0]</text>
  <text stroke="#000" transform="matrix(0.6592779159545898,0,0,0.8545454740524291,79.45029401779175,11.509090304374695) " xml:space="preserve" text-anchor="start" font-family="Helvetica, Arial, sans-serif" font-size="24" id="svg_93" y="154.438491" x="306.532812" fill-opacity="null" stroke-opacity="null" stroke-width="0" fill="#000000">radix_tree_node</text>
  <text stroke="#000" transform="matrix(0.6592779159545898,0,0,0.8545454740524291,79.45029401779175,11.509090304374695) " xml:space="preserve" text-anchor="start" font-family="Helvetica, Arial, sans-serif" font-size="24" id="svg_94" y="476.246995" x="51.708563" fill-opacity="null" stroke-opacity="null" stroke-width="0" fill="#000000">radix_tree_node</text>
  <rect stroke="#000" id="svg_95" height="172.999991" width="209.999996" y="430" x="415.5" fill-opacity="null" stroke-opacity="null" stroke-width="1.5" fill="#fff"/>
  <line stroke="#000" stroke-linecap="null" stroke-linejoin="null" id="svg_96" y2="569" x2="624.500003" y1="569" x1="416.5" fill-opacity="null" stroke-opacity="null" stroke-width="1.5" fill="none"/>
  <line stroke="#000" stroke-linecap="null" stroke-linejoin="null" id="svg_97" y2="542" x2="624.500003" y1="542" x1="416.5" fill-opacity="null" stroke-opacity="null" stroke-width="1.5" fill="none"/>
  <line stroke="#000" stroke-linecap="null" stroke-linejoin="null" id="svg_98" y2="514" x2="624.500003" y1="514" x1="416.5" fill-opacity="null" stroke-opacity="null" stroke-width="1.5" fill="none"/>
  <line stroke="#000" stroke-linecap="null" stroke-linejoin="null" id="svg_99" y2="486" x2="624.500003" y1="486" x1="416.5" fill-opacity="null" stroke-opacity="null" stroke-width="1.5" fill="none"/>
  <line stroke="#000" stroke-linecap="null" stroke-linejoin="null" id="svg_100" y2="458" x2="624.500003" y1="458" x1="416.5" fill-opacity="null" stroke-opacity="null" stroke-width="1.5" fill="none"/>
  <line stroke="#000" stroke-linecap="null" stroke-linejoin="null" id="svg_101" y2="602" x2="429.5" y1="569" x1="429.5" fill-opacity="null" stroke-opacity="null" stroke-width="1.5" fill="none"/>
  <line stroke="#000" stroke-linecap="null" stroke-linejoin="null" id="svg_102" y2="602" x2="441.5" y1="569" x1="441.5" fill-opacity="null" stroke-opacity="null" stroke-width="1.5" fill="none"/>
  <line stroke="#000" stroke-linecap="null" stroke-linejoin="null" id="svg_103" y2="602" x2="454.5" y1="569" x1="454.5" fill-opacity="null" stroke-opacity="null" stroke-width="1.5" fill="none"/>
  <line stroke="#000" stroke-linecap="null" stroke-linejoin="null" id="svg_104" y2="602" x2="467.5" y1="569" x1="467.5" fill-opacity="null" stroke-opacity="null" stroke-width="1.5" fill="none"/>
  <line stroke="#000" stroke-linecap="null" stroke-linejoin="null" id="svg_105" y2="602" x2="479.5" y1="569" x1="479.5" fill-opacity="null" stroke-opacity="null" stroke-width="1.5" fill="none"/>
  <line stroke="#000" stroke-linecap="null" stroke-linejoin="null" id="svg_106" y2="602" x2="492.5" y1="569" x1="492.5" fill-opacity="null" stroke-opacity="null" stroke-width="1.5" fill="none"/>
  <line stroke="#000" stroke-linecap="null" stroke-linejoin="null" id="svg_107" y2="602" x2="585.5" y1="569" x1="585.5" fill-opacity="null" stroke-opacity="null" stroke-width="1.5" fill="none"/>
  <line stroke="#000" stroke-linecap="null" stroke-linejoin="null" id="svg_108" y2="602" x2="597.5" y1="569" x1="597.5" fill-opacity="null" stroke-opacity="null" stroke-width="1.5" fill="none"/>
  <line stroke="#000" stroke-linecap="null" stroke-linejoin="null" id="svg_109" y2="602" x2="610.5" y1="569" x1="610.5" fill-opacity="null" stroke-opacity="null" stroke-width="1.5" fill="none"/>
  <text xml:space="preserve" text-anchor="start" font-family="Helvetica, Arial, sans-serif" font-size="24" id="svg_110" y="587" x="516.5" fill-opacity="null" stroke-opacity="null" stroke-width="0" stroke="#000" fill="#000000">......</text>
  <text stroke="#000" transform="matrix(-0.4489313193304109,0,0,0.7090908885002135,202.90583194488812,129.61819106340408) " xml:space="preserve" text-anchor="start" font-family="Helvetica, Arial, sans-serif" font-size="24" id="svg_111" y="613.435902" x="-496.203422" fill-opacity="null" stroke-opacity="null" stroke-width="0" fill="#000000">0</text>
  <text stroke="#000" transform="matrix(0.3629976511001587,0,0,0.7090908885002136,195.24121993780136,129.74546372890472) " xml:space="preserve" text-anchor="start" font-family="Helvetica, Arial, sans-serif" font-size="24" id="svg_112" y="613.256414" x="1154.990339" fill-opacity="null" stroke-opacity="null" stroke-width="0" fill="#000000">63</text>
  <text stroke="#000" transform="matrix(0.6819311380386353,0,0,0.5272727012634277,65.99928885698318,209.4181933403015) " xml:space="preserve" text-anchor="start" font-family="Helvetica, Arial, sans-serif" font-size="29" id="svg_113" y="510.517244" x="599.035135" fill-opacity="null" stroke-opacity="null" stroke-width="0" fill="#000000">shift = 0</text>
  <text style="cursor: move;" stroke="#000" transform="matrix(0.6819311380386353,0,0,0.5272727012634277,65.99928885698318,209.4181933403015) " xml:space="preserve" text-anchor="start" font-family="Helvetica, Arial, sans-serif" font-size="29" id="svg_114" y="612.931042" x="597.568711" fill-opacity="null" stroke-opacity="null" stroke-width="0" fill="#000000">count = 1</text>
  <text style="cursor: move;" stroke="#000" transform="matrix(0.6819311380386353,0,0,0.5272727012634277,65.99928885698318,209.4181933403015) " xml:space="preserve" text-anchor="start" font-family="Helvetica, Arial, sans-serif" font-size="29" id="svg_115" y="557.931039" x="596.102287" fill-opacity="null" stroke-opacity="null" stroke-width="0" fill="#000000">offset = 2</text>
  <text style="cursor: move;" stroke="#000" transform="matrix(0.6819311380386353,0,0,0.5272727012634277,65.99928885698318,209.4181933403015) " xml:space="preserve" text-anchor="start" font-family="Helvetica, Arial, sans-serif" font-size="29" id="svg_116" y="455.517241" x="593.16944" fill-opacity="null" stroke-opacity="null" stroke-width="0" fill="#000000">parent</text>
  <line stroke-linecap="null" stroke-linejoin="null" id="svg_117" y2="716" x2="460.5" y1="597" x1="460.5" fill-opacity="null" stroke-opacity="null" stroke-width="null" stroke="#000" fill="none"/>
  <text stroke="#000" transform="matrix(0.6592779159545898,0,0,0.8545454740524291,79.45029401779175,11.509090304374695) " xml:space="preserve" text-anchor="start" font-family="Helvetica, Arial, sans-serif" font-size="24" id="svg_120" y="476.246995" x="511.302298" fill-opacity="null" stroke-opacity="null" stroke-width="0" fill="#000000">radix_tree_node</text>
  <path d="m285.5,418c0,0 1,0 1,0c0,1 1,1 1,2c0,0 1,1 1,1c1,0 1,1 1,1c1,0 1,1 2,1c0,0 0,0 0,0c1,1 1,1 1,1c1,0 1,1 1,1c0,0 0,0 1,0c0,0 0,0 0,1c0,0 0,0 0,0c0,0 0.292908,-0.707092 1,0c0.707092,0.707092 0,1 0,1c0,0 0,0 0,0c1,0 1,0 1,1c0,0 0,-1 0,-1c0,0 0.292908,0.707092 1,0c0.707092,-0.707092 0,-1 0,-1c1,0 1,-1 1,-1c0,0 1,0 1,0c0,-1 0,-1 1,-1c0,0 -0.707092,-0.292908 0,-1c0.707092,-0.707092 1,0 1,0c1,0 1,-1 1,-1c1,0 1,0 1,0c0,0 0,-1 1,-1c0,0 0,0 1,0c0,0 0,0 0,-1c0,0 1,0 1,0c0,0 0,0 1,0c0,0 0,0 0,0l0,0l0,-1" id="svg_121" fill-opacity="null" stroke-opacity="null" stroke-width="null" stroke="#000" fill="none"/>
  <line stroke="#000" stroke-linecap="null" stroke-linejoin="null" id="svg_122" y2="380" x2="558.5" y1="380" x1="323.499999" fill-opacity="null" stroke-opacity="null" stroke-width="null" fill="none"/>
  <line stroke="#000" stroke-linecap="null" stroke-linejoin="null" id="svg_123" y2="379.000003" x2="559.5" y1="430" x1="559.5" fill-opacity="null" stroke-opacity="null" stroke-width="null" fill="none"/>
  <path d="m546.5,418c0,0 1,0 1,1c0,0 0.292908,-0.707092 1,0c0.707092,0.707092 0,1 1,1c0,0 -0.707092,0.292908 0,1c0.707092,0.707092 1,0 1,0c0,1 1,1 1,1c0,0 1,1 1,1c0,0 0.292908,-0.707092 1,0c0.707092,0.707092 0,1 0,1c1,0 1,0 1,0c0,1 0,1 1,1c0,0 0,0 0,0c0,0 0,1 0,1c1,0 1,0 1,0c0,0 0,1 0,1c0,0 1,0 1,0c0,0 0,0 0,0c1,0 1,0 1,0c0,0 1,0 1,0c0,-1 0,-1 0,-1c0,0 0,0 0,0c0,-1 0,-1 0,-1c1,0 1,0 1,-1c0,0 0,0 0,0c1,0 1,0 1,0c0,0 0,0 0,0c0,-1 1,-1 1,-1c0,0 0,0 1,0c0,0 0,0 0,0c1,-1 1,-1 1,-1c0,0 0,0 1,0c0,0 0,0 0,0c0,0 1,-1 1,-1c0,0 0,0 0,0c0,0 1,0 1,0c0,-1 0,-1 0,-1c1,0 1,0 1,0c0,0 0,0 0,-1c0,0 1,0 1,0c0,0 0,0 0,0c0,0 1,0 1,-1c0,0 0,0 0,0l0,0l1,0l0,0" id="svg_124" fill-opacity="null" stroke-opacity="null" stroke-width="null" stroke="#000" fill="none"/>
  <rect id="svg_129" height="48" width="77" y="721" x="439.5" fill-opacity="null" stroke-opacity="null" stroke-width="1.5" stroke="#000" fill="#fff"/>
  <text stroke="#000" transform="matrix(0.6055813931309899,0,0,0.6436275777994638,36.41488395025564,177.5287481473248) " xml:space="preserve" text-anchor="start" font-family="Helvetica, Arial, sans-serif" font-size="29" id="svg_130" y="886.117978" x="696.951892" fill-opacity="null" stroke-opacity="null" stroke-width="0" fill="#000000">page</text>
  <path d="m448.5,708c1,0 1.292892,0.292908 2,1c0.707108,0.707092 1,1 1,1c0,1 1,1 1,1c0,1 1,1 1,1c0,1 0,1 1,1c0,0 0,1 1,1c0,0 0,0 0,0c0,1 1,1 1,1c0,0 -0.707092,0.292908 0,1c0.707092,0.707092 1,0 1,0c0,0 1,0 1,0c0,0 0,1 1,1c0,0 0,0 0,0c0,0 0,1 1,1c0,0 0,0 0,0c0,0 0.292908,0.707092 1,0c0.707092,-0.707092 0,-1 0,-1c0,-1 0.292908,-0.292908 1,-1c0.707092,-0.707092 0,-1 1,-1c0,0 0,-1 1,-1c0,0 1,-1 1,-1c0,0 1,0 1,0c0,0 0,-1 1,-1c0,0 0,0 1,0c0,0 0,0 0,0c1,-1 1,-1 1,-1c1,0 1,0 1,0c1,-1 1,-1 1,-1c0,0 1,0 1,-1c0,0 1,0 1,0c0,0 0,0 1,-1c0,0 0,0 0,0c0,0 1,0 1,0l0,0" id="svg_132" fill-opacity="null" stroke-opacity="null" stroke-width="null" stroke="#000" fill="none"/>
  <text style="cursor: move;" stroke="#000" transform="matrix(0.7440584897994995,0,0,0.5986321475458175,35.95978218317032,63.30845334213714) " xml:space="preserve" text-anchor="start" font-family="Helvetica, Arial, sans-serif" font-size="24" id="svg_133" y="1230.411201" x="572.420936" fill-opacity="null" stroke-opacity="null" stroke-width="0" fill="#000000">index=131</text>
  <text style="cursor: move;" stroke="#000" transform="matrix(0.6819311380386353,0,0,0.5272727012634277,65.99928885698318,209.4181933403015) " xml:space="preserve" text-anchor="start" font-family="Helvetica, Arial, sans-serif" font-size="29" id="svg_134" y="910.689677" x="591.703016" fill-opacity="null" stroke-opacity="null" stroke-width="0" fill="#000000">slots[3]</text>
  <line stroke="#000" stroke-linecap="null" stroke-linejoin="null" id="svg_135" y2="445" x2="72.499999" y1="445" x1="159.5" fill-opacity="null" stroke-opacity="null" stroke-width="null" fill="none"/>
  <line stroke="#000" stroke-linecap="null" stroke-linejoin="null" id="svg_136" y2="165.999994" x2="72.5" y1="444" x1="72.5" fill-opacity="null" stroke-opacity="null" stroke-width="null" fill="none"/>
  <line stroke-linecap="null" stroke-linejoin="null" id="svg_137" y2="166" x2="71.5" y1="166" x1="291.5" fill-opacity="null" stroke-opacity="null" stroke-width="null" stroke="#000" fill="none"/>
  <path d="m276.5,156c1,0 1,0 1,0c0,0 1,0 1,0c0,1 0,1 1,1c0,0 0,1 0,1c1,0 1,0 1,0c0,0 0,1 1,1c0,0 0,0 0,0c0,0 1,0 1,1c0,0 0,0 0,0c0,0 1,0 1,0c0,1 0,1 0,1c1,0 1,0 1,0c0,0 0,1 1,1c0,0 0,0 0,0c0,0 0,0 0,0c1,0 1,1 1,1c0,0 0,0 0,0c0,0 -0.707092,0.292892 0,1c0.707092,0.707108 1,0 1,0c0,0 0,0 0,0c0,0 1,0 1,1c0,0 0,0 0,0c0,0 0,0 -1,0c0,0 0,0 0,0c-1,1 -1,1 -2,1c0,0 -1,0 -1,1c0,0 0,0 -1,0c0,0 0,0 0,0c0,0 0,1 0,1c0,0 0,0 0,0c-1,0 -1,1 -1,1c0,0 0,0 0,0c0,1 0,1 0,1c0,0 -1,0 -1,0c0,0 0,1 0,1c0,0 0,0 0,0c-1,0 -1,1 -1,1c0,0 0,0 0,0c0,1 0,1 0,1c0,0 -0.292908,-0.707108 -1,0c-0.707092,0.707108 0,1 0,1c0,0 0,0 0,0c0,1 -1,1 -1,1c0,0 0,0 0,0c0,0 0,0 0,0c0,1 -1,1 -1,1c0,0 0,0 0,0c0,0 0,1 0,1c-1,0 -1,0 -1,0l0,0l0,0l0,0" id="svg_139" fill-opacity="null" stroke-opacity="null" stroke-width="null" stroke="#000" fill="none"/>
  <line stroke-linecap="null" stroke-linejoin="null" id="svg_140" y2="444" x2="663.5" y1="444" x1="544.5" fill-opacity="null" stroke-opacity="null" stroke-width="null" stroke="#000" fill="none"/>
  <line stroke="#000" stroke-linecap="null" stroke-linejoin="null" id="svg_141" y2="171" x2="662.500003" y1="171" x1="500.5" fill-opacity="null" stroke-opacity="null" stroke-width="null" fill="none"/>
  <line stroke="#000" stroke-linecap="null" stroke-linejoin="null" id="svg_142" y2="172.000007" x2="660.5" y1="443" x1="661.5" fill-opacity="null" stroke-opacity="null" stroke-width="null" fill="none"/>
  <path d="m506.5,162c0,0 0,0 0,0c-1,0 -1,1 -1,1c0,0 0,1 0,1c0,0 0,0 -1,1c0,0 0,0 0,0c0,0 0,1 -1,1c0,0 0,0 0,0c0,0 0,0 -1,0c0,0 0,1 0,1c0,0 0,0 0,0c0,1 0,1 -1,1c0,0 0,0 0,0c0,1 0,1 0,1c0,0 -1,0 -1,0c0,1 0,1 0,1c0,0 0,0 -1,0c0,0 0,0 0,1c0,0 1,0 1,0c0,0 1,0 1,0c0,0 1,0 1,0c0,0 1,0 1,0c0,0 1,1 1,1c0,0 0,0 0,0c0,0 0,0 0,1c0,0 1,0 1,0c0,0 0,0 0,1c0,0 0,0 1,0c0,0 0,0 0,1c0,0 0,0 0,0c0,0 1,0 1,0c0,0 0,0 0,1c0,0 0,0 1,0c0,0 0,0 0,0c0,1 0,1 0,1c0,0 1,0 1,0c0,0 0,0 0,1c0,0 0,0 0,0c0,0 1,0 1,0c0,0 0,1 0,1l0,0l0,0l0,0" id="svg_144" fill-opacity="null" stroke-opacity="null" stroke-width="null" stroke="#000" fill="none"/>
 </g>
</svg>