<svg width="450" height="625" xmlns="http://www.w3.org/2000/svg">
 <!-- Created with Method Draw - http://github.com/duopixel/Method-Draw/ -->

 <g>
  <title>background</title>
  <rect x="-1" y="-1" width="452" height="627" id="canvas_background" fill="#fff"/>
  <g id="canvasGrid" display="none">
   <rect id="svg_7" width="100%" height="100%" x="0" y="0" stroke-width="0" fill="url(#gridpattern)"/>
  </g>
 </g>
 <g>
  <title>Layer 1</title>
  <rect fill="#fff" stroke="#000" stroke-width="1.5" x="136.75" y="60.683804" width="144" height="63" id="svg_1"/>
  <line fill="none" stroke-width="1.5" x1="137.25" y1="94.683804" x2="280.249994" y2="94.683804" id="svg_2" stroke-linejoin="undefined" stroke-linecap="undefined" stroke="#000"/>
  <text fill="#000000" stroke-width="0" stroke-opacity="null" fill-opacity="null" x="172.198512" y="94.806339" id="svg_3" font-size="24" font-family="Helvetica, Arial, sans-serif" text-anchor="start" xml:space="preserve" transform="matrix(0.6540021300315857,0,0,0.6000000238418579,62.10661765933037,25.999998450279236) " stroke="#000">gfp_mask</text>
  <text fill="#000000" stroke-width="0" stroke-opacity="null" fill-opacity="null" x="202.826336" y="87.806343" id="svg_4" font-size="24" font-family="Helvetica, Arial, sans-serif" text-anchor="start" xml:space="preserve" transform="matrix(0.7440584897994995,0,0,0.6000000238418579,35.95978218317032,63.19999623298645) " stroke="#000">rnode</text>
  <text fill="#000000" stroke-width="0" stroke-opacity="null" fill-opacity="null" x="115.414625" y="40.927856" id="svg_5" font-size="24" font-family="Helvetica, Arial, sans-serif" text-anchor="start" xml:space="preserve" transform="matrix(0.6592779159545898,0,0,0.8545454740524291,79.45029401779175,11.509090304374695) " stroke="#000">radix_tree_root</text>
  <rect fill="#fff" stroke-width="1.5" stroke-opacity="null" fill-opacity="null" x="112.5" y="182" width="209.999996" height="172.999991" id="svg_6" stroke="#000"/>
  <line fill="none" stroke-width="1.5" stroke-opacity="null" fill-opacity="null" x1="113.5" y1="321" x2="321.500003" y2="321" id="svg_14" stroke-linejoin="null" stroke-linecap="null" stroke="#000"/>
  <line fill="none" stroke-width="1.5" stroke-opacity="null" fill-opacity="null" x1="113.5" y1="294" x2="321.500003" y2="294" id="svg_15" stroke-linejoin="null" stroke-linecap="null" stroke="#000"/>
  <line fill="none" stroke-width="1.5" stroke-opacity="null" fill-opacity="null" x1="113.5" y1="266" x2="321.500003" y2="266" id="svg_16" stroke-linejoin="null" stroke-linecap="null" stroke="#000"/>
  <line fill="none" stroke-width="1.5" stroke-opacity="null" fill-opacity="null" x1="113.5" y1="238" x2="321.500003" y2="238" id="svg_17" stroke-linejoin="null" stroke-linecap="null" stroke="#000"/>
  <line fill="none" stroke-width="1.5" stroke-opacity="null" fill-opacity="null" x1="113.5" y1="210" x2="321.500003" y2="210" id="svg_18" stroke-linejoin="null" stroke-linecap="null" stroke="#000"/>
  <line fill="none" stroke-width="1.5" stroke-opacity="null" fill-opacity="null" x1="126.5" y1="321" x2="126.5" y2="354" id="svg_19" stroke-linejoin="null" stroke-linecap="null" stroke="#000"/>
  <line fill="none" stroke-width="1.5" stroke-opacity="null" fill-opacity="null" x1="138.5" y1="321" x2="138.5" y2="354" id="svg_20" stroke-linejoin="null" stroke-linecap="null" stroke="#000"/>
  <line fill="none" stroke-width="1.5" stroke-opacity="null" fill-opacity="null" x1="151.5" y1="321" x2="151.5" y2="354" id="svg_21" stroke-linejoin="null" stroke-linecap="null" stroke="#000"/>
  <line fill="none" stroke-width="1.5" stroke-opacity="null" fill-opacity="null" x1="164.5" y1="321" x2="164.5" y2="354" id="svg_22" stroke-linejoin="null" stroke-linecap="null" stroke="#000"/>
  <line fill="none" stroke-width="1.5" stroke-opacity="null" fill-opacity="null" x1="176.5" y1="321" x2="176.5" y2="354" id="svg_23" stroke-linejoin="null" stroke-linecap="null" stroke="#000"/>
  <line fill="none" stroke-width="1.5" stroke-opacity="null" fill-opacity="null" x1="189.5" y1="321" x2="189.5" y2="354" id="svg_24" stroke-linejoin="null" stroke-linecap="null" stroke="#000"/>
  <line fill="none" stroke-width="1.5" stroke-opacity="null" fill-opacity="null" x1="282.5" y1="321" x2="282.5" y2="354" id="svg_25" stroke-linejoin="null" stroke-linecap="null" stroke="#000"/>
  <line fill="none" stroke-width="1.5" stroke-opacity="null" fill-opacity="null" x1="294.5" y1="321" x2="294.5" y2="354" id="svg_26" stroke-linejoin="null" stroke-linecap="null" stroke="#000"/>
  <line fill="none" stroke-width="1.5" stroke-opacity="null" fill-opacity="null" x1="307.5" y1="321" x2="307.5" y2="354" id="svg_27" stroke-linejoin="null" stroke-linecap="null" stroke="#000"/>
  <text fill="#000000" stroke="#000" stroke-width="0" stroke-opacity="null" fill-opacity="null" x="213.5" y="339" id="svg_29" font-size="24" font-family="Helvetica, Arial, sans-serif" text-anchor="start" xml:space="preserve">......</text>
  <text fill="#000000" stroke-width="0" stroke-opacity="null" fill-opacity="null" x="178.732781" y="263.692302" id="svg_30" font-size="24" font-family="Helvetica, Arial, sans-serif" text-anchor="start" xml:space="preserve" transform="matrix(-0.4489313193304109,0,0,0.7090908885002135,202.90583194488812,129.61819106340408) " stroke="#000">0</text>
  <text fill="#000000" stroke-width="0" stroke-opacity="null" fill-opacity="null" x="320.274194" y="263.512815" id="svg_31" font-size="24" font-family="Helvetica, Arial, sans-serif" text-anchor="start" xml:space="preserve" transform="matrix(0.3629976511001587,0,0,0.7090908885002136,195.24121993780136,129.74546372890472) " stroke="#000">63</text>
  <text fill="#000000" stroke-width="0" stroke-opacity="null" fill-opacity="null" x="154.708746" y="40.172393" id="svg_32" font-size="29" font-family="Helvetica, Arial, sans-serif" text-anchor="start" xml:space="preserve" transform="matrix(0.6819311380386353,0,0,0.5272727012634277,65.99928885698318,209.4181933403015) " stroke="#000">shift = 0</text>
  <text fill="#000000" stroke-width="0" stroke-opacity="null" fill-opacity="null" x="153.242322" y="142.586191" id="svg_33" font-size="29" font-family="Helvetica, Arial, sans-serif" text-anchor="start" xml:space="preserve" transform="matrix(0.6819311380386353,0,0,0.5272727012634277,65.99928885698318,209.4181933403015) " stroke="#000">count = 2</text>
  <text fill="#000000" stroke-width="0" stroke-opacity="null" fill-opacity="null" x="151.775898" y="87.586188" id="svg_34" font-size="29" font-family="Helvetica, Arial, sans-serif" text-anchor="start" xml:space="preserve" transform="matrix(0.6819311380386353,0,0,0.5272727012634277,65.99928885698318,209.4181933403015) " stroke="#000">offset = 0</text>
  <text fill="#000000" stroke-width="0" stroke-opacity="null" fill-opacity="null" x="148.843051" y="-14.82761" id="svg_35" font-size="29" font-family="Helvetica, Arial, sans-serif" text-anchor="start" xml:space="preserve" transform="matrix(0.6819311380386353,0,0,0.5272727012634277,65.99928885698318,209.4181933403015) " stroke="#000">parent=NULL</text>
  <line fill="none" stroke-width="1.5" stroke-opacity="null" fill-opacity="null" x1="256.5" y1="108" x2="358.5" y2="108" id="svg_37" stroke-linejoin="null" stroke-linecap="null" stroke="#000"/>
  <line fill="none" stroke-width="1.5" stroke-opacity="null" fill-opacity="null" x1="358.5" y1="108" x2="358.5" y2="181.000002" id="svg_38" stroke-linejoin="null" stroke-linecap="null" stroke="#000"/>
  <line fill="none" stroke="#000" stroke-width="1.5" stroke-opacity="null" fill-opacity="null" x1="322.5" y1="182" x2="359.5" y2="182" id="svg_40" stroke-linejoin="null" stroke-linecap="null"/>
  <line fill="none" stroke="#000" stroke-width="1.5" stroke-opacity="null" fill-opacity="null" x1="334.5" y1="169" x2="324.5" y2="181" id="svg_42" stroke-linejoin="null" stroke-linecap="null"/>
  <line fill="none" stroke="#000" stroke-width="1.5" stroke-opacity="null" fill-opacity="null" x1="324.5" y1="182" x2="337.5" y2="194" id="svg_43" stroke-linejoin="null" stroke-linecap="null"/>
  <rect fill="#fff" stroke="#000" stroke-width="1.5" stroke-opacity="null" fill-opacity="null" x="113.5" y="470" width="77" height="48" id="svg_45"/>
  <text fill="#000000" stroke-width="0" stroke-opacity="null" fill-opacity="null" x="158.626237" y="496.140904" id="svg_46" font-size="29" font-family="Helvetica, Arial, sans-serif" text-anchor="start" xml:space="preserve" transform="matrix(0.6055813931309899,0,0,0.6436275777994638,36.41488395025564,177.5287481473248) " stroke="#000">page</text>
  <rect fill="#fff" stroke="#000" stroke-width="1.5" stroke-opacity="null" fill-opacity="null" x="241.5" y="470" width="77" height="48" id="svg_47"/>
  <text fill="#000000" stroke-width="0" stroke-opacity="null" fill-opacity="null" x="369.993365" y="496.140904" id="svg_48" font-size="29" font-family="Helvetica, Arial, sans-serif" text-anchor="start" xml:space="preserve" transform="matrix(0.6055813931309899,0,0,0.6436275777994638,36.41488395025564,177.5287481473248) " stroke="#000">page</text>
  <line fill="none" stroke="#000" stroke-width="null" stroke-opacity="null" fill-opacity="null" x1="119.5" y1="349" x2="119.5" y2="468" id="svg_54" stroke-linejoin="null" stroke-linecap="null"/>
  <line fill="none" stroke="#000" stroke-width="null" stroke-opacity="null" fill-opacity="null" x1="262.5" y1="469" x2="262.5" y2="414" id="svg_55" stroke-linejoin="null" stroke-linecap="null"/>
  <line fill="none" stroke="#000" stroke-width="null" stroke-opacity="null" fill-opacity="null" x1="171.5" y1="349" x2="171.5" y2="413" id="svg_56" stroke-linejoin="null" stroke-linecap="null"/>
  <line fill="none" stroke="#000" stroke-width="null" stroke-opacity="null" fill-opacity="null" x1="262.5" y1="414" x2="170.5" y2="413" id="svg_57" stroke-linejoin="null" stroke-linecap="null"/>
  <path fill="none" stroke="#000" stroke-width="null" stroke-opacity="null" fill-opacity="null" id="svg_58" d="m106.5,458c0,0 1,0 1,1c0,0 0.29289,-0.70709 1,0c0.70711,0.70709 1,1 1,1c0,1 0.29289,0.29291 1,1c0.70711,0.70709 -0.70711,1.29291 0,2c0.70711,0.70709 1,0 1,0c0,0 1,1 1,1c0,0 0,0 0,0c1,0 1,1 1,1c0,0 0,0 0,0c1,1 1,1 1,1c0,0 0.29289,-0.70709 1,0c0.70711,0.70709 0,1 0,1c1,0 1,0 1,0c0,1 0,1 1,1c0,0 0,0 0,0c1,0 1,0 1,0c0,0 0,0 0,0c1,-1 1,-1 1,-1c1,-1 1,-1 2,-2c0,0 0.61732,-0.07611 1,-1c0.5412,-1.30655 1.07612,-0.61731 2,-1c1.30656,-0.5412 1,-1 2,-1c0,0 1,-1 1,-1c1,0 1,0 1,0c1,0 1,0 1,0c0,-1 0,-1 0,-1c-1,0 -1,0 -1,0l0,1"/>
  <path fill="none" stroke="#000" stroke-width="null" stroke-opacity="null" fill-opacity="null" id="svg_59" d="m250.5,457c1,0 1.29289,0.29291 2,1c0.70711,0.70709 1,1 1,1c0,1 1,1 1,1c0,1 1,1 1,1c0,1 0,1 1,1c0,0 0,1 1,1c0,0 0,0 0,0c0,1 1,1 1,1c0,0 -0.70709,0.29291 0,1c0.70709,0.70709 1,0 1,0c0,0 1,0 1,0c0,0 0,1 1,1c0,0 0,0 0,0c0,0 0,1 1,1c0,0 0,0 0,0c0,0 0.29291,0.70709 1,0c0.70709,-0.70709 0,-1 0,-1c0,-1 0.29291,-0.29291 1,-1c0.70709,-0.70709 0,-1 1,-1c0,0 0,-1 1,-1c0,0 1,-1 1,-1c0,0 1,0 1,0c0,0 0,-1 1,-1c0,0 0,0 1,0c0,0 0,0 0,0c1,-1 1,-1 1,-1c1,0 1,0 1,0c1,-1 1,-1 1,-1c0,0 1,0 1,-1c0,0 1,0 1,0c0,0 0,0 1,-1c0,0 0,0 0,0c0,0 1,0 1,0l0,0"/>
  <text fill="#000000" stroke-width="0" stroke-opacity="null" fill-opacity="null" x="107.40373" y="819.474366" id="svg_62" font-size="24" font-family="Helvetica, Arial, sans-serif" text-anchor="start" xml:space="preserve" transform="matrix(0.7440584897994995,0,0,0.5986321475458175,35.95978218317032,63.30845334213714) " stroke="#000">index=0</text>
  <text fill="#000000" stroke-width="0" stroke-opacity="null" fill-opacity="null" x="307.656804" y="817.803891" id="svg_63" font-size="24" font-family="Helvetica, Arial, sans-serif" text-anchor="start" xml:space="preserve" transform="matrix(0.7440584897994995,0,0,0.5986321475458175,35.95978218317032,63.30845334213714) " stroke="#000">index=4</text>
  <text fill="#000000" stroke="#000" stroke-width="0" stroke-opacity="null" fill-opacity="null" x="138.5" y="590" id="svg_64" font-size="24" font-family="Helvetica, Arial, sans-serif" text-anchor="start" xml:space="preserve">深度为1的基树</text>
  <text style="cursor: move;" fill="#000000" stroke-width="0" stroke-opacity="null" fill-opacity="null" x="32.14083" y="596.139656" id="svg_8" font-size="24" font-family="Helvetica, Arial, sans-serif" text-anchor="start" xml:space="preserve" transform="matrix(0.7440584897994995,0,0,0.6000000238418579,35.95978218317032,63.19999623298645) " stroke="#000">slots[0]</text>
  <text style="cursor: move;" fill="#000000" stroke-width="0" stroke-opacity="null" fill-opacity="null" x="314.376706" y="614.472989" id="svg_9" font-size="24" font-family="Helvetica, Arial, sans-serif" text-anchor="start" xml:space="preserve" transform="matrix(0.7440584897994995,0,0,0.6000000238418579,35.95978218317032,63.19999623298645) " stroke="#000">slots[4]</text>
  <text style="cursor: move;" fill="#000000" stroke-width="0" stroke-opacity="null" fill-opacity="null" x="39.574075" y="186.034236" id="svg_10" font-size="24" font-family="Helvetica, Arial, sans-serif" text-anchor="start" xml:space="preserve" transform="matrix(0.6592779159545898,0,0,0.8545454740524291,79.45029401779175,11.509090304374695) " stroke="#000">radix_tree_node</text>
 </g>
</svg>