<svg width="740" height="359" xmlns="http://www.w3.org/2000/svg">
 <!-- Created with Method Draw - http://github.com/duopixel/Method-Draw/ -->
 <g>
  <title>background</title>
  <rect fill="#fff" id="canvas_background" height="361" width="742" y="-1" x="-1"/>
  <g display="none" overflow="visible" y="0" x="0" height="100%" width="100%" id="canvasGrid">
   <rect fill="url(#gridpattern)" stroke-width="0" y="0" x="0" height="100%" width="100%"/>
  </g>
 </g>
 <g>
  <title>Layer 1</title>
  <rect stroke="#000" id="svg_1" height="173.333192" width="81.333267" y="15.236522" x="4.749998" stroke-width="1.5" fill="#fff"/>
  <rect stroke="#000000" id="svg_2" height="23.99998" width="80.6666" y="91.236459" x="4.749996" stroke-width="1.5" fill="#ff0000"/>
  <text style="cursor: move;" stroke="#000" transform="matrix(0.6328623890876768,0,0,0.59687593546386,22.472428262233734,36.94467852304838) " xml:space="preserve" text-anchor="start" font-family="Helvetica, Arial, sans-serif" font-size="15" id="svg_3" y="-48.357393" x="-30.110598" fill-opacity="null" stroke-opacity="null" stroke-width="0" fill="#000000">cgroup</text>
  <text xml:space="preserve" text-anchor="start" font-family="Helvetica, Arial, sans-serif" font-size="15" id="svg_4" y="107.903113" x="15.416656" fill-opacity="null" stroke-opacity="null" stroke-width="0" stroke="#000" fill="#000000">css_sets</text>
  <rect stroke="#000" id="svg_5" height="94.666593" width="97.333254" y="43.236497" x="120.083243" fill-opacity="null" stroke-opacity="null" stroke-width="1.5" fill="#fff"/>
  <line stroke="#000" stroke-linecap="null" stroke-linejoin="null" id="svg_8" y2="67.903144" x2="216.083162" y1="67.903144" x1="120.083243" fill-opacity="null" stroke-opacity="null" stroke-width="1.5" fill="none"/>
  <line stroke="#000" stroke-linecap="null" stroke-linejoin="null" id="svg_9" y2="92.56979" x2="215.4165" y1="91.903124" x1="120.083243" fill-opacity="null" stroke-opacity="null" stroke-width="1.5" fill="none"/>
  <line stroke="#000" stroke-linecap="null" stroke-linejoin="null" id="svg_10" y2="115.236438" x2="216.083166" y1="114.569772" x1="120.083243" fill-opacity="null" stroke-opacity="null" stroke-width="1.5" fill="none"/>
  <text xml:space="preserve" text-anchor="start" font-family="Helvetica, Arial, sans-serif" font-size="15" id="svg_11" y="107.903113" x="126.749902" fill-opacity="null" stroke-opacity="null" stroke-width="0" stroke="#000" fill="#000000">cgrp_link_list</text>
  <text style="cursor: move;" xml:space="preserve" text-anchor="start" font-family="Helvetica, Arial, sans-serif" font-size="15" id="svg_12" y="83.236466" x="151.416556" fill-opacity="null" stroke-opacity="null" stroke-width="0" stroke="#000" fill="#000000">cgrp</text>
  <text style="cursor: move;" xml:space="preserve" text-anchor="start" font-family="Helvetica, Arial, sans-serif" font-size="15" id="svg_13" y="129.903094" x="150.083216" fill-opacity="null" stroke-opacity="null" stroke-width="0" stroke="#000" fill="#000000">cg</text>
  <text style="cursor: move;" xml:space="preserve" text-anchor="start" font-family="Helvetica, Arial, sans-serif" font-size="15" id="svg_14" y="60.569818" x="127.416569" fill-opacity="null" stroke-opacity="null" stroke-width="0" stroke="#000" fill="#000000">cg_link_list</text>
  <text stroke="#000" transform="matrix(0.5771001577377319,0,0,0.5767962336540221,110.93852268345654,27.258169869892296) " xml:space="preserve" text-anchor="start" font-family="Helvetica, Arial, sans-serif" font-size="15" id="svg_15" y="12.795219" x="23.928468" fill-opacity="null" stroke-opacity="null" stroke-width="0" fill="#000000">cg_cgroup_link</text>
  <rect stroke="#000" id="svg_16" height="94.666593" width="97.333254" y="43.236497" x="241.416471" fill-opacity="null" stroke-opacity="null" stroke-width="1.5" fill="#fff"/>
  <line stroke="#000" stroke-linecap="null" stroke-linejoin="null" id="svg_17" y2="67.903144" x2="337.416391" y1="67.903144" x1="241.416471" fill-opacity="null" stroke-opacity="null" stroke-width="1.5" fill="none"/>
  <line stroke="#000" stroke-linecap="null" stroke-linejoin="null" id="svg_18" y2="92.56979" x2="336.749729" y1="91.903124" x1="241.416471" fill-opacity="null" stroke-opacity="null" stroke-width="1.5" fill="none"/>
  <line stroke="#000" stroke-linecap="null" stroke-linejoin="null" id="svg_19" y2="115.236438" x2="337.416394" y1="114.569772" x1="241.416471" fill-opacity="null" stroke-opacity="null" stroke-width="1.5" fill="none"/>
  <text xml:space="preserve" text-anchor="start" font-family="Helvetica, Arial, sans-serif" font-size="15" id="svg_20" y="107.236447" x="247.416465" fill-opacity="null" stroke-opacity="null" stroke-width="0" stroke="#000" fill="#000000">cgrp_link_list</text>
  <text style="cursor: move;" xml:space="preserve" text-anchor="start" font-family="Helvetica, Arial, sans-serif" font-size="15" id="svg_21" y="83.236466" x="272.749785" fill-opacity="null" stroke-opacity="null" stroke-width="0" stroke="#000" fill="#000000">cgrp</text>
  <text style="cursor: move;" xml:space="preserve" text-anchor="start" font-family="Helvetica, Arial, sans-serif" font-size="15" id="svg_22" y="129.903094" x="271.416445" fill-opacity="null" stroke-opacity="null" stroke-width="0" stroke="#000" fill="#000000">cg</text>
  <text style="cursor: move;" xml:space="preserve" text-anchor="start" font-family="Helvetica, Arial, sans-serif" font-size="15" id="svg_23" y="60.569818" x="248.749797" fill-opacity="null" stroke-opacity="null" stroke-width="0" stroke="#000" fill="#000000">cg_link_list</text>
  <text stroke="#000" transform="matrix(0.5771001577377319,0,0,0.5767962336540221,110.93852268345654,27.258169869892296) " xml:space="preserve" text-anchor="start" font-family="Helvetica, Arial, sans-serif" font-size="15" id="svg_24" y="12.795219" x="234.174865" fill-opacity="null" stroke-opacity="null" stroke-width="0" fill="#000000">cg_cgroup_link</text>
  <rect stroke="#000" id="svg_25" height="94.666593" width="97.333254" y="43.236497" x="358.083044" fill-opacity="null" stroke-opacity="null" stroke-width="1.5" fill="#fff"/>
  <line stroke="#000" stroke-linecap="null" stroke-linejoin="null" id="svg_26" y2="67.903144" x2="454.082964" y1="67.903144" x1="358.083044" fill-opacity="null" stroke-opacity="null" stroke-width="1.5" fill="none"/>
  <line stroke="#000" stroke-linecap="null" stroke-linejoin="null" id="svg_27" y2="92.56979" x2="453.416302" y1="91.903124" x1="358.083044" fill-opacity="null" stroke-opacity="null" stroke-width="1.5" fill="none"/>
  <line stroke="#000" stroke-linecap="null" stroke-linejoin="null" id="svg_28" y2="115.236438" x2="454.082968" y1="114.569772" x1="358.083044" fill-opacity="null" stroke-opacity="null" stroke-width="1.5" fill="none"/>
  <text xml:space="preserve" text-anchor="start" font-family="Helvetica, Arial, sans-serif" font-size="15" id="svg_29" y="107.236447" x="365.41637" fill-opacity="null" stroke-opacity="null" stroke-width="0" stroke="#000" fill="#000000">cgrp_link_list</text>
  <text style="cursor: move;" stroke="#000" xml:space="preserve" text-anchor="start" font-family="Helvetica, Arial, sans-serif" font-size="15" id="svg_30" y="83.236466" x="389.416358" fill-opacity="null" stroke-opacity="null" stroke-width="0" fill="#000000">cgrp</text>
  <text style="cursor: move;" xml:space="preserve" text-anchor="start" font-family="Helvetica, Arial, sans-serif" font-size="15" id="svg_31" y="129.903094" x="388.083018" fill-opacity="null" stroke-opacity="null" stroke-width="0" stroke="#000" fill="#000000">cg</text>
  <text style="cursor: move;" xml:space="preserve" text-anchor="start" font-family="Helvetica, Arial, sans-serif" font-size="15" id="svg_32" y="60.569818" x="365.41637" fill-opacity="null" stroke-opacity="null" stroke-width="0" stroke="#000" fill="#000000">cg_link_list</text>
  <text stroke="#000" transform="matrix(0.5771001577377319,0,0,0.5767962336540221,110.93852268345654,27.258169869892296) " xml:space="preserve" text-anchor="start" font-family="Helvetica, Arial, sans-serif" font-size="15" id="svg_33" y="12.795219" x="436.334874" fill-opacity="null" stroke-opacity="null" stroke-width="0" fill="#000000">cg_cgroup_link</text>
  <rect stroke="#000" id="svg_34" height="94.666593" width="97.333254" y="43.236497" x="479.416273" fill-opacity="null" stroke-opacity="null" stroke-width="1.5" fill="#fff"/>
  <line stroke="#000" stroke-linecap="null" stroke-linejoin="null" id="svg_35" y2="67.903144" x2="575.416192" y1="67.903144" x1="479.416273" fill-opacity="null" stroke-opacity="null" stroke-width="1.5" fill="none"/>
  <line stroke="#000" stroke-linecap="null" stroke-linejoin="null" id="svg_36" y2="92.56979" x2="574.749531" y1="91.903124" x1="479.416273" fill-opacity="null" stroke-opacity="null" stroke-width="1.5" fill="none"/>
  <line stroke="#000" stroke-linecap="null" stroke-linejoin="null" id="svg_37" y2="115.236438" x2="575.416196" y1="114.569772" x1="479.416273" fill-opacity="null" stroke-opacity="null" stroke-width="1.5" fill="none"/>
  <text xml:space="preserve" text-anchor="start" font-family="Helvetica, Arial, sans-serif" font-size="15" id="svg_38" y="105.903115" x="485.416266" fill-opacity="null" stroke-opacity="null" stroke-width="0" stroke="#000" fill="#000000">cgrp_link_list</text>
  <text style="cursor: move;" xml:space="preserve" text-anchor="start" font-family="Helvetica, Arial, sans-serif" font-size="15" id="svg_39" y="83.236466" x="510.749586" fill-opacity="null" stroke-opacity="null" stroke-width="0" stroke="#000" fill="#000000">cgrp</text>
  <text style="cursor: move;" xml:space="preserve" text-anchor="start" font-family="Helvetica, Arial, sans-serif" font-size="15" id="svg_40" y="129.903094" x="509.416247" fill-opacity="null" stroke-opacity="null" stroke-width="0" stroke="#000" fill="#000000">cg</text>
  <text style="cursor: move;" xml:space="preserve" text-anchor="start" font-family="Helvetica, Arial, sans-serif" font-size="15" id="svg_41" y="60.569818" x="486.082933" fill-opacity="null" stroke-opacity="null" stroke-width="0" stroke="#000" fill="#000000">cg_link_list</text>
  <text stroke="#000" transform="matrix(0.5771001577377319,0,0,0.5767962336540221,110.93852268345654,27.258169869892296) " xml:space="preserve" text-anchor="start" font-family="Helvetica, Arial, sans-serif" font-size="15" id="svg_42" y="12.795219" x="646.58127" fill-opacity="null" stroke-opacity="null" stroke-width="0" fill="#000000">cg_cgroup_link</text>
  <rect stroke="#000" id="svg_52" height="94.666593" width="97.333254" y="43.236497" x="598.08284" fill-opacity="null" stroke-opacity="null" stroke-width="1.5" fill="#fff"/>
  <line stroke="#000" stroke-linecap="null" stroke-linejoin="null" id="svg_53" y2="67.903144" x2="694.08276" y1="67.903144" x1="598.082841" fill-opacity="null" stroke-opacity="null" stroke-width="1.5" fill="none"/>
  <line stroke="#000" stroke-linecap="null" stroke-linejoin="null" id="svg_54" y2="92.56979" x2="693.416098" y1="91.903124" x1="598.082841" fill-opacity="null" stroke-opacity="null" stroke-width="1.5" fill="none"/>
  <line stroke="#000" stroke-linecap="null" stroke-linejoin="null" id="svg_55" y2="115.236438" x2="694.082764" y1="114.569772" x1="598.08284" fill-opacity="null" stroke-opacity="null" stroke-width="1.5" fill="none"/>
  <text style="cursor: move;" xml:space="preserve" text-anchor="start" font-family="Helvetica, Arial, sans-serif" font-size="15" id="svg_56" y="105.903115" x="608.749497" fill-opacity="null" stroke-opacity="null" stroke-width="0" stroke="#000" fill="#000000">cgrp_link_list</text>
  <text stroke="#000" xml:space="preserve" text-anchor="start" font-family="Helvetica, Arial, sans-serif" font-size="15" id="svg_57" y="83.236466" x="629.416154" fill-opacity="null" stroke-opacity="null" stroke-width="0" fill="#000000">cgrp</text>
  <text style="cursor: move;" xml:space="preserve" text-anchor="start" font-family="Helvetica, Arial, sans-serif" font-size="15" id="svg_58" y="129.903094" x="628.082814" fill-opacity="null" stroke-opacity="null" stroke-width="0" stroke="#000" fill="#000000">cg</text>
  <text style="cursor: move;" xml:space="preserve" text-anchor="start" font-family="Helvetica, Arial, sans-serif" font-size="15" id="svg_59" y="60.569818" x="605.416167" fill-opacity="null" stroke-opacity="null" stroke-width="0" stroke="#000" fill="#000000">cg_link_list</text>
  <text stroke="#000" transform="matrix(0.5771001577377319,0,0,0.5767962336540221,110.93852268345654,27.258169869892296) " xml:space="preserve" text-anchor="start" font-family="Helvetica, Arial, sans-serif" font-size="15" id="svg_60" y="12.795219" x="852.206873" fill-opacity="null" stroke-opacity="null" stroke-width="0" fill="#000000">cg_cgroup_link</text>
  <path stroke="#000000" id="svg_65" d="m83.233256,106.193999l11.21012,-4.666687l0,2.333337l16.246396,0l0,-2.333337l11.210115,4.666687l-11.210115,4.666662l0,-2.333331l-16.246396,0l0,2.333331l-11.21012,-4.666662z" fill-opacity="null" stroke-opacity="null" stroke-width="1.5" fill="#ffff56"/>
  <path stroke="#000000" id="svg_66" d="m215.899814,106.527336l7.344559,-5.000022l0,2.500004l10.644183,0l0,-2.500004l7.344559,5.000022l-7.344559,4.999995l0,-2.499997l-10.644183,0l0,2.499997l-7.344559,-4.999995z" fill-opacity="null" stroke-opacity="null" stroke-width="1.5" fill="#ffff56"/>
  <path id="svg_68" d="m336.969714,104.620652l6.571442,-4.333341l0,2.166665l9.523739,0l0,-2.166665l6.571439,4.333341l-6.571439,4.333318l0,-2.166659l-9.523739,0l0,2.166659l-6.571442,-4.333318z" stroke-opacity="null" stroke-width="1.5" stroke="#000" fill="#ffff00"/>
  <path id="svg_70" d="m454.969623,103.953984l6.57144,-4.33334l0,2.16667l9.52374,0l0,-2.16667l6.57144,4.33334l-6.57144,4.33332l0,-2.16666l-9.52374,0l0,2.16666l-6.57144,-4.33332z" stroke-opacity="null" stroke-width="1.5" stroke="#000" fill="#ffff00"/>
  <path id="svg_71" d="m574.302855,103.287314l6.57144,-4.33334l0,2.16667l9.52374,0l0,-2.16667l6.57144,4.33334l-6.57144,4.33332l0,-2.16666l-9.52374,0l0,2.16666l-6.57144,-4.33332z" stroke-opacity="null" stroke-width="1.5" stroke="#000" fill="#ffff00"/>
  <rect stroke="#000000" id="svg_73" height="58.666608" width="35.999974" y="189.903048" x="128.083231" stroke-opacity="null" stroke-width="1.5" fill="#ffffff"/>
  <text stroke="#000" transform="matrix(0.5771001577377319,0,0,0.5767962336540221,110.93852268345654,27.258169869892296) " xml:space="preserve" text-anchor="start" font-family="Helvetica, Arial, sans-serif" font-size="15" id="svg_74" y="265.917329" x="37.790871" fill-opacity="null" stroke-opacity="null" stroke-width="0" fill="#000000">css_set</text>
  <line stroke-linecap="null" stroke-linejoin="null" id="svg_75" y2="209.903027" x2="164.083199" y1="209.903027" x1="127.416562" fill-opacity="null" stroke-opacity="null" stroke-width="1.5" stroke="#000000" fill="none"/>
  <line stroke-linecap="null" stroke-linejoin="null" id="svg_76" y2="225.236348" x2="163.416532" y1="225.236348" x1="128.083228" fill-opacity="null" stroke-opacity="null" stroke-width="1.5" stroke="#000000" fill="none"/>
  <text stroke="#000" transform="matrix(0.44792463928113335,0,0,0.5493195371931135,119.60579997385338,36.85573046715291) " xml:space="preserve" text-anchor="start" font-family="Helvetica, Arial, sans-serif" font-size="15" id="svg_77" y="332.482885" x="32.80276" fill-opacity="null" stroke-opacity="null" stroke-width="0" fill="#000000">tasks</text>
  <path d="m146.08321,129.23642c0,0 -0.666656,0 -0.666656,0c-0.666672,0 -2,0 -2,0c-0.666672,0 -1.333344,0 -2,0c-0.666672,0 -1.128952,0.305878 -2,0.666672c-0.615921,0.255127 -0.462296,0.305878 -1.333328,0.666672c-0.615921,0.255127 -1.384094,0.411545 -2,0.666656c-0.871048,0.360794 -1.457352,1.128372 -2.666672,2c-0.764847,0.55127 -2,1.333328 -2.666656,2c-0.666672,0.666672 -2,1.333328 -2.666672,2c-0.666656,0.666672 -2.305862,1.128952 -2.666656,2c-0.255127,0.615921 -0.195282,0.861938 -0.666672,1.333328c-0.471405,0.471405 -0.861938,0.195282 -1.333328,0.666672c-0.47139,0.47139 -0.195267,0.861923 -0.666672,1.333328c-0.471405,0.471405 0,1.333328 0,1.333328c-0.666672,0.666672 -0.666672,0.666672 -0.666672,1.333344c0,0.666656 -0.666656,0.666656 -0.666656,1.333328c0,0.666656 -0.513504,1.351166 -0.666672,2c-0.342484,1.450821 -0.972534,2.46228 -1.333328,3.333328c-0.255112,0.615906 0,1.333328 -0.666672,2c0,0 0,0.666656 0,1.333328c0,0 0,0.666672 0,0.666672c0,0.666656 0,0.666656 0,1.333328c0,0.666672 0,0.666672 0,0.666672c0,0.666656 0,0.666656 0,1.333328c0,0.666656 -0.255127,0.717407 0,1.333328c0.360794,0.871048 0.666672,0.666672 0.666672,1.333328c0,0.666672 0.195267,0.861938 0.666672,1.333344c0.47139,0.47139 0,1.333328 0,1.333328c0,0.666656 0,0.666656 0,1.333328c0,0.666672 0.305862,0.462296 0.666656,1.333328c0.255127,0.615921 0,0.666672 0,1.333344c0,0 0,0.666656 0,1.333328c0,0 0,0.666672 0,0.666672c0,0.666656 0.666672,0.666656 0.666672,1.333328c0,0 0,0 0,0.666656c0,0 0,0 0,0.666672c0,0 0.666656,0 0.666656,0.666672c0,0 0,0 0,0.666656c0,0 0.666672,0 0.666672,0.666672c0,0 0,0 0,0c0,0.666672 0,0.666672 0,0.666672c0.666672,0.666656 0.666672,0.666656 0.666672,1.333328c0,0 0.666656,0.666656 0.666656,0.666656c0,0 0.666672,0.666672 0.666672,0.666672c0,0.666672 0,0.666672 0.666672,1.333328c0,0 0,0.666672 0.666656,1.333344c0,0 0.666672,0.666656 0.666672,0.666656c0,0.666672 0,0.666672 0.666672,1.333344c0,0 0,0 0,0c0,0.666656 0,0.666656 0.666656,1.333328c0,0 0,0 0,0c0,0.666656 0,0.666656 0,0.666656c0.666672,0 0.666672,0.666672 0.666672,0.666672c0,0 0,0 0,0.666672l0,-0.666672l0,0" id="svg_82" fill-opacity="null" stroke-opacity="null" stroke-width="1.5" stroke="#000000" fill="none"/>
  <path d="m120.749897,185.236374c0,0 0,0 0.666672,0c0,0 0.666656,0 0.666656,0c0.666672,0 1.333344,0 1.333344,0c0.666656,0 1.333328,0 1.333328,0c0.666672,0 0.666672,0 1.333328,0.666672c0,0 0,0 0.666672,0c0,0 0,0 0,0c0,0 0.666672,0 0.666672,0c0,0 0,0 0,0c0.666656,0 0.666656,0 0.666656,0c0,-0.666672 0,-0.666672 0,-0.666672c0,0 0,-0.666656 0,-0.666656c0,0 0,0 0,-0.666672c0,0 0,0 0,0c0,-0.666656 0,-0.666656 0,-0.666656c0,0 0,-0.666672 0,-0.666672c0,0 0,0 0,-0.666672c0,0 0,0 0,-0.666656c0,0 0,0 0,0c0,0 0,-0.666672 0,-0.666672c0,0 0,0 0,-0.666672c0,0 0,0 0,0c0,-0.666656 0,-0.666656 0,-0.666656c0,0 0,-0.666672 0,-0.666672c0,0 0,0 0,-0.666672c0,0 0.666672,0 0.666672,0c0,-0.666656 0,-0.666656 0,-0.666656c0,0 0,-0.666672 0,-0.666672c0.666656,0 0.666656,0 0.666656,-0.666656c0,0 0.666672,0 0.666672,-0.666672c0,0 0,0 0,0c0,0 0.666672,-0.666672 0.666672,-0.666672c0,0 0,-0.666656 0,-0.666656l0,0l0,0l0,-0.666672" id="svg_83" fill-opacity="null" stroke-opacity="null" stroke-width="1.5" stroke="#000000" fill="none"/>
  <text xml:space="preserve" text-anchor="start" font-family="Helvetica, Arial, sans-serif" font-size="15" id="svg_148" y="102.569781" x="718.749414" stroke-opacity="null" stroke-width="0" stroke="#000000" fill="#000000">.....</text>
  <rect stroke="#000000" id="svg_149" height="58.666608" width="35.999974" y="297.236292" x="59.41662" stroke-opacity="null" stroke-width="1.5" fill="#ffffff"/>
  <line stroke-linecap="null" stroke-linejoin="null" id="svg_150" y2="317.236271" x2="95.416588" y1="317.236271" x1="58.749951" fill-opacity="null" stroke-opacity="null" stroke-width="1.5" stroke="#000000" fill="none"/>
  <line stroke-linecap="null" stroke-linejoin="null" id="svg_151" y2="332.569592" x2="94.749922" y1="332.569592" x1="59.416617" fill-opacity="null" stroke-opacity="null" stroke-width="1.5" stroke="#000000" fill="none"/>
  <text style="cursor: move;" stroke="#000" transform="matrix(0.44792463928113335,0,0,0.5493195371931135,119.60579997385338,36.85573046715291) " xml:space="preserve" text-anchor="start" font-family="Helvetica, Arial, sans-serif" font-size="15" id="svg_152" y="526.662358" x="-121.985057" fill-opacity="null" stroke-opacity="null" stroke-width="0" fill="#000000">cg_list</text>
  <text stroke="#000" transform="matrix(0.5771001577377319,0,0,0.5767962336540221,110.93852268345654,27.258169869892296) " xml:space="preserve" text-anchor="start" font-family="Helvetica, Arial, sans-serif" font-size="15" id="svg_153" y="452.002538" x="-86.97073" fill-opacity="null" stroke-opacity="null" stroke-width="0" fill="#000000">task_struct</text>
  <rect stroke="#000000" id="svg_154" height="58.666608" width="35.999974" y="297.236292" x="112.74991" stroke-opacity="null" stroke-width="1.5" fill="#ffffff"/>
  <line stroke-linecap="null" stroke-linejoin="null" id="svg_155" y2="317.236271" x2="148.749878" y1="317.236271" x1="112.083241" fill-opacity="null" stroke-opacity="null" stroke-width="1.5" stroke="#000000" fill="none"/>
  <line stroke-linecap="null" stroke-linejoin="null" id="svg_156" y2="332.569592" x2="148.083212" y1="332.569592" x1="112.749907" fill-opacity="null" stroke-opacity="null" stroke-width="1.5" stroke="#000000" fill="none"/>
  <text style="cursor: move;" stroke="#000" transform="matrix(0.44792463928113335,0,0,0.5493195371931135,119.60579997385338,36.85573046715291) " xml:space="preserve" text-anchor="start" font-family="Helvetica, Arial, sans-serif" font-size="15" id="svg_157" y="527.875979" x="-1.429161" fill-opacity="null" stroke-opacity="null" stroke-width="0" fill="#000000">cg_list</text>
  <text stroke="#000" transform="matrix(0.5771001577377319,0,0,0.5767962336540221,110.93852268345654,27.258169869892296) " xml:space="preserve" text-anchor="start" font-family="Helvetica, Arial, sans-serif" font-size="15" id="svg_158" y="452.002538" x="5.445274" fill-opacity="null" stroke-opacity="null" stroke-width="0" fill="#000000">task_struct</text>
  <rect stroke="#000000" id="svg_159" height="58.666608" width="35.999974" y="297.902959" x="164.749864" stroke-opacity="null" stroke-width="1.5" fill="#ffffff"/>
  <line stroke-linecap="null" stroke-linejoin="null" id="svg_160" y2="317.902937" x2="200.749832" y1="317.902937" x1="164.083195" fill-opacity="null" stroke-opacity="null" stroke-width="1.5" stroke="#000000" fill="none"/>
  <line stroke-linecap="null" stroke-linejoin="null" id="svg_161" y2="333.236258" x2="200.083166" y1="333.236258" x1="164.749862" fill-opacity="null" stroke-opacity="null" stroke-width="1.5" stroke="#000000" fill="none"/>
  <text style="cursor: move;" stroke="#000" transform="matrix(0.44792463928113335,0,0,0.5493195371931135,119.60579997385338,36.85573046715291) " xml:space="preserve" text-anchor="start" font-family="Helvetica, Arial, sans-serif" font-size="15" id="svg_162" y="529.089601" x="114.661694" fill-opacity="null" stroke-opacity="null" stroke-width="0" fill="#000000">cg_list</text>
  <text stroke="#000" transform="matrix(0.5771001577377319,0,0,0.5767962336540221,110.93852268345654,27.258169869892296) " xml:space="preserve" text-anchor="start" font-family="Helvetica, Arial, sans-serif" font-size="15" id="svg_163" y="453.158347" x="95.550871" fill-opacity="null" stroke-opacity="null" stroke-width="0" fill="#000000">task_struct</text>
  <rect stroke="#000000" id="svg_164" height="58.666608" width="35.999974" y="297.902959" x="216.749822" stroke-opacity="null" stroke-width="1.5" fill="#ffffff"/>
  <line stroke-linecap="null" stroke-linejoin="null" id="svg_165" y2="317.902937" x2="254.083122" y1="317.902937" x1="217.416485" fill-opacity="null" stroke-opacity="null" stroke-width="1.5" stroke="#000000" fill="none"/>
  <line stroke-linecap="null" stroke-linejoin="null" id="svg_166" y2="333.236258" x2="253.416456" y1="333.236258" x1="218.083152" fill-opacity="null" stroke-opacity="null" stroke-width="1.5" stroke="#000000" fill="none"/>
  <text style="cursor: move;" stroke="#000" transform="matrix(0.44792463928113335,0,0,0.5493195371931135,119.60579997385338,36.85573046715291) " xml:space="preserve" text-anchor="start" font-family="Helvetica, Arial, sans-serif" font-size="15" id="svg_167" y="529.089601" x="233.729245" fill-opacity="null" stroke-opacity="null" stroke-width="0" fill="#000000">cg_list</text>
  <text stroke="#000" transform="matrix(0.5771001577377319,0,0,0.5767962336540221,110.93852268345654,27.258169869892296) " xml:space="preserve" text-anchor="start" font-family="Helvetica, Arial, sans-serif" font-size="15" id="svg_168" y="453.158347" x="187.966874" fill-opacity="null" stroke-opacity="null" stroke-width="0" fill="#000000">task_struct</text>
  <path d="m126.749897,215.236359c-0.666672,0 -0.666672,0 -0.666672,0c0,0 -0.666656,0 -0.666656,0c0,0 -0.666672,0 -1.333344,0c0,0 -0.666656,0 -0.666656,0c-0.666672,0 -1.333344,0 -2,0c-0.666672,0 -1.333328,0 -2,0c-1.333328,0 -2,0 -3.333328,0c-1.333328,0 -2.683884,0.453079 -4,0.666656c-2.080963,0.337692 -2.666664,1.333344 -4,1.333344c0,0 -1.333328,0 -4.666656,0c-2,0 -5.377426,0.441544 -9.333328,1.333328c-4.734589,1.067322 -7.171402,2.657944 -11.333321,3.333328c-3.290291,0.533936 -6,1.333328 -8,2c-1.999992,0.666672 -4.206665,0.891663 -5.999992,2c-1.604004,0.991333 -4.124001,2.4617 -5.333328,3.333328c-1.529694,1.102539 -2.666664,2 -4,3.333328c-1.333328,1.333328 -2.666664,2 -3.999992,3.333328c-1.333336,1.333344 -2.666679,2.666626 -4.666664,4.666656c-0.666672,0.666687 -2,2 -3.333328,3.333344c-1.333336,1.333344 -1.795033,2.790649 -2.666668,4c-1.102539,1.529694 -2.666656,2.666656 -3.333328,4c-0.66666,1.333313 -1.33334,2 -2,3.333313c-0.666672,1.333344 -1.657505,1.882507 -2,3.333344c-0.306339,1.297668 -0.666664,2.666656 -0.666664,4c0,1.333313 -0.666668,2.666656 -0.666668,4c0,1.333313 -0.666664,3.333313 -0.666664,5.333313c0,1.333344 -0.328972,2.585693 -0.666668,4.666656c-0.213577,1.316132 0,2.666687 0,4c0,1.333344 0,2.666687 0,4.666687c0,1.999969 -0.459503,4.053467 0,5.999969c0.342495,1.450836 0.873829,3.386841 1.333332,5.333344c0.342495,1.450836 0.782066,2.568481 1.333332,3.333313c0.871643,1.20932 0.666672,2.666687 1.333332,4c0.666672,1.333344 0.972534,2.462311 1.333332,3.333344c0.51025,1.231842 0.99564,1.919037 1.333336,4c0.106785,0.658051 0.972534,1.795624 1.333332,2.666656c0.255119,0.615906 0.195267,1.528595 0.666664,2c0.471405,0.471405 0.46228,0.972534 1.333332,1.333344c0.615917,0.255127 1.333332,0.666656 1.999996,1.333313c0,0 0.666664,0 1.333336,0.666687c0.666656,0.666656 1.333328,0.666656 2,0.666656c0,0 0.666664,0.666656 0.666664,0.666656c0.666664,0 0.666664,0 1.333328,0c0,0 0,0 0.666672,0c0,0 0.666664,0 0.666664,0c0.666664,0 0.666664,0.666687 1.333336,0.666687c0,0 0,0 0.666664,0c0,0 0,0 0.666664,0l0,0" id="svg_170" fill-opacity="null" stroke-opacity="null" stroke-width="1.5" stroke="#000000" fill="none"/>
  <path d="m52.083286,313.902939c0.666672,0.666656 0.666664,0.666656 1.333336,1.333344c0.666656,0.666656 1.333336,1.333313 1.333336,1.333313c0.666664,0.666687 0.666664,0.666687 1.333328,1.333344c0,0 0,0 0,0c0,0.666656 0.195244,0.861938 0.666664,1.333344c0.471405,0.471405 1.333336,0.666656 1.333336,1.333313c0,0 0,0 0,0c0,0 0,0 -0.666664,0c0,0 -0.195267,-0.471405 -0.666672,0c-0.47142,0.471405 -0.666664,0.666687 -1.333328,1.333344c0,0 -0.666664,0.666656 -0.666664,0.666656c0,0 0,0 0,0c-0.666672,0.666687 -0.666672,0.666687 -0.666672,0.666687c-0.666664,0 -0.717407,0.41153 -1.333328,0.666656c-0.87104,0.360779 -0.666672,1.333313 -1.333336,2c0,0 -0.666664,0.666656 -0.666664,0.666656l-0.666664,0" id="svg_171" fill-opacity="null" stroke-opacity="null" stroke-width="1.5" stroke="#000000" fill="none"/>
  <path d="m119.416569,209.236359c0.666672,0 0.4617,0.124008 1.333328,1.333328c0.55127,0.764847 1.44873,1.235153 2,2c0.871643,1.209335 1.528595,2.195267 2,2.666672c0.471405,0.471405 0.666672,0.666656 0.666672,0.666656c0.666656,0.666672 0.666656,0.666672 0.666656,1.333344c0,0 -0.195267,-0.47139 -0.666656,0c-0.47139,0.47139 -0.945908,0.945908 -2,2c-1.054092,1.054092 -1.333344,1.999985 -2,2.666656l0,0.666672l-0.666672,0l0,0" id="svg_172" fill-opacity="null" stroke-opacity="null" stroke-width="1.5" stroke="#000000" fill="none"/>
  <path d="m96.083256,323.236282c0.666664,0 1.333328,0 2,0c1.333328,0 1.999992,0 2.666664,0c0.666664,0 1.999992,0 2.666664,0c0.666664,0 0.666664,0 1.333328,0c0.666664,0 1.333336,0 2,0c0.666664,0 0.666664,0 1.333328,0.666656c0,0 0.666672,0 1.333336,0c0,0 0,0 0,0c0.666664,0 0.666664,0 0.666664,0c0,0 0.666672,0 0.666672,0l0,0l0,0l0.666656,0" id="svg_173" fill-opacity="null" stroke-opacity="null" stroke-width="1.5" stroke="#000000" fill="none"/>
  <path stroke="#000000" d="m149.416538,325.236252c0,0 0,0 1.333344,0c0,0 1.333328,0 1.333328,0c1.333328,0 2,0 2.666656,0c0.666672,0 1.333344,0 2,0c0,0 0.666672,0 1.333344,0c0.666656,0 1.333328,0 1.333328,0c0.666656,0 0.666656,0 0.666656,0c0.666672,0 0.666672,0 0.666672,0c0.666672,0 0.666672,0 0.666672,0l0,0l0.666656,0l0,0" id="svg_174" fill-opacity="null" stroke-opacity="null" stroke-width="1.5" fill="none"/>
  <path d="m200.749836,323.902939c0,0 1.333328,0 2.666656,0c0.666672,0 2.666672,0 4,0c0.666672,0 1.333344,0 2,0c0.666672,0 1.333328,0 1.333328,0c0.666672,0 0.666672,0.666656 1.333344,0.666656c0.666656,0 0.666656,0 1.333328,0c0,0 0,0 0.666672,0c0,0 0,0 0.666656,0c0,0 0,0.666656 0.666672,0.666656c0,0 0,0 0,0l0.666656,0l0,0l0,0" id="svg_175" fill-opacity="null" stroke-opacity="null" stroke-width="1.5" stroke="#000000" fill="none"/>
  <path d="m164.083195,217.236359c0.666672,0 0.666672,0 1.333344,0c1.333328,0 3.333328,0 5.333328,0c2.666656,0 5.999985,0.666656 8.666656,0.666656c3.333328,0 5.348312,0.422302 7.333328,0.666672c2.728134,0.335846 4.676651,1.17041 5.999985,1.333328c2.728149,0.335846 3.919037,0.995636 6,1.333328c1.316116,0.213577 3.333328,0.666672 4.666656,0.666672c1.333344,0 2.720169,0.207169 4.666672,0.666672c1.450821,0.342484 3.369003,0.360321 4.666656,0.666656c1.450851,0.342499 3.333328,0.666672 4,0.666672c2,0 4.666672,0 6.666656,0c1.333344,0 3.215836,0.324173 4.666672,0.666672c1.946503,0.459503 4.585693,0.328964 6.666656,0.666656c1.974182,0.320358 4.585709,0.995651 6.666672,1.333344c2.632233,0.427155 6.717926,1.154282 9.333313,1.999985c3.415985,1.104568 5.421356,2.503555 8,4c2.078979,1.206482 4,2 5.333313,3.333328c1.333344,1.333344 2.666687,2.666656 4,4c1.333344,1.333344 2.482666,2.815155 4.666687,5.333344c1.85318,2.136749 2.611664,3.371094 3.999969,5.333313c1.925232,2.72113 3.460205,4.587677 4.666687,6.666656c1.49646,2.578674 2.85907,4.578857 4,7.333344c0.806763,1.947693 1.046326,4.75531 2,7.333313c0.517212,1.398132 0.82309,3.434845 1.333313,4.666656c0.360779,0.871063 0.666656,2 0.666656,3.333344c0,1.333344 0,2.666656 0,4c0,2 0.459503,3.38681 0,5.333313c-0.342499,1.450836 -0.82309,2.768188 -1.333313,4c-0.360779,0.871063 -1.639221,1.795624 -2,2.666687c-0.255096,0.615906 -0.782043,1.235138 -1.333344,2c-0.871613,1.20932 -2.279236,2.279236 -3.333313,3.333313c-1.054108,1.054108 -2,2 -3.333344,3.333344c-0.666656,0.666656 -2.123993,1.795044 -3.333313,2.666656c-0.764862,0.55127 -2,1.333344 -2.666687,2c-0.666656,0.666656 -1.128937,1.639221 -2,2c-0.615906,0.255096 -1.333313,0.666656 -1.333313,0.666656c-0.666687,0.666656 -1.639221,0.46228 -2,1.333344c-0.255096,0.615906 -0.195282,0.861908 -0.666687,1.333313c-0.471405,0.471405 -0.666656,0 -0.666656,0.666687c0,0 0,0 0,0c-0.666656,0.666656 -0.46228,0.972534 -1.333344,1.333313c-0.615906,0.255096 -0.666656,0.666687 -1.333313,1.333344c0,0 0,0.666656 0,0.666656c-0.666656,0 -0.195251,0.195282 -0.666656,0.666687c-0.471405,0.471405 -0.666687,0.666656 -1.333344,0.666656c0,0 -0.195251,0.195251 -0.666656,0.666656c-0.471405,0.471405 -0.195282,0.195282 -0.666687,0.666687c-0.471405,0.471405 -0.195251,0.195251 -0.666656,0.666656c-0.471405,0.471405 0,0.666656 0,0.666656c-0.666656,0 -0.666656,0 -1.333344,0.666687c0,0 0,0 -0.666656,0c0,0 -0.666656,0.666656 -0.666656,0.666656c-0.666687,0 -0.666687,0.666656 -0.666687,0.666656l-0.666656,0l0,0" id="svg_176" fill-opacity="null" stroke-opacity="null" stroke-width="1.5" stroke="#000000" fill="none"/>
  <path d="m170.749866,211.90303c0,0 0.204376,0.305862 -0.666672,0.666656c-0.615921,0.255127 -1.333328,0.666672 -1.333328,0.666672c0,0.666672 -0.666672,0.666672 -0.666672,0.666672c0,0 0,0 -0.666672,0.666656c0,0 -0.861923,0.195267 -1.333328,0.666672c-0.47139,0.47139 -0.666656,1.333328 -0.666656,1.333328c0,0 -0.195267,-0.471405 -0.666672,0c-0.471405,0.471405 0,0.666672 0,0.666672c0,0 0,0.666656 -0.666672,0.666656c0,0 0,0 0,0c-0.666656,0.666672 -0.666656,0.666672 -0.666656,0.666672c0.666656,0 0.717407,-0.255127 1.333328,0c0.871048,0.360794 0.861938,0.195282 1.333328,0.666672c0.47139,0.47139 0.666672,0.666656 0.666672,1.333328c0,0 0.666656,0 0.666656,0l0,0.666656l0,0l0,0" id="svg_178" fill-opacity="null" stroke-opacity="null" stroke-width="1.5" stroke="#000000" fill="none"/>
  <path d="m96.083256,321.236282c0,0 0.666664,0 0.666664,0c0,0 0.666664,-0.666687 0.666664,-0.666687c0,0 0.195267,0.471405 0.666672,0c0.471397,-0.471405 0,-0.666656 0.666664,-0.666656c0,0 0.666664,0 0.666664,-0.666656l0,0l0.666664,0l0,0" id="svg_179" fill-opacity="null" stroke-opacity="null" stroke-width="1.5" stroke="#000000" fill="none"/>
  <path d="m157.416538,320.569595c0,0 0,0 0.666672,0c0,0 0.195236,0.195282 0.666656,0.666687c0.471405,0.471405 0.861938,-0.471405 1.333328,0c0.47139,0.471405 0,0.666656 0.666672,0.666656c0,0 0,0.666656 0,0.666656c0,0 0.666672,0 0.666672,0c0,0.666687 0,0.666687 0,0.666687c0.666656,0 0.666656,0.666656 0.666656,0.666656c0,0 -0.47139,0.195251 0,0.666656c0.471405,0.471405 0.666672,0 0.666672,0c-0.666672,0 -0.666672,0.666656 -0.666672,0.666656c-0.666656,0.666687 -0.666656,0.666687 -1.333328,1.333344c0,0 0,0 0,0c0,0 -0.666672,0.666656 -0.666672,0.666656c0,0 0,0.666687 -0.666656,0.666687c0,0 0,0.666656 -0.666672,0.666656c0,0 0,0.666656 0,0.666656c-0.666656,0.666687 -0.666656,0.666687 -0.666656,0.666687l0,0.666656l-0.666672,0" id="svg_180" fill-opacity="null" stroke-opacity="null" stroke-width="1.5" stroke="#000000" fill="none"/>
  <path d="m94.74992,323.236282c0.666664,0 0.549164,0.324158 2,0.666656c0.648834,0.153168 1.333336,0.666656 1.333336,0.666656c0.666664,0.666656 1.333328,0.666656 1.333328,0.666656c0.666664,0 0.666664,0.666687 0.666664,0.666687l0,0" id="svg_181" fill-opacity="null" stroke-opacity="null" stroke-width="1.5" stroke="#000000" fill="none"/>
  <path d="m211.416492,320.569595c0.666672,0 1.333328,0.666687 1.333328,0.666687c0.666672,0.666656 0.666672,1.333313 1.333344,2c0,0 0.666656,0.666656 0.666656,0.666656c0,0 0,0.666656 0.666672,0.666656c0,0 0,0.666656 0,0.666656c0,0 0,0 0,0c-0.666672,0 -1.128952,0.972565 -2,1.333344c-0.615921,0.255127 -0.666672,0.666656 -1.333328,1.333344c0,0 0,0 0,0c0,0 0,0.666656 0,0.666656c-0.666672,0 -0.666672,0 -0.666672,0.666656l-0.666672,0" id="svg_182" fill-opacity="null" stroke-opacity="null" stroke-width="1.5" stroke="#000000" fill="none"/>
  <path d="m256.083134,317.236282c0,0 0,0.666656 0,0.666656c-0.666687,0.666656 -0.195282,0.861938 -0.666687,1.333344c-0.471405,0.471405 -0.666656,0.666656 -0.666656,0.666656c0,0 -0.195251,0.195251 -0.666656,0.666656c-0.471405,0.471405 -0.195282,0.195282 -0.666687,0.666687c-0.471405,0.471405 0,0.666656 0,0.666656c0,0.666656 0,0.666656 -0.666656,0.666656c0,0 0,0.666687 0,0.666687c0,0 0,0 0,0.666656c0,0 0,0 0,0.666656c0,0 -0.471405,0.195251 0,0.666656c0.471405,0.471405 0.666656,0 0.666656,0c0.666687,0 0.666687,0 1.333344,0c0,0 0.861938,-0.471405 1.333344,0c0.471405,0.471405 0.666656,0.666687 0.666656,0.666687c0.666656,0 0.666656,0 0.666656,0c0,0.666656 0.666687,0.666656 0.666687,0.666656c0,0 0.195251,-0.471405 0.666656,0c0.471405,0.471405 0,0.666656 0,0.666656c0,0 0,0 0,0c0,0 0.666656,0 0.666656,0.666687c0,0 0,0 0,0l0,0" id="svg_183" fill-opacity="null" stroke-opacity="null" stroke-width="1.5" stroke="#000000" fill="none"/>
  <path d="m152.08321,319.236282c0,0 0,0.666656 0,0.666656c-0.666672,0 -0.666672,0 -0.666672,0.666656c0,0 0,0 0,0c-0.666656,0 -0.666656,0.666687 -0.666656,0.666687c0,0 0,0 0,0c0,0 0,0.666656 0,0.666656c0,0 0,0.666656 -0.666672,0.666656c0,0 0,0.666687 0,0.666687c0,0 0,0 0,0.666656c0,0 0.47139,0.195251 0,0.666656c-0.471405,0.471405 -0.666672,0 -0.666672,0c0,0 -0.195267,-0.471405 -0.666656,0c-0.47139,0.471405 0,0.666656 0,0.666656c0,0 0,0 0,0c0,0 0.195236,0.195282 0.666656,0.666687c0.471405,0.471405 0.666687,0.666656 1.333344,1.333313c0.666672,0.666687 0.666656,0.666687 1.333328,1.333344c0,0 0.666672,0.666656 0.666672,0.666656c0.666656,0.666687 0.666656,0.666687 0.666656,0.666687c0,0 0,0.666656 0,0.666656l0,0l0,0l0.666672,0" id="svg_184" fill-opacity="null" stroke-opacity="null" stroke-width="1.5" stroke="#000000" fill="none"/>
  <path d="m106.083248,317.902939c0,0 0.46228,0.972534 1.333328,1.333344c1.231834,0.510254 2.124016,0.46167 3.333336,1.333313c0.764847,0.55127 1.333328,1.333344 1.333328,1.333344c0.666672,0.666656 0.666672,0.666656 1.333328,0.666656c0,0 0,0.666687 0.666672,0.666687c0,0 0,0 0,0c-0.666672,0 -0.861938,0.195251 -1.333328,0.666656c-0.47139,0.471405 -0.666672,0.666656 -1.333344,1.333313c0,0 -0.666656,0.666687 -0.666656,0.666687c-0.666672,0.666656 -0.666672,0.666656 -0.666672,0.666656c-0.666664,0 -0.666664,0 -0.666664,0.666656c0,0 -0.666664,0 -0.666664,0c0,0.666687 -0.666672,0.666687 -0.666672,0.666687c0,0 0,0 0,0.666656l-0.666664,0l0,0" id="svg_185" fill-opacity="null" stroke-opacity="null" stroke-width="1.5" stroke="#000000" fill="none"/>
  <path d="m204.083164,317.902939c0,0.666656 -0.666672,0.666656 -0.666672,1.333344c0,0.666656 -0.861923,0.861908 -1.333328,1.333313c-0.47142,0.471405 0,1.333344 -0.666656,2c0,0 -0.195267,0.195282 -0.666672,0.666687c-0.47139,0.471405 -0.195267,0.195251 -0.666672,0.666656c-0.47139,0.471405 0,0.666656 0,0.666656c0,0 0,0.666656 0,0.666656c0,0 -0.255127,0.050751 0,0.666687c0.360794,0.871033 0.717422,1.078186 1.333344,1.333313c0.871048,0.360809 0.972534,1.128967 1.333328,2c0.255127,0.615936 0.666656,0.666687 0.666656,1.333344c0,0 0.666672,0.666656 0.666672,0.666656l0,0l0,0" id="svg_186" fill-opacity="null" stroke-opacity="null" stroke-width="1.5" stroke="#000000" fill="none"/>
  <rect stroke="#000000" id="svg_187" height="58.666608" width="35.999974" y="191.23638" x="492.749613" stroke-opacity="null" stroke-width="1.5" fill="#ffffff"/>
  <text stroke="#000" transform="matrix(0.5771001577377319,0,0,0.5767962336540221,110.93852268345654,27.258169869892296) " xml:space="preserve" text-anchor="start" font-family="Helvetica, Arial, sans-serif" font-size="15" id="svg_188" y="268.228946" x="669.685312" fill-opacity="null" stroke-opacity="null" stroke-width="0" fill="#000000">css_set</text>
  <line stroke-linecap="null" stroke-linejoin="null" id="svg_189" y2="211.236359" x2="528.74958" y1="211.236359" x1="492.082944" fill-opacity="null" stroke-opacity="null" stroke-width="1.5" stroke="#000000" fill="none"/>
  <line stroke-linecap="null" stroke-linejoin="null" id="svg_190" y2="226.56968" x2="528.082914" y1="226.56968" x1="492.74961" fill-opacity="null" stroke-opacity="null" stroke-width="1.5" stroke="#000000" fill="none"/>
  <text stroke="#000" transform="matrix(0.44792463928113335,0,0,0.5493195371931135,119.60579997385338,36.85573046715291) " xml:space="preserve" text-anchor="start" font-family="Helvetica, Arial, sans-serif" font-size="15" id="svg_191" y="334.910128" x="846.927168" fill-opacity="null" stroke-opacity="null" stroke-width="0" fill="#000000">tasks</text>
  <path d="m510.749592,130.569752c0,0 -0.666657,0 -0.666657,0c-0.666671,0 -2,0 -2,0c-0.666671,0 -1.333343,0 -2,0c-0.666671,0 -1.128952,0.305878 -2,0.666672c-0.615921,0.255127 -0.462295,0.305878 -1.333328,0.666672c-0.615921,0.255127 -1.384094,0.411544 -2,0.666656c-0.871048,0.360794 -1.457352,1.128372 -2.666672,2c-0.764846,0.55127 -2,1.333328 -2.666656,2c-0.666672,0.666672 -2,1.333328 -2.666672,2c-0.666656,0.666672 -2.305862,1.128952 -2.666656,2c-0.255127,0.615921 -0.195282,0.861939 -0.666672,1.333328c-0.471405,0.471405 -0.861939,0.195282 -1.333328,0.666672c-0.47139,0.47139 -0.195267,0.861923 -0.666672,1.333328c-0.471405,0.471405 0,1.333329 0,1.333329c-0.666672,0.666671 -0.666672,0.666671 -0.666672,1.333343c0,0.666657 -0.666656,0.666657 -0.666656,1.333328c0,0.666657 -0.513504,1.351166 -0.666672,2c-0.342484,1.450821 -0.972534,2.462281 -1.333328,3.333329c-0.255112,0.615905 0,1.333328 -0.666672,2c0,0 0,0.666656 0,1.333328c0,0 0,0.666672 0,0.666672c0,0.666656 0,0.666656 0,1.333328c0,0.666672 0,0.666672 0,0.666672c0,0.666656 0,0.666656 0,1.333328c0,0.666656 -0.255127,0.717407 0,1.333328c0.360794,0.871048 0.666672,0.666672 0.666672,1.333328c0,0.666672 0.195266,0.861939 0.666671,1.333344c0.47139,0.47139 0,1.333328 0,1.333328c0,0.666657 0,0.666657 0,1.333328c0,0.666672 0.305863,0.462296 0.666657,1.333329c0.255127,0.615921 0,0.666671 0,1.333343c0,0 0,0.666657 0,1.333328c0,0 0,0.666672 0,0.666672c0,0.666657 0.666672,0.666657 0.666672,1.333328c0,0 0,0 0,0.666657c0,0 0,0 0,0.666672c0,0 0.666656,0 0.666656,0.666671c0,0 0,0 0,0.666657c0,0 0.666672,0 0.666672,0.666672c0,0 0,0 0,0c0,0.666671 0,0.666671 0,0.666671c0.666672,0.666657 0.666672,0.666657 0.666672,1.333329c0,0 0.666656,0.666656 0.666656,0.666656c0,0 0.666672,0.666672 0.666672,0.666672c0,0.666672 0,0.666672 0.666672,1.333328c0,0 0,0.666672 0.666656,1.333344c0,0 0.666672,0.666656 0.666672,0.666656c0,0.666672 0,0.666672 0.666672,1.333344c0,0 0,0 0,0c0,0.666656 0,0.666656 0.666656,1.333328c0,0 0,0 0,0c0,0.666656 0,0.666656 0,0.666656c0.666672,0 0.666672,0.666672 0.666672,0.666672c0,0 0,0 0,0.666672l0,-0.666672l0,0" id="svg_192" fill-opacity="null" stroke-opacity="null" stroke-width="1.5" stroke="#000000" fill="none"/>
  <path d="m485.416279,186.569706c0,0 0,0 0.666672,0c0,0 0.666656,0 0.666656,0c0.666672,0 1.333344,0 1.333344,0c0.666656,0 1.333328,0 1.333328,0c0.666672,0 0.666672,0 1.333328,0.666672c0,0 0,0 0.666672,0c0,0 0,0 0,0c0,0 0.666672,0 0.666672,0c0,0 0,0 0,0c0.666656,0 0.666656,0 0.666656,0c0,-0.666672 0,-0.666672 0,-0.666672c0,0 0,-0.666656 0,-0.666656c0,0 0,0 0,-0.666672c0,0 0,0 0,0c0,-0.666656 0,-0.666656 0,-0.666656c0,0 0,-0.666672 0,-0.666672c0,0 0,0 0,-0.666672c0,0 0,0 0,-0.666656c0,0 0,0 0,0c0,0 0,-0.666672 0,-0.666672c0,0 0,0 0,-0.666672c0,0 0,0 0,0c0,-0.666656 0,-0.666656 0,-0.666656c0,0 0,-0.666672 0,-0.666672c0,0 0,0 0,-0.666672c0,0 0.666672,0 0.666672,0c0,-0.666656 0,-0.666656 0,-0.666656c0,0 0,-0.666672 0,-0.666672c0.666656,0 0.666656,0 0.666656,-0.666657c0,0 0.666672,0 0.666672,-0.666671c0,0 0,0 0,0c0,0 0.666672,-0.666672 0.666672,-0.666672c0,0 0,-0.666657 0,-0.666657l0,0l0,0l0,-0.666671" id="svg_193" fill-opacity="null" stroke-opacity="null" stroke-width="1.5" stroke="#000000" fill="none"/>
  <rect stroke="#000000" id="svg_194" height="58.666608" width="35.999974" y="298.569625" x="424.083002" stroke-opacity="null" stroke-width="1.5" fill="#ffffff"/>
  <line stroke-linecap="null" stroke-linejoin="null" id="svg_195" y2="318.569603" x2="460.08297" y1="318.569603" x1="423.416333" fill-opacity="null" stroke-opacity="null" stroke-width="1.5" stroke="#000000" fill="none"/>
  <line stroke-linecap="null" stroke-linejoin="null" id="svg_196" y2="333.902924" x2="459.416304" y1="333.902924" x1="424.082999" fill-opacity="null" stroke-opacity="null" stroke-width="1.5" stroke="#000000" fill="none"/>
  <text stroke="#000" transform="matrix(0.5771001577377319,0,0,0.5767962336540221,110.93852268345654,27.258169869892296) " xml:space="preserve" text-anchor="start" font-family="Helvetica, Arial, sans-serif" font-size="15" id="svg_197" y="454.314156" x="544.923712" fill-opacity="null" stroke-opacity="null" stroke-width="0" fill="#000000">task_struct</text>
  <rect stroke="#000000" id="svg_198" height="58.666608" width="35.999974" y="298.569625" x="477.416292" stroke-opacity="null" stroke-width="1.5" fill="#ffffff"/>
  <line stroke-linecap="null" stroke-linejoin="null" id="svg_199" y2="318.569603" x2="513.41626" y1="318.569603" x1="476.749623" fill-opacity="null" stroke-opacity="null" stroke-width="1.5" stroke="#000000" fill="none"/>
  <line stroke-linecap="null" stroke-linejoin="null" id="svg_200" y2="333.902924" x2="512.749594" y1="333.902924" x1="477.416289" fill-opacity="null" stroke-opacity="null" stroke-width="1.5" stroke="#000000" fill="none"/>
  <text style="cursor: move;" stroke="#000" transform="matrix(0.44792463928113335,0,0,0.5493195371931135,119.60579997385338,36.85573046715291) " xml:space="preserve" text-anchor="start" font-family="Helvetica, Arial, sans-serif" font-size="15" id="svg_201" y="530.303223" x="812.695247" fill-opacity="null" stroke-opacity="null" stroke-width="0" fill="#000000">cg_list</text>
  <text stroke="#000" transform="matrix(0.5771001577377319,0,0,0.5767962336540221,110.93852268345654,27.258169869892296) " xml:space="preserve" text-anchor="start" font-family="Helvetica, Arial, sans-serif" font-size="15" id="svg_202" y="454.314156" x="637.339715" fill-opacity="null" stroke-opacity="null" stroke-width="0" fill="#000000">task_struct</text>
  <rect stroke="#000000" id="svg_203" height="58.666608" width="35.999974" y="299.236291" x="529.416246" stroke-opacity="null" stroke-width="1.5" fill="#ffffff"/>
  <line stroke-linecap="null" stroke-linejoin="null" id="svg_204" y2="319.23627" x2="565.416214" y1="319.23627" x1="528.749577" fill-opacity="null" stroke-opacity="null" stroke-width="1.5" stroke="#000000" fill="none"/>
  <line stroke-linecap="null" stroke-linejoin="null" id="svg_205" y2="334.56959" x2="564.749548" y1="334.56959" x1="529.416243" fill-opacity="null" stroke-opacity="null" stroke-width="1.5" stroke="#000000" fill="none"/>
  <text style="cursor: move;" stroke="#000" transform="matrix(0.44792463928113335,0,0,0.5493195371931135,119.60579997385338,36.85573046715291) " xml:space="preserve" text-anchor="start" font-family="Helvetica, Arial, sans-serif" font-size="15" id="svg_206" y="531.516845" x="928.786102" fill-opacity="null" stroke-opacity="null" stroke-width="0" fill="#000000">cg_list</text>
  <text stroke="#000" transform="matrix(0.5771001577377319,0,0,0.5767962336540221,110.93852268345654,27.258169869892296) " xml:space="preserve" text-anchor="start" font-family="Helvetica, Arial, sans-serif" font-size="15" id="svg_207" y="455.469965" x="727.445312" fill-opacity="null" stroke-opacity="null" stroke-width="0" fill="#000000">task_struct</text>
  <rect stroke="#000000" id="svg_208" height="58.666608" width="35.999974" y="299.236291" x="581.416204" stroke-opacity="null" stroke-width="1.5" fill="#ffffff"/>
  <line stroke-linecap="null" stroke-linejoin="null" id="svg_209" y2="319.23627" x2="618.749504" y1="319.23627" x1="582.082867" fill-opacity="null" stroke-opacity="null" stroke-width="1.5" stroke="#000000" fill="none"/>
  <line stroke-linecap="null" stroke-linejoin="null" id="svg_210" y2="334.56959" x2="618.082838" y1="334.56959" x1="582.749533" fill-opacity="null" stroke-opacity="null" stroke-width="1.5" stroke="#000000" fill="none"/>
  <text style="cursor: move;" stroke="#000" transform="matrix(0.44792463928113335,0,0,0.5493195371931135,119.60579997385338,36.85573046715291) " xml:space="preserve" text-anchor="start" font-family="Helvetica, Arial, sans-serif" font-size="15" id="svg_211" y="531.516845" x="1047.853654" fill-opacity="null" stroke-opacity="null" stroke-width="0" fill="#000000">cg_list</text>
  <text stroke="#000" transform="matrix(0.5771001577377319,0,0,0.5767962336540221,110.93852268345654,27.258169869892296) " xml:space="preserve" text-anchor="start" font-family="Helvetica, Arial, sans-serif" font-size="15" id="svg_212" y="455.469965" x="819.861316" fill-opacity="null" stroke-opacity="null" stroke-width="0" fill="#000000">task_struct</text>
  <path d="m491.416279,216.569691c-0.666672,0 -0.666672,0 -0.666672,0c0,0 -0.666656,0 -0.666656,0c0,0 -0.666672,0 -1.333344,0c0,0 -0.666656,0 -0.666656,0c-0.666672,0 -1.333344,0 -2,0c-0.666672,0 -1.333329,0 -2,0c-1.333329,0 -2,0 -3.333329,0c-1.333328,0 -2.683883,0.453079 -4,0.666657c-2.080963,0.337692 -2.666664,1.333343 -4,1.333343c0,0 -1.333328,0 -4.666656,0c-2,0 -5.377426,0.441544 -9.333328,1.333328c-4.734589,1.067322 -7.171402,2.657944 -11.333321,3.333329c-3.290291,0.533935 -6,1.333328 -8,2c-1.999992,0.666671 -4.206665,0.891662 -5.999992,2c-1.604004,0.991333 -4.124001,2.4617 -5.333329,3.333328c-1.529693,1.102539 -2.666664,2 -4,3.333328c-1.333328,1.333328 -2.666664,2 -3.999992,3.333328c-1.333336,1.333344 -2.666679,2.666626 -4.666664,4.666657c-0.666672,0.666687 -2,2 -3.333328,3.333343c-1.333336,1.333344 -1.795033,2.79065 -2.666668,4c-1.102539,1.529694 -2.666657,2.666657 -3.333329,4c-0.66666,1.333313 -1.333339,2 -2,3.333313c-0.666671,1.333344 -1.657505,1.882508 -2,3.333344c-0.306339,1.297668 -0.666664,2.666656 -0.666664,4c0,1.333313 -0.666668,2.666656 -0.666668,4c0,1.333313 -0.666664,3.333313 -0.666664,5.333313c0,1.333343 -0.328972,2.585693 -0.666668,4.666656c-0.213577,1.316132 0,2.666687 0,4c0,1.333344 0,2.666687 0,4.666687c0,1.99997 -0.459503,4.053467 0,5.99997c0.342495,1.450836 0.873829,3.386841 1.333332,5.333343c0.342495,1.450837 0.782067,2.568482 1.333332,3.333313c0.871644,1.20932 0.666672,2.666687 1.333333,4c0.666671,1.333344 0.972534,2.462311 1.333332,3.333344c0.51025,1.231842 0.995639,1.919037 1.333335,4c0.106785,0.65805 0.972535,1.795624 1.333333,2.666656c0.255119,0.615906 0.195266,1.528595 0.666664,2c0.471405,0.471405 0.46228,0.972535 1.333332,1.333344c0.615917,0.255127 1.333332,0.666656 1.999996,1.333313c0,0 0.666664,0 1.333336,0.666687c0.666656,0.666656 1.333328,0.666656 2,0.666656c0,0 0.666664,0.666657 0.666664,0.666657c0.666664,0 0.666664,0 1.333328,0c0,0 0,0 0.666672,0c0,0 0.666664,0 0.666664,0c0.666664,0 0.666664,0.666687 1.333336,0.666687c0,0 0,0 0.666664,0c0,0 0,0 0.666664,0l0,0" id="svg_213" fill-opacity="null" stroke-opacity="null" stroke-width="1.5" stroke="#000000" fill="none"/>
  <path d="m484.082951,210.569691c0.666671,0 0.4617,0.124008 1.333328,1.333328c0.551269,0.764847 1.44873,1.235154 2,2c0.871643,1.209336 1.528595,2.195267 2,2.666672c0.471405,0.471405 0.666672,0.666657 0.666672,0.666657c0.666656,0.666671 0.666656,0.666671 0.666656,1.333343c0,0 -0.195267,-0.47139 -0.666656,0c-0.47139,0.47139 -0.945908,0.945908 -2,2c-1.054093,1.054093 -1.333344,1.999985 -2,2.666657l0,0.666671l-0.666672,0l0,0" id="svg_214" fill-opacity="null" stroke-opacity="null" stroke-width="1.5" stroke="#000000" fill="none"/>
  <path d="m460.749638,324.569615c0.666664,0 1.333328,0 2,0c1.333328,0 1.999992,0 2.666664,0c0.666664,0 1.999992,0 2.666664,0c0.666664,0 0.666664,0 1.333328,0c0.666664,0 1.333336,0 2,0c0.666664,0 0.666664,0 1.333328,0.666656c0,0 0.666672,0 1.333336,0c0,0 0,0 0,0c0.666664,0 0.666664,0 0.666664,0c0,0 0.666672,0 0.666672,0l0,0l0,0l0.666657,0" id="svg_215" fill-opacity="null" stroke-opacity="null" stroke-width="1.5" stroke="#000000" fill="none"/>
  <path stroke="#000000" d="m514.08292,326.569584c0,0 0,0 1.333344,0c0,0 1.333328,0 1.333328,0c1.333328,0 2,0 2.666656,0c0.666672,0 1.333344,0 2,0c0,0 0.666672,0 1.333344,0c0.666656,0 1.333328,0 1.333328,0c0.666657,0 0.666657,0 0.666657,0c0.666671,0 0.666671,0 0.666671,0c0.666672,0 0.666672,0 0.666672,0l0,0l0.666657,0l0,0" id="svg_216" fill-opacity="null" stroke-opacity="null" stroke-width="1.5" fill="none"/>
  <path d="m565.416218,325.236271c0,0 1.333328,0 2.666656,0c0.666672,0 2.666672,0 4,0c0.666672,0 1.333344,0 2,0c0.666672,0 1.333329,0 1.333329,0c0.666671,0 0.666671,0.666657 1.333343,0.666657c0.666657,0 0.666657,0 1.333328,0c0,0 0,0 0.666672,0c0,0 0,0 0.666657,0c0,0 0,0.666656 0.666671,0.666656c0,0 0,0 0,0l0.666657,0l0,0l0,0" id="svg_217" fill-opacity="null" stroke-opacity="null" stroke-width="1.5" stroke="#000000" fill="none"/>
  <path d="m528.749577,218.569691c0.666671,0 0.666671,0 1.333343,0c1.333328,0 3.333328,0 5.333328,0c2.666657,0 5.999985,0.666657 8.666657,0.666657c3.333328,0 5.348312,0.422302 7.333328,0.666671c2.728134,0.335846 4.676651,1.170411 5.999985,1.333329c2.728149,0.335846 3.919037,0.995636 6,1.333328c1.316116,0.213577 3.333328,0.666672 4.666656,0.666672c1.333344,0 2.720169,0.207168 4.666672,0.666671c1.450821,0.342484 3.369003,0.360321 4.666657,0.666657c1.450851,0.342499 3.333328,0.666672 4,0.666672c2,0 4.666671,0 6.666656,0c1.333344,0 3.215836,0.324173 4.666672,0.666671c1.946503,0.459504 4.585693,0.328965 6.666656,0.666657c1.974182,0.320358 4.585709,0.995651 6.666672,1.333343c2.632233,0.427155 6.717926,1.154282 9.333313,1.999985c3.415985,1.104569 5.421356,2.503555 8,4c2.07898,1.206482 4,2 5.333313,3.333328c1.333344,1.333344 2.666687,2.666657 4,4c1.333344,1.333344 2.482666,2.815155 4.666687,5.333344c1.85318,2.136749 2.611664,3.371094 3.99997,5.333313c1.925231,2.72113 3.460205,4.587677 4.666687,6.666656c1.49646,2.578675 2.859069,4.578858 4,7.333344c0.806762,1.947693 1.046325,4.75531 2,7.333313c0.517211,1.398132 0.823089,3.434845 1.333313,4.666656c0.360778,0.871064 0.666656,2 0.666656,3.333344c0,1.333343 0,2.666656 0,4c0,2 0.459503,3.38681 0,5.333313c-0.342499,1.450836 -0.82309,2.768188 -1.333313,4c-0.360779,0.871063 -1.639221,1.795624 -2,2.666687c-0.255096,0.615906 -0.782043,1.235138 -1.333343,2c-0.871613,1.20932 -2.279236,2.279236 -3.333313,3.333313c-1.054108,1.054108 -2,2 -3.333344,3.333343c-0.666656,0.666657 -2.123993,1.795044 -3.333313,2.666657c-0.764862,0.551269 -2,1.333343 -2.666687,2c-0.666656,0.666656 -1.128937,1.639221 -2,2c-0.615906,0.255096 -1.333313,0.666656 -1.333313,0.666656c-0.666687,0.666657 -1.639221,0.462281 -2,1.333344c-0.255096,0.615906 -0.195282,0.861908 -0.666687,1.333313c-0.471405,0.471405 -0.666656,0 -0.666656,0.666687c0,0 0,0 0,0c-0.666657,0.666656 -0.462281,0.972534 -1.333344,1.333313c-0.615906,0.255096 -0.666656,0.666687 -1.333313,1.333343c0,0 0,0.666657 0,0.666657c-0.666656,0 -0.195251,0.195282 -0.666656,0.666687c-0.471405,0.471405 -0.666687,0.666656 -1.333344,0.666656c0,0 -0.195251,0.195252 -0.666656,0.666657c-0.471405,0.471405 -0.195282,0.195282 -0.666687,0.666687c-0.471405,0.471405 -0.195252,0.195251 -0.666657,0.666656c-0.471405,0.471405 0,0.666657 0,0.666657c-0.666656,0 -0.666656,0 -1.333343,0.666687c0,0 0,0 -0.666657,0c0,0 -0.666656,0.666656 -0.666656,0.666656c-0.666687,0 -0.666687,0.666657 -0.666687,0.666657l-0.666657,0l0,0" id="svg_218" fill-opacity="null" stroke-opacity="null" stroke-width="1.5" stroke="#000000" fill="none"/>
  <path d="m535.416248,213.236363c0,0 0.204377,0.305862 -0.666671,0.666656c-0.615921,0.255127 -1.333329,0.666672 -1.333329,0.666672c0,0.666672 -0.666671,0.666672 -0.666671,0.666672c0,0 0,0 -0.666672,0.666656c0,0 -0.861923,0.195267 -1.333328,0.666672c-0.47139,0.47139 -0.666657,1.333328 -0.666657,1.333328c0,0 -0.195267,-0.471405 -0.666672,0c-0.471405,0.471405 0,0.666672 0,0.666672c0,0 0,0.666657 -0.666671,0.666657c0,0 0,0 0,0c-0.666657,0.666671 -0.666657,0.666671 -0.666657,0.666671c0.666657,0 0.717407,-0.255127 1.333328,0c0.871048,0.360794 0.861939,0.195282 1.333329,0.666672c0.471389,0.47139 0.666671,0.666657 0.666671,1.333328c0,0 0.666657,0 0.666657,0l0,0.666657l0,0l0,0" id="svg_219" fill-opacity="null" stroke-opacity="null" stroke-width="1.5" stroke="#000000" fill="none"/>
  <path d="m460.749638,322.569615c0,0 0.666664,0 0.666664,0c0,0 0.666664,-0.666687 0.666664,-0.666687c0,0 0.195267,0.471405 0.666672,0c0.471397,-0.471405 0,-0.666657 0.666664,-0.666657c0,0 0.666664,0 0.666664,-0.666656l0,0l0.666664,0l0,0" id="svg_220" fill-opacity="null" stroke-opacity="null" stroke-width="1.5" stroke="#000000" fill="none"/>
  <path d="m522.08292,321.902928c0,0 0,0 0.666672,0c0,0 0.195236,0.195282 0.666656,0.666687c0.471405,0.471405 0.861939,-0.471405 1.333329,0c0.471389,0.471405 0,0.666656 0.666671,0.666656c0,0 0,0.666657 0,0.666657c0,0 0.666672,0 0.666672,0c0,0.666687 0,0.666687 0,0.666687c0.666657,0 0.666657,0.666656 0.666657,0.666656c0,0 -0.47139,0.195252 0,0.666657c0.471405,0.471405 0.666671,0 0.666671,0c-0.666671,0 -0.666671,0.666656 -0.666671,0.666656c-0.666657,0.666687 -0.666657,0.666687 -1.333329,1.333344c0,0 0,0 0,0c0,0 -0.666671,0.666656 -0.666671,0.666656c0,0 0,0.666687 -0.666657,0.666687c0,0 0,0.666657 -0.666672,0.666657c0,0 0,0.666656 0,0.666656c-0.666656,0.666687 -0.666656,0.666687 -0.666656,0.666687l0,0.666657l-0.666672,0" id="svg_221" fill-opacity="null" stroke-opacity="null" stroke-width="1.5" stroke="#000000" fill="none"/>
  <path d="m459.416302,324.569615c0.666664,0 0.549164,0.324158 2,0.666656c0.648834,0.153168 1.333336,0.666657 1.333336,0.666657c0.666664,0.666656 1.333328,0.666656 1.333328,0.666656c0.666664,0 0.666664,0.666687 0.666664,0.666687l0,0" id="svg_222" fill-opacity="null" stroke-opacity="null" stroke-width="1.5" stroke="#000000" fill="none"/>
  <path d="m576.082874,321.902928c0.666672,0 1.333329,0.666687 1.333329,0.666687c0.666671,0.666656 0.666671,1.333313 1.333343,2c0,0 0.666657,0.666656 0.666657,0.666656c0,0 0,0.666657 0.666671,0.666657c0,0 0,0.666656 0,0.666656c0,0 0,0 0,0c-0.666671,0 -1.128952,0.972565 -2,1.333344c-0.615921,0.255127 -0.666671,0.666656 -1.333328,1.333343c0,0 0,0 0,0c0,0 0,0.666657 0,0.666657c-0.666672,0 -0.666672,0 -0.666672,0.666656l-0.666671,0" id="svg_223" fill-opacity="null" stroke-opacity="null" stroke-width="1.5" stroke="#000000" fill="none"/>
  <path d="m620.749516,318.569615c0,0 0,0.666656 0,0.666656c-0.666687,0.666657 -0.195282,0.861939 -0.666687,1.333344c-0.471405,0.471405 -0.666657,0.666656 -0.666657,0.666656c0,0 -0.195251,0.195252 -0.666656,0.666657c-0.471405,0.471405 -0.195282,0.195282 -0.666687,0.666687c-0.471405,0.471405 0,0.666656 0,0.666656c0,0.666657 0,0.666657 -0.666657,0.666657c0,0 0,0.666687 0,0.666687c0,0 0,0 0,0.666656c0,0 0,0 0,0.666657c0,0 -0.471405,0.195251 0,0.666656c0.471405,0.471405 0.666657,0 0.666657,0c0.666687,0 0.666687,0 1.333343,0c0,0 0.861939,-0.471405 1.333344,0c0.471405,0.471405 0.666656,0.666687 0.666656,0.666687c0.666657,0 0.666657,0 0.666657,0c0,0.666657 0.666687,0.666657 0.666687,0.666657c0,0 0.195251,-0.471405 0.666656,0c0.471405,0.471405 0,0.666656 0,0.666656c0,0 0,0 0,0c0,0 0.666657,0 0.666657,0.666687c0,0 0,0 0,0l0,0" id="svg_224" fill-opacity="null" stroke-opacity="null" stroke-width="1.5" stroke="#000000" fill="none"/>
  <path d="m516.749592,320.569615c0,0 0,0.666656 0,0.666656c-0.666672,0 -0.666672,0 -0.666672,0.666657c0,0 0,0 0,0c-0.666656,0 -0.666656,0.666687 -0.666656,0.666687c0,0 0,0 0,0c0,0 0,0.666656 0,0.666656c0,0 0,0.666657 -0.666672,0.666657c0,0 0,0.666687 0,0.666687c0,0 0,0 0,0.666656c0,0 0.47139,0.195252 0,0.666657c-0.471405,0.471405 -0.666672,0 -0.666672,0c0,0 -0.195267,-0.471405 -0.666656,0c-0.47139,0.471405 0,0.666656 0,0.666656c0,0 0,0 0,0c0,0 0.195236,0.195282 0.666656,0.666687c0.471405,0.471405 0.666687,0.666657 1.333344,1.333313c0.666671,0.666687 0.666656,0.666687 1.333328,1.333344c0,0 0.666672,0.666656 0.666672,0.666656c0.666656,0.666687 0.666656,0.666687 0.666656,0.666687c0,0 0,0.666657 0,0.666657l0,0l0,0l0.666672,0" id="svg_225" fill-opacity="null" stroke-opacity="null" stroke-width="1.5" stroke="#000000" fill="none"/>
  <path d="m470.74963,319.236271c0,0 0.46228,0.972535 1.333328,1.333344c1.231835,0.510254 2.124016,0.46167 3.333336,1.333313c0.764847,0.551269 1.333328,1.333343 1.333328,1.333343c0.666672,0.666657 0.666672,0.666657 1.333329,0.666657c0,0 0,0.666687 0.666671,0.666687c0,0 0,0 0,0c-0.666671,0 -0.861938,0.195251 -1.333328,0.666656c-0.47139,0.471405 -0.666672,0.666657 -1.333343,1.333313c0,0 -0.666657,0.666687 -0.666657,0.666687c-0.666672,0.666657 -0.666672,0.666657 -0.666672,0.666657c-0.666664,0 -0.666664,0 -0.666664,0.666656c0,0 -0.666664,0 -0.666664,0c0,0.666687 -0.666672,0.666687 -0.666672,0.666687c0,0 0,0 0,0.666657l-0.666664,0l0,0" id="svg_226" fill-opacity="null" stroke-opacity="null" stroke-width="1.5" stroke="#000000" fill="none"/>
  <path d="m568.749546,319.236271c0,0.666657 -0.666672,0.666657 -0.666672,1.333344c0,0.666656 -0.861923,0.861908 -1.333328,1.333313c-0.47142,0.471405 0,1.333343 -0.666656,2c0,0 -0.195267,0.195282 -0.666672,0.666687c-0.47139,0.471405 -0.195267,0.195251 -0.666672,0.666656c-0.47139,0.471405 0,0.666657 0,0.666657c0,0 0,0.666656 0,0.666656c0,0 -0.255127,0.050751 0,0.666687c0.360794,0.871033 0.717423,1.078186 1.333344,1.333313c0.871048,0.36081 0.972534,1.128968 1.333328,2c0.255127,0.615937 0.666656,0.666687 0.666656,1.333344c0,0 0.666672,0.666656 0.666672,0.666656l0,0l0,0" id="svg_227" fill-opacity="null" stroke-opacity="null" stroke-width="1.5" stroke="#000000" fill="none"/>
  <text style="cursor: move;" stroke="#000" transform="matrix(0.44792463928113335,0,0,0.5493195371931135,119.60579997385338,36.85573046715291) " xml:space="preserve" text-anchor="start" font-family="Helvetica, Arial, sans-serif" font-size="15" id="svg_228" y="533.944088" x="693.627653" fill-opacity="null" stroke-opacity="null" stroke-width="0" fill="#000000">cg_list</text>
  <path d="m414.749668,310.569626c0,0 0,0.666656 0,1.333313c0,1.333344 0.972534,3.128967 1.333313,4c0.510254,1.231842 0.666687,2 1.333344,2.666656c0,0 0,0.666687 0,0.666687c0,0 0.666656,0 0.666656,0c0,0.666656 0.666687,0.666656 0.666687,1.333313c0,0 0.666656,0.666687 0.666656,0.666687c0,0 0,0 0.666656,0.666656c0,0 0,0 0.666687,0.666656c0,0 0,0.666687 0,0.666687c0.666656,0 0.666656,0 0,0c0,0 -0.79068,0.4617 -2,1.333313c-0.764862,0.55127 -2.462311,2.305878 -3.333344,2.666656c-0.615906,0.255127 -0.666656,0.666687 -1.333344,0.666687l0,0l0,0" id="svg_229" fill-opacity="null" stroke-opacity="null" stroke-width="1.5" stroke="#000000" fill="none"/>
  <rect stroke="#000000" id="svg_230" height="58.666608" width="35.999974" y="181.236389" x="282.083101" stroke-opacity="null" stroke-width="1.5" fill="#ffffff"/>
  <text stroke="#000" transform="matrix(0.5771001577377319,0,0,0.5767962336540221,110.93852268345654,27.258169869892296) " xml:space="preserve" text-anchor="start" font-family="Helvetica, Arial, sans-serif" font-size="15" id="svg_231" y="254.359242" x="300.021272" fill-opacity="null" stroke-opacity="null" stroke-width="0" fill="#000000">css_set</text>
  <rect stroke="#000000" id="svg_236" height="58.666608" width="35.999974" y="182.569721" x="359.416368" stroke-opacity="null" stroke-width="1.5" fill="#ffffff"/>
  <text stroke="#000" transform="matrix(0.5771001577377319,0,0,0.5767962336540221,110.93852268345654,27.258169869892296) " xml:space="preserve" text-anchor="start" font-family="Helvetica, Arial, sans-serif" font-size="15" id="svg_237" y="256.670859" x="434.024471" fill-opacity="null" stroke-opacity="null" stroke-width="0" fill="#000000">css_set</text>
  <rect stroke="#000000" id="svg_238" height="58.666608" width="35.999974" y="179.23639" x="666.749437" stroke-opacity="null" stroke-width="1.5" fill="#ffffff"/>
  <text stroke="#000" transform="matrix(0.5771001577377319,0,0,0.5767962336540221,110.93852268345654,27.258169869892296) " xml:space="preserve" text-anchor="start" font-family="Helvetica, Arial, sans-serif" font-size="15" id="svg_239" y="250.891815" x="966.571664" fill-opacity="null" stroke-opacity="null" stroke-width="0" fill="#000000">css_set</text>
  <path d="m271.416447,127.903091c-0.666656,0 -2,0 -3.333344,1.333328c-2,2 -3.149292,3.481842 -5.333313,6c-1.235474,1.4245 -2.793518,3.921005 -4,6c-0.74823,1.289322 -1.429535,3.289429 -2,4.666656c-0.806763,1.947708 -0.990845,3.21582 -1.333344,4.666672c-0.459503,1.946487 -0.666656,3.333328 -0.666656,4.666656c0,2 0,3.333328 0,4.666656c0,1.333344 0.230804,2.470306 1.333344,4c0.871643,1.20932 2,2.666672 3.333313,4c1.333344,1.333344 2.666687,2.666672 4,4c0.666656,0.666656 1.795624,2.305862 2.666656,2.666656c0.615936,0.255127 1.333344,0.666687 2,1.333344c0.666687,0.666672 1.457336,0.461685 2.666687,1.333328c0.764832,0.551254 1.128937,1.639206 2,2c0.615906,0.255112 1.384064,0.41153 2,0.666656c0.871033,0.360794 0.666656,0.666672 1.333313,1.333344c0,0 0.666656,0.666656 0.666656,0.666656c0.666687,0 1.333344,0.666672 2,0.666672c0,0 0.666687,0.666672 0.666687,0.666672c0.666656,0 0.666656,0.666656 0.666656,0.666656l0.666656,0l0,0" id="svg_240" fill-opacity="null" stroke-opacity="null" stroke-width="1.5" stroke="#000000" fill="none"/>
  <path d="m274.083103,171.236389c0,0 -0.306335,0.702347 0,2c0.342499,1.450836 1.333344,2 2,3.333328c0.666656,1.333328 0.717407,1.744873 1.333344,2c0.871033,0.360794 0.782043,1.235153 1.333313,2c0.871643,1.209335 1.333344,2 1.333344,2c0.666656,0.666672 0.666656,0.666672 0.666656,0.666672c-0.666656,0 -0.666656,0.666641 -2,1.999985c-0.666656,0.666672 -2.46228,2.972549 -3.333313,3.333344c-0.615906,0.255127 -0.666656,0.666656 -1.333344,0.666656c0,0 0.471405,0.195267 0,0.666672c-0.471405,0.47139 -0.666656,0 -0.666656,0c-0.666656,0.666656 -0.666656,0.666656 -1.333344,0.666656l0,0l0,0" id="svg_241" fill-opacity="null" stroke-opacity="null" stroke-width="1.5" stroke="#000000" fill="none"/>
  <path d="m381.416355,127.236435c0,0 -1.174072,0.277267 -3.333344,1.333328c-1.893829,0.926224 -3.062653,2.341995 -4.666656,3.333328c-1.793335,1.108337 -2.864655,2.409225 -4.666656,4c-1.117554,0.986557 -2.225006,2.206665 -3.333344,4c-0.991333,1.603989 -3.460175,3.254333 -4.666656,5.333328c-1.49646,2.578644 -1.979034,4.941376 -3.333313,7.333313c-0.929047,1.640884 -2,3.333344 -2.666687,4.666672c-0.666656,1.333328 -1.026978,3.369003 -1.333313,4.666656c-0.342499,1.450851 -0.995667,2.585709 -1.333344,4.666672c-0.213562,1.316116 -0.666656,2.666656 -0.666656,4c0,1.333328 0,1.999985 0,3.333328c0,1.333328 0,2 0,3.333328c0,0.666656 0,1.333328 0,2c0,0 0,0.666656 0,1.333328c0,0 0,0.666672 0,0.666672c0,0 0,0 0,0c0,0.666656 0.666656,0.666656 0.666656,0.666656c0,0 0,0 0.666656,0c0,0 0.666687,0 1.333344,0c0,0 0.666656,0 0.666656,0c0.666687,0 0.666687,0 1.333344,0l0,0l0,0l0.666656,0" id="svg_242" fill-opacity="null" stroke-opacity="null" stroke-width="1.5" stroke="#000000" fill="none"/>
  <path d="m354.749699,173.236389c0,0.666672 -0.255127,0.717422 0,1.333328c0.721588,1.742096 2,3.333313 2.666687,4c0.666656,0.666672 1.639191,1.128937 2,2c0.255127,0.615921 0.972534,1.128952 1.333313,2c0.255127,0.615921 0,0.666672 0,0.666672c0,0 0,0 0,0c-0.666656,0 -1.795624,0.972534 -2.666656,1.333328c-1.231842,0.510254 -2.79068,0.461685 -4,1.333328c-0.764832,0.55127 -1.333344,1.333328 -1.333344,1.333328c-0.666656,0.666672 -0.666656,0.666672 -0.666656,0.666672c0,0 -0.666656,0 -0.666656,0c0,0 0,0.666672 0,0.666672l0,0" id="svg_243" fill-opacity="null" stroke-opacity="null" stroke-width="1.5" stroke="#000000" fill="none"/>
  <path d="m648.082798,124.569763c0,0 0.666687,0 2,0.666672c1.333313,0.666656 4.666687,2.666656 6.666687,4.666656c2,2 3.794983,2.79068 4.666626,4c1.102539,1.529724 2.461731,3.457321 3.333374,4.666656c1.102539,1.529678 2,2.666687 2.666626,4c0.666687,1.333344 1.251831,4.044006 2,5.333328c1.206421,2.078995 2,3.333313 2.666687,4.666656c0.666626,1.333328 0.972534,1.795609 1.333313,2.666672c0.510254,1.231827 0.666687,2.666672 0.666687,3.333328c0,1.333328 0,2.666672 0,3.333328c0,0.666672 0,2 0,2.666672c0,1.333328 0,2 0,3.333328c0,1.333328 0,2 0,3.333328c0,0.666672 0,2 0,2.666672c0,0.666656 0,1.333328 0,1.333328c0,0.666672 0,0.666672 0,1.333328l0,0" id="svg_244" fill-opacity="null" stroke-opacity="null" stroke-width="1.5" stroke="#000000" fill="none"/>
  <path d="m664.749485,173.236389c0,0 0,0 0.666626,0c0.666687,0 2.05072,0.411545 2.666687,0.666672c0.871033,0.360794 2.46228,0.972534 3.333313,1.333328c0.615967,0.255127 1.384033,0.411545 2,0.666672c0.871033,0.360794 1.333313,0.666656 2,1.333328c0,0 0.666687,0 0.666687,0c0.666626,0.666656 0.666626,0.666656 0.666626,0.666656c0,0 -0.471375,-0.195267 0,-0.666656c0.471436,-0.47142 1.528625,-0.195297 2,-0.666672c0.471375,-0.47139 0.861938,-0.861923 1.333374,-1.333328c0.471375,-0.471375 0.861877,-0.195251 1.333313,-0.666672c0.471375,-0.47139 0,-0.666656 0.666687,-0.666656c0,0 0,-0.666672 0,-0.666672c0,0 0.666626,0 0.666626,0l0,0" id="svg_245" fill-opacity="null" stroke-opacity="null" stroke-width="1.5" stroke="#000000" fill="none"/>
 </g>
</svg>