<svg width="800" height="450" xmlns="http://www.w3.org/2000/svg">
 <!-- Created with Method Draw - http://github.com/duopixel/Method-Draw/ -->

 <g>
  <title>background</title>
  <rect fill="#fff" id="canvas_background" height="452" width="802" y="-1" x="-1"/>
  <g display="none" id="canvasGrid">
   <rect fill="url(#gridpattern)" stroke-width="0" y="2" x="2" height="1200" width="1600" id="svg_6"/>
  </g>
 </g>
 <g>
  <title>Layer 1</title>
  <rect stroke="#000" id="svg_1" height="173.333192" width="85.333264" y="36.666621" x="21.000333" stroke-width="1.5" fill="#fff"/>
  <rect stroke="#000000" id="svg_2" height="23.99998" width="84.666595" y="112.666559" x="21.000333" stroke-width="1.5" fill="#ff0000"/>
  <text stroke="#000" transform="matrix(0.6328623890876768,0,0,0.59687593546386,22.472428262233734,36.94467852304838) " xml:space="preserve" text-anchor="start" font-family="Helvetica, Arial, sans-serif" font-size="15" id="svg_3" y="-12.453618" x="1.887404" fill-opacity="null" stroke-opacity="null" stroke-width="0" fill="#000000">css_set</text>
  <text xml:space="preserve" text-anchor="start" font-family="Helvetica, Arial, sans-serif" font-size="15" id="svg_4" y="129.333212" x="35.666988" fill-opacity="null" stroke-opacity="null" stroke-width="0" stroke="#000" fill="#000000">cg_links</text>
  <rect stroke="#000" id="svg_5" height="94.666593" width="97.333254" y="64.666596" x="140.333574" fill-opacity="null" stroke-opacity="null" stroke-width="1.5" fill="#fff"/>
  <line stroke="#000" stroke-linecap="null" stroke-linejoin="null" id="svg_8" y2="89.333243" x2="236.333494" y1="89.333243" x1="140.333575" fill-opacity="null" stroke-opacity="null" stroke-width="1.5" fill="none"/>
  <line stroke="#000" stroke-linecap="null" stroke-linejoin="null" id="svg_9" y2="113.99989" x2="235.666832" y1="113.333224" x1="140.333575" fill-opacity="null" stroke-opacity="null" stroke-width="1.5" fill="none"/>
  <line stroke="#000" stroke-linecap="null" stroke-linejoin="null" id="svg_10" y2="136.666538" x2="236.333498" y1="135.999872" x1="140.333574" fill-opacity="null" stroke-opacity="null" stroke-width="1.5" fill="none"/>
  <text xml:space="preserve" text-anchor="start" font-family="Helvetica, Arial, sans-serif" font-size="15" id="svg_11" y="127.333215" x="151.000231" fill-opacity="null" stroke-opacity="null" stroke-width="0" stroke="#000" fill="#000000">cg_link_list</text>
  <text xml:space="preserve" text-anchor="start" font-family="Helvetica, Arial, sans-serif" font-size="15" id="svg_12" y="104.666566" x="171.666888" fill-opacity="null" stroke-opacity="null" stroke-width="0" stroke="#000" fill="#000000">cg</text>
  <text xml:space="preserve" text-anchor="start" font-family="Helvetica, Arial, sans-serif" font-size="15" id="svg_13" y="151.333193" x="170.333548" fill-opacity="null" stroke-opacity="null" stroke-width="0" stroke="#000" fill="#000000">cgrp</text>
  <text xml:space="preserve" text-anchor="start" font-family="Helvetica, Arial, sans-serif" font-size="15" id="svg_14" y="81.999918" x="147.666901" fill-opacity="null" stroke-opacity="null" stroke-width="0" stroke="#000" fill="#000000">cgrp_link_list</text>
  <text stroke="#000" transform="matrix(0.5771001577377319,0,0,0.5767962336540221,110.93852268345654,27.258169869892296) " xml:space="preserve" text-anchor="start" font-family="Helvetica, Arial, sans-serif" font-size="15" id="svg_15" y="49.948894" x="59.018273" fill-opacity="null" stroke-opacity="null" stroke-width="0" fill="#000000">cg_cgroup_link</text>
  <rect stroke="#000" id="svg_16" height="94.666593" width="97.333254" y="64.666596" x="261.666803" fill-opacity="null" stroke-opacity="null" stroke-width="1.5" fill="#fff"/>
  <line stroke="#000" stroke-linecap="null" stroke-linejoin="null" id="svg_17" y2="89.333243" x2="357.666722" y1="89.333243" x1="261.666803" fill-opacity="null" stroke-opacity="null" stroke-width="1.5" fill="none"/>
  <line stroke="#000" stroke-linecap="null" stroke-linejoin="null" id="svg_18" y2="113.99989" x2="357.000061" y1="113.333224" x1="261.666803" fill-opacity="null" stroke-opacity="null" stroke-width="1.5" fill="none"/>
  <line stroke="#000" stroke-linecap="null" stroke-linejoin="null" id="svg_19" y2="136.666538" x2="357.666726" y1="135.999872" x1="261.666803" fill-opacity="null" stroke-opacity="null" stroke-width="1.5" fill="none"/>
  <text xml:space="preserve" text-anchor="start" font-family="Helvetica, Arial, sans-serif" font-size="15" id="svg_20" y="127.333215" x="272.333459" fill-opacity="null" stroke-opacity="null" stroke-width="0" stroke="#000" fill="#000000">cg_link_list</text>
  <text xml:space="preserve" text-anchor="start" font-family="Helvetica, Arial, sans-serif" font-size="15" id="svg_21" y="104.666566" x="293.000117" fill-opacity="null" stroke-opacity="null" stroke-width="0" stroke="#000" fill="#000000">cg</text>
  <text xml:space="preserve" text-anchor="start" font-family="Helvetica, Arial, sans-serif" font-size="15" id="svg_22" y="151.333193" x="291.666777" fill-opacity="null" stroke-opacity="null" stroke-width="0" stroke="#000" fill="#000000">cgrp</text>
  <text xml:space="preserve" text-anchor="start" font-family="Helvetica, Arial, sans-serif" font-size="15" id="svg_23" y="81.999918" x="269.000129" fill-opacity="null" stroke-opacity="null" stroke-width="0" stroke="#000" fill="#000000">cgrp_link_list</text>
  <text stroke="#000" transform="matrix(0.5771001577377319,0,0,0.5767962336540221,110.93852268345654,27.258169869892296) " xml:space="preserve" text-anchor="start" font-family="Helvetica, Arial, sans-serif" font-size="15" id="svg_24" y="49.948894" x="269.264669" fill-opacity="null" stroke-opacity="null" stroke-width="0" fill="#000000">cg_cgroup_link</text>
  <rect stroke="#000" id="svg_25" height="94.666593" width="97.333254" y="64.666596" x="378.333376" fill-opacity="null" stroke-opacity="null" stroke-width="1.5" fill="#fff"/>
  <line stroke="#000" stroke-linecap="null" stroke-linejoin="null" id="svg_26" y2="89.333243" x2="474.333296" y1="89.333243" x1="378.333376" fill-opacity="null" stroke-opacity="null" stroke-width="1.5" fill="none"/>
  <line stroke="#000" stroke-linecap="null" stroke-linejoin="null" id="svg_27" y2="113.99989" x2="473.666634" y1="113.333224" x1="378.333376" fill-opacity="null" stroke-opacity="null" stroke-width="1.5" fill="none"/>
  <line stroke="#000" stroke-linecap="null" stroke-linejoin="null" id="svg_28" y2="136.666538" x2="474.333299" y1="135.999872" x1="378.333376" fill-opacity="null" stroke-opacity="null" stroke-width="1.5" fill="none"/>
  <text xml:space="preserve" text-anchor="start" font-family="Helvetica, Arial, sans-serif" font-size="15" id="svg_29" y="127.333215" x="389.000032" fill-opacity="null" stroke-opacity="null" stroke-width="0" stroke="#000" fill="#000000">cg_link_list</text>
  <text xml:space="preserve" text-anchor="start" font-family="Helvetica, Arial, sans-serif" font-size="15" id="svg_30" y="104.666566" x="409.66669" fill-opacity="null" stroke-opacity="null" stroke-width="0" stroke="#000" fill="#000000">cg</text>
  <text xml:space="preserve" text-anchor="start" font-family="Helvetica, Arial, sans-serif" font-size="15" id="svg_31" y="151.333193" x="408.33335" fill-opacity="null" stroke-opacity="null" stroke-width="0" stroke="#000" fill="#000000">cgrp</text>
  <text xml:space="preserve" text-anchor="start" font-family="Helvetica, Arial, sans-serif" font-size="15" id="svg_32" y="81.999918" x="385.666702" fill-opacity="null" stroke-opacity="null" stroke-width="0" stroke="#000" fill="#000000">cgrp_link_list</text>
  <text stroke="#000" transform="matrix(0.5771001577377319,0,0,0.5767962336540221,110.93852268345654,27.258169869892296) " xml:space="preserve" text-anchor="start" font-family="Helvetica, Arial, sans-serif" font-size="15" id="svg_33" y="49.948894" x="471.424679" fill-opacity="null" stroke-opacity="null" stroke-width="0" fill="#000000">cg_cgroup_link</text>
  <rect stroke="#000" id="svg_34" height="94.666593" width="97.333254" y="64.666596" x="499.666605" fill-opacity="null" stroke-opacity="null" stroke-width="1.5" fill="#fff"/>
  <line stroke="#000" stroke-linecap="null" stroke-linejoin="null" id="svg_35" y2="89.333243" x2="595.666524" y1="89.333243" x1="499.666605" fill-opacity="null" stroke-opacity="null" stroke-width="1.5" fill="none"/>
  <line stroke="#000" stroke-linecap="null" stroke-linejoin="null" id="svg_36" y2="113.99989" x2="594.999862" y1="113.333224" x1="499.666605" fill-opacity="null" stroke-opacity="null" stroke-width="1.5" fill="none"/>
  <line stroke="#000" stroke-linecap="null" stroke-linejoin="null" id="svg_37" y2="136.666538" x2="595.666528" y1="135.999872" x1="499.666605" fill-opacity="null" stroke-opacity="null" stroke-width="1.5" fill="none"/>
  <text xml:space="preserve" text-anchor="start" font-family="Helvetica, Arial, sans-serif" font-size="15" id="svg_38" y="127.333215" x="510.333261" fill-opacity="null" stroke-opacity="null" stroke-width="0" stroke="#000" fill="#000000">cg_link_list</text>
  <text xml:space="preserve" text-anchor="start" font-family="Helvetica, Arial, sans-serif" font-size="15" id="svg_39" y="104.666566" x="530.999918" fill-opacity="null" stroke-opacity="null" stroke-width="0" stroke="#000" fill="#000000">cg</text>
  <text xml:space="preserve" text-anchor="start" font-family="Helvetica, Arial, sans-serif" font-size="15" id="svg_40" y="151.333193" x="529.666578" fill-opacity="null" stroke-opacity="null" stroke-width="0" stroke="#000" fill="#000000">cgrp</text>
  <text xml:space="preserve" text-anchor="start" font-family="Helvetica, Arial, sans-serif" font-size="15" id="svg_41" y="81.999918" x="506.999931" fill-opacity="null" stroke-opacity="null" stroke-width="0" stroke="#000" fill="#000000">cgrp_link_list</text>
  <text stroke="#000" transform="matrix(0.5771001577377319,0,0,0.5767962336540221,110.93852268345654,27.258169869892296) " xml:space="preserve" text-anchor="start" font-family="Helvetica, Arial, sans-serif" font-size="15" id="svg_42" y="49.948894" x="681.671075" fill-opacity="null" stroke-opacity="null" stroke-width="0" fill="#000000">cg_cgroup_link</text>
  <rect stroke="#000" id="svg_52" height="94.666593" width="97.333254" y="64.666596" x="618.333172" fill-opacity="null" stroke-opacity="null" stroke-width="1.5" fill="#fff"/>
  <line stroke="#000" stroke-linecap="null" stroke-linejoin="null" id="svg_53" y2="89.333243" x2="714.333092" y1="89.333243" x1="618.333173" fill-opacity="null" stroke-opacity="null" stroke-width="1.5" fill="none"/>
  <line stroke="#000" stroke-linecap="null" stroke-linejoin="null" id="svg_54" y2="113.99989" x2="713.66643" y1="113.333224" x1="618.333173" fill-opacity="null" stroke-opacity="null" stroke-width="1.5" fill="none"/>
  <line stroke="#000" stroke-linecap="null" stroke-linejoin="null" id="svg_55" y2="136.666538" x2="714.333096" y1="135.999872" x1="618.333172" fill-opacity="null" stroke-opacity="null" stroke-width="1.5" fill="none"/>
  <text xml:space="preserve" text-anchor="start" font-family="Helvetica, Arial, sans-serif" font-size="15" id="svg_56" y="127.333215" x="628.999829" fill-opacity="null" stroke-opacity="null" stroke-width="0" stroke="#000" fill="#000000">cg_link_list</text>
  <text xml:space="preserve" text-anchor="start" font-family="Helvetica, Arial, sans-serif" font-size="15" id="svg_57" y="104.666566" x="649.666486" fill-opacity="null" stroke-opacity="null" stroke-width="0" stroke="#000" fill="#000000">cg</text>
  <text xml:space="preserve" text-anchor="start" font-family="Helvetica, Arial, sans-serif" font-size="15" id="svg_58" y="151.333193" x="648.333146" fill-opacity="null" stroke-opacity="null" stroke-width="0" stroke="#000" fill="#000000">cgrp</text>
  <text xml:space="preserve" text-anchor="start" font-family="Helvetica, Arial, sans-serif" font-size="15" id="svg_59" y="81.999918" x="625.666498" fill-opacity="null" stroke-opacity="null" stroke-width="0" stroke="#000" fill="#000000">cgrp_link_list</text>
  <text stroke="#000" transform="matrix(0.5771001577377319,0,0,0.5767962336540221,110.93852268345654,27.258169869892296) " xml:space="preserve" text-anchor="start" font-family="Helvetica, Arial, sans-serif" font-size="15" id="svg_60" y="49.948894" x="887.296678" fill-opacity="null" stroke-opacity="null" stroke-width="0" fill="#000000">cg_cgroup_link</text>
  <path stroke="#000000" id="svg_65" d="m103.483587,127.624098l11.21012,-4.666687l0,2.333337l16.246396,0l0,-2.333337l11.210115,4.666687l-11.210115,4.666662l0,-2.333331l-16.246396,0l0,2.333331l-11.21012,-4.666662z" fill-opacity="null" stroke-opacity="null" stroke-width="1.5" fill="#ffff56"/>
  <path stroke="#000000" id="svg_66" d="m236.150146,127.957436l7.344559,-5.000022l0,2.500004l10.644183,0l0,-2.500004l7.344559,5.000022l-7.344559,4.999995l0,-2.499997l-10.644183,0l0,2.499997l-7.344559,-4.999995z" fill-opacity="null" stroke-opacity="null" stroke-width="1.5" fill="#ffff56"/>
  <path id="svg_68" d="m357.220046,126.050752l6.571442,-4.333341l0,2.166665l9.523739,0l0,-2.166665l6.571439,4.333341l-6.571439,4.333318l0,-2.166659l-9.523739,0l0,2.166659l-6.571442,-4.333318z" stroke-opacity="null" stroke-width="1.5" stroke="#000" fill="#ffff00"/>
  <path id="svg_70" d="m475.219955,125.384084l6.57144,-4.33334l0,2.16667l9.52374,0l0,-2.16667l6.57144,4.33334l-6.57144,4.33332l0,-2.16666l-9.52374,0l0,2.16666l-6.57144,-4.33332z" stroke-opacity="null" stroke-width="1.5" stroke="#000" fill="#ffff00"/>
  <path id="svg_71" d="m594.553187,124.717414l6.57144,-4.33334l0,2.16667l9.52374,0l0,-2.16667l6.57144,4.33334l-6.57144,4.33332l0,-2.16666l-9.52374,0l0,2.16666l-6.57144,-4.33332z" stroke-opacity="null" stroke-width="1.5" stroke="#000" fill="#ffff00"/>
  <rect stroke="#000000" id="svg_73" height="58.666608" width="35.999974" y="211.333148" x="148.333563" stroke-opacity="null" stroke-width="1.5" fill="#ffffff"/>
  <text stroke="#000" transform="matrix(0.5771001577377319,0,0,0.5767962336540221,110.93852268345654,27.258169869892296) " xml:space="preserve" text-anchor="start" font-family="Helvetica, Arial, sans-serif" font-size="15" id="svg_74" y="303.071003" x="72.880675" fill-opacity="null" stroke-opacity="null" stroke-width="0" fill="#000000">cgroup</text>
  <line stroke-linecap="null" stroke-linejoin="null" id="svg_75" y2="231.333126" x2="184.33353" y1="231.333126" x1="147.666894" fill-opacity="null" stroke-opacity="null" stroke-width="1.5" stroke="#000000" fill="none"/>
  <line stroke-linecap="null" stroke-linejoin="null" id="svg_76" y2="246.666447" x2="183.666864" y1="246.666447" x1="148.33356" fill-opacity="null" stroke-opacity="null" stroke-width="1.5" stroke="#000000" fill="none"/>
  <text stroke="#000" transform="matrix(0.44792463928113335,0,0,0.5493195371931135,119.60579997385338,36.85573046715291) " xml:space="preserve" text-anchor="start" font-family="Helvetica, Arial, sans-serif" font-size="15" id="svg_77" y="371.494968" x="78.011998" fill-opacity="null" stroke-opacity="null" stroke-width="0" fill="#000000">subsys[]</text>
  <rect stroke="#000000" id="svg_78" height="118.666572" width="54.66662" y="309.666389" x="149.666889" fill-opacity="null" stroke-opacity="null" stroke-width="1.5" fill="#ffffff"/>
  <line stroke-linecap="null" stroke-linejoin="null" id="svg_79" y2="326.666382" x2="205.666846" y1="326.666382" x1="149.666892" fill-opacity="null" stroke-opacity="null" stroke-width="1.5" stroke="#000000" fill="none"/>
  <text stroke="#000000" xml:space="preserve" text-anchor="start" font-family="Helvetica, Arial, sans-serif" font-size="15" id="svg_80" y="321.999719" x="161.666882" fill-opacity="null" stroke-opacity="null" stroke-width="0" fill="#000000">css</text>
  <text stroke="#000" transform="matrix(0.5771001577377319,0,0,0.5767962336540221,110.93852268345654,27.258169869892296) " xml:space="preserve" text-anchor="start" font-family="Helvetica, Arial, sans-serif" font-size="15" id="svg_81" y="477.598127" x="71.725475" fill-opacity="null" stroke-opacity="null" stroke-width="0" fill="#000000">pids_cgroup</text>
  <path d="m166.333542,150.666519c0,0 -0.666656,0 -0.666656,0c-0.666672,0 -2,0 -2,0c-0.666672,0 -1.333344,0 -2,0c-0.666672,0 -1.128952,0.305878 -2,0.666672c-0.615921,0.255127 -0.462296,0.305878 -1.333328,0.666672c-0.615921,0.255127 -1.384094,0.411545 -2,0.666656c-0.871048,0.360794 -1.457352,1.128372 -2.666672,2c-0.764847,0.55127 -2,1.333328 -2.666656,2c-0.666672,0.666672 -2,1.333328 -2.666672,2c-0.666656,0.666672 -2.305862,1.128952 -2.666656,2c-0.255127,0.615921 -0.195282,0.861938 -0.666672,1.333328c-0.471405,0.471405 -0.861938,0.195282 -1.333328,0.666672c-0.47139,0.47139 -0.195267,0.861923 -0.666672,1.333328c-0.471405,0.471405 0,1.333328 0,1.333328c-0.666672,0.666672 -0.666672,0.666672 -0.666672,1.333344c0,0.666656 -0.666656,0.666656 -0.666656,1.333328c0,0.666656 -0.513504,1.351166 -0.666672,2c-0.342484,1.450821 -0.972534,2.46228 -1.333328,3.333328c-0.255112,0.615906 0,1.333328 -0.666672,2c0,0 0,0.666656 0,1.333328c0,0 0,0.666672 0,0.666672c0,0.666656 0,0.666656 0,1.333328c0,0.666672 0,0.666672 0,0.666672c0,0.666656 0,0.666656 0,1.333328c0,0.666656 -0.255127,0.717407 0,1.333328c0.360794,0.871048 0.666672,0.666672 0.666672,1.333328c0,0.666672 0.195267,0.861938 0.666672,1.333344c0.47139,0.47139 0,1.333328 0,1.333328c0,0.666656 0,0.666656 0,1.333328c0,0.666672 0.305862,0.462296 0.666656,1.333328c0.255127,0.615921 0,0.666672 0,1.333344c0,0 0,0.666656 0,1.333328c0,0 0,0.666672 0,0.666672c0,0.666656 0.666672,0.666656 0.666672,1.333328c0,0 0,0 0,0.666656c0,0 0,0 0,0.666672c0,0 0.666656,0 0.666656,0.666672c0,0 0,0 0,0.666656c0,0 0.666672,0 0.666672,0.666672c0,0 0,0 0,0c0,0.666672 0,0.666672 0,0.666672c0.666672,0.666656 0.666672,0.666656 0.666672,1.333328c0,0 0.666656,0.666656 0.666656,0.666656c0,0 0.666672,0.666672 0.666672,0.666672c0,0.666672 0,0.666672 0.666672,1.333328c0,0 0,0.666672 0.666656,1.333344c0,0 0.666672,0.666656 0.666672,0.666656c0,0.666672 0,0.666672 0.666672,1.333344c0,0 0,0 0,0c0,0.666656 0,0.666656 0.666656,1.333328c0,0 0,0 0,0c0,0.666656 0,0.666656 0,0.666656c0.666672,0 0.666672,0.666672 0.666672,0.666672c0,0 0,0 0,0.666672l0,-0.666672l0,0" id="svg_82" fill-opacity="null" stroke-opacity="null" stroke-width="1.5" stroke="#000000" fill="none"/>
  <path d="m141.000229,206.666473c0,0 0,0 0.666672,0c0,0 0.666656,0 0.666656,0c0.666672,0 1.333344,0 1.333344,0c0.666656,0 1.333328,0 1.333328,0c0.666672,0 0.666672,0 1.333328,0.666672c0,0 0,0 0.666672,0c0,0 0,0 0,0c0,0 0.666672,0 0.666672,0c0,0 0,0 0,0c0.666656,0 0.666656,0 0.666656,0c0,-0.666672 0,-0.666672 0,-0.666672c0,0 0,-0.666656 0,-0.666656c0,0 0,0 0,-0.666672c0,0 0,0 0,0c0,-0.666656 0,-0.666656 0,-0.666656c0,0 0,-0.666672 0,-0.666672c0,0 0,0 0,-0.666672c0,0 0,0 0,-0.666656c0,0 0,0 0,0c0,0 0,-0.666672 0,-0.666672c0,0 0,0 0,-0.666672c0,0 0,0 0,0c0,-0.666656 0,-0.666656 0,-0.666656c0,0 0,-0.666672 0,-0.666672c0,0 0,0 0,-0.666672c0,0 0.666672,0 0.666672,0c0,-0.666656 0,-0.666656 0,-0.666656c0,0 0,-0.666672 0,-0.666672c0.666656,0 0.666656,0 0.666656,-0.666656c0,0 0.666672,0 0.666672,-0.666672c0,0 0,0 0,0c0,0 0.666672,-0.666672 0.666672,-0.666672c0,0 0,-0.666656 0,-0.666656l0,0l0,0l0,-0.666672" id="svg_83" fill-opacity="null" stroke-opacity="null" stroke-width="1.5" stroke="#000000" fill="none"/>
  <path d="m183.000198,239.333115c0.666672,0 0.666672,0 0.666672,0c0,0 0.666656,0 0.666656,0c0,0 0,0 0.666672,0c0,0 0,0 0.666672,0c0,0 0.666656,0.666672 0.666656,0.666672c0.666672,0 2,0 2.666672,0c0.666656,0 0.861923,0.195267 1.333328,0.666672c0.471405,0.471405 0.666672,0 1.333328,0c0,0 0.666672,0 0.666672,0c0.666656,0 0.666656,0 1.333328,0c0,0 0,0 0.666672,0.666656c0,0 0,0 0.666656,0c0,0 0.050751,-0.255127 0.666672,0c0.871048,0.360794 1.333328,0.666672 1.333328,0.666672c0.666672,0 1.333344,0.666656 2,0.666656c0,0 0.666672,0.666672 0.666672,0.666672c0.666656,0 0.666656,0 1.333328,0c0,0 0,0 0.666672,0.666672c0,0 0.666656,0 0.666656,0c0,0 0,0 0.666672,0c0,0 0,0.666656 0,0.666656c0.666672,0 0.666672,0 0.666672,0c0,0 0.666656,0 0.666656,0c0,0 0.195267,-0.471405 0.666672,0c0.471405,0.471405 0,0.666672 0,0.666672c0,0 0.666656,0 0.666656,0c0,0 0,0 0,0c0,0 0.666672,0 0.666672,0c0,0.666672 0,0.666672 0.666672,0.666672c0,0 0,0 0,0c0,0 0,0.666656 0,0.666656c0,0 0,0 0,0c0.666656,0 0.666656,0.666672 0.666656,0.666672c0.666672,0.666672 0.666672,0.666672 1.333344,1.333328c0,0 0.666656,0.666672 0.666656,0.666672c0,0 0.195267,0.195251 0.666672,0.666656c0.471405,0.471405 0.666656,1.333344 1.333328,2.666672c0.666672,1.333328 1.639206,1.795624 2,2.666656c0.255127,0.615921 0.41156,1.384094 0.666672,2c0.360794,0.871033 1.639206,1.795624 2,2.666656c0.510254,1.231842 0.972534,1.795624 1.333328,2.666687c0.255112,0.615906 0,1.333313 0,1.333313c0.666656,0.666687 0.666656,0.666687 0.666656,1.333344c0,0 0,0 0,0.666656c0,0 0.156448,0.768188 0.666672,2c0.360794,0.871063 0.972534,1.795624 1.333328,2.666687c0.255112,0.615906 0.324173,1.21582 0.666672,2.666656c0.153168,0.648834 0.513504,2.017822 0.666672,2.666656c0.342484,1.450836 0.995636,1.919037 1.333328,4c0.106781,0.658051 0,1.333344 0,2c0,0.666656 0.305862,1.795624 0.666656,2.666656c0.510254,1.231842 0,2.666656 0,3.333344c0,1.333313 0.324173,1.882507 0.666672,3.333313c0.306351,1.297668 0,2 0,2.666687c0,0.666656 0,1.333313 0,1.999969c0,0.666687 0,1.333344 0,2c0,0.666687 0,0.666687 0,1.333344c0,0.666656 0,0.666656 0,1.333344c0,0 0,0.666656 0,1.333313c0,0 0,0.666687 0,0.666687c0,0 0,0 0,0.666656c0,0 0,0 -0.666672,0.666656c0,0 0,0 0,0.666687c0,0 0.47139,0.195251 0,0.666656c-0.47139,0.471405 -0.195267,0.195251 -0.666656,0.666656c-0.471405,0.471405 -0.666672,0.666687 -0.666672,0.666687c-0.666656,0.666656 -0.861938,1.528564 -1.333328,1.999969c-0.471405,0.471405 -0.666672,0.666687 -0.666672,0.666687c-0.666656,0.666656 -0.195267,0.861908 -0.666656,1.333313c-0.471405,0.471405 -0.46228,0.305878 -1.333344,0.666687c-0.615906,0.255127 -0.666672,0.666656 -1.333328,1.333313c-0.666672,0.666687 -1.639206,1.128967 -2,2c-0.255127,0.615936 -0.195267,0.861938 -0.666656,1.333344c-0.471405,0.471405 -0.666672,0 -0.666672,0c0,0 -0.666672,0.666656 -0.666672,0.666656c0,0 -0.666656,0 -0.666656,0c0,0 -0.666672,0 -0.666672,0c-0.666672,0 -0.666672,0 -1.333328,0.666687c0,0 -0.666672,0 -1.333328,0c0,0 -0.666672,0 -0.666672,0c-0.666672,0 -0.666672,0 -1.333328,0c-0.666672,0 -0.666672,0 -0.666672,0c-0.666672,0 -0.666672,0 -1.333328,0c0,0 0,0 -0.666672,0c0,0 0,0 0,0c-0.666656,0 -0.195267,0.195251 -0.666656,0.666656c-0.471405,0.471405 -0.666672,0 -0.666672,0c0,0 -0.666672,0 -0.666672,0c0,0 -0.666656,0 -0.666656,0c0,0 -0.666672,0 -0.666672,0c0,0 -0.195267,-0.471405 -0.666672,0c-0.47139,0.471405 0,0.666656 0,0.666656c-0.666656,0 -0.666656,0 -0.666656,0c0,0 0,0 -0.666672,0c0,0 0,0 0,0c-0.666656,0 -0.195236,0.195282 -0.666656,0.666687c-0.471405,0.471405 -0.666672,0 -0.666672,0c-0.666672,0 -0.666672,0 -1.333328,0c0,0 0,0 0,0c-0.666672,0 -0.666672,0 -0.666672,0c0,0 0,0 -0.666672,0l0,0l0,0" id="svg_84" fill-opacity="null" stroke-opacity="null" stroke-width="1.5" stroke="#000000" fill="none"/>
  <path d="m198.333527,313.999725c0,0.666656 0,0.666656 -0.666672,0.666656c0,0 0.47139,0.861938 0,1.333344c-0.471405,0.471405 -0.666672,0 -0.666672,0c0,0.666656 0,0.666656 -0.666656,0.666656c0,0 0,0 0,0c0,0.666687 0,0.666687 0,0.666687c0,0 -0.666672,0 -0.666672,0c0,0 0,0 0,0.666656c0,0 0,0 0,0c0,0 0,0.666656 0,0.666656c-0.666672,0 -0.666672,0 -0.666672,0c0,0 0,0 0,0.666687c0,0 0,0 0,0c-0.666656,0 -0.666656,0 -0.666656,0c0,0.666656 0,0.666656 0.666656,0.666656c0,0 0,0 0,0c0.666672,0 0.666672,0 0.666672,0c0,0 0,0 0.666672,0c0,0 0,0 0,0c0,0 0.666656,0 0.666656,0.666656c0,0 0,0 0,0c0,0 0,0.666656 0.666672,0.666656c0,0 0,0 0,0.666687c0,0 0,0 0.666672,0c0,0 0,0 0,0.666656c0,0 0,0 0,0c0,0 0.666656,0 0.666656,0c0,0 0,0.666656 0,0.666656c0,0 0,0 0,0l0.666672,0l0,0l0,0" id="svg_85" fill-opacity="null" stroke-opacity="null" stroke-width="1.5" stroke="#000000" fill="none"/>
  <rect stroke="#000000" id="svg_86" height="58.666608" width="35.999974" y="209.999815" x="271.000128" stroke-opacity="null" stroke-width="1.5" fill="#ffffff"/>
  <text stroke="#000" transform="matrix(0.5771001577377319,0,0,0.5767962336540221,110.93852268345654,27.258169869892296) " xml:space="preserve" text-anchor="start" font-family="Helvetica, Arial, sans-serif" font-size="15" id="svg_87" y="300.759386" x="285.437479" fill-opacity="null" stroke-opacity="null" stroke-width="0" fill="#000000">cgroup</text>
  <line stroke-linecap="null" stroke-linejoin="null" id="svg_88" y2="229.999794" x2="307.000095" y1="229.999794" x1="270.333459" fill-opacity="null" stroke-opacity="null" stroke-width="1.5" stroke="#000000" fill="none"/>
  <line stroke-linecap="null" stroke-linejoin="null" id="svg_89" y2="245.333115" x2="306.333429" y1="245.333115" x1="271.000125" fill-opacity="null" stroke-opacity="null" stroke-width="1.5" stroke="#000000" fill="none"/>
  <text stroke="#000" transform="matrix(0.44792463928113335,0,0,0.5493195371931135,119.60579997385338,36.85573046715291) " xml:space="preserve" text-anchor="start" font-family="Helvetica, Arial, sans-serif" font-size="15" id="svg_90" y="369.067724" x="351.867362" fill-opacity="null" stroke-opacity="null" stroke-width="0" fill="#000000">subsys[]</text>
  <rect stroke="#000000" id="svg_91" height="118.666572" width="54.66662" y="309.6664" x="272.333454" fill-opacity="null" stroke-opacity="null" stroke-width="1.5" fill="#ffffff"/>
  <line stroke-linecap="null" stroke-linejoin="null" id="svg_92" y2="325.33305" x2="328.333411" y1="325.33305" x1="272.333457" fill-opacity="null" stroke-opacity="null" stroke-width="1.5" stroke="#000000" fill="none"/>
  <text stroke="#000" transform="matrix(0.5771001577377319,0,0,0.5767962336540221,110.93852268345654,27.258169869892296) " xml:space="preserve" text-anchor="start" font-family="Helvetica, Arial, sans-serif" font-size="15" id="svg_94" y="475.28651" x="283.127079" fill-opacity="null" stroke-opacity="null" stroke-width="0" fill="#000000">cpuacct</text>
  <path d="m289.000105,149.333188c0,0 -0.66665,0 -0.66665,0c-0.66668,0 -2,0 -2,0c-0.66668,0 -1.33335,0 -2,0c-0.66668,0 -1.12896,0.30588 -2,0.66667c-0.61593,0.25513 -0.4623,0.30588 -1.33333,0.66667c-0.61592,0.25513 -1.3841,0.41155 -2,0.66666c-0.87105,0.36079 -1.45735,1.12837 -2.66667,2c-0.76485,0.55127 -2,1.33333 -2.66666,2c-0.66667,0.66667 -2,1.33333 -2.66667,2c-0.66666,0.66667 -2.30587,1.12895 -2.66666,2c-0.25513,0.61592 -0.19528,0.86194 -0.66667,1.33333c-0.47141,0.4714 -0.86194,0.19528 -1.33333,0.66667c-0.47139,0.47139 -0.19527,0.86192 -0.66667,1.33333c-0.47141,0.4714 0,1.33333 0,1.33333c-0.66667,0.66667 -0.66667,0.66667 -0.66667,1.33334c0,0.66666 -0.66666,0.66666 -0.66666,1.33333c0,0.66665 -0.5135,1.35116 -0.66667,2c-0.34248,1.45082 -0.97254,2.46228 -1.33333,3.33333c-0.25511,0.6159 0,1.33332 -0.66667,2c0,0 0,0.66665 0,1.33332c0,0 0,0.66668 0,0.66668c0,0.66665 0,0.66665 0,1.33332c0,0.66668 0,0.66668 0,0.66668c0,0.66665 0,0.66665 0,1.33332c0,0.66666 -0.25513,0.71741 0,1.33333c0.36079,0.87105 0.66667,0.66667 0.66667,1.33333c0,0.66667 0.19527,0.86194 0.66667,1.33334c0.47139,0.47139 0,1.33333 0,1.33333c0,0.66666 0,0.66666 0,1.33333c0,0.66667 0.30586,0.4623 0.66666,1.33333c0.25513,0.61592 0,0.66667 0,1.33334c0,0 0,0.66666 0,1.33333c0,0 0,0.66667 0,0.66667c0,0.66666 0.66667,0.66666 0.66667,1.33333c0,0 0,0 0,0.66666c0,0 0,0 0,0.66667c0,0 0.66666,0 0.66666,0.66667c0,0 0,0 0,0.66666c0,0 0.66667,0 0.66667,0.66667c0,0 0,0 0,0c0,0.66667 0,0.66667 0,0.66667c0.66667,0.66666 0.66667,0.66666 0.66667,1.33333c0,0 0.66666,0.66666 0.66666,0.66666c0,0 0.66667,0.66667 0.66667,0.66667c0,0.66667 0,0.66667 0.66667,1.33333c0,0 0,0.66667 0.66666,1.33334c0,0 0.66667,0.66666 0.66667,0.66666c0,0.66667 0,0.66667 0.66667,1.33334c0,0 0,0 0,0c0,0.66666 0,0.66666 0.66666,1.33333c0,0 0,0 0,0c0,0.66665 0,0.66665 0,0.66665c0.66667,0 0.66667,0.66668 0.66667,0.66668c0,0 0,0 0,0.66667l0,-0.66667l0,0" id="svg_95" fill-opacity="null" stroke-opacity="null" stroke-width="1.5" stroke="#000000" fill="none"/>
  <path d="m263.666795,205.333138c0,0 0,0 0.66667,0c0,0 0.66666,0 0.66666,0c0.66667,0 1.33334,0 1.33334,0c0.66666,0 1.33333,0 1.33333,0c0.66667,0 0.66667,0 1.33333,0.66668c0,0 0,0 0.66667,0c0,0 0,0 0,0c0,0 0.66667,0 0.66667,0c0,0 0,0 0,0c0.66666,0 0.66666,0 0.66666,0c0,-0.66668 0,-0.66668 0,-0.66668c0,0 0,-0.66665 0,-0.66665c0,0 0,0 0,-0.66667c0,0 0,0 0,0c0,-0.66666 0,-0.66666 0,-0.66666c0,0 0,-0.66667 0,-0.66667c0,0 0,0 0,-0.66667c0,0 0,0 0,-0.66666c0,0 0,0 0,0c0,0 0,-0.66667 0,-0.66667c0,0 0,0 0,-0.66667c0,0 0,0 0,0c0,-0.66666 0,-0.66666 0,-0.66666c0,0 0,-0.66667 0,-0.66667c0,0 0,0 0,-0.66667c0,0 0.66667,0 0.66667,0c0,-0.66666 0,-0.66666 0,-0.66666c0,0 0,-0.66667 0,-0.66667c0.66666,0 0.66666,0 0.66666,-0.66666c0,0 0.66667,0 0.66667,-0.66667c0,0 0,0 0,0c0,0 0.66667,-0.66667 0.66667,-0.66667c0,0 0,-0.66666 0,-0.66666l0,0l0,0l0,-0.66667" id="svg_96" fill-opacity="null" stroke-opacity="null" stroke-width="1.5" stroke="#000000" fill="none"/>
  <path d="m305.666765,237.999778c0.66667,0 0.66667,0 0.66667,0c0,0 0.66666,0 0.66666,0c0,0 0,0 0.66667,0c0,0 0,0 0.66667,0c0,0 0.66666,0.66668 0.66666,0.66668c0.66667,0 2,0 2.66667,0c0.66665,0 0.86192,0.19526 1.33333,0.66667c0.4714,0.4714 0.66667,0 1.33332,0c0,0 0.66668,0 0.66668,0c0.66665,0 0.66665,0 1.33332,0c0,0 0,0 0.66668,0.66665c0,0 0,0 0.66665,0c0,0 0.05075,-0.25512 0.66667,0c0.87105,0.3608 1.33333,0.66668 1.33333,0.66668c0.66667,0 1.33335,0.66665 2,0.66665c0,0 0.66667,0.66667 0.66667,0.66667c0.66666,0 0.66666,0 1.33333,0c0,0 0,0 0.66667,0.66668c0,0 0.66666,0 0.66666,0c0,0 0,0 0.66667,0c0,0 0,0.66665 0,0.66665c0.66667,0 0.66667,0 0.66667,0c0,0 0.66666,0 0.66666,0c0,0 0.19527,-0.4714 0.66667,0c0.47141,0.47141 0,0.66667 0,0.66667c0,0 0.66666,0 0.66666,0c0,0 0,0 0,0c0,0 0.66667,0 0.66667,0c0,0.66668 0,0.66668 0.66667,0.66668c0,0 0,0 0,0c0,0 0,0.66665 0,0.66665c0,0 0,0 0,0c0.66666,0 0.66666,0.66667 0.66666,0.66667c0.66667,0.66668 0.66667,0.66668 1.33334,1.33333c0,0 0.66666,0.66667 0.66666,0.66667c0,0 0.19527,0.19526 0.66667,0.66666c0.47141,0.47141 0.66666,1.33334 1.33333,2.66667c0.66667,1.33333 1.63921,1.79563 2,2.66666c0.25513,0.61592 0.41156,1.38409 0.66667,2c0.3608,0.87103 1.63921,1.79562 2,2.66666c0.51026,1.23184 0.97254,1.79562 1.33333,2.66668c0.25511,0.61591 0,1.33332 0,1.33332c0.66666,0.66668 0.66666,0.66668 0.66666,1.33334c0,0 0,0 0,0.66666c0,0 0.15644,0.76818 0.66667,2c0.36079,0.87106 0.97253,1.79562 1.33333,2.66668c0.25511,0.61591 0.32417,1.21582 0.66667,2.66666c0.15317,0.64883 0.5135,2.01782 0.66667,2.66666c0.34248,1.45083 0.99564,1.91903 1.33333,4c0.10678,0.65805 0,1.33334 0,2c0,0.66665 0.30586,1.79562 0.66665,2.66665c0.51026,1.23184 0,2.66666 0,3.33335c0,1.33331 0.32418,1.8825 0.66668,3.33331c0.30635,1.29767 0,2 0,2.66669c0,0.66665 0,1.33331 0,1.99997c0,0.66668 0,1.33334 0,2c0,0.66668 0,0.66668 0,1.33334c0,0.66666 0,0.66666 0,1.33334c0,0 0,0.66666 0,1.33332c0,0 0,0.66668 0,0.66668c0,0 0,0 0,0.66666c0,0 0,0 -0.66668,0.66666c0,0 0,0 0,0.66668c0,0 0.47139,0.19525 0,0.66666c-0.47139,0.4714 -0.19526,0.19525 -0.66665,0.66666c-0.47141,0.4714 -0.66667,0.66668 -0.66667,0.66668c-0.66666,0.66666 -0.86194,1.52857 -1.33333,1.99997c-0.47141,0.47141 -0.66667,0.66669 -0.66667,0.66669c-0.66666,0.66666 -0.19527,0.86191 -0.66666,1.33331c-0.47141,0.47141 -0.46228,0.30588 -1.33334,0.66669c-0.61591,0.25513 -0.66668,0.66666 -1.33333,1.33331c-0.66667,0.66669 -1.63921,1.12897 -2,2c-0.25513,0.61594 -0.19527,0.86194 -0.66666,1.33335c-0.4714,0.4714 -0.66667,0 -0.66667,0c0,0 -0.66667,0.66665 -0.66667,0.66665c0,0 -0.66666,0 -0.66666,0c0,0 -0.66667,0 -0.66667,0c-0.66667,0 -0.66667,0 -1.33333,0.66669c0,0 -0.66667,0 -1.33333,0c0,0 -0.66667,0 -0.66667,0c-0.66667,0 -0.66667,0 -1.33333,0c-0.66667,0 -0.66667,0 -0.66667,0c-0.66667,0 -0.66667,0 -1.33333,0c0,0 0,0 -0.66667,0c0,0 0,0 0,0c-0.66666,0 -0.19527,0.19525 -0.66666,0.66666c-0.4714,0.4714 -0.66667,0 -0.66667,0c0,0 -0.66667,0 -0.66667,0c0,0 -0.66666,0 -0.66666,0c0,0 -0.66667,0 -0.66667,0c0,0 -0.19526,-0.47141 -0.66667,0c-0.47139,0.4714 0,0.66665 0,0.66665c-0.66666,0 -0.66666,0 -0.66666,0c0,0 0,0 -0.66667,0c0,0 0,0 0,0c-0.66665,0 -0.19523,0.19528 -0.66665,0.66669c-0.47141,0.4714 -0.66668,0 -0.66668,0c-0.66667,0 -0.66667,0 -1.33332,0c0,0 0,0 0,0c-0.66668,0 -0.66668,0 -0.66668,0c0,0 0,0 -0.66667,0l0,0l0,0" id="svg_97" fill-opacity="null" stroke-opacity="null" stroke-width="1.5" stroke="#000000" fill="none"/>
  <path d="m321.000095,312.666398c0,0.66665 0,0.66665 -0.66668,0.66665c0,0 0.47139,0.86194 0,1.33335c-0.4714,0.4714 -0.66667,0 -0.66667,0c0,0.66665 0,0.66665 -0.66665,0.66665c0,0 0,0 0,0c0,0.66669 0,0.66669 0,0.66669c0,0 -0.66668,0 -0.66668,0c0,0 0,0 0,0.66666c0,0 0,0 0,0c0,0 0,0.66665 0,0.66665c-0.66667,0 -0.66667,0 -0.66667,0c0,0 0,0 0,0.66669c0,0 0,0 0,0c-0.66665,0 -0.66665,0 -0.66665,0c0,0.66666 0,0.66666 0.66665,0.66666c0,0 0,0 0,0c0.66667,0 0.66667,0 0.66667,0c0,0 0,0 0.66668,0c0,0 0,0 0,0c0,0 0.66665,0 0.66665,0.66665c0,0 0,0 0,0c0,0 0,0.66666 0.66667,0.66666c0,0 0,0 0,0.66669c0,0 0,0 0.66668,0c0,0 0,0 0,0.66665c0,0 0,0 0,0c0,0 0.66665,0 0.66665,0c0,0 0,0.66666 0,0.66666c0,0 0,0 0,0l0.66667,0l0,0l0,0" id="svg_98" fill-opacity="null" stroke-opacity="null" stroke-width="1.5" stroke="#000000" fill="none"/>
  <rect stroke="#000000" id="svg_99" height="118.666572" width="54.66662" y="309.666389" x="348.333393" fill-opacity="null" stroke-opacity="null" stroke-width="1.5" fill="#ffffff"/>
  <line stroke-linecap="null" stroke-linejoin="null" id="svg_100" y2="326.666382" x2="404.33335" y1="326.666382" x1="348.333396" fill-opacity="null" stroke-opacity="null" stroke-width="1.5" stroke="#000000" fill="none"/>
  <text stroke="#000000" xml:space="preserve" text-anchor="start" font-family="Helvetica, Arial, sans-serif" font-size="15" id="svg_101" y="321.999719" x="361.650188" fill-opacity="null" stroke-opacity="null" stroke-width="0" fill="#000000">css</text>
  <text stroke="#000" transform="matrix(0.5771001577377319,0,0,0.5767962336540221,110.93852268345654,27.258169869892296) " xml:space="preserve" text-anchor="start" font-family="Helvetica, Arial, sans-serif" font-size="15" id="svg_102" y="476.442319" x="414.819885" fill-opacity="null" stroke-opacity="null" stroke-width="0" fill="#000000">task_group</text>
  <path d="m397.000029,313.999732c0,0.66665 0,0.66665 -0.66668,0.66665c0,0 0.47139,0.86194 0,1.33335c-0.4714,0.4714 -0.66667,0 -0.66667,0c0,0.66665 0,0.66665 -0.66665,0.66665c0,0 0,0 0,0c0,0.66669 0,0.66669 0,0.66669c0,0 -0.66668,0 -0.66668,0c0,0 0,0 0,0.66666c0,0 0,0 0,0c0,0 0,0.66665 0,0.66665c-0.66667,0 -0.66667,0 -0.66667,0c0,0 0,0 0,0.66669c0,0 0,0 0,0c-0.66665,0 -0.66665,0 -0.66665,0c0,0.66666 0,0.66666 0.66665,0.66666c0,0 0,0 0,0c0.66667,0 0.66667,0 0.66667,0c0,0 0,0 0.66668,0c0,0 0,0 0,0c0,0 0.66665,0 0.66665,0.66665c0,0 0,0 0,0c0,0 0,0.66666 0.66667,0.66666c0,0 0,0 0,0.66669c0,0 0,0 0.66668,0c0,0 0,0 0,0.66665c0,0 0,0 0,0c0,0 0.66665,0 0.66665,0c0,0 0,0.66666 0,0.66666c0,0 0,0 0,0l0.66667,0l0,0l0,0" id="svg_104" fill-opacity="null" stroke-opacity="null" stroke-width="1.5" stroke="#000000" fill="none"/>
  <path d="m305.000092,235.999786c0.666687,0 1.346313,0.262756 4,0c3.382813,-0.334961 8,-0.666656 14,-0.666656c5.333313,0 10.69455,-0.19429 15.999969,0.666656c3.355469,0.54451 5.882965,0.065277 6.666656,1.333328c0.350494,0.567108 0.666687,0.666672 1.333344,0.666672c0,0 1.25238,0.328979 3.333344,0.666672c2.632233,0.427155 5.476898,0.079285 9.333313,1.333328c1.417664,0.460999 3.289429,0.762863 4.666656,1.333328c1.947723,0.806778 3.289429,0.762863 4.666687,1.333328c1.947693,0.806747 3.956055,0.762878 5.333313,1.333344c1.947693,0.806763 3.882507,1.657501 5.333344,2c0.648834,0.153168 1.333313,0 1.333313,0.666656c0,0 0.008606,-0.106796 0.666687,0c2.080933,0.337692 3.421326,1.170227 5.999969,2.666672c2.078979,1.206482 4,2 5.333344,2.666656c0,0 1.333344,0.666687 2.666656,1.333344c1.333344,0.666672 4.554169,2.81369 8,5.333328c3.880615,2.837585 6.612183,5.408081 9.333313,7.333313c1.96225,1.388306 2.473511,2.695282 2.666687,3.333344c0.696533,2.300568 2,3.333313 2.666656,4.666656c0.666656,1.333344 1.180176,2.017822 1.333344,2.666656c0.342499,1.450836 1.921234,4.048523 3.999969,7.333344c1.28537,2.031158 2.225006,4.873322 3.333344,6.666656c0.495667,0.802002 0.666656,1.333344 0.666656,1.333344c0,0 0,1.333313 0,2.666656c0,1.333313 0,2.666656 0,3.333313c0,0.666687 0,0.666687 0,0.666687c0,0.666656 -0.666656,1.333313 -1.333313,2c-1.333313,1.333344 -2,2.666656 -3.333344,3.333313c-1.333344,0.666687 -2.017822,1.846832 -2.666656,2c-1.450836,0.342499 -2.017822,1.180176 -2.666656,1.333344c-1.450836,0.342499 -2.050751,0.41153 -2.666687,0.666656c-0.871033,0.360779 -1.128937,0.972534 -2,1.333344c-0.615906,0.255127 -1.128937,0.305878 -2,0.666656c-0.615906,0.255096 -1.384064,-0.255127 -2,0c-0.871033,0.360779 -1.333313,0.666656 -1.333313,0.666656c0,0 0,0 -0.666656,0.666687c0,0 -1.235168,0.115387 -2,0.666656c-1.209351,0.871643 -1.333344,0.666656 -2,0.666656c0,0 0.471405,0.195282 0,0.666687c-0.471405,0.471405 -0.666687,0 -0.666687,0.666656c0,0 0,0 0,0.666656c0,0 -0.666656,0 -0.666656,0c0,0 0.471405,0.195282 0,0.666687c-0.471405,0.471405 -0.666656,0 -0.666656,0c0,0.666656 -0.666687,0.666656 -0.666687,0.666656c0,0 -0.195251,-0.471405 -0.666656,0c-0.471405,0.471405 0,0.666656 0,0.666656c-0.666656,0 -0.666656,0 -0.666656,0c-0.666687,0.666687 -0.666687,0.666687 -0.666687,0.666687c0,0 -0.195251,-0.471405 -0.666656,0c-0.471405,0.471405 -0.666656,0.666656 -0.666656,0.666656c0,0 0,0 -0.666687,0.666656c0,0 -0.666656,0 -0.666656,0.666687l0,0l0,-0.666687" id="svg_105" fill-opacity="null" stroke-opacity="null" stroke-width="1.5" stroke="#000000" fill="none"/>
  <rect stroke="#000000" id="svg_106" height="58.666608" width="35.999974" y="209.999815" x="630.333166" stroke-opacity="null" stroke-width="1.5" fill="#ffffff"/>
  <text stroke="#000" transform="matrix(0.5771001577377319,0,0,0.5767962336540221,110.93852268345654,27.258169869892296) " xml:space="preserve" text-anchor="start" font-family="Helvetica, Arial, sans-serif" font-size="15" id="svg_107" y="300.759386" x="908.090295" fill-opacity="null" stroke-opacity="null" stroke-width="0" fill="#000000">cgroup</text>
  <line stroke-linecap="null" stroke-linejoin="null" id="svg_108" y2="229.999794" x2="666.333134" y1="229.999794" x1="629.666497" fill-opacity="null" stroke-opacity="null" stroke-width="1.5" stroke="#000000" fill="none"/>
  <line stroke-linecap="null" stroke-linejoin="null" id="svg_109" y2="245.333115" x2="665.666468" y1="245.333115" x1="630.333163" fill-opacity="null" stroke-opacity="null" stroke-width="1.5" stroke="#000000" fill="none"/>
  <text stroke="#000" transform="matrix(0.44792463928113335,0,0,0.5493195371931135,119.60579997385338,36.85573046715291) " xml:space="preserve" text-anchor="start" font-family="Helvetica, Arial, sans-serif" font-size="15" id="svg_110" y="369.067724" x="1154.084983" fill-opacity="null" stroke-opacity="null" stroke-width="0" fill="#000000">subsys[]</text>
  <rect stroke="#000000" id="svg_111" height="118.666572" width="54.66662" y="309.6664" x="631.666493" fill-opacity="null" stroke-opacity="null" stroke-width="1.5" fill="#ffffff"/>
  <line stroke-linecap="null" stroke-linejoin="null" id="svg_112" y2="326.666382" x2="687.66645" y1="326.666382" x1="631.666495" fill-opacity="null" stroke-opacity="null" stroke-width="1.5" stroke="#000000" fill="none"/>
  <text stroke="#000" transform="matrix(0.5771001577377319,0,0,0.5767962336540221,110.93852268345654,27.258169869892296) " xml:space="preserve" text-anchor="start" font-family="Helvetica, Arial, sans-serif" font-size="15" id="svg_114" y="482.221362" x="904.624695" fill-opacity="null" stroke-opacity="null" stroke-width="0" fill="#000000">blkio_cgroup</text>
  <path d="m648.333143,149.333188c0,0 -0.66665,0 -0.66665,0c-0.66668,0 -2,0 -2,0c-0.66668,0 -1.33335,0 -2,0c-0.66668,0 -1.12896,0.30588 -2,0.66667c-0.61593,0.25513 -0.4623,0.30588 -1.33333,0.66667c-0.61592,0.25513 -1.3841,0.41155 -2,0.66666c-0.87105,0.36079 -1.45735,1.12837 -2.66667,2c-0.76485,0.55127 -2,1.33333 -2.66666,2c-0.66667,0.66667 -2,1.33333 -2.66667,2c-0.66666,0.66667 -2.30587,1.12895 -2.66666,2c-0.25513,0.61592 -0.19528,0.86194 -0.66667,1.33333c-0.47141,0.4714 -0.86194,0.19528 -1.33333,0.66667c-0.47139,0.47139 -0.19527,0.86192 -0.66667,1.33333c-0.47141,0.4714 0,1.33333 0,1.33333c-0.66667,0.66667 -0.66667,0.66667 -0.66667,1.33334c0,0.66666 -0.66666,0.66666 -0.66666,1.33333c0,0.66665 -0.5135,1.35116 -0.66667,2c-0.34248,1.45082 -0.97254,2.46228 -1.33333,3.33333c-0.25511,0.6159 0,1.33332 -0.66667,2c0,0 0,0.66665 0,1.33332c0,0 0,0.66668 0,0.66668c0,0.66665 0,0.66665 0,1.33332c0,0.66668 0,0.66668 0,0.66668c0,0.66665 0,0.66665 0,1.33332c0,0.66666 -0.25513,0.71741 0,1.33333c0.36079,0.87105 0.66667,0.66667 0.66667,1.33333c0,0.66667 0.19527,0.86194 0.66667,1.33334c0.47139,0.47139 0,1.33333 0,1.33333c0,0.66666 0,0.66666 0,1.33333c0,0.66667 0.30586,0.4623 0.66666,1.33333c0.25513,0.61592 0,0.66667 0,1.33334c0,0 0,0.66666 0,1.33333c0,0 0,0.66667 0,0.66667c0,0.66666 0.66667,0.66666 0.66667,1.33333c0,0 0,0 0,0.66666c0,0 0,0 0,0.66667c0,0 0.66666,0 0.66666,0.66667c0,0 0,0 0,0.66666c0,0 0.66667,0 0.66667,0.66667c0,0 0,0 0,0c0,0.66667 0,0.66667 0,0.66667c0.66667,0.66666 0.66667,0.66666 0.66667,1.33333c0,0 0.66666,0.66666 0.66666,0.66666c0,0 0.66667,0.66667 0.66667,0.66667c0,0.66667 0,0.66667 0.66667,1.33333c0,0 0,0.66667 0.66666,1.33334c0,0 0.66667,0.66666 0.66667,0.66666c0,0.66667 0,0.66667 0.66667,1.33334c0,0 0,0 0,0c0,0.66666 0,0.66666 0.66666,1.33333c0,0 0,0 0,0c0,0.66665 0,0.66665 0,0.66665c0.66667,0 0.66667,0.66668 0.66667,0.66668c0,0 0,0 0,0.66667l0,-0.66667l0,0" id="svg_115" fill-opacity="null" stroke-opacity="null" stroke-width="1.5" stroke="#000000" fill="none"/>
  <path d="m622.999833,205.333138c0,0 0,0 0.66667,0c0,0 0.66666,0 0.66666,0c0.66667,0 1.33334,0 1.33334,0c0.66666,0 1.33333,0 1.33333,0c0.66667,0 0.66667,0 1.33333,0.66668c0,0 0,0 0.66667,0c0,0 0,0 0,0c0,0 0.66667,0 0.66667,0c0,0 0,0 0,0c0.66666,0 0.66666,0 0.66666,0c0,-0.66668 0,-0.66668 0,-0.66668c0,0 0,-0.66665 0,-0.66665c0,0 0,0 0,-0.66667c0,0 0,0 0,0c0,-0.66666 0,-0.66666 0,-0.66666c0,0 0,-0.66667 0,-0.66667c0,0 0,0 0,-0.66667c0,0 0,0 0,-0.66666c0,0 0,0 0,0c0,0 0,-0.66667 0,-0.66667c0,0 0,0 0,-0.66667c0,0 0,0 0,0c0,-0.66666 0,-0.66666 0,-0.66666c0,0 0,-0.66667 0,-0.66667c0,0 0,0 0,-0.66667c0,0 0.66667,0 0.66667,0c0,-0.66666 0,-0.66666 0,-0.66666c0,0 0,-0.66667 0,-0.66667c0.66666,0 0.66666,0 0.66666,-0.66666c0,0 0.66667,0 0.66667,-0.66667c0,0 0,0 0,0c0,0 0.66667,-0.66667 0.66667,-0.66667c0,0 0,-0.66666 0,-0.66666l0,0l0,0l0,-0.66667" id="svg_116" fill-opacity="null" stroke-opacity="null" stroke-width="1.5" stroke="#000000" fill="none"/>
  <path d="m664.999803,237.999778c0.66667,0 0.66667,0 0.66667,0c0,0 0.66666,0 0.66666,0c0,0 0,0 0.66667,0c0,0 0,0 0.66667,0c0,0 0.66666,0.66668 0.66666,0.66668c0.66667,0 2,0 2.66667,0c0.66665,0 0.86192,0.19526 1.33333,0.66667c0.4714,0.4714 0.66667,0 1.33332,0c0,0 0.66668,0 0.66668,0c0.66665,0 0.66665,0 1.33332,0c0,0 0,0 0.66668,0.66665c0,0 0,0 0.66665,0c0,0 0.05075,-0.25512 0.66667,0c0.87105,0.3608 1.33333,0.66668 1.33333,0.66668c0.66667,0 1.33335,0.66665 2,0.66665c0,0 0.66667,0.66667 0.66667,0.66667c0.66666,0 0.66666,0 1.33333,0c0,0 0,0 0.66667,0.66668c0,0 0.66666,0 0.66666,0c0,0 0,0 0.66667,0c0,0 0,0.66665 0,0.66665c0.66667,0 0.66667,0 0.66667,0c0,0 0.66666,0 0.66666,0c0,0 0.19527,-0.4714 0.66667,0c0.47141,0.47141 0,0.66667 0,0.66667c0,0 0.66666,0 0.66666,0c0,0 0,0 0,0c0,0 0.66667,0 0.66667,0c0,0.66668 0,0.66668 0.66667,0.66668c0,0 0,0 0,0c0,0 0,0.66665 0,0.66665c0,0 0,0 0,0c0.66666,0 0.66666,0.66667 0.66666,0.66667c0.66667,0.66668 0.66667,0.66668 1.33334,1.33333c0,0 0.66666,0.66667 0.66666,0.66667c0,0 0.19527,0.19526 0.66667,0.66666c0.47141,0.47141 0.66666,1.33334 1.33333,2.66667c0.66667,1.33333 1.63921,1.79563 2,2.66666c0.25513,0.61592 0.41156,1.38409 0.66667,2c0.3608,0.87103 1.63921,1.79562 2,2.66666c0.51026,1.23184 0.97254,1.79562 1.33333,2.66668c0.25511,0.61591 0,1.33332 0,1.33332c0.66666,0.66668 0.66666,0.66668 0.66666,1.33334c0,0 0,0 0,0.66666c0,0 0.15644,0.76818 0.66667,2c0.36079,0.87106 0.97253,1.79562 1.33333,2.66668c0.25511,0.61591 0.32417,1.21582 0.66667,2.66666c0.15317,0.64883 0.5135,2.01782 0.66667,2.66666c0.34248,1.45083 0.99564,1.91903 1.33333,4c0.10678,0.65805 0,1.33334 0,2c0,0.66665 0.30586,1.79562 0.66665,2.66665c0.51026,1.23184 0,2.66666 0,3.33335c0,1.33331 0.32418,1.8825 0.66668,3.33331c0.30635,1.29767 0,2 0,2.66669c0,0.66665 0,1.33331 0,1.99997c0,0.66668 0,1.33334 0,2c0,0.66668 0,0.66668 0,1.33334c0,0.66666 0,0.66666 0,1.33334c0,0 0,0.66666 0,1.33332c0,0 0,0.66668 0,0.66668c0,0 0,0 0,0.66666c0,0 0,0 -0.66668,0.66666c0,0 0,0 0,0.66668c0,0 0.47139,0.19525 0,0.66666c-0.47139,0.4714 -0.19526,0.19525 -0.66665,0.66666c-0.47141,0.4714 -0.66667,0.66668 -0.66667,0.66668c-0.66666,0.66666 -0.86194,1.52857 -1.33333,1.99997c-0.47141,0.47141 -0.66667,0.66669 -0.66667,0.66669c-0.66666,0.66666 -0.19527,0.86191 -0.66666,1.33331c-0.47141,0.47141 -0.46228,0.30588 -1.33334,0.66669c-0.61591,0.25513 -0.66668,0.66666 -1.33333,1.33331c-0.66667,0.66669 -1.63921,1.12897 -2,2c-0.25513,0.61594 -0.19527,0.86194 -0.66666,1.33335c-0.4714,0.4714 -0.66667,0 -0.66667,0c0,0 -0.66667,0.66665 -0.66667,0.66665c0,0 -0.66666,0 -0.66666,0c0,0 -0.66667,0 -0.66667,0c-0.66667,0 -0.66667,0 -1.33333,0.66669c0,0 -0.66667,0 -1.33333,0c0,0 -0.66667,0 -0.66667,0c-0.66667,0 -0.66667,0 -1.33333,0c-0.66667,0 -0.66667,0 -0.66667,0c-0.66667,0 -0.66667,0 -1.33333,0c0,0 0,0 -0.66667,0c0,0 0,0 0,0c-0.66666,0 -0.19527,0.19525 -0.66666,0.66666c-0.4714,0.4714 -0.66667,0 -0.66667,0c0,0 -0.66667,0 -0.66667,0c0,0 -0.66666,0 -0.66666,0c0,0 -0.66667,0 -0.66667,0c0,0 -0.19526,-0.47141 -0.66667,0c-0.47139,0.4714 0,0.66665 0,0.66665c-0.66666,0 -0.66666,0 -0.66666,0c0,0 0,0 -0.66667,0c0,0 0,0 0,0c-0.66665,0 -0.19523,0.19528 -0.66665,0.66669c-0.47141,0.4714 -0.66668,0 -0.66668,0c-0.66667,0 -0.66667,0 -1.33332,0c0,0 0,0 0,0c-0.66668,0 -0.66668,0 -0.66668,0c0,0 0,0 -0.66667,0l0,0l0,0" id="svg_117" fill-opacity="null" stroke-opacity="null" stroke-width="1.5" stroke="#000000" fill="none"/>
  <path d="m680.333133,312.666398c0,0.66665 0,0.66665 -0.66668,0.66665c0,0 0.47139,0.86194 0,1.33335c-0.4714,0.4714 -0.66667,0 -0.66667,0c0,0.66665 0,0.66665 -0.66665,0.66665c0,0 0,0 0,0c0,0.66669 0,0.66669 0,0.66669c0,0 -0.66668,0 -0.66668,0c0,0 0,0 0,0.66666c0,0 0,0 0,0c0,0 0,0.66665 0,0.66665c-0.66667,0 -0.66667,0 -0.66667,0c0,0 0,0 0,0.66669c0,0 0,0 0,0c-0.66665,0 -0.66665,0 -0.66665,0c0,0.66666 0,0.66666 0.66665,0.66666c0,0 0,0 0,0c0.66667,0 0.66667,0 0.66667,0c0,0 0,0 0.66668,0c0,0 0,0 0,0c0,0 0.66665,0 0.66665,0.66665c0,0 0,0 0,0c0,0 0,0.66666 0.66667,0.66666c0,0 0,0 0,0.66669c0,0 0,0 0.66668,0c0,0 0,0 0,0.66665c0,0 0,0 0,0c0,0 0.66665,0 0.66665,0c0,0 0,0.66666 0,0.66666c0,0 0,0 0,0l0.66667,0l0,0l0,0" id="svg_118" fill-opacity="null" stroke-opacity="null" stroke-width="1.5" stroke="#000000" fill="none"/>
  <rect stroke="#000000" id="svg_119" height="58.666608" width="35.999974" y="213.333146" x="534.999914" stroke-opacity="null" stroke-width="1.5" fill="#ffffff"/>
  <text stroke="#000" transform="matrix(0.5771001577377319,0,0,0.5767962336540221,110.93852268345654,27.258169869892296) " xml:space="preserve" text-anchor="start" font-family="Helvetica, Arial, sans-serif" font-size="15" id="svg_120" y="306.53843" x="742.896696" fill-opacity="null" stroke-opacity="null" stroke-width="0" fill="#000000">cgroup</text>
  <line stroke-linecap="null" stroke-linejoin="null" id="svg_121" y2="233.333125" x2="570.999882" y1="233.333125" x1="534.333245" fill-opacity="null" stroke-opacity="null" stroke-width="1.5" stroke="#000000" fill="none"/>
  <line stroke-linecap="null" stroke-linejoin="null" id="svg_122" y2="248.666446" x2="570.333216" y1="248.666446" x1="534.999911" fill-opacity="null" stroke-opacity="null" stroke-width="1.5" stroke="#000000" fill="none"/>
  <text stroke="#000" transform="matrix(0.44792463928113335,0,0,0.5493195371931135,119.60579997385338,36.85573046715291) " xml:space="preserve" text-anchor="start" font-family="Helvetica, Arial, sans-serif" font-size="15" id="svg_123" y="375.135834" x="941.251743" fill-opacity="null" stroke-opacity="null" stroke-width="0" fill="#000000">subsys[]</text>
  <rect stroke="#000000" id="svg_124" height="118.666572" width="54.66662" y="309.666387" x="536.333241" fill-opacity="null" stroke-opacity="null" stroke-width="1.5" fill="#ffffff"/>
  <line stroke-linecap="null" stroke-linejoin="null" id="svg_125" y2="328.666381" x2="592.333198" y1="328.666381" x1="536.333243" fill-opacity="null" stroke-opacity="null" stroke-width="1.5" stroke="#000000" fill="none"/>
  <text stroke="#000000" xml:space="preserve" text-anchor="start" font-family="Helvetica, Arial, sans-serif" font-size="15" id="svg_126" y="323.555583" x="548.694796" fill-opacity="null" stroke-opacity="null" stroke-width="0" fill="#000000">css</text>
  <text stroke="#000" transform="matrix(0.5771001577377319,0,0,0.5767962336540221,110.93852268345654,27.258169869892296) " xml:space="preserve" text-anchor="start" font-family="Helvetica, Arial, sans-serif" font-size="15" id="svg_127" y="481.065554" x="737.120696" fill-opacity="null" stroke-opacity="null" stroke-width="0" fill="#000000">cpuset_cgroup</text>
  <path d="m552.999888,152.666521c0,0 -0.66665,0 -0.66665,0c-0.66668,0 -2,0 -2,0c-0.66668,0 -1.33335,0 -2,0c-0.66668,0 -1.12896,0.30588 -2,0.66667c-0.61593,0.25513 -0.4623,0.30588 -1.33333,0.66667c-0.61592,0.25513 -1.3841,0.41155 -2,0.66666c-0.87105,0.36079 -1.45735,1.12837 -2.66667,2c-0.76485,0.55127 -2,1.33333 -2.66666,2c-0.66667,0.66667 -2,1.33333 -2.66667,2c-0.66666,0.66667 -2.30587,1.12895 -2.66666,2c-0.25513,0.61592 -0.19528,0.86194 -0.66667,1.33333c-0.47141,0.4714 -0.86194,0.19528 -1.33333,0.66667c-0.47139,0.47139 -0.19527,0.86192 -0.66667,1.33333c-0.47141,0.4714 0,1.33333 0,1.33333c-0.66667,0.66667 -0.66667,0.66667 -0.66667,1.33334c0,0.66666 -0.66666,0.66666 -0.66666,1.33333c0,0.66665 -0.5135,1.35116 -0.66667,2c-0.34248,1.45082 -0.97254,2.46228 -1.33333,3.33333c-0.25511,0.6159 0,1.33332 -0.66667,2c0,0 0,0.66665 0,1.33332c0,0 0,0.66668 0,0.66668c0,0.66665 0,0.66665 0,1.33332c0,0.66668 0,0.66668 0,0.66668c0,0.66665 0,0.66665 0,1.33332c0,0.66666 -0.25513,0.71741 0,1.33333c0.36079,0.87105 0.66667,0.66667 0.66667,1.33333c0,0.66667 0.19527,0.86194 0.66667,1.33334c0.47139,0.47139 0,1.33333 0,1.33333c0,0.66666 0,0.66666 0,1.33333c0,0.66667 0.30586,0.4623 0.66666,1.33333c0.25513,0.61592 0,0.66667 0,1.33334c0,0 0,0.66666 0,1.33333c0,0 0,0.66667 0,0.66667c0,0.66666 0.66667,0.66666 0.66667,1.33333c0,0 0,0 0,0.66666c0,0 0,0 0,0.66667c0,0 0.66666,0 0.66666,0.66667c0,0 0,0 0,0.66666c0,0 0.66667,0 0.66667,0.66667c0,0 0,0 0,0c0,0.66667 0,0.66667 0,0.66667c0.66667,0.66666 0.66667,0.66666 0.66667,1.33333c0,0 0.66666,0.66666 0.66666,0.66666c0,0 0.66667,0.66667 0.66667,0.66667c0,0.66667 0,0.66667 0.66667,1.33333c0,0 0,0.66667 0.66666,1.33334c0,0 0.66667,0.66666 0.66667,0.66666c0,0.66667 0,0.66667 0.66667,1.33334c0,0 0,0 0,0c0,0.66666 0,0.66666 0.66666,1.33333c0,0 0,0 0,0c0,0.66665 0,0.66665 0,0.66665c0.66667,0 0.66667,0.66668 0.66667,0.66668c0,0 0,0 0,0.66667l0,-0.66667l0,0" id="svg_128" fill-opacity="null" stroke-opacity="null" stroke-width="1.5" stroke="#000000" fill="none"/>
  <path d="m527.666578,208.666471c0,0 0,0 0.66667,0c0,0 0.66666,0 0.66666,0c0.66667,0 1.33334,0 1.33334,0c0.66666,0 1.33333,0 1.33333,0c0.66667,0 0.66667,0 1.33333,0.66668c0,0 0,0 0.66667,0c0,0 0,0 0,0c0,0 0.66667,0 0.66667,0c0,0 0,0 0,0c0.66666,0 0.66666,0 0.66666,0c0,-0.66668 0,-0.66668 0,-0.66668c0,0 0,-0.66665 0,-0.66665c0,0 0,0 0,-0.66667c0,0 0,0 0,0c0,-0.66666 0,-0.66666 0,-0.66666c0,0 0,-0.66667 0,-0.66667c0,0 0,0 0,-0.66667c0,0 0,0 0,-0.66666c0,0 0,0 0,0c0,0 0,-0.66667 0,-0.66667c0,0 0,0 0,-0.66667c0,0 0,0 0,0c0,-0.66666 0,-0.66666 0,-0.66666c0,0 0,-0.66667 0,-0.66667c0,0 0,0 0,-0.66667c0,0 0.66667,0 0.66667,0c0,-0.66666 0,-0.66666 0,-0.66666c0,0 0,-0.66667 0,-0.66667c0.66666,0 0.66666,0 0.66666,-0.66666c0,0 0.66667,0 0.66667,-0.66667c0,0 0,0 0,0c0,0 0.66667,-0.66667 0.66667,-0.66667c0,0 0,-0.66666 0,-0.66666l0,0l0,0l0,-0.66667" id="svg_129" fill-opacity="null" stroke-opacity="null" stroke-width="1.5" stroke="#000000" fill="none"/>
  <path d="m569.666548,241.333111c0.66667,0 0.66667,0 0.66667,0c0,0 0.66666,0 0.66666,0c0,0 0,0 0.66667,0c0,0 0,0 0.66667,0c0,0 0.66666,0.66668 0.66666,0.66668c0.66667,0 2,0 2.66667,0c0.66665,0 0.86192,0.19526 1.33333,0.66667c0.4714,0.4714 0.66667,0 1.33332,0c0,0 0.66668,0 0.66668,0c0.66665,0 0.66665,0 1.33332,0c0,0 0,0 0.66668,0.66665c0,0 0,0 0.66665,0c0,0 0.05075,-0.25512 0.66667,0c0.87105,0.3608 1.33333,0.66668 1.33333,0.66668c0.66667,0 1.33335,0.66665 2,0.66665c0,0 0.66667,0.66667 0.66667,0.66667c0.66666,0 0.66666,0 1.33333,0c0,0 0,0 0.66667,0.66668c0,0 0.66666,0 0.66666,0c0,0 0,0 0.66667,0c0,0 0,0.66665 0,0.66665c0.66667,0 0.66667,0 0.66667,0c0,0 0.66666,0 0.66666,0c0,0 0.19527,-0.4714 0.66667,0c0.47141,0.47141 0,0.66667 0,0.66667c0,0 0.66666,0 0.66666,0c0,0 0,0 0,0c0,0 0.66667,0 0.66667,0c0,0.66668 0,0.66668 0.66667,0.66668c0,0 0,0 0,0c0,0 0,0.66665 0,0.66665c0,0 0,0 0,0c0.66666,0 0.66666,0.66667 0.66666,0.66667c0.66667,0.66668 0.66667,0.66668 1.33334,1.33333c0,0 0.66666,0.66667 0.66666,0.66667c0,0 0.19527,0.19526 0.66667,0.66666c0.47141,0.47141 0.66666,1.33334 1.33333,2.66667c0.66667,1.33333 1.63921,1.79563 2,2.66666c0.25513,0.61592 0.41156,1.38409 0.66667,2c0.3608,0.87103 1.63921,1.79562 2,2.66666c0.51026,1.23184 0.97254,1.79562 1.33333,2.66668c0.25511,0.61591 0,1.33332 0,1.33332c0.66666,0.66668 0.66666,0.66668 0.66666,1.33334c0,0 0,0 0,0.66666c0,0 0.15644,0.76818 0.66667,2c0.36079,0.87106 0.97253,1.79562 1.33333,2.66668c0.25511,0.61591 0.32417,1.21582 0.66667,2.66666c0.15317,0.64883 0.5135,2.01782 0.66667,2.66666c0.34248,1.45083 0.99564,1.91903 1.33333,4c0.10678,0.65805 0,1.33334 0,2c0,0.66665 0.30586,1.79562 0.66665,2.66665c0.51026,1.23184 0,2.66666 0,3.33335c0,1.33331 0.32418,1.8825 0.66668,3.33331c0.30635,1.29767 0,2 0,2.66669c0,0.66665 0,1.33331 0,1.99997c0,0.66668 0,1.33334 0,2c0,0.66668 0,0.66668 0,1.33334c0,0.66666 0,0.66666 0,1.33334c0,0 0,0.66666 0,1.33332c0,0 0,0.66668 0,0.66668c0,0 0,0 0,0.66666c0,0 0,0 -0.66668,0.66666c0,0 0,0 0,0.66668c0,0 0.47139,0.19525 0,0.66666c-0.47139,0.4714 -0.19526,0.19525 -0.66665,0.66666c-0.47141,0.4714 -0.66667,0.66668 -0.66667,0.66668c-0.66666,0.66666 -0.86194,1.52857 -1.33333,1.99997c-0.47141,0.47141 -0.66667,0.66669 -0.66667,0.66669c-0.66666,0.66666 -0.19527,0.86191 -0.66666,1.33331c-0.47141,0.47141 -0.46228,0.30588 -1.33334,0.66669c-0.61591,0.25513 -0.66668,0.66666 -1.33333,1.33331c-0.66667,0.66669 -1.63921,1.12897 -2,2c-0.25513,0.61594 -0.19527,0.86194 -0.66666,1.33335c-0.4714,0.4714 -0.66667,0 -0.66667,0c0,0 -0.66667,0.66665 -0.66667,0.66665c0,0 -0.66666,0 -0.66666,0c0,0 -0.66667,0 -0.66667,0c-0.66667,0 -0.66667,0 -1.33333,0.66669c0,0 -0.66667,0 -1.33333,0c0,0 -0.66667,0 -0.66667,0c-0.66667,0 -0.66667,0 -1.33333,0c-0.66667,0 -0.66667,0 -0.66667,0c-0.66667,0 -0.66667,0 -1.33333,0c0,0 0,0 -0.66667,0c0,0 0,0 0,0c-0.66666,0 -0.19527,0.19525 -0.66666,0.66666c-0.4714,0.4714 -0.66667,0 -0.66667,0c0,0 -0.66667,0 -0.66667,0c0,0 -0.66666,0 -0.66666,0c0,0 -0.66667,0 -0.66667,0c0,0 -0.19526,-0.47141 -0.66667,0c-0.47139,0.4714 0,0.66665 0,0.66665c-0.66666,0 -0.66666,0 -0.66666,0c0,0 0,0 -0.66667,0c0,0 0,0 0,0c-0.66665,0 -0.19523,0.19528 -0.66665,0.66669c-0.47141,0.4714 -0.66668,0 -0.66668,0c-0.66667,0 -0.66667,0 -1.33332,0c0,0 0,0 0,0c-0.66668,0 -0.66668,0 -0.66668,0c0,0 0,0 -0.66667,0l0,0l0,0" id="svg_130" fill-opacity="null" stroke-opacity="null" stroke-width="1.5" stroke="#000000" fill="none"/>
  <path d="m584.999878,315.999731c0,0.66665 0,0.66665 -0.66668,0.66665c0,0 0.47139,0.86194 0,1.33335c-0.4714,0.4714 -0.66667,0 -0.66667,0c0,0.66665 0,0.66665 -0.66665,0.66665c0,0 0,0 0,0c0,0.66669 0,0.66669 0,0.66669c0,0 -0.66668,0 -0.66668,0c0,0 0,0 0,0.66666c0,0 0,0 0,0c0,0 0,0.66665 0,0.66665c-0.66667,0 -0.66667,0 -0.66667,0c0,0 0,0 0,0.66669c0,0 0,0 0,0c-0.66665,0 -0.66665,0 -0.66665,0c0,0.66666 0,0.66666 0.66665,0.66666c0,0 0,0 0,0c0.66667,0 0.66667,0 0.66667,0c0,0 0,0 0.66668,0c0,0 0,0 0,0c0,0 0.66665,0 0.66665,0.66665c0,0 0,0 0,0c0,0 0,0.66666 0.66667,0.66666c0,0 0,0 0,0.66669c0,0 0,0 0.66668,0c0,0 0,0 0,0.66665c0,0 0,0 0,0c0,0 0.66665,0 0.66665,0c0,0 0,0.66666 0,0.66666c0,0 0,0 0,0l0.66667,0l0,0l0,0" id="svg_131" fill-opacity="null" stroke-opacity="null" stroke-width="1.5" stroke="#000000" fill="none"/>
  <rect stroke="#000000" id="svg_132" height="58.666608" width="35.999974" y="211.999814" x="439.666662" stroke-opacity="null" stroke-width="1.5" fill="#ffffff"/>
  <text stroke="#000" transform="matrix(0.5771001577377319,0,0,0.5767962336540221,110.93852268345654,27.258169869892296) " xml:space="preserve" text-anchor="start" font-family="Helvetica, Arial, sans-serif" font-size="15" id="svg_133" y="304.226812" x="577.703097" fill-opacity="null" stroke-opacity="null" stroke-width="0" fill="#000000">cgroup</text>
  <line stroke-linecap="null" stroke-linejoin="null" id="svg_134" y2="231.999793" x2="475.66663" y1="231.999793" x1="438.999993" fill-opacity="null" stroke-opacity="null" stroke-width="1.5" stroke="#000000" fill="none"/>
  <line stroke-linecap="null" stroke-linejoin="null" id="svg_135" y2="247.333113" x2="474.999964" y1="247.333113" x1="439.666659" fill-opacity="null" stroke-opacity="null" stroke-width="1.5" stroke="#000000" fill="none"/>
  <text stroke="#000" transform="matrix(0.44792463928113335,0,0,0.5493195371931135,119.60579997385338,36.85573046715291) " xml:space="preserve" text-anchor="start" font-family="Helvetica, Arial, sans-serif" font-size="15" id="svg_136" y="372.70859" x="728.418504" fill-opacity="null" stroke-opacity="null" stroke-width="0" fill="#000000">subsys[]</text>
  <rect stroke="#000000" id="svg_137" height="118.666572" width="54.66662" y="309.666398" x="440.999989" fill-opacity="null" stroke-opacity="null" stroke-width="1.5" fill="#ffffff"/>
  <line stroke-linecap="null" stroke-linejoin="null" id="svg_138" y2="327.333048" x2="496.999946" y1="327.333048" x1="440.999991" fill-opacity="null" stroke-opacity="null" stroke-width="1.5" stroke="#000000" fill="none"/>
  <text stroke="#000000" xml:space="preserve" text-anchor="start" font-family="Helvetica, Arial, sans-serif" font-size="15" id="svg_139" y="322.962785" x="453.555158" fill-opacity="null" stroke-opacity="null" stroke-width="0" fill="#000000">css</text>
  <text stroke="#000" transform="matrix(0.5771001577377319,0,0,0.5767962336540221,110.93852268345654,27.258169869892296) " xml:space="preserve" text-anchor="start" font-family="Helvetica, Arial, sans-serif" font-size="15" id="svg_140" y="478.753936" x="576.547897" fill-opacity="null" stroke-opacity="null" stroke-width="0" fill="#000000">mem_cgroup</text>
  <path d="m457.666638,151.333189c0,0 -0.66665,0 -0.66665,0c-0.66668,0 -2,0 -2,0c-0.66668,0 -1.33335,0 -2,0c-0.66668,0 -1.12896,0.30588 -2,0.66667c-0.61593,0.25513 -0.4623,0.30588 -1.33333,0.66667c-0.61592,0.25513 -1.3841,0.41155 -2,0.66666c-0.87105,0.36079 -1.45735,1.12837 -2.66667,2c-0.76485,0.55127 -2,1.33333 -2.66666,2c-0.66667,0.66667 -2,1.33333 -2.66667,2c-0.66666,0.66667 -2.30587,1.12895 -2.66666,2c-0.25513,0.61592 -0.19528,0.86194 -0.66667,1.33333c-0.47141,0.4714 -0.86194,0.19528 -1.33333,0.66667c-0.47139,0.47139 -0.19527,0.86192 -0.66667,1.33333c-0.47141,0.4714 0,1.33333 0,1.33333c-0.66667,0.66667 -0.66667,0.66667 -0.66667,1.33334c0,0.66666 -0.66666,0.66666 -0.66666,1.33333c0,0.66665 -0.5135,1.35116 -0.66667,2c-0.34248,1.45082 -0.97254,2.46228 -1.33333,3.33333c-0.25511,0.6159 0,1.33332 -0.66667,2c0,0 0,0.66665 0,1.33332c0,0 0,0.66668 0,0.66668c0,0.66665 0,0.66665 0,1.33332c0,0.66668 0,0.66668 0,0.66668c0,0.66665 0,0.66665 0,1.33332c0,0.66666 -0.25513,0.71741 0,1.33333c0.36079,0.87105 0.66667,0.66667 0.66667,1.33333c0,0.66667 0.19527,0.86194 0.66667,1.33334c0.47139,0.47139 0,1.33333 0,1.33333c0,0.66666 0,0.66666 0,1.33333c0,0.66667 0.30586,0.4623 0.66666,1.33333c0.25513,0.61592 0,0.66667 0,1.33334c0,0 0,0.66666 0,1.33333c0,0 0,0.66667 0,0.66667c0,0.66666 0.66667,0.66666 0.66667,1.33333c0,0 0,0 0,0.66666c0,0 0,0 0,0.66667c0,0 0.66666,0 0.66666,0.66667c0,0 0,0 0,0.66666c0,0 0.66667,0 0.66667,0.66667c0,0 0,0 0,0c0,0.66667 0,0.66667 0,0.66667c0.66667,0.66666 0.66667,0.66666 0.66667,1.33333c0,0 0.66666,0.66666 0.66666,0.66666c0,0 0.66667,0.66667 0.66667,0.66667c0,0.66667 0,0.66667 0.66667,1.33333c0,0 0,0.66667 0.66666,1.33334c0,0 0.66667,0.66666 0.66667,0.66666c0,0.66667 0,0.66667 0.66667,1.33334c0,0 0,0 0,0c0,0.66666 0,0.66666 0.66666,1.33333c0,0 0,0 0,0c0,0.66665 0,0.66665 0,0.66665c0.66667,0 0.66667,0.66668 0.66667,0.66668c0,0 0,0 0,0.66667l0,-0.66667l0,0" id="svg_141" fill-opacity="null" stroke-opacity="null" stroke-width="1.5" stroke="#000000" fill="none"/>
  <path d="m432.333328,207.333139c0,0 0,0 0.66667,0c0,0 0.66666,0 0.66666,0c0.66667,0 1.33334,0 1.33334,0c0.66666,0 1.33333,0 1.33333,0c0.66667,0 0.66667,0 1.33333,0.66668c0,0 0,0 0.66667,0c0,0 0,0 0,0c0,0 0.66667,0 0.66667,0c0,0 0,0 0,0c0.66666,0 0.66666,0 0.66666,0c0,-0.66668 0,-0.66668 0,-0.66668c0,0 0,-0.66665 0,-0.66665c0,0 0,0 0,-0.66667c0,0 0,0 0,0c0,-0.66666 0,-0.66666 0,-0.66666c0,0 0,-0.66667 0,-0.66667c0,0 0,0 0,-0.66667c0,0 0,0 0,-0.66666c0,0 0,0 0,0c0,0 0,-0.66667 0,-0.66667c0,0 0,0 0,-0.66667c0,0 0,0 0,0c0,-0.66666 0,-0.66666 0,-0.66666c0,0 0,-0.66667 0,-0.66667c0,0 0,0 0,-0.66667c0,0 0.66667,0 0.66667,0c0,-0.66666 0,-0.66666 0,-0.66666c0,0 0,-0.66667 0,-0.66667c0.66666,0 0.66666,0 0.66666,-0.66666c0,0 0.66667,0 0.66667,-0.66667c0,0 0,0 0,0c0,0 0.66667,-0.66667 0.66667,-0.66667c0,0 0,-0.66666 0,-0.66666l0,0l0,0l0,-0.66667" id="svg_142" fill-opacity="null" stroke-opacity="null" stroke-width="1.5" stroke="#000000" fill="none"/>
  <path d="m474.333298,239.999779c0.66667,0 0.66667,0 0.66667,0c0,0 0.66666,0 0.66666,0c0,0 0,0 0.66667,0c0,0 0,0 0.66667,0c0,0 0.66666,0.66668 0.66666,0.66668c0.66667,0 2,0 2.66667,0c0.66665,0 0.86192,0.19526 1.33333,0.66667c0.4714,0.4714 0.66667,0 1.33332,0c0,0 0.66668,0 0.66668,0c0.66665,0 0.66665,0 1.33332,0c0,0 0,0 0.66668,0.66665c0,0 0,0 0.66665,0c0,0 0.05075,-0.25512 0.66667,0c0.87105,0.3608 1.33333,0.66668 1.33333,0.66668c0.66667,0 1.33335,0.66665 2,0.66665c0,0 0.66667,0.66667 0.66667,0.66667c0.66666,0 0.66666,0 1.33333,0c0,0 0,0 0.66667,0.66668c0,0 0.66666,0 0.66666,0c0,0 0,0 0.66667,0c0,0 0,0.66665 0,0.66665c0.66667,0 0.66667,0 0.66667,0c0,0 0.66666,0 0.66666,0c0,0 0.19527,-0.4714 0.66667,0c0.47141,0.47141 0,0.66667 0,0.66667c0,0 0.66666,0 0.66666,0c0,0 0,0 0,0c0,0 0.66667,0 0.66667,0c0,0.66668 0,0.66668 0.66667,0.66668c0,0 0,0 0,0c0,0 0,0.66665 0,0.66665c0,0 0,0 0,0c0.66666,0 0.66666,0.66667 0.66666,0.66667c0.66667,0.66668 0.66667,0.66668 1.33334,1.33333c0,0 0.66666,0.66667 0.66666,0.66667c0,0 0.19527,0.19526 0.66667,0.66666c0.47141,0.47141 0.66666,1.33334 1.33333,2.66667c0.66667,1.33333 1.63921,1.79563 2,2.66666c0.25513,0.61592 0.41156,1.38409 0.66667,2c0.3608,0.87103 1.63921,1.79562 2,2.66666c0.51026,1.23184 0.97254,1.79562 1.33333,2.66668c0.25511,0.61591 0,1.33332 0,1.33332c0.66666,0.66668 0.66666,0.66668 0.66666,1.33334c0,0 0,0 0,0.66666c0,0 0.15644,0.76818 0.66667,2c0.36079,0.87106 0.97253,1.79562 1.33333,2.66668c0.25511,0.61591 0.32417,1.21582 0.66667,2.66666c0.15317,0.64883 0.5135,2.01782 0.66667,2.66666c0.34248,1.45083 0.99564,1.91903 1.33333,4c0.10678,0.65805 0,1.33334 0,2c0,0.66665 0.30586,1.79562 0.66665,2.66665c0.51026,1.23184 0,2.66666 0,3.33335c0,1.33331 0.32418,1.8825 0.66668,3.33331c0.30635,1.29767 0,2 0,2.66669c0,0.66665 0,1.33331 0,1.99997c0,0.66668 0,1.33334 0,2c0,0.66668 0,0.66668 0,1.33334c0,0.66666 0,0.66666 0,1.33334c0,0 0,0.66666 0,1.33332c0,0 0,0.66668 0,0.66668c0,0 0,0 0,0.66666c0,0 0,0 -0.66668,0.66666c0,0 0,0 0,0.66668c0,0 0.47139,0.19525 0,0.66666c-0.47139,0.4714 -0.19526,0.19525 -0.66665,0.66666c-0.47141,0.4714 -0.66667,0.66668 -0.66667,0.66668c-0.66666,0.66666 -0.86194,1.52857 -1.33333,1.99997c-0.47141,0.47141 -0.66667,0.66669 -0.66667,0.66669c-0.66666,0.66666 -0.19527,0.86191 -0.66666,1.33331c-0.47141,0.47141 -0.46228,0.30588 -1.33334,0.66669c-0.61591,0.25513 -0.66668,0.66666 -1.33333,1.33331c-0.66667,0.66669 -1.63921,1.12897 -2,2c-0.25513,0.61594 -0.19527,0.86194 -0.66666,1.33335c-0.4714,0.4714 -0.66667,0 -0.66667,0c0,0 -0.66667,0.66665 -0.66667,0.66665c0,0 -0.66666,0 -0.66666,0c0,0 -0.66667,0 -0.66667,0c-0.66667,0 -0.66667,0 -1.33333,0.66669c0,0 -0.66667,0 -1.33333,0c0,0 -0.66667,0 -0.66667,0c-0.66667,0 -0.66667,0 -1.33333,0c-0.66667,0 -0.66667,0 -0.66667,0c-0.66667,0 -0.66667,0 -1.33333,0c0,0 0,0 -0.66667,0c0,0 0,0 0,0c-0.66666,0 -0.19527,0.19525 -0.66666,0.66666c-0.4714,0.4714 -0.66667,0 -0.66667,0c0,0 -0.66667,0 -0.66667,0c0,0 -0.66666,0 -0.66666,0c0,0 -0.66667,0 -0.66667,0c0,0 -0.19526,-0.47141 -0.66667,0c-0.47139,0.4714 0,0.66665 0,0.66665c-0.66666,0 -0.66666,0 -0.66666,0c0,0 0,0 -0.66667,0c0,0 0,0 0,0c-0.66665,0 -0.19523,0.19528 -0.66665,0.66669c-0.47141,0.4714 -0.66668,0 -0.66668,0c-0.66667,0 -0.66667,0 -1.33332,0c0,0 0,0 0,0c-0.66668,0 -0.66668,0 -0.66668,0c0,0 0,0 -0.66667,0l0,0l0,0" id="svg_143" fill-opacity="null" stroke-opacity="null" stroke-width="1.5" stroke="#000000" fill="none"/>
  <path d="m489.666628,314.666399c0,0.66665 0,0.66665 -0.66668,0.66665c0,0 0.47139,0.86194 0,1.33335c-0.4714,0.4714 -0.66667,0 -0.66667,0c0,0.66665 0,0.66665 -0.66665,0.66665c0,0 0,0 0,0c0,0.66669 0,0.66669 0,0.66669c0,0 -0.66668,0 -0.66668,0c0,0 0,0 0,0.66666c0,0 0,0 0,0c0,0 0,0.66665 0,0.66665c-0.66667,0 -0.66667,0 -0.66667,0c0,0 0,0 0,0.66669c0,0 0,0 0,0c-0.66665,0 -0.66665,0 -0.66665,0c0,0.66666 0,0.66666 0.66665,0.66666c0,0 0,0 0,0c0.66667,0 0.66667,0 0.66667,0c0,0 0,0 0.66668,0c0,0 0,0 0,0c0,0 0.66665,0 0.66665,0.66665c0,0 0,0 0,0c0,0 0,0.66666 0.66667,0.66666c0,0 0,0 0,0.66669c0,0 0,0 0.66668,0c0,0 0,0 0,0.66665c0,0 0,0 0,0c0,0 0.66665,0 0.66665,0c0,0 0,0.66666 0,0.66666c0,0 0,0 0,0l0.66667,0l0,0l0,0" id="svg_144" fill-opacity="null" stroke-opacity="null" stroke-width="1.5" stroke="#000000" fill="none"/>
  <text stroke="#000000" xml:space="preserve" text-anchor="start" font-family="Helvetica, Arial, sans-serif" font-size="15" id="svg_145" y="320.666387" x="285.666783" fill-opacity="null" stroke-opacity="null" stroke-width="0" fill="#000000">css</text>
  <text stroke="#000000" xml:space="preserve" text-anchor="start" font-family="Helvetica, Arial, sans-serif" font-size="15" id="svg_146" y="323.629451" x="646.888327" fill-opacity="null" stroke-opacity="null" stroke-width="0" fill="#000000">css</text>
  <text xml:space="preserve" text-anchor="start" font-family="Helvetica, Arial, sans-serif" font-size="15" id="svg_148" y="123.999881" x="738.999746" stroke-opacity="null" stroke-width="0" stroke="#000000" fill="#000000">.....</text>
 </g>
</svg>