<svg width="450" height="250" xmlns="http://www.w3.org/2000/svg">
 <!-- Created with Method Draw - http://github.com/duopixel/Method-Draw/ -->

 <g stroke="null">
  <title>background</title>
  <rect x="-1" y="-1" width="452" height="252" id="canvas_background" fill="#ffffff" stroke="null"/>
  <g id="canvasGrid" display="none" stroke="null">
   <rect id="svg_1" width="800" height="240" x="107.25" y="1" stroke-width="0" fill="url(#gridpattern)"/>
  </g>
 </g>
 <g stroke="null">
  <title>Layer 1</title>
  <line fill="none" stroke="#000" stroke-width="1.5" stroke-opacity="null" fill-opacity="null" x1="1.75" y1="182" x2="0.75" y2="182" id="svg_87" stroke-linejoin="undefined" stroke-linecap="undefined"/>
  <ellipse stroke="#ff0000" fill="#ff0000" stroke-width="1.5" cx="106.25" cy="92.5" id="svg_3" rx="17" ry="17"/>
  <ellipse stroke="#ff0000" fill="#ff0000" stroke-width="1.5" cx="83.75" cy="145" id="svg_9" rx="17" ry="17"/>
  <text fill="#ffff00" stroke-width="0" x="71.76011" y="153.37663" id="svg_15" font-size="24" font-family="Helvetica, Arial, sans-serif" text-anchor="start" xml:space="preserve" stroke="#ffff00">新</text>
  <text fill="#ffff00" stroke-width="0" x="94.25933" y="100.50163" id="svg_16" font-size="24" font-family="Helvetica, Arial, sans-serif" text-anchor="start" xml:space="preserve" stroke="#ffff00">父</text>
  <ellipse stroke="#000000" fill="#000000" stroke-width="1.5" cx="75.75" cy="42" id="svg_22" rx="16.5" ry="16.5"/>
  <text fill="#ffffff" stroke-width="0" x="63.75833" y="50.00501" id="svg_23" font-size="24" font-family="Helvetica, Arial, sans-serif" text-anchor="start" xml:space="preserve" stroke="#ffffff">祖</text>
  <path stroke="#000000" id="svg_28" d="m214.96044,113.3l9.35436,-4.2l-18.08619,0l-18.08616,0l0,-2.6l0,-2.6l17.87867,0c9.83326,0 17.87866,-0.13178 17.87866,-0.29284c0,-0.16107 -3.91459,-2.05107 -8.69908,-4.2l-8.6991,-3.90716l8.04063,0l8.0406,0l12.27981,5.50527l12.27981,5.50527l-12.30336,5.49473l-12.30336,5.49473l-8.46483,0l-8.46484,0l9.35438,-4.2l0,0z" stroke-width="1.5" fill="#ffff56"/>
  <ellipse stroke="#000000" fill="#000000" stroke-width="1.5" cx="39.75" cy="90.5" id="svg_29" rx="16.5" ry="16.5"/>
  <text fill="#ffffff" stroke-width="0" x="27.75833" y="98.50501" id="svg_33" font-size="24" font-family="Helvetica, Arial, sans-serif" text-anchor="start" xml:space="preserve" stroke="#ffffff">叔</text>
  <ellipse stroke="#000000" fill="#000000" stroke-width="1.5" cx="52.75" cy="198.5" id="svg_65" rx="16.5" ry="16.5"/>
  <text fill="#ffffff" stroke-width="0" x="45.75833" y="206.50501" id="svg_66" font-size="24" font-family="Helvetica, Arial, sans-serif" text-anchor="start" xml:space="preserve" stroke="#ffffff">1</text>
  <ellipse stroke="#000000" fill="#000000" stroke-width="1.5" cx="113.75" cy="198.5" id="svg_67" rx="16.5" ry="16.5"/>
  <text fill="#ffffff" stroke-width="0" x="106.75833" y="206.50501" id="svg_68" font-size="24" font-family="Helvetica, Arial, sans-serif" text-anchor="start" xml:space="preserve" stroke="#ffffff">2</text>
  <line fill="none" stroke="#000000" stroke-width="1.5" x1="78.75" y1="161" x2="59.75" y2="183" id="svg_83" stroke-linejoin="null" stroke-linecap="null"/>
  <line fill="none" stroke="#000000" stroke-width="1.5" x1="96.75" y1="158" x2="110.75" y2="183" id="svg_88" stroke-linejoin="null" stroke-linecap="null"/>
  <path id="svg_98" d="m42.68327,147.42917l4.91501,-2.1l-9.50292,0l-9.5029,0l0,-1.3l0,-1.3l9.39388,0c5.16663,0 9.39387,-0.06589 9.39387,-0.14642c0,-0.08054 -2.05682,-1.02554 -4.5707,-2.1l-4.57071,-1.95358l4.22473,0l4.22472,0l6.45211,2.75263l6.4521,2.75264l-6.46448,2.74736l-6.46447,2.74737l-4.44762,0l-4.44764,0l4.91502,-2.1l0,0l0,0z" stroke-width="1.5" stroke="#0000ff" fill="#0000ff" transform="rotate(1.940483570098877 44.092453002928984,144.0291595458985) "/>
  <ellipse stroke="#000000" fill="#000000" stroke-width="1.5" cx="138.75" cy="144.5" id="svg_101" rx="16.5" ry="16.5"/>
  <text fill="#ffffff" stroke-width="0" x="131.75833" y="152.50501" id="svg_102" font-size="24" font-family="Helvetica, Arial, sans-serif" text-anchor="start" xml:space="preserve" stroke="#ffffff">3</text>
  <line fill="none" stroke="#000000" stroke-width="1.5" x1="61.75" y1="50" x2="45.75" y2="75" id="svg_131" stroke-linejoin="null" stroke-linecap="null"/>
  <line fill="none" stroke="#000000" stroke-width="1.5" x1="85.75" y1="54" x2="100.75" y2="75" id="svg_132" stroke-linejoin="null" stroke-linecap="null"/>
  <line fill="none" stroke="#000000" stroke-width="1.5" x1="101.75" y1="108" x2="91.75" y2="127" id="svg_133" stroke-linejoin="null" stroke-linecap="null"/>
  <line fill="none" stroke="#000000" stroke-width="1.5" x1="114.75" y1="106" x2="133.75" y2="129" id="svg_134" stroke-linejoin="null" stroke-linecap="null"/>
  <ellipse stroke="#ff0000" fill="#ff0000" stroke-width="1.5" cx="350.25" cy="90.5" id="svg_2" rx="17" ry="17"/>
  <ellipse stroke="#ff0000" fill="#ff0000" stroke-width="1.5" cx="391.75" cy="140" id="svg_4" rx="17" ry="17"/>
  <text fill="#ffff00" stroke-width="0" x="379.76011" y="148.37663" id="svg_5" font-size="24" font-family="Helvetica, Arial, sans-serif" text-anchor="start" xml:space="preserve" stroke="#ffff00">父</text>
  <text fill="#ffff00" stroke-width="0" x="338.25933" y="98.50163" id="svg_6" font-size="24" font-family="Helvetica, Arial, sans-serif" text-anchor="start" xml:space="preserve" stroke="#ffff00">新</text>
  <ellipse stroke="#000000" fill="#000000" stroke-width="1.5" cx="319.75" cy="40" id="svg_7" rx="16.5" ry="16.5"/>
  <text fill="#ffffff" stroke-width="0" x="307.75833" y="48.00501" id="svg_8" font-size="24" font-family="Helvetica, Arial, sans-serif" text-anchor="start" xml:space="preserve" stroke="#ffffff">祖</text>
  <ellipse stroke="#000000" fill="#000000" stroke-width="1.5" cx="283.75" cy="88.5" id="svg_10" rx="16.5" ry="16.5"/>
  <text fill="#ffffff" stroke-width="0" x="271.75833" y="96.50501" id="svg_11" font-size="24" font-family="Helvetica, Arial, sans-serif" text-anchor="start" xml:space="preserve" stroke="#ffffff">叔</text>
  <ellipse stroke="#000000" fill="#000000" stroke-width="1.5" cx="359.75" cy="193.5" id="svg_12" rx="16.5" ry="16.5"/>
  <text style="cursor: move;" fill="#ffffff" stroke-width="0" x="353.75833" y="201.50501" id="svg_13" font-size="24" font-family="Helvetica, Arial, sans-serif" text-anchor="start" xml:space="preserve" stroke="#ffffff">2</text>
  <ellipse stroke="#000000" fill="#000000" stroke-width="1.5" cx="421.75" cy="193.5" id="svg_14" rx="16.5" ry="16.5"/>
  <text style="cursor: move;" fill="#ffffff" stroke-width="0" x="414.75833" y="201.50501" id="svg_17" font-size="24" font-family="Helvetica, Arial, sans-serif" text-anchor="start" xml:space="preserve" stroke="#ffffff">3</text>
  <line fill="none" stroke="#000000" stroke-width="1.5" x1="386.75" y1="156" x2="367.75" y2="178" id="svg_18" stroke-linejoin="null" stroke-linecap="null"/>
  <line fill="none" stroke="#000000" stroke-width="1.5" x1="404.75" y1="153" x2="418.75" y2="178" id="svg_19" stroke-linejoin="null" stroke-linecap="null"/>
  <path id="svg_20" d="m353.68327,142.42917l4.91501,-2.1l-9.50292,0l-9.5029,0l0,-1.3l0,-1.3l9.39388,0c5.16663,0 9.39387,-0.06589 9.39387,-0.14642c0,-0.08054 -2.05682,-1.02554 -4.5707,-2.1l-4.57071,-1.95358l4.22473,0l4.22472,0l6.45211,2.75263l6.4521,2.75264l-6.46448,2.74736l-6.46447,2.74737l-4.44762,0l-4.44763,0l4.91501,-2.1l0,0l0,0z" stroke-width="1.5" stroke="#0000ff" fill="#0000ff" transform="rotate(1.940483570098877 355.0924072265613,139.0291595458985) "/>
  <ellipse stroke="#000000" fill="#000000" stroke-width="1.5" cx="314.75" cy="137.5" id="svg_21" rx="16.5" ry="16.5"/>
  <text style="cursor: move;" fill="#ffffff" stroke-width="0" x="307.75833" y="144.50501" id="svg_24" font-size="24" font-family="Helvetica, Arial, sans-serif" text-anchor="start" xml:space="preserve" stroke="#ffffff">1</text>
  <line fill="none" stroke="#000000" stroke-width="1.5" x1="305.75" y1="48" x2="289.75" y2="73" id="svg_25" stroke-linejoin="null" stroke-linecap="null"/>
  <line fill="none" stroke="#000000" stroke-width="1.5" x1="329.75" y1="52" x2="344.75" y2="73" id="svg_26" stroke-linejoin="null" stroke-linecap="null"/>
  <line fill="none" stroke="#000000" stroke-width="1.5" x1="358.75" y1="104" x2="377.75" y2="127" id="svg_30" stroke-linejoin="null" stroke-linecap="null"/>
  <line stroke-linecap="null" stroke-linejoin="null" id="svg_31" y2="122" x2="322.5" y1="101" x1="336.5" fill-opacity="null" stroke-opacity="null" stroke-width="1.5" stroke="#000000" fill="none"/>
 </g>
</svg>