<svg width="400" height="200" xmlns="http://www.w3.org/2000/svg">
 <!-- Created with Method Draw - http://github.com/duopixel/Method-Draw/ -->

 <g stroke="null">
  <title>background</title>
  <rect stroke="null" fill="#ffffff" id="canvas_background" height="202" width="402" y="-1" x="-1"/>
  <g stroke="null" display="none" id="canvasGrid">
   <rect fill="url(#gridpattern)" stroke-width="0" y="1" x="1" height="960" width="1283" id="svg_1"/>
  </g>
 </g>
 <g stroke="null">
  <title>Layer 1</title>
  <path id="svg_37" d="m113.71759,125.76818l4.2808,-2.48182l-8.27672,0l-8.2767,0l0,-1.53636l0,-1.53636l8.18175,0c4.49996,0 8.18175,-0.07787 8.18175,-0.17305c0,-0.09517 -1.79142,-1.21199 -3.98093,-2.48182l-3.98094,-2.30877l3.6796,0l3.67959,0l5.61957,3.25311l5.61957,3.25311l-5.63035,3.24689l-5.63034,3.24689l-3.87373,0l-3.87374,0l4.28081,-2.48182l0,0l0.00001,0z" stroke-width="1.5" stroke="#0000ff" fill="#0000ff" transform="rotate(176.06814575195312 114.9449462890625,121.74999999999997) "/>
  <line fill="none" stroke="#000000" stroke-width="1.5" stroke-opacity="null" fill-opacity="null" x1="-145.5" y1="317" x2="-146.5" y2="317" id="svg_179" stroke-linejoin="null" stroke-linecap="null"/>
  <ellipse stroke="#000000" ry="16.5" rx="16.5" id="svg_20" cy="167.25" cx="55" stroke-width="1.5" fill="#56ff56"/>
  <text xml:space="preserve" text-anchor="start" font-family="Helvetica, Arial, sans-serif" font-size="24" id="svg_25" y="138.257683" x="-72.136656" stroke-width="0" fill="#ffffff" transform="matrix(0.7002341747283936,0,0,0.8571428656578064,96.52927957847714,55.60713954269886) " stroke="#ffffff">16</text>
  <ellipse stroke="#000000" ry="16.5" rx="16.5" id="svg_26" cy="120.75" cx="19" stroke-width="1.5" fill="#56ff56"/>
  <text xml:space="preserve" text-anchor="start" font-family="Helvetica, Arial, sans-serif" font-size="24" id="svg_27" y="84.312345" x="-117.835654" stroke-width="0" fill="#ffffff" transform="matrix(0.7002341747283936,0,0,0.8571428656578064,96.52927957847714,55.60713954269886) " stroke="#ffffff">5</text>
  <ellipse stroke="#000000" ry="16.5" rx="16.5" id="svg_28" cy="120.75" cx="80" stroke-width="1.5" fill="#56ff56"/>
  <text xml:space="preserve" text-anchor="start" font-family="Helvetica, Arial, sans-serif" font-size="24" id="svg_32" y="84.317543" x="-37.862408" stroke-width="0" fill="#ffffff" transform="matrix(0.7002341747283936,0,0,0.8571428656578064,96.52927957847714,55.60713954269886) " stroke="#ffffff">18</text>
  <ellipse stroke="#000000" ry="16.5" rx="16.5" id="svg_33" cy="73.75" cx="49" stroke-width="1.5" fill="#56ff56"/>
  <text xml:space="preserve" text-anchor="start" font-family="Helvetica, Arial, sans-serif" font-size="24" id="svg_34" y="29.489427" x="-82.133312" stroke-width="0" fill="#ffffff" transform="matrix(0.7002341747283936,0,0,0.8571428656578064,96.52927957847714,55.60713954269886) " stroke="#ffffff">15</text>
  <ellipse stroke="#000000" ry="16.5" rx="16.5" id="svg_36" cy="33.25" cx="91" stroke-width="1.5" fill="#56ff56"/>
  <text xml:space="preserve" text-anchor="start" font-family="Helvetica, Arial, sans-serif" font-size="24" id="svg_38" y="-16.908982" x="-22.153377" stroke-width="0" fill="#ffffff" transform="matrix(0.7002341747283936,0,0,0.8571428656578064,96.52927957847714,55.60713954269886) " stroke="#ffffff">20</text>
  <ellipse stroke="#000000" ry="16.5" rx="16.5" id="svg_43" cy="74.75" cx="129" stroke-width="1.5" fill="#56ff56"/>
  <text xml:space="preserve" text-anchor="start" font-family="Helvetica, Arial, sans-serif" font-size="24" id="svg_45" y="30.645679" x="32.114183" stroke-width="0" fill="#ffffff" transform="matrix(0.7002341747283936,0,0,0.8571428656578064,96.52927957847714,55.60713954269886) " stroke="#ffffff">30</text>
  <text fill="#000000" stroke="#0000ff" stroke-width="0" stroke-opacity="null" x="137.5" y="133" id="svg_46" font-size="24" font-family="Helvetica, Arial, sans-serif" text-anchor="start" xml:space="preserve">真正删除的是这个结点</text>
  <line fill="none" stroke="#000000" stroke-width="1.5" x1="77.5" y1="43" x2="59.5" y2="59" id="svg_48" stroke-linejoin="null" stroke-linecap="null"/>
  <line fill="none" stroke="#000000" stroke-width="1.5" x1="39.5" y1="86" x2="23.5" y2="104" id="svg_49" stroke-linejoin="null" stroke-linecap="null"/>
  <line fill="none" stroke="#000000" stroke-width="1.5" x1="103.5" y1="44" x2="119.5" y2="62" id="svg_50" stroke-linejoin="null" stroke-linecap="null"/>
  <line fill="none" stroke="#000000" stroke-width="1.5" x1="57.5" y1="87" x2="72.5" y2="106" id="svg_51" stroke-linejoin="null" stroke-linecap="null"/>
  <line fill="none" stroke="#000000" stroke-width="1.5" x1="71.5" y1="134" x2="61.5" y2="150" id="svg_52" stroke-linejoin="null" stroke-linecap="null"/>
 </g>
</svg>