<svg width="700" height="220" xmlns="http://www.w3.org/2000/svg">
 <!-- Created with Method Draw - http://github.com/duopixel/Method-Draw/ -->

 <g stroke="null">
  <title>background</title>
  <rect x="-1" y="-1" width="702" height="222" id="canvas_background" fill="#ffffff" stroke="null"/>
  <g id="canvasGrid" display="none" stroke="null">
   <rect id="svg_1" width="1283" height="960" x="1" y="1" stroke-width="0" fill="url(#gridpattern)"/>
  </g>
 </g>
 <g stroke="null">
  <title>Layer 1</title>
  <line fill="none" stroke="#000000" stroke-width="1.5" x1="298" y1="84" x2="284" y2="110" id="svg_26" stroke-linejoin="null" stroke-linecap="null"/>
  <line fill="none" stroke="#000000" stroke-width="1.5" x1="314" y1="92" x2="337" y2="114" id="svg_36" stroke-linejoin="null" stroke-linecap="null"/>
  <line fill="none" stroke="#000000" stroke-width="1.5" x1="121" y1="47" x2="89" y2="68" id="svg_39" stroke-linejoin="null" stroke-linecap="null"/>
  <line fill="none" stroke="#000000" stroke-width="1.5" x1="139" y1="48" x2="165" y2="68" id="svg_44" stroke-linejoin="null" stroke-linecap="null"/>
  <ellipse stroke="#ff0000" fill="#ff0000" stroke-width="1.5" cx="106.5" cy="134" id="svg_7" rx="17" ry="17"/>
  <ellipse stroke="#000000" fill="#000000" stroke-width="1.5" cx="81" cy="83.5" id="svg_29" rx="16.5" ry="16.5"/>
  <ellipse stroke="#000000" fill="#000000" stroke-width="1.5" cx="172.5" cy="83.5" id="svg_30" rx="16.5" ry="16.5"/>
  <text fill="#ffffff" stroke-width="0" x="160.50833" y="91.50501" id="svg_31" font-size="24" font-family="Helvetica, Arial, sans-serif" text-anchor="start" xml:space="preserve" stroke="#ffffff">新</text>
  <text fill="#ffffff" stroke-width="0" x="69.0172" y="91.50768" id="svg_35" font-size="24" font-family="Helvetica, Arial, sans-serif" text-anchor="start" xml:space="preserve" stroke="#ffffff">兄</text>
  <text fill="#ffff00" stroke-width="0" x="94.50229" y="142.00944" id="svg_14" font-size="24" font-family="Helvetica, Arial, sans-serif" text-anchor="start" xml:space="preserve" stroke="#ffff00">侄</text>
  <path id="svg_79" d="m215.87029,124.01131l8.56162,-3.05455l-16.55347,0l-16.55343,0l0,-1.8909l0,-1.89091l16.36353,0c8.99993,0 16.36352,-0.09584 16.36352,-0.21298c0,-0.11714 -3.58285,-1.49168 -7.96187,-3.05454l-7.96189,-2.84157l7.35922,0l7.35919,0l11.23916,4.00383l11.23915,4.00383l-11.26071,3.99616l-11.26071,3.99617l-7.74747,0l-7.74748,0l8.56164,-3.05454l0,0z" fill-opacity="null" stroke-opacity="null" stroke-width="1.5" stroke="#000000" fill="#ffff56"/>
  <ellipse fill="#00ff00" stroke-width="1.5" cx="131.5" cy="39.5" id="svg_86" rx="16.5" ry="16.5" stroke="#000000"/>
  <text fill="#ffffff" stroke-width="0" x="118.5105" y="47.65634" id="svg_87" font-size="24" font-family="Helvetica, Arial, sans-serif" text-anchor="start" xml:space="preserve" stroke="#ffffff">父</text>
  <ellipse stroke="#000000" fill="#000000" stroke-width="1.5" cx="130" cy="184" id="svg_21" rx="16.5" ry="16.5"/>
  <text fill="#ffffff" stroke-width="0" x="122.0172" y="192.00768" id="svg_22" font-size="24" font-family="Helvetica, Arial, sans-serif" text-anchor="start" xml:space="preserve" stroke="#ffffff">3</text>
  <ellipse stroke="#000000" fill="#000000" stroke-width="1.5" cx="79.5" cy="184" id="svg_23" rx="16.5" ry="16.5"/>
  <text fill="#ffffff" stroke-width="0" x="71.5105" y="192.00009" id="svg_24" font-size="24" font-family="Helvetica, Arial, sans-serif" text-anchor="start" xml:space="preserve" stroke="#ffffff">2</text>
  <path fill="#0000ff" stroke="#0000ff" stroke-width="1.5" d="m136.71759,87.51818l4.2808,-2.48182l-8.27672,0l-8.2767,0l0,-1.53636l0,-1.53636l8.18175,0c4.49996,0 8.18175,-0.07787 8.18175,-0.17305c0,-0.09517 -1.79142,-1.21199 -3.98093,-2.48182l-3.98094,-2.30877l3.6796,0l3.67959,0l5.61957,3.25311l5.61957,3.25311l-5.63035,3.24689l-5.63034,3.24689l-3.87373,0l-3.87374,0l4.28081,-2.48182l0,0l0.00001,0z" id="svg_37"/>
  <line fill="none" stroke="#000000" stroke-width="1.5" x1="69" y1="90" x2="55" y2="116" id="svg_40" stroke-linejoin="null" stroke-linecap="null"/>
  <line fill="none" stroke="#000000" stroke-width="1.5" x1="97" y1="148" x2="85" y2="167" id="svg_41" stroke-linejoin="null" stroke-linecap="null"/>
  <line fill="none" stroke="#000000" stroke-width="1.5" x1="114" y1="148" x2="130" y2="167" id="svg_42" stroke-linejoin="null" stroke-linecap="null"/>
  <line fill="none" stroke="#000000" stroke-width="1.5" x1="85" y1="98" x2="108" y2="120" id="svg_43" stroke-linejoin="null" stroke-linecap="null"/>
  <text fill="#ffffff" stroke-width="0" x="243.5105" y="192.00009" id="svg_65" font-size="24" font-family="Helvetica, Arial, sans-serif" text-anchor="start" xml:space="preserve" stroke="#ffffff">1</text>
  <ellipse fill="#56ff56" stroke-width="1.5" cx="53" cy="133" id="svg_69" rx="16.5" ry="16.5" stroke="#000000"/>
  <text fill="#ffffff" stroke-width="0" x="45.0172" y="141.00768" id="svg_70" font-size="24" font-family="Helvetica, Arial, sans-serif" text-anchor="start" xml:space="preserve" stroke="#ffffff">1</text>
  <line fill="none" stroke="#000000" stroke-width="1.5" x1="350" y1="41" x2="318" y2="62" id="svg_4" stroke-linejoin="null" stroke-linecap="null"/>
  <line fill="none" stroke="#000000" stroke-width="1.5" x1="368" y1="42" x2="394" y2="62" id="svg_5" stroke-linejoin="null" stroke-linecap="null"/>
  <ellipse stroke="#ff0000" fill="#ff0000" stroke-width="1.5" cx="309.5" cy="78" id="svg_6" rx="17" ry="17"/>
  <ellipse stroke="#000000" fill="#000000" stroke-width="1.5" cx="336" cy="126.5" id="svg_8" rx="16.5" ry="16.5"/>
  <ellipse stroke="#000000" fill="#000000" stroke-width="1.5" cx="401.5" cy="77.5" id="svg_9" rx="16.5" ry="16.5"/>
  <text fill="#ffffff" stroke-width="0" x="389.50833" y="85.50501" id="svg_10" font-size="24" font-family="Helvetica, Arial, sans-serif" text-anchor="start" xml:space="preserve" stroke="#ffffff">新</text>
  <text fill="#ffffff" stroke-width="0" x="324.0172" y="134.50768" id="svg_11" font-size="24" font-family="Helvetica, Arial, sans-serif" text-anchor="start" xml:space="preserve" stroke="#ffffff">侄</text>
  <text fill="#ffff00" stroke-width="0" x="297.50229" y="86.00944" id="svg_12" font-size="24" font-family="Helvetica, Arial, sans-serif" text-anchor="start" xml:space="preserve" stroke="#ffff00">兄</text>
  <ellipse fill="#00ff00" stroke-width="1.5" cx="360.5" cy="33.5" id="svg_13" rx="16.5" ry="16.5" stroke="#000000"/>
  <text fill="#ffffff" stroke-width="0" x="347.5105" y="41.65634" id="svg_15" font-size="24" font-family="Helvetica, Arial, sans-serif" text-anchor="start" xml:space="preserve" stroke="#ffffff">父</text>
  <ellipse stroke="#000000" fill="#000000" stroke-width="1.5" cx="359" cy="178" id="svg_16" rx="16.5" ry="16.5"/>
  <text fill="#ffffff" stroke-width="0" x="351.0172" y="186.00768" id="svg_17" font-size="24" font-family="Helvetica, Arial, sans-serif" text-anchor="start" xml:space="preserve" stroke="#ffffff">3</text>
  <ellipse stroke="#000000" fill="#000000" stroke-width="1.5" cx="308.5" cy="178" id="svg_18" rx="16.5" ry="16.5"/>
  <text fill="#ffffff" stroke-width="0" x="300.5105" y="186.00009" id="svg_19" font-size="24" font-family="Helvetica, Arial, sans-serif" text-anchor="start" xml:space="preserve" stroke="#ffffff">2</text>
  <path fill="#0000ff" stroke="#0000ff" stroke-width="1.5" d="m365.71759,81.51818l4.2808,-2.48182l-8.27672,0l-8.2767,0l0,-1.53636l0,-1.53636l8.18175,0c4.49996,0 8.18175,-0.07787 8.18175,-0.17305c0,-0.09517 -1.79142,-1.21199 -3.98093,-2.48182l-3.98094,-2.30877l3.6796,0l3.67959,0l5.61957,3.25311l5.61957,3.25311l-5.63035,3.24689l-5.63034,3.24689l-3.87373,0l-3.87374,0l4.28081,-2.48182l0,0l0.00001,0z" id="svg_20"/>
  <line fill="none" stroke="#000000" stroke-width="1.5" x1="326" y1="142" x2="314" y2="161" id="svg_27" stroke-linejoin="null" stroke-linecap="null"/>
  <line fill="none" stroke="#000000" stroke-width="1.5" x1="343" y1="142" x2="359" y2="161" id="svg_32" stroke-linejoin="null" stroke-linecap="null"/>
  <ellipse fill="#56ff56" stroke-width="1.5" cx="282" cy="127" id="svg_38" rx="16.5" ry="16.5" stroke="#000000"/>
  <text fill="#ffffff" stroke-width="0" x="274.0172" y="135.00768" id="svg_47" font-size="24" font-family="Helvetica, Arial, sans-serif" text-anchor="start" xml:space="preserve" stroke="#ffffff">1</text>
  <line fill="none" stroke="#000000" stroke-width="1.5" x1="522" y1="131" x2="508" y2="157" id="svg_48" stroke-linejoin="null" stroke-linecap="null"/>
  <line fill="none" stroke="#000000" stroke-width="1.5" x1="610" y1="39" x2="578" y2="60" id="svg_52" stroke-linejoin="null" stroke-linecap="null"/>
  <line fill="none" stroke="#000000" stroke-width="1.5" x1="628" y1="40" x2="654" y2="60" id="svg_53" stroke-linejoin="null" stroke-linecap="null"/>
  <ellipse stroke="#ff0000" fill="#ff0000" stroke-width="1.5" cx="533.5" cy="125" id="svg_54" rx="17" ry="17"/>
  <ellipse stroke="#000000" fill="#000000" stroke-width="1.5" cx="577" cy="72.5" id="svg_55" rx="16.5" ry="16.5"/>
  <ellipse stroke="#000000" fill="#000000" stroke-width="1.5" cx="661.5" cy="75.5" id="svg_58" rx="16.5" ry="16.5"/>
  <text fill="#ffffff" stroke-width="0" x="649.50833" y="83.50501" id="svg_59" font-size="24" font-family="Helvetica, Arial, sans-serif" text-anchor="start" xml:space="preserve" stroke="#ffffff">新</text>
  <text fill="#ffffff" stroke-width="0" x="565.0172" y="80.50768" id="svg_60" font-size="24" font-family="Helvetica, Arial, sans-serif" text-anchor="start" xml:space="preserve" stroke="#ffffff">侄</text>
  <text fill="#ffff00" stroke-width="0" x="521.50229" y="133.00944" id="svg_61" font-size="24" font-family="Helvetica, Arial, sans-serif" text-anchor="start" xml:space="preserve" stroke="#ffff00">兄</text>
  <ellipse fill="#00ff00" stroke-width="1.5" cx="620.5" cy="31.5" id="svg_62" rx="16.5" ry="16.5" stroke="#000000"/>
  <text fill="#ffffff" stroke-width="0" x="607.5105" y="39.65634" id="svg_63" font-size="24" font-family="Helvetica, Arial, sans-serif" text-anchor="start" xml:space="preserve" stroke="#ffffff">父</text>
  <ellipse stroke="#000000" fill="#000000" stroke-width="1.5" cx="600" cy="124" id="svg_66" rx="16.5" ry="16.5"/>
  <text fill="#ffffff" stroke-width="0" x="592.0172" y="132.00768" id="svg_67" font-size="24" font-family="Helvetica, Arial, sans-serif" text-anchor="start" xml:space="preserve" stroke="#ffffff">3</text>
  <ellipse stroke="#000000" fill="#000000" stroke-width="1.5" cx="561.5" cy="175" id="svg_71" rx="16.5" ry="16.5"/>
  <text fill="#ffffff" stroke-width="0" x="553.5105" y="183.00009" id="svg_72" font-size="24" font-family="Helvetica, Arial, sans-serif" text-anchor="start" xml:space="preserve" stroke="#ffffff">2</text>
  <path fill="#0000ff" stroke="#0000ff" stroke-width="1.5" d="m625.71759,79.51818l4.2808,-2.48182l-8.27672,0l-8.2767,0l0,-1.53636l0,-1.53636l8.18175,0c4.49996,0 8.18175,-0.07787 8.18175,-0.17305c0,-0.09517 -1.79142,-1.21199 -3.98093,-2.48182l-3.98094,-2.30877l3.6796,0l3.67959,0l5.61957,3.25311l5.61957,3.25311l-5.63035,3.24689l-5.63034,3.24689l-3.87373,0l-3.87374,0l4.28081,-2.48182l0,0l0.00001,0z" id="svg_73"/>
  <line fill="none" stroke="#000000" stroke-width="1.5" x1="584" y1="88" x2="600" y2="107" id="svg_77" stroke-linejoin="null" stroke-linecap="null"/>
  <ellipse fill="#56ff56" stroke-width="1.5" cx="506" cy="174" id="svg_78" rx="16.5" ry="16.5" stroke="#000000"/>
  <text fill="#ffffff" stroke-width="0" x="498.0172" y="182.00768" id="svg_80" font-size="24" font-family="Helvetica, Arial, sans-serif" text-anchor="start" xml:space="preserve" stroke="#ffffff">1</text>
  <line fill="none" stroke="#000000" stroke-width="1.5" stroke-opacity="null" fill-opacity="null" x1="560.5" y1="81" x2="541.5" y2="106" id="svg_81" stroke-linejoin="null" stroke-linecap="null"/>
  <line fill="none" stroke="#000000" stroke-width="1.5" stroke-opacity="null" fill-opacity="null" x1="542.5" y1="138" x2="554.5" y2="160" id="svg_82" stroke-linejoin="null" stroke-linecap="null"/>
  <path id="svg_84" d="m465.87029,114.01131l8.56162,-3.05455l-16.55347,0l-16.55343,0l0,-1.8909l0,-1.89091l16.36353,0c8.99993,0 16.36352,-0.09584 16.36352,-0.21298c0,-0.11714 -3.58285,-1.49168 -7.96187,-3.05454l-7.96189,-2.84157l7.35922,0l7.35919,0l11.23916,4.00383l11.23915,4.00383l-11.26071,3.99616l-11.26071,3.99617l-7.74747,0l-7.74748,0l8.56164,-3.05454l0,0z" fill-opacity="null" stroke-opacity="null" stroke-width="1.5" stroke="#000000" fill="#ffff56"/>
 </g>
</svg>