<svg width="320" height="200" xmlns="http://www.w3.org/2000/svg">
 <!-- Created with Method Draw - http://github.com/duopixel/Method-Draw/ -->

 <g stroke="null">
  <title>background</title>
  <rect fill="#ffffff" id="canvas_background" height="202.0007" width="322.00112" y="-1" x="-1" stroke="null"/>
  <g display="none" id="canvasGrid" stroke="null">
   <rect fill="url(#gridpattern)" stroke-width="0" y="1" x="1" height="960" width="1283" id="svg_1" stroke="null"/>
  </g>
 </g>
 <g stroke="null">
  <title>Layer 1</title>
  <path fill="#ffff56" stroke-width="1.5" stroke-opacity="null" fill-opacity="null" d="m149.994472,47.883472l8.56162,-3.05455l-16.55347,0l-16.55343,0l0,-1.8909l0,-1.89091l16.36353,0c8.99993,0 16.36352,-0.09584 16.36352,-0.21298c0,-0.11714 -3.58285,-1.49168 -7.96187,-3.05454l-7.96189,-2.84157l7.35922,0l7.35919,0l11.23916,4.00383l11.23915,4.00383l-11.26071,3.99616l-11.26071,3.99617l-7.74747,0l-7.74748,0l8.56164,-3.05454l0,0z" id="svg_68" stroke="#000000"/>
  <ellipse ry="16.5" rx="16.500001" id="svg_2" cy="27.997069" cx="60.499063" stroke-width="1.5" fill="#000000" stroke="#000000"/>
  <text xml:space="preserve" text-anchor="start" font-family="Helvetica, Arial, sans-serif" font-size="24" id="svg_3" y="35.997155" x="46.509567" stroke-width="0" fill="#ffffff" stroke="#ffffff">15</text>
  <ellipse ry="17" rx="17.000001" id="svg_9" cy="72.997069" cx="19.999063" stroke-width="1.5" fill="#ff0000" stroke="#ff0000"/>
  <text xml:space="preserve" text-anchor="start" font-family="Helvetica, Arial, sans-serif" font-size="24" id="svg_11" y="81.011396" x="6.010845" stroke-width="0" fill="#ffff00" stroke="#ffff00">10</text>
  <ellipse ry="17" rx="17.000001" id="svg_16" cy="72.997069" cx="96.999063" stroke-width="1.5" fill="#ff0000" stroke="#ff0000"/>
  <text xml:space="preserve" text-anchor="start" font-family="Helvetica, Arial, sans-serif" font-size="24" id="svg_17" y="81.011396" x="85.010845" stroke-width="0" fill="#ffff00" stroke="#ffff00">20</text>
  <line fill="none" stroke="#000000" stroke-width="1.5" x1="52.5" y1="40" x2="26.5" y2="57" id="svg_18" stroke-linejoin="null" stroke-linecap="null"/>
  <line fill="none" stroke="#000000" stroke-width="1.5" stroke-opacity="null" fill-opacity="null" x1="67.5" y1="40" x2="85.5" y2="60" id="svg_20" stroke-linejoin="null" stroke-linecap="null"/>
  <ellipse ry="16.5" rx="16.500001" id="svg_31" cy="27.372069" cx="249.874017" stroke-width="1.5" fill="#000000" stroke="#000000"/>
  <text xml:space="preserve" text-anchor="start" font-family="Helvetica, Arial, sans-serif" font-size="24" id="svg_32" y="35.372155" x="235.884521" stroke-width="0" fill="#ffffff" stroke="#ffffff">15</text>
  <ellipse ry="17" rx="17.000001" id="svg_33" cy="72.372069" cx="209.374017" stroke-width="1.5" fill="#ff0000" stroke="#ff0000"/>
  <text xml:space="preserve" text-anchor="start" font-family="Helvetica, Arial, sans-serif" font-size="24" id="svg_36" y="80.386396" x="195.385799" stroke-width="0" fill="#ffff00" stroke="#ffff00">10</text>
  <ellipse ry="17" rx="17.000001" id="svg_37" cy="72.372069" cx="286.374017" stroke-width="1.5" fill="#ff0000" stroke="#ff0000"/>
  <text xml:space="preserve" text-anchor="start" font-family="Helvetica, Arial, sans-serif" font-size="24" id="svg_42" y="80.386396" x="274.385799" stroke-width="0" fill="#ffff00" stroke="#ffff00">20</text>
  <line fill="none" stroke="#000000" stroke-width="1.5" x1="241.874954" y1="39.375" x2="215.874954" y2="56.375" id="svg_43" stroke-linejoin="null" stroke-linecap="null"/>
  <line fill="none" stroke="#000000" stroke-width="1.5" stroke-opacity="null" fill-opacity="null" x1="256.874954" y1="39.375" x2="274.874954" y2="59.375" id="svg_44" stroke-linejoin="null" stroke-linecap="null"/>
  <ellipse ry="17" rx="17.000001" id="svg_45" cy="125.497058" cx="169.374025" stroke-width="1.5" fill="#ff0000" stroke="#ff0000"/>
  <text xml:space="preserve" text-anchor="start" font-family="Helvetica, Arial, sans-serif" font-size="24" id="svg_46" y="133.511385" x="161.010806" stroke-width="0" fill="#ffff00" stroke="#ffff00">5</text>
  <line fill="none" stroke="#000000" stroke-width="1.5" stroke-opacity="null" fill-opacity="null" x1="196.062571" y1="84.37498" x2="174.812576" y2="108.749974" id="svg_52" stroke-linejoin="null" stroke-linecap="null"/>
  <text fill="#000000" stroke-width="0" stroke-opacity="null" x="32.885853" y="204.410953" id="svg_60" font-size="24" font-family="Helvetica, Arial, sans-serif" text-anchor="start" xml:space="preserve" transform="matrix(0.6527025103569031,0,0,0.6442468762397766,7.097892444580793,36.236790840514004) " stroke="#000000">插入前</text>
  <text fill="#000000" stroke-width="0" stroke-opacity="null" x="252.166409" y="204.409579" id="svg_61" font-size="24" font-family="Helvetica, Arial, sans-serif" text-anchor="start" xml:space="preserve" transform="matrix(0.6527025103569031,0,0,0.6442468762397766,7.097892444580793,36.236790840514004) " stroke="#000000">插入后，违反性质4</text>
 </g>
</svg>