<svg width="448" height="83" xmlns="http://www.w3.org/2000/svg">
 <!-- Created with Method Draw - http://github.com/duopixel/Method-Draw/ -->

 <g>
  <title>background</title>
  <rect x="-1" y="-1" width="450" height="85" id="canvas_background" fill="#fff"/>
  <g id="canvasGrid" display="none">
   <rect id="svg_16" width="100%" height="100%" x="0" y="0" stroke-width="0" fill="url(#gridpattern)"/>
  </g>
 </g>
 <g>
  <title>Layer 1</title>
  <rect fill="#fff" stroke="#000" stroke-width="1.5" x="8.581631" y="25.804846" width="433" height="25" id="svg_1"/>
  <line fill="none" stroke-width="1.5" x1="240.408161" y1="25.714284" x2="240.408161" y2="50.204081" id="svg_2" stroke-linejoin="undefined" stroke-linecap="undefined" stroke="#000"/>
  <line fill="none" stroke-width="1.5" x1="68.571427" y1="25.714284" x2="68.571427" y2="51.020407" id="svg_3" stroke-linejoin="undefined" stroke-linecap="undefined" stroke="#000"/>
  <line fill="none" stroke-width="1.5" x1="82.040814" y1="26.122447" x2="82.040814" y2="51.020406" id="svg_4" stroke-linejoin="undefined" stroke-linecap="undefined" stroke="#000"/>
  <text fill="#000000" stroke-width="0" stroke-opacity="null" fill-opacity="null" x="271.281829" y="50.579259" id="svg_5" font-size="24" font-family="Helvetica, Arial, sans-serif" text-anchor="start" xml:space="preserve" transform="matrix(0.26587966084480286,0,0,0.38223937153816223,362.563682500273,20.926641289144754) " stroke="#000">0</text>
  <text fill="#000000" stroke-width="0" stroke-opacity="null" fill-opacity="null" x="-448.700206" y="50.57926" id="svg_6" font-size="24" font-family="Helvetica, Arial, sans-serif" text-anchor="start" xml:space="preserve" transform="matrix(0.26587966084480286,0,0,0.38223937153816223,362.563682500273,20.926641289144754) " stroke="#000">29</text>
  <text fill="#000000" stroke-width="0" stroke-opacity="null" fill-opacity="null" x="-493.219349" y="50.57926" id="svg_7" font-size="24" font-family="Helvetica, Arial, sans-serif" text-anchor="start" xml:space="preserve" transform="matrix(0.26587966084480286,0,0,0.38223937153816223,362.563682500273,20.926641289144754) " stroke="#000">30</text>
  <text fill="#000000" stroke-width="0" stroke-opacity="null" fill-opacity="null" x="-1041.265329" y="52.714902" id="svg_8" font-size="24" font-family="Helvetica, Arial, sans-serif" text-anchor="start" xml:space="preserve" transform="matrix(0.26587966084480286,0,0,0.38223937153816223,362.563682500273,20.926641289144754) " stroke="#000">51</text>
  <text fill="#000000" stroke-width="0" stroke-opacity="null" fill-opacity="null" x="-1322.196476" y="53.782724" id="svg_9" font-size="24" font-family="Helvetica, Arial, sans-serif" text-anchor="start" xml:space="preserve" transform="matrix(0.26587966084480286,0,0,0.38223937153816223,362.563682500273,20.926641289144754) " stroke="#000">63</text>
  <text fill="#000000" stroke-width="0" stroke-opacity="null" fill-opacity="null" x="-1147.190186" y="51.647081" id="svg_10" font-size="24" font-family="Helvetica, Arial, sans-serif" text-anchor="start" xml:space="preserve" transform="matrix(0.26587966084480286,0,0,0.38223937153816223,362.563682500273,20.926641289144754) " stroke="#000">54</text>
  <text fill="#000000" stroke-width="0" stroke-opacity="null" fill-opacity="null" x="-100.783885" y="17.709798" id="svg_11" font-size="24" font-family="Helvetica, Arial, sans-serif" text-anchor="start" xml:space="preserve" transform="matrix(0.32032368302681924,0,0,0.41165655851364136,54.706954200058036,33.61831196118146) " stroke="#000">node id</text>
  <text fill="#000000" stroke-width="0" stroke-opacity="null" fill-opacity="null" x="238.158981" y="17.709798" id="svg_12" font-size="24" font-family="Helvetica, Arial, sans-serif" text-anchor="start" xml:space="preserve" transform="matrix(0.32032368302681924,0,0,0.41165655851364136,54.706954200058036,33.61831196118146) " stroke="#000">last cpupid</text>
  <text fill="#000000" stroke-width="0" stroke-opacity="null" fill-opacity="null" x="805.187447" y="16.718284" id="svg_13" font-size="24" font-family="Helvetica, Arial, sans-serif" text-anchor="start" xml:space="preserve" transform="matrix(0.32032368302681924,0,0,0.41165655851364136,54.706954200058036,33.61831196118146) " stroke="#000">flags</text>
  <text fill="#000000" stroke-width="0" stroke-opacity="null" fill-opacity="null" x="-155.575414" y="-48.721645" id="svg_14" font-size="24" font-family="Helvetica, Arial, sans-serif" text-anchor="start" xml:space="preserve" transform="matrix(0.32032368302681924,0,0,0.41165655851364136,54.706954200058036,33.61831196118146) " stroke="#000">page-&gt;flags</text>
  <text fill="#000000" stroke-width="0" x="28.871245" y="79.183677" id="svg_15" font-size="24" font-family="Helvetica, Arial, sans-serif" text-anchor="start" xml:space="preserve" transform="matrix(0.3209774164431692,0,0,0.3381658287060461,52.959657419042045,40.27222375363054) " stroke="#000000">zone id</text>
  <path transform="rotate(90.25885009765625 75.2103271484375,50.000015258789055) " stroke="#ff7f00" id="svg_19" d="m74.208937,52.418988l3.492662,-1.494072l-6.752891,0l-6.752877,0l0,-0.924901l0,-0.924902l6.675408,0c3.671469,0 6.675402,-0.046878 6.675402,-0.104175c0,-0.057295 -1.4616,-0.729627 -3.247997,-1.494071l-3.248007,-1.389898l3.002151,0l3.00214,0l4.584948,1.958397l4.584946,1.958396l-4.593741,1.954649l-4.593739,1.954649l-3.160535,0l-3.160542,0l3.492672,-1.494072l0.000001,0z" stroke-width="0" fill="#ff7f00"/>
 </g>
</svg>