
<svg width="746px" height="1125px" viewBox="0 0 746 1125" version="1.1" xmlns="http://www.w3.org/2000/svg" xmlns:xlink="http://www.w3.org/1999/xlink">
    <g id="Xarray" stroke="none" stroke-width="1" fill="none" fill-rule="evenodd">
        <rect id="Rectangle" stroke="#000000" fill="#B8E986" x="322.5" y="28.5" width="159" height="91"></rect>
        <text id="xarray" font-family="PingFangSC-Medium, PingFang SC" font-size="24" font-weight="400" fill="#000000">
            <tspan x="366.328" y="13">xarray</tspan>
        </text>
        <text id="xa_flags" font-family="PingFangSC-Medium, PingFang SC" font-size="16" font-weight="400" fill="#000000">
            <tspan x="370.26" y="79">xa_flags</tspan>
        </text>
        <text id="xa_lock" font-family="PingFangSC-Medium, PingFang SC" font-size="16" font-weight="400" fill="#000000">
            <tspan x="373.092" y="52">xa_lock</tspan>
        </text>
        <text id="xa_head" font-family="PingFangSC-Medium, PingFang SC" font-size="16" font-weight="400" fill="#000000">
            <tspan x="370.284" y="111">xa_head</tspan>
        </text>
        <path d="M322,59.5 L482,59.5" id="Line" stroke="#000000" stroke-linecap="square"></path>
        <path d="M322,91.5 L482,91.5" id="Line" stroke="#000000" stroke-linecap="square"></path>
        <path d="M745.5,835 L745.5,241.5" id="Line-3" stroke="#000000" stroke-linecap="square"></path>
        <text id="xa_node" font-family="PingFangSC-Medium, PingFang SC" font-size="24" font-weight="400" fill="#000000">
            <tspan x="265.292" y="222">xa_node</tspan>
        </text>
        <rect id="Rectangle" stroke="#000000" fill="#F8E71C" x="306.5" y="227.5" width="195" height="312"></rect>
        <text id="offset=随机" font-family="PingFangSC-Medium, PingFang SC" font-size="16" font-weight="400" fill="#000000">
            <tspan x="355.804" y="286">offset=随机</tspan>
        </text>
        <text id="shift=6" font-family="PingFangSC-Medium, PingFang SC" font-size="16" font-weight="400" fill="#000000">
            <tspan x="371.06" y="253">shift=6</tspan>
        </text>
        <text id="count=2" font-family="PingFangSC-Medium, PingFang SC" font-size="16" font-weight="400" fill="#000000">
            <tspan x="362.016" y="318">count=2</tspan>
        </text>
        <path d="M307,262.5 L502,262.5" id="Line" stroke="#000000" stroke-linecap="square"></path>
        <path d="M307,295.5 L502,295.5" id="Line" stroke="#000000" stroke-linecap="square"></path>
        <text id="parent=null" font-family="PingFangSC-Medium, PingFang SC" font-size="16" font-weight="400" fill="#000000">
            <tspan x="357.124" y="380">parent=null</tspan>
        </text>
        <text id="nr_value=0" font-family="PingFangSC-Medium, PingFang SC" font-size="16" font-weight="400" fill="#000000">
            <tspan x="358.596" y="351">nr_value=0</tspan>
        </text>
        <text id="xarray" font-family="PingFangSC-Medium, PingFang SC" font-size="16" font-weight="400" fill="#000000">
            <tspan x="378.052" y="415">xarray</tspan>
        </text>
        <path d="M306,361.5 L502,361.5" id="Line" stroke="#000000" stroke-linecap="square"></path>
        <path d="M306,328.5 L502,328.5" id="Line" stroke="#000000" stroke-linecap="square"></path>
        <path d="M307,392.5 L503,392.5" id="Line" stroke="#000000" stroke-linecap="square"></path>
        <text id="tags[3][1]/marks[3][" font-family="PingFangSC-Medium, PingFang SC" font-size="16" font-weight="400" fill="#000000">
            <tspan x="322.096" y="483">tags[3][1]/marks[3][1]</tspan>
        </text>
        <text id="private_list/rcu_hea" font-family="PingFangSC-Medium, PingFang SC" font-size="16" font-weight="400" fill="#000000">
            <tspan x="323.44" y="446">private_list/rcu_head</tspan>
        </text>
        <path d="M307,458.5 L502,458.5" id="Line" stroke="#000000" stroke-linecap="square"></path>
        <path d="M306,424.5 L502,424.5" id="Line" stroke="#000000" stroke-linecap="square"></path>
        <text id="slots[64]" font-family="PingFangSC-Medium, PingFang SC" font-size="16" font-weight="400" fill="#000000">
            <tspan x="237.096" y="534">slots[64]</tspan>
        </text>
        <path d="M306,510.5 L502,510.5" id="Line" stroke="#000000" stroke-linecap="square"></path>
        <path d="M317.5,511.5 L317.5,539.5" id="Line-2" stroke="#000000" stroke-linecap="square"></path>
        <path d="M337.5,511.5 L337.5,539.5" id="Line-2" stroke="#000000" stroke-linecap="square"></path>
        <path d="M327.75,511.5 L327.75,539.5" id="Line-2" stroke="#000000" stroke-linecap="square"></path>
        <path d="M359.5,511.5 L359.5,539.5" id="Line-2" stroke="#000000" stroke-linecap="square"></path>
        <path d="M379.5,511.5 L379.5,539.5" id="Line-2" stroke="#000000" stroke-linecap="square"></path>
        <path d="M347.75,511.5 L347.75,539.5" id="Line-2" stroke="#000000" stroke-linecap="square"></path>
        <path d="M369.75,511.5 L369.75,539.5" id="Line-2" stroke="#000000" stroke-linecap="square"></path>
        <path d="M436.5,511.5 L436.5,539.5" id="Line-2" stroke="#000000" stroke-linecap="square"></path>
        <path d="M456.5,511.5 L456.5,539.5" id="Line-2" stroke="#000000" stroke-linecap="square"></path>
        <path d="M424.75,511.5 L424.75,539.5" id="Line-2" stroke="#000000" stroke-linecap="square"></path>
        <path d="M446.75,511.5 L446.75,539.5" id="Line-2" stroke="#000000" stroke-linecap="square"></path>
        <path d="M478.5,511.5 L478.5,539.5" id="Line-2" stroke="#000000" stroke-linecap="square"></path>
        <path d="M466.75,511.5 L466.75,539.5" id="Line-2" stroke="#000000" stroke-linecap="square"></path>
        <path d="M488.75,511.5 L488.75,539.5" id="Line-2" stroke="#000000" stroke-linecap="square"></path>
        <text id="……" font-family="PingFangSC-Medium, PingFang SC" font-size="16" font-weight="400" fill="#000000">
            <tspan x="383" y="529">……</tspan>
        </text>
        <text id="0" font-family="PingFangSC-Medium, PingFang SC" font-size="12" font-weight="400" fill="#000000">
            <tspan x="309.4" y="507">0</tspan>
        </text>
        <text id="63" font-family="PingFangSC-Medium, PingFang SC" font-size="12" font-weight="400" fill="#000000">
            <tspan x="487.3" y="506">63</tspan>
        </text>
        <text id="xa_node" font-family="PingFangSC-Medium, PingFang SC" font-size="24" font-weight="400" fill="#000000">
            <tspan x="36.292" y="678">xa_node</tspan>
        </text>
        <rect id="Rectangle" stroke="#000000" fill="#F8E71C" x="78.5" y="683.5" width="195" height="312"></rect>
        <text id="offset=0" font-family="PingFangSC-Medium, PingFang SC" font-size="16" font-weight="400" fill="#000000">
            <tspan x="138.004" y="742">offset=0</tspan>
        </text>
        <text id="shift=0" font-family="PingFangSC-Medium, PingFang SC" font-size="16" font-weight="400" fill="#000000">
            <tspan x="142.06" y="709">shift=0</tspan>
        </text>
        <text id="count=2" font-family="PingFangSC-Medium, PingFang SC" font-size="16" font-weight="400" fill="#000000">
            <tspan x="133.016" y="774">count=2</tspan>
        </text>
        <path d="M78,718.5 L273,718.5" id="Line" stroke="#000000" stroke-linecap="square"></path>
        <path d="M78,751.5 L273,751.5" id="Line" stroke="#000000" stroke-linecap="square"></path>
        <text id="parent" font-family="PingFangSC-Medium, PingFang SC" font-size="16" font-weight="400" fill="#000000">
            <tspan x="146.188" y="836">parent</tspan>
        </text>
        <text id="nr_value=2" font-family="PingFangSC-Medium, PingFang SC" font-size="16" font-weight="400" fill="#000000">
            <tspan x="129.596" y="807">nr_value=2</tspan>
        </text>
        <text id="xarray" font-family="PingFangSC-Medium, PingFang SC" font-size="16" font-weight="400" fill="#000000">
            <tspan x="149.052" y="871">xarray</tspan>
        </text>
        <path d="M77,817.5 L273,817.5" id="Line" stroke="#000000" stroke-linecap="square"></path>
        <path d="M77,784.5 L273,784.5" id="Line" stroke="#000000" stroke-linecap="square"></path>
        <path d="M78,848.5 L274,848.5" id="Line" stroke="#000000" stroke-linecap="square"></path>
        <text id="tags[3][1]/marks[3][" font-family="PingFangSC-Medium, PingFang SC" font-size="16" font-weight="400" fill="#000000">
            <tspan x="93.096" y="939">tags[3][1]/marks[3][1]</tspan>
        </text>
        <text id="private_list/rcu_hea" font-family="PingFangSC-Medium, PingFang SC" font-size="16" font-weight="400" fill="#000000">
            <tspan x="94.44" y="902">private_list/rcu_head</tspan>
        </text>
        <path d="M78,914.5 L273,914.5" id="Line" stroke="#000000" stroke-linecap="square"></path>
        <path d="M77,880.5 L273,880.5" id="Line" stroke="#000000" stroke-linecap="square"></path>
        <text id="slots[64]" font-family="PingFangSC-Medium, PingFang SC" font-size="16" font-weight="400" fill="#000000">
            <tspan x="8.096" y="990">slots[64]</tspan>
        </text>
        <path d="M77,966.5 L273,966.5" id="Line" stroke="#000000" stroke-linecap="square"></path>
        <path d="M88.5,967.5 L88.5,995.5" id="Line-2" stroke="#000000" stroke-linecap="square"></path>
        <path d="M108.5,967.5 L108.5,995.5" id="Line-2" stroke="#000000" stroke-linecap="square"></path>
        <path d="M98.75,967.5 L98.75,995.5" id="Line-2" stroke="#000000" stroke-linecap="square"></path>
        <path d="M130.5,967.5 L130.5,995.5" id="Line-2" stroke="#000000" stroke-linecap="square"></path>
        <path d="M150.5,967.5 L150.5,995.5" id="Line-2" stroke="#000000" stroke-linecap="square"></path>
        <path d="M118.75,967.5 L118.75,995.5" id="Line-2" stroke="#000000" stroke-linecap="square"></path>
        <path d="M140.75,967.5 L140.75,995.5" id="Line-2" stroke="#000000" stroke-linecap="square"></path>
        <path d="M207.5,967.5 L207.5,995.5" id="Line-2" stroke="#000000" stroke-linecap="square"></path>
        <path d="M227.5,967.5 L227.5,995.5" id="Line-2" stroke="#000000" stroke-linecap="square"></path>
        <path d="M195.75,967.5 L195.75,995.5" id="Line-2" stroke="#000000" stroke-linecap="square"></path>
        <path d="M217.75,967.5 L217.75,995.5" id="Line-2" stroke="#000000" stroke-linecap="square"></path>
        <path d="M249.5,967.5 L249.5,995.5" id="Line-2" stroke="#000000" stroke-linecap="square"></path>
        <path d="M237.75,967.5 L237.75,995.5" id="Line-2" stroke="#000000" stroke-linecap="square"></path>
        <path d="M259.75,967.5 L259.75,995.5" id="Line-2" stroke="#000000" stroke-linecap="square"></path>
        <text id="……" font-family="PingFangSC-Medium, PingFang SC" font-size="16" font-weight="400" fill="#000000">
            <tspan x="154" y="985">……</tspan>
        </text>
        <text id="0" font-family="PingFangSC-Medium, PingFang SC" font-size="12" font-weight="400" fill="#000000">
            <tspan x="80.4" y="963">0</tspan>
        </text>
        <text id="63" font-family="PingFangSC-Medium, PingFang SC" font-size="12" font-weight="400" fill="#000000">
            <tspan x="258.3" y="962">63</tspan>
        </text>
        <text id="xa_node" font-family="PingFangSC-Medium, PingFang SC" font-size="24" font-weight="400" fill="#000000">
            <tspan x="446.292" y="679">xa_node</tspan>
        </text>
        <rect id="Rectangle" stroke="#000000" fill="#F8E71C" x="487.5" y="684.5" width="195" height="312"></rect>
        <text id="offset=2" font-family="PingFangSC-Medium, PingFang SC" font-size="16" font-weight="400" fill="#000000">
            <tspan x="548.004" y="743">offset=2</tspan>
        </text>
        <text id="shift=0" font-family="PingFangSC-Medium, PingFang SC" font-size="16" font-weight="400" fill="#000000">
            <tspan x="552.06" y="710">shift=0</tspan>
        </text>
        <text id="count=1" font-family="PingFangSC-Medium, PingFang SC" font-size="16" font-weight="400" fill="#000000">
            <tspan x="545.052" y="775">count=1</tspan>
        </text>
        <path d="M488,719.5 L683,719.5" id="Line" stroke="#000000" stroke-linecap="square"></path>
        <path d="M488,752.5 L683,752.5" id="Line" stroke="#000000" stroke-linecap="square"></path>
        <text id="parent" font-family="PingFangSC-Medium, PingFang SC" font-size="16" font-weight="400" fill="#000000">
            <tspan x="556.188" y="837">parent</tspan>
        </text>
        <text id="nr_value=1" font-family="PingFangSC-Medium, PingFang SC" font-size="16" font-weight="400" fill="#000000">
            <tspan x="541.132" y="808">nr_value=1</tspan>
        </text>
        <text id="xarray" font-family="PingFangSC-Medium, PingFang SC" font-size="16" font-weight="400" fill="#000000">
            <tspan x="559.052" y="872">xarray</tspan>
        </text>
        <path d="M487,818.5 L683,818.5" id="Line" stroke="#000000" stroke-linecap="square"></path>
        <path d="M487,785.5 L683,785.5" id="Line" stroke="#000000" stroke-linecap="square"></path>
        <path d="M488,849.5 L684,849.5" id="Line" stroke="#000000" stroke-linecap="square"></path>
        <text id="tags[3][1]/marks[3][" font-family="PingFangSC-Medium, PingFang SC" font-size="16" font-weight="400" fill="#000000">
            <tspan x="503.096" y="940">tags[3][1]/marks[3][1]</tspan>
        </text>
        <text id="private_list/rcu_hea" font-family="PingFangSC-Medium, PingFang SC" font-size="16" font-weight="400" fill="#000000">
            <tspan x="504.44" y="903">private_list/rcu_head</tspan>
        </text>
        <path d="M488,915.5 L683,915.5" id="Line" stroke="#000000" stroke-linecap="square"></path>
        <path d="M487,881.5 L683,881.5" id="Line" stroke="#000000" stroke-linecap="square"></path>
        <text id="slots[64]" font-family="PingFangSC-Medium, PingFang SC" font-size="16" font-weight="400" fill="#000000">
            <tspan x="418.096" y="991">slots[64]</tspan>
        </text>
        <path d="M487,967.5 L683,967.5" id="Line" stroke="#000000" stroke-linecap="square"></path>
        <path d="M498.5,968.5 L498.5,996.5" id="Line-2" stroke="#000000" stroke-linecap="square"></path>
        <path d="M518.5,968.5 L518.5,996.5" id="Line-2" stroke="#000000" stroke-linecap="square"></path>
        <path d="M508.75,968.5 L508.75,996.5" id="Line-2" stroke="#000000" stroke-linecap="square"></path>
        <path d="M540.5,968.5 L540.5,996.5" id="Line-2" stroke="#000000" stroke-linecap="square"></path>
        <path d="M560.5,968.5 L560.5,996.5" id="Line-2" stroke="#000000" stroke-linecap="square"></path>
        <path d="M528.75,968.5 L528.75,996.5" id="Line-2" stroke="#000000" stroke-linecap="square"></path>
        <path d="M550.75,968.5 L550.75,996.5" id="Line-2" stroke="#000000" stroke-linecap="square"></path>
        <path d="M617.5,968.5 L617.5,996.5" id="Line-2" stroke="#000000" stroke-linecap="square"></path>
        <path d="M637.5,968.5 L637.5,996.5" id="Line-2" stroke="#000000" stroke-linecap="square"></path>
        <path d="M605.75,968.5 L605.75,996.5" id="Line-2" stroke="#000000" stroke-linecap="square"></path>
        <path d="M627.75,968.5 L627.75,996.5" id="Line-2" stroke="#000000" stroke-linecap="square"></path>
        <path d="M659.5,968.5 L659.5,996.5" id="Line-2" stroke="#000000" stroke-linecap="square"></path>
        <path d="M647.75,968.5 L647.75,996.5" id="Line-2" stroke="#000000" stroke-linecap="square"></path>
        <path d="M669.75,968.5 L669.75,996.5" id="Line-2" stroke="#000000" stroke-linecap="square"></path>
        <text id="……" font-family="PingFangSC-Medium, PingFang SC" font-size="16" font-weight="400" fill="#000000">
            <tspan x="564" y="986">……</tspan>
        </text>
        <text id="0" font-family="PingFangSC-Medium, PingFang SC" font-size="12" font-weight="400" fill="#000000">
            <tspan x="490.4" y="964">0</tspan>
        </text>
        <text id="63" font-family="PingFangSC-Medium, PingFang SC" font-size="12" font-weight="400" fill="#000000">
            <tspan x="668.3" y="963">63</tspan>
        </text>
        <path id="Line-3" d="M470,218.5 L470,112 L470,111.5 L471,111.5 L471,112 L471,218.5 L475,218.5 L470.5,227.5 L466,218.5 L470,218.5 Z" fill="#000000" fill-rule="nonzero"></path>
        <path id="Line-3" d="M297.75,240.5 L1.75,240.5 L1.25,240.5 L1.25,239.5 L1.75,239.5 L297.75,239.5 L297.75,235.5 L306.75,240 L297.75,244.5 L297.75,240.5 Z" fill="#000000" fill-rule="nonzero"></path>
        <path d="M2.75,832 L98.5,832" id="Line-3" stroke="#000000" stroke-linecap="square"></path>
        <text id="slots[0]" font-family="PingFangSC-Medium, PingFang SC" font-size="16" font-weight="400" fill="#000000">
            <tspan x="229.396" y="617">slots[0]</tspan>
        </text>
        <text id="slots[2]" font-family="PingFangSC-Medium, PingFang SC" font-size="16" font-weight="400" fill="#000000">
            <tspan x="376.396" y="616">slots[2]</tspan>
        </text>
        <path id="Line-3" d="M185,675.5 L185,621 L185,620.5 L186,620.5 L186,621 L186,675.5 L190,675.5 L185.5,684.5 L181,675.5 L185,675.5 Z" fill="#000000" fill-rule="nonzero"></path>
        <path d="M185.5,621 L312.5,621" id="Line-3" stroke="#000000" stroke-linecap="square"></path>
        <path d="M313,535 L313,620.5" id="Line-3" stroke="#000000" stroke-linecap="square"></path>
        <path id="Line-3" d="M584,675 L584,621.5 L584,621 L585,621 L585,621.5 L585,675 L589,675 L584.5,684 L580,675 L584,675 Z" fill="#000000" fill-rule="nonzero"></path>
        <path d="M333.5,620 L585.5,622" id="Line-3" stroke="#000000" stroke-linecap="square"></path>
        <path d="M333,534 L333,620.5" id="Line-3" stroke="#000000" stroke-linecap="square"></path>
        <path id="Line-3" d="M517.247812,241.464102 L745.497888,240.500004 L745.997884,240.497893 L746.002107,241.497884 L745.502112,241.499996 L517.252036,242.464093 L517.268931,246.464057 L508.250004,242.002112 L517.230917,237.464138 L517.247812,241.464102 Z" fill="#000000" fill-rule="nonzero"></path>
        <path d="M0.5,834 L0.5,240.5" id="Line-3" stroke="#000000" stroke-linecap="square"></path>
        <path d="M745.5,835 L651.5,835" id="Line-3" stroke="#000000" stroke-linecap="square"></path>
        <path d="M127,1026.75 L203.5,1026.75" id="Line-4" stroke="#000000" stroke-linecap="square"></path>
        <path id="Line-3" d="M84,1050.5 L84,985 L84,984.5 L85,984.5 L85,985 L85,1050.5 L89,1050.5 L84.5,1059.5 L80,1050.5 L84,1050.5 Z" fill="#000000" fill-rule="nonzero"></path>
        <text id="slots[0]" font-family="PingFangSC-Medium, PingFang SC" font-size="16" font-weight="400" fill="#000000">
            <tspan x="23.396" y="1046">slots[0]</tspan>
        </text>
        <rect id="Rectangle" stroke="#979797" fill="#D8D8D8" x="46.5" y="1060.5" width="85" height="18"></rect>
        <text id="0000000000000001" font-family="PingFangSC-Medium, PingFang SC" font-size="8" font-weight="400" fill="#000000">
            <tspan x="51.368" y="1071">0000000000000001</tspan>
        </text>
        <path id="Line-3" d="M203,1050.5 L203,1027 L203,1026.5 L204,1026.5 L204,1027 L204,1050.5 L208,1050.5 L203.5,1059.5 L199,1050.5 L203,1050.5 Z" fill="#000000" fill-rule="nonzero"></path>
        <text id="slots[4]" font-family="PingFangSC-Medium, PingFang SC" font-size="16" font-weight="400" fill="#000000">
            <tspan x="140.396" y="1045">slots[4]</tspan>
        </text>
        <rect id="Rectangle" stroke="#979797" fill="#D8D8D8" x="163.5" y="1059.5" width="85" height="18"></rect>
        <text id="0000000000000009" font-family="PingFangSC-Medium, PingFang SC" font-size="8" font-weight="400" fill="#000000">
            <tspan x="167.1" y="1070">0000000000000009</tspan>
        </text>
        <text id="最低位为1，表示是一个value" font-family="PingFangSC-Medium, PingFang SC" font-size="8" font-weight="400" fill="#000000">
            <tspan x="115.028" y="1123">最低位为1，表示是一个value</tspan>
        </text>
        <path d="M126.5,985 L126.5,1026.75" id="Line-5" stroke="#000000" stroke-linecap="square"></path>
        <path id="Line-3" d="M524,1054.5 L524,989 L524,988.5 L525,988.5 L525,989 L525,1054.5 L529,1054.5 L524.5,1063.5 L520,1054.5 L524,1054.5 Z" fill="#000000" fill-rule="nonzero"></path>
        <text id="slots[3]" font-family="PingFangSC-Medium, PingFang SC" font-size="16" font-weight="400" fill="#000000">
            <tspan x="463.396" y="1050">slots[3]</tspan>
        </text>
        <rect id="Rectangle" stroke="#979797" fill="#D8D8D8" x="486.5" y="1064.5" width="85" height="18"></rect>
        <text id="0000000000000107" font-family="PingFangSC-Medium, PingFang SC" font-size="8" font-weight="400" fill="#000000">
            <tspan x="491.564" y="1075">0000000000000107</tspan>
        </text>
        <text id="最低位为1，表示是一个value" font-family="PingFangSC-Medium, PingFang SC" font-size="8" font-weight="400" fill="#000000">
            <tspan x="472.528" y="1100">最低位为1，表示是一个value</tspan>
        </text>
    </g>
</svg>
