
<svg width="1174px" height="1479px" viewBox="0 0 1174 1479" version="1.1" xmlns="http://www.w3.org/2000/svg" xmlns:xlink="http://www.w3.org/1999/xlink">
    <g id="Xarray" stroke="none" stroke-width="1" fill="none" fill-rule="evenodd">
        <rect id="Rectangle" stroke="#000000" fill="#B8E986" x="623.5" y="28.5" width="159" height="91"></rect>
        <text id="xarray" font-family="PingFangSC-Medium, PingFang SC" font-size="24" font-weight="400" fill="#000000">
            <tspan x="667.328" y="13">xarray</tspan>
        </text>
        <text id="xa_node" font-family="PingFangSC-Medium, PingFang SC" font-size="24" font-weight="400" fill="#000000">
            <tspan x="565.292" y="168">xa_node</tspan>
        </text>
        <text id="xa_flags" font-family="PingFangSC-Medium, PingFang SC" font-size="16" font-weight="400" fill="#000000">
            <tspan x="671.26" y="79">xa_flags</tspan>
        </text>
        <text id="xa_lock" font-family="PingFangSC-Medium, PingFang SC" font-size="16" font-weight="400" fill="#000000">
            <tspan x="674.092" y="52">xa_lock</tspan>
        </text>
        <text id="xa_head" font-family="PingFangSC-Medium, PingFang SC" font-size="16" font-weight="400" fill="#000000">
            <tspan x="671.284" y="111">xa_head</tspan>
        </text>
        <path d="M623,59.5 L783,59.5" id="Line" stroke="#000000" stroke-linecap="square"></path>
        <path d="M623,91.5 L783,91.5" id="Line" stroke="#000000" stroke-linecap="square"></path>
        <rect id="Rectangle" stroke="#000000" fill="#F8E71C" x="606.5" y="173.5" width="195" height="312"></rect>
        <text id="offset=随机" font-family="PingFangSC-Medium, PingFang SC" font-size="16" font-weight="400" fill="#000000">
            <tspan x="656.304" y="232">offset=随机</tspan>
        </text>
        <text id="shift=12" font-family="PingFangSC-Medium, PingFang SC" font-size="16" font-weight="400" fill="#000000">
            <tspan x="668.296" y="199">shift=12</tspan>
        </text>
        <text id="count=2" font-family="PingFangSC-Medium, PingFang SC" font-size="16" font-weight="400" fill="#000000">
            <tspan x="662.516" y="264">count=2</tspan>
        </text>
        <path d="M607,208.5 L802,208.5" id="Line" stroke="#000000" stroke-linecap="square"></path>
        <path d="M607,241.5 L802,241.5" id="Line" stroke="#000000" stroke-linecap="square"></path>
        <text id="parent=null" font-family="PingFangSC-Medium, PingFang SC" font-size="16" font-weight="400" fill="#000000">
            <tspan x="657.124" y="326">parent=null</tspan>
        </text>
        <text id="nr_value=0" font-family="PingFangSC-Medium, PingFang SC" font-size="16" font-weight="400" fill="#000000">
            <tspan x="658.596" y="297">nr_value=0</tspan>
        </text>
        <text id="xarray" font-family="PingFangSC-Medium, PingFang SC" font-size="16" font-weight="400" fill="#000000">
            <tspan x="678.052" y="361">xarray</tspan>
        </text>
        <path d="M606,307.5 L802,307.5" id="Line" stroke="#000000" stroke-linecap="square"></path>
        <path d="M606,274.5 L802,274.5" id="Line" stroke="#000000" stroke-linecap="square"></path>
        <path d="M607,338.5 L803,338.5" id="Line" stroke="#000000" stroke-linecap="square"></path>
        <text id="tags[3][1]/marks[3][" font-family="PingFangSC-Medium, PingFang SC" font-size="16" font-weight="400" fill="#000000">
            <tspan x="622.096" y="429">tags[3][1]/marks[3][1]</tspan>
        </text>
        <text id="private_list/rcu_hea" font-family="PingFangSC-Medium, PingFang SC" font-size="16" font-weight="400" fill="#000000">
            <tspan x="623.44" y="392">private_list/rcu_head</tspan>
        </text>
        <path d="M607,404.5 L802,404.5" id="Line" stroke="#000000" stroke-linecap="square"></path>
        <path d="M606,370.5 L802,370.5" id="Line" stroke="#000000" stroke-linecap="square"></path>
        <text id="slots[64]" font-family="PingFangSC-Medium, PingFang SC" font-size="16" font-weight="400" fill="#000000">
            <tspan x="537.096" y="480">slots[64]</tspan>
        </text>
        <text id="slots[0]" font-family="PingFangSC-Medium, PingFang SC" font-size="16" font-weight="400" fill="#000000">
            <tspan x="513.896" y="531">slots[0]</tspan>
        </text>
        <text id="slots[1]" font-family="PingFangSC-Medium, PingFang SC" font-size="16" font-weight="400" fill="#000000">
            <tspan x="662.932" y="530">slots[1]</tspan>
        </text>
        <path d="M606,456.5 L802,456.5" id="Line" stroke="#000000" stroke-linecap="square"></path>
        <path d="M617.5,457.5 L617.5,485.5" id="Line-2" stroke="#000000" stroke-linecap="square"></path>
        <path d="M637.5,457.5 L637.5,485.5" id="Line-2" stroke="#000000" stroke-linecap="square"></path>
        <path d="M627.75,457.5 L627.75,485.5" id="Line-2" stroke="#000000" stroke-linecap="square"></path>
        <path d="M659.5,457.5 L659.5,485.5" id="Line-2" stroke="#000000" stroke-linecap="square"></path>
        <path d="M679.5,457.5 L679.5,485.5" id="Line-2" stroke="#000000" stroke-linecap="square"></path>
        <path d="M647.75,457.5 L647.75,485.5" id="Line-2" stroke="#000000" stroke-linecap="square"></path>
        <path d="M669.75,457.5 L669.75,485.5" id="Line-2" stroke="#000000" stroke-linecap="square"></path>
        <path d="M736.5,457.5 L736.5,485.5" id="Line-2" stroke="#000000" stroke-linecap="square"></path>
        <path d="M756.5,457.5 L756.5,485.5" id="Line-2" stroke="#000000" stroke-linecap="square"></path>
        <path d="M724.75,457.5 L724.75,485.5" id="Line-2" stroke="#000000" stroke-linecap="square"></path>
        <path d="M746.75,457.5 L746.75,485.5" id="Line-2" stroke="#000000" stroke-linecap="square"></path>
        <path d="M778.5,457.5 L778.5,485.5" id="Line-2" stroke="#000000" stroke-linecap="square"></path>
        <path d="M766.75,457.5 L766.75,485.5" id="Line-2" stroke="#000000" stroke-linecap="square"></path>
        <path d="M788.75,457.5 L788.75,485.5" id="Line-2" stroke="#000000" stroke-linecap="square"></path>
        <text id="……" font-family="PingFangSC-Medium, PingFang SC" font-size="16" font-weight="400" fill="#000000">
            <tspan x="683" y="475">……</tspan>
        </text>
        <text id="0" font-family="PingFangSC-Medium, PingFang SC" font-size="12" font-weight="400" fill="#000000">
            <tspan x="609.4" y="453">0</tspan>
        </text>
        <text id="63" font-family="PingFangSC-Medium, PingFang SC" font-size="12" font-weight="400" fill="#000000">
            <tspan x="787.3" y="452">63</tspan>
        </text>
        <text id="xa_node" font-family="PingFangSC-Medium, PingFang SC" font-size="24" font-weight="400" fill="#000000">
            <tspan x="265.292" y="593">xa_node</tspan>
        </text>
        <rect id="Rectangle" stroke="#000000" fill="#F8E71C" x="306.5" y="598.5" width="195" height="312"></rect>
        <text id="offset=0" font-family="PingFangSC-Medium, PingFang SC" font-size="16" font-weight="400" fill="#000000">
            <tspan x="367.504" y="657">offset=0</tspan>
        </text>
        <text id="shift=6" font-family="PingFangSC-Medium, PingFang SC" font-size="16" font-weight="400" fill="#000000">
            <tspan x="371.56" y="624">shift=6</tspan>
        </text>
        <text id="count=2" font-family="PingFangSC-Medium, PingFang SC" font-size="16" font-weight="400" fill="#000000">
            <tspan x="362.516" y="689">count=2</tspan>
        </text>
        <path d="M307,633.5 L502,633.5" id="Line" stroke="#000000" stroke-linecap="square"></path>
        <path d="M307,666.5 L502,666.5" id="Line" stroke="#000000" stroke-linecap="square"></path>
        <text id="parent" font-family="PingFangSC-Medium, PingFang SC" font-size="16" font-weight="400" fill="#000000">
            <tspan x="375.188" y="751">parent</tspan>
        </text>
        <text id="nr_value=0" font-family="PingFangSC-Medium, PingFang SC" font-size="16" font-weight="400" fill="#000000">
            <tspan x="358.596" y="722">nr_value=0</tspan>
        </text>
        <text id="xarray" font-family="PingFangSC-Medium, PingFang SC" font-size="16" font-weight="400" fill="#000000">
            <tspan x="378.052" y="786">xarray</tspan>
        </text>
        <path d="M306,732.5 L502,732.5" id="Line" stroke="#000000" stroke-linecap="square"></path>
        <path d="M306,699.5 L502,699.5" id="Line" stroke="#000000" stroke-linecap="square"></path>
        <path d="M307,763.5 L503,763.5" id="Line" stroke="#000000" stroke-linecap="square"></path>
        <text id="tags[3][1]/marks[3][" font-family="PingFangSC-Medium, PingFang SC" font-size="16" font-weight="400" fill="#000000">
            <tspan x="322.096" y="854">tags[3][1]/marks[3][1]</tspan>
        </text>
        <text id="private_list/rcu_hea" font-family="PingFangSC-Medium, PingFang SC" font-size="16" font-weight="400" fill="#000000">
            <tspan x="323.44" y="817">private_list/rcu_head</tspan>
        </text>
        <path d="M307,829.5 L502,829.5" id="Line" stroke="#000000" stroke-linecap="square"></path>
        <path d="M306,795.5 L502,795.5" id="Line" stroke="#000000" stroke-linecap="square"></path>
        <text id="slots[64]" font-family="PingFangSC-Medium, PingFang SC" font-size="16" font-weight="400" fill="#000000">
            <tspan x="237.096" y="905">slots[64]</tspan>
        </text>
        <path d="M306,881.5 L502,881.5" id="Line" stroke="#000000" stroke-linecap="square"></path>
        <path d="M317.5,882.5 L317.5,910.5" id="Line-2" stroke="#000000" stroke-linecap="square"></path>
        <path d="M337.5,882.5 L337.5,910.5" id="Line-2" stroke="#000000" stroke-linecap="square"></path>
        <path d="M327.75,882.5 L327.75,910.5" id="Line-2" stroke="#000000" stroke-linecap="square"></path>
        <path d="M359.5,882.5 L359.5,910.5" id="Line-2" stroke="#000000" stroke-linecap="square"></path>
        <path d="M379.5,882.5 L379.5,910.5" id="Line-2" stroke="#000000" stroke-linecap="square"></path>
        <path d="M347.75,882.5 L347.75,910.5" id="Line-2" stroke="#000000" stroke-linecap="square"></path>
        <path d="M369.75,882.5 L369.75,910.5" id="Line-2" stroke="#000000" stroke-linecap="square"></path>
        <path d="M436.5,882.5 L436.5,910.5" id="Line-2" stroke="#000000" stroke-linecap="square"></path>
        <path d="M456.5,882.5 L456.5,910.5" id="Line-2" stroke="#000000" stroke-linecap="square"></path>
        <path d="M424.75,882.5 L424.75,910.5" id="Line-2" stroke="#000000" stroke-linecap="square"></path>
        <path d="M446.75,882.5 L446.75,910.5" id="Line-2" stroke="#000000" stroke-linecap="square"></path>
        <path d="M478.5,882.5 L478.5,910.5" id="Line-2" stroke="#000000" stroke-linecap="square"></path>
        <path d="M466.75,882.5 L466.75,910.5" id="Line-2" stroke="#000000" stroke-linecap="square"></path>
        <path d="M488.75,882.5 L488.75,910.5" id="Line-2" stroke="#000000" stroke-linecap="square"></path>
        <text id="……" font-family="PingFangSC-Medium, PingFang SC" font-size="16" font-weight="400" fill="#000000">
            <tspan x="383" y="900">……</tspan>
        </text>
        <text id="0" font-family="PingFangSC-Medium, PingFang SC" font-size="12" font-weight="400" fill="#000000">
            <tspan x="309.4" y="878">0</tspan>
        </text>
        <text id="63" font-family="PingFangSC-Medium, PingFang SC" font-size="12" font-weight="400" fill="#000000">
            <tspan x="487.3" y="877">63</tspan>
        </text>
        <text id="xa_node" font-family="PingFangSC-Medium, PingFang SC" font-size="24" font-weight="400" fill="#000000">
            <tspan x="883.292" y="599">xa_node</tspan>
        </text>
        <rect id="Rectangle" stroke="#000000" fill="#F8E71C" x="924.5" y="604.5" width="195" height="312"></rect>
        <text id="offset=1" font-family="PingFangSC-Medium, PingFang SC" font-size="16" font-weight="400" fill="#000000">
            <tspan x="987.04" y="663">offset=1</tspan>
        </text>
        <text id="shift=6" font-family="PingFangSC-Medium, PingFang SC" font-size="16" font-weight="400" fill="#000000">
            <tspan x="989.56" y="630">shift=6</tspan>
        </text>
        <text id="count=1" font-family="PingFangSC-Medium, PingFang SC" font-size="16" font-weight="400" fill="#000000">
            <tspan x="982.052" y="695">count=1</tspan>
        </text>
        <path d="M925,639.5 L1120,639.5" id="Line" stroke="#000000" stroke-linecap="square"></path>
        <path d="M925,672.5 L1120,672.5" id="Line" stroke="#000000" stroke-linecap="square"></path>
        <text id="parent" font-family="PingFangSC-Medium, PingFang SC" font-size="16" font-weight="400" fill="#000000">
            <tspan x="993.188" y="757">parent</tspan>
        </text>
        <text id="nr_value=0" font-family="PingFangSC-Medium, PingFang SC" font-size="16" font-weight="400" fill="#000000">
            <tspan x="976.596" y="728">nr_value=0</tspan>
        </text>
        <text id="xarray" font-family="PingFangSC-Medium, PingFang SC" font-size="16" font-weight="400" fill="#000000">
            <tspan x="996.052" y="792">xarray</tspan>
        </text>
        <path d="M924,738.5 L1120,738.5" id="Line" stroke="#000000" stroke-linecap="square"></path>
        <path d="M924,705.5 L1120,705.5" id="Line" stroke="#000000" stroke-linecap="square"></path>
        <path d="M925,769.5 L1121,769.5" id="Line" stroke="#000000" stroke-linecap="square"></path>
        <text id="tags[3][1]/marks[3][" font-family="PingFangSC-Medium, PingFang SC" font-size="16" font-weight="400" fill="#000000">
            <tspan x="940.096" y="860">tags[3][1]/marks[3][1]</tspan>
        </text>
        <text id="private_list/rcu_hea" font-family="PingFangSC-Medium, PingFang SC" font-size="16" font-weight="400" fill="#000000">
            <tspan x="941.44" y="823">private_list/rcu_head</tspan>
        </text>
        <path d="M925,835.5 L1120,835.5" id="Line" stroke="#000000" stroke-linecap="square"></path>
        <path d="M924,801.5 L1120,801.5" id="Line" stroke="#000000" stroke-linecap="square"></path>
        <text id="slots[64]" font-family="PingFangSC-Medium, PingFang SC" font-size="16" font-weight="400" fill="#000000">
            <tspan x="855.096" y="911">slots[64]</tspan>
        </text>
        <path d="M924,887.5 L1120,887.5" id="Line" stroke="#000000" stroke-linecap="square"></path>
        <path d="M935.5,888.5 L935.5,916.5" id="Line-2" stroke="#000000" stroke-linecap="square"></path>
        <path d="M955.5,888.5 L955.5,916.5" id="Line-2" stroke="#000000" stroke-linecap="square"></path>
        <path d="M945.75,888.5 L945.75,916.5" id="Line-2" stroke="#000000" stroke-linecap="square"></path>
        <path d="M977.5,888.5 L977.5,916.5" id="Line-2" stroke="#000000" stroke-linecap="square"></path>
        <path d="M997.5,888.5 L997.5,916.5" id="Line-2" stroke="#000000" stroke-linecap="square"></path>
        <path d="M965.75,888.5 L965.75,916.5" id="Line-2" stroke="#000000" stroke-linecap="square"></path>
        <path d="M987.75,888.5 L987.75,916.5" id="Line-2" stroke="#000000" stroke-linecap="square"></path>
        <path d="M1054.5,888.5 L1054.5,916.5" id="Line-2" stroke="#000000" stroke-linecap="square"></path>
        <path d="M1074.5,888.5 L1074.5,916.5" id="Line-2" stroke="#000000" stroke-linecap="square"></path>
        <path d="M1042.75,888.5 L1042.75,916.5" id="Line-2" stroke="#000000" stroke-linecap="square"></path>
        <path d="M1064.75,888.5 L1064.75,916.5" id="Line-2" stroke="#000000" stroke-linecap="square"></path>
        <path d="M1096.5,888.5 L1096.5,916.5" id="Line-2" stroke="#000000" stroke-linecap="square"></path>
        <path d="M1084.75,888.5 L1084.75,916.5" id="Line-2" stroke="#000000" stroke-linecap="square"></path>
        <path d="M1106.75,888.5 L1106.75,916.5" id="Line-2" stroke="#000000" stroke-linecap="square"></path>
        <text id="……" font-family="PingFangSC-Medium, PingFang SC" font-size="16" font-weight="400" fill="#000000">
            <tspan x="1001" y="906">……</tspan>
        </text>
        <text id="0" font-family="PingFangSC-Medium, PingFang SC" font-size="12" font-weight="400" fill="#000000">
            <tspan x="927.4" y="884">0</tspan>
        </text>
        <text id="63" font-family="PingFangSC-Medium, PingFang SC" font-size="12" font-weight="400" fill="#000000">
            <tspan x="1105.3" y="883">63</tspan>
        </text>
        <text id="xa_node" font-family="PingFangSC-Medium, PingFang SC" font-size="24" font-weight="400" fill="#000000">
            <tspan x="888.292" y="1045">xa_node</tspan>
        </text>
        <rect id="Rectangle" stroke="#000000" fill="#F8E71C" x="929.5" y="1050.5" width="195" height="312"></rect>
        <text id="offset=0" font-family="PingFangSC-Medium, PingFang SC" font-size="16" font-weight="400" fill="#000000">
            <tspan x="990.504" y="1109">offset=0</tspan>
        </text>
        <text id="shift=0" font-family="PingFangSC-Medium, PingFang SC" font-size="16" font-weight="400" fill="#000000">
            <tspan x="994.56" y="1076">shift=0</tspan>
        </text>
        <text id="count=1" font-family="PingFangSC-Medium, PingFang SC" font-size="16" font-weight="400" fill="#000000">
            <tspan x="987.052" y="1141">count=1</tspan>
        </text>
        <path d="M930,1085.5 L1125,1085.5" id="Line" stroke="#000000" stroke-linecap="square"></path>
        <path d="M930,1118.5 L1125,1118.5" id="Line" stroke="#000000" stroke-linecap="square"></path>
        <text id="parent" font-family="PingFangSC-Medium, PingFang SC" font-size="16" font-weight="400" fill="#000000">
            <tspan x="998.188" y="1203">parent</tspan>
        </text>
        <text id="nr_value=1" font-family="PingFangSC-Medium, PingFang SC" font-size="16" font-weight="400" fill="#000000">
            <tspan x="983.132" y="1174">nr_value=1</tspan>
        </text>
        <text id="xarray" font-family="PingFangSC-Medium, PingFang SC" font-size="16" font-weight="400" fill="#000000">
            <tspan x="1001.052" y="1238">xarray</tspan>
        </text>
        <path d="M929,1184.5 L1125,1184.5" id="Line" stroke="#000000" stroke-linecap="square"></path>
        <path d="M929,1151.5 L1125,1151.5" id="Line" stroke="#000000" stroke-linecap="square"></path>
        <path d="M930,1215.5 L1126,1215.5" id="Line" stroke="#000000" stroke-linecap="square"></path>
        <text id="tags[3][1]/marks[3][" font-family="PingFangSC-Medium, PingFang SC" font-size="16" font-weight="400" fill="#000000">
            <tspan x="945.096" y="1306">tags[3][1]/marks[3][1]</tspan>
        </text>
        <text id="private_list/rcu_hea" font-family="PingFangSC-Medium, PingFang SC" font-size="16" font-weight="400" fill="#000000">
            <tspan x="946.44" y="1269">private_list/rcu_head</tspan>
        </text>
        <path d="M930,1281.5 L1125,1281.5" id="Line" stroke="#000000" stroke-linecap="square"></path>
        <path d="M929,1247.5 L1125,1247.5" id="Line" stroke="#000000" stroke-linecap="square"></path>
        <text id="slots[64]" font-family="PingFangSC-Medium, PingFang SC" font-size="16" font-weight="400" fill="#000000">
            <tspan x="860.096" y="1357">slots[64]</tspan>
        </text>
        <path d="M929,1333.5 L1125,1333.5" id="Line" stroke="#000000" stroke-linecap="square"></path>
        <path d="M940.5,1334.5 L940.5,1362.5" id="Line-2" stroke="#000000" stroke-linecap="square"></path>
        <path d="M960.5,1334.5 L960.5,1362.5" id="Line-2" stroke="#000000" stroke-linecap="square"></path>
        <path d="M950.75,1334.5 L950.75,1362.5" id="Line-2" stroke="#000000" stroke-linecap="square"></path>
        <path d="M982.5,1334.5 L982.5,1362.5" id="Line-2" stroke="#000000" stroke-linecap="square"></path>
        <path d="M1002.5,1334.5 L1002.5,1362.5" id="Line-2" stroke="#000000" stroke-linecap="square"></path>
        <path d="M970.75,1334.5 L970.75,1362.5" id="Line-2" stroke="#000000" stroke-linecap="square"></path>
        <path d="M992.75,1334.5 L992.75,1362.5" id="Line-2" stroke="#000000" stroke-linecap="square"></path>
        <path d="M1059.5,1334.5 L1059.5,1362.5" id="Line-2" stroke="#000000" stroke-linecap="square"></path>
        <path d="M1079.5,1334.5 L1079.5,1362.5" id="Line-2" stroke="#000000" stroke-linecap="square"></path>
        <path d="M1047.75,1334.5 L1047.75,1362.5" id="Line-2" stroke="#000000" stroke-linecap="square"></path>
        <path d="M1069.75,1334.5 L1069.75,1362.5" id="Line-2" stroke="#000000" stroke-linecap="square"></path>
        <path d="M1101.5,1334.5 L1101.5,1362.5" id="Line-2" stroke="#000000" stroke-linecap="square"></path>
        <path d="M1089.75,1334.5 L1089.75,1362.5" id="Line-2" stroke="#000000" stroke-linecap="square"></path>
        <path d="M1111.75,1334.5 L1111.75,1362.5" id="Line-2" stroke="#000000" stroke-linecap="square"></path>
        <text id="……" font-family="PingFangSC-Medium, PingFang SC" font-size="16" font-weight="400" fill="#000000">
            <tspan x="1006" y="1352">……</tspan>
        </text>
        <text id="0" font-family="PingFangSC-Medium, PingFang SC" font-size="12" font-weight="400" fill="#000000">
            <tspan x="932.4" y="1330">0</tspan>
        </text>
        <text id="63" font-family="PingFangSC-Medium, PingFang SC" font-size="12" font-weight="400" fill="#000000">
            <tspan x="1110.3" y="1329">63</tspan>
        </text>
        <text id="xa_node" font-family="PingFangSC-Medium, PingFang SC" font-size="24" font-weight="400" fill="#000000">
            <tspan x="36.292" y="1049">xa_node</tspan>
        </text>
        <rect id="Rectangle" stroke="#000000" fill="#F8E71C" x="78.5" y="1054.5" width="195" height="312"></rect>
        <text id="offset=0" font-family="PingFangSC-Medium, PingFang SC" font-size="16" font-weight="400" fill="#000000">
            <tspan x="138.504" y="1113">offset=0</tspan>
        </text>
        <text id="shift=0" font-family="PingFangSC-Medium, PingFang SC" font-size="16" font-weight="400" fill="#000000">
            <tspan x="142.56" y="1080">shift=0</tspan>
        </text>
        <text id="count=2" font-family="PingFangSC-Medium, PingFang SC" font-size="16" font-weight="400" fill="#000000">
            <tspan x="133.516" y="1145">count=2</tspan>
        </text>
        <path d="M78,1089.5 L273,1089.5" id="Line" stroke="#000000" stroke-linecap="square"></path>
        <path d="M78,1122.5 L273,1122.5" id="Line" stroke="#000000" stroke-linecap="square"></path>
        <text id="parent" font-family="PingFangSC-Medium, PingFang SC" font-size="16" font-weight="400" fill="#000000">
            <tspan x="146.188" y="1207">parent</tspan>
        </text>
        <text id="nr_value=2" font-family="PingFangSC-Medium, PingFang SC" font-size="16" font-weight="400" fill="#000000">
            <tspan x="129.596" y="1178">nr_value=2</tspan>
        </text>
        <text id="xarray" font-family="PingFangSC-Medium, PingFang SC" font-size="16" font-weight="400" fill="#000000">
            <tspan x="149.052" y="1242">xarray</tspan>
        </text>
        <path d="M77,1188.5 L273,1188.5" id="Line" stroke="#000000" stroke-linecap="square"></path>
        <path d="M77,1155.5 L273,1155.5" id="Line" stroke="#000000" stroke-linecap="square"></path>
        <path d="M78,1219.5 L274,1219.5" id="Line" stroke="#000000" stroke-linecap="square"></path>
        <text id="tags[3][1]/marks[3][" font-family="PingFangSC-Medium, PingFang SC" font-size="16" font-weight="400" fill="#000000">
            <tspan x="93.096" y="1310">tags[3][1]/marks[3][1]</tspan>
        </text>
        <text id="private_list/rcu_hea" font-family="PingFangSC-Medium, PingFang SC" font-size="16" font-weight="400" fill="#000000">
            <tspan x="94.44" y="1273">private_list/rcu_head</tspan>
        </text>
        <path d="M78,1285.5 L273,1285.5" id="Line" stroke="#000000" stroke-linecap="square"></path>
        <path d="M77,1251.5 L273,1251.5" id="Line" stroke="#000000" stroke-linecap="square"></path>
        <text id="slots[64]" font-family="PingFangSC-Medium, PingFang SC" font-size="16" font-weight="400" fill="#000000">
            <tspan x="8.096" y="1361">slots[64]</tspan>
        </text>
        <path d="M77,1337.5 L273,1337.5" id="Line" stroke="#000000" stroke-linecap="square"></path>
        <path d="M88.5,1338.5 L88.5,1366.5" id="Line-2" stroke="#000000" stroke-linecap="square"></path>
        <path d="M108.5,1338.5 L108.5,1366.5" id="Line-2" stroke="#000000" stroke-linecap="square"></path>
        <path d="M98.75,1338.5 L98.75,1366.5" id="Line-2" stroke="#000000" stroke-linecap="square"></path>
        <path d="M130.5,1338.5 L130.5,1366.5" id="Line-2" stroke="#000000" stroke-linecap="square"></path>
        <path d="M150.5,1338.5 L150.5,1366.5" id="Line-2" stroke="#000000" stroke-linecap="square"></path>
        <path d="M118.75,1338.5 L118.75,1366.5" id="Line-2" stroke="#000000" stroke-linecap="square"></path>
        <path d="M140.75,1338.5 L140.75,1366.5" id="Line-2" stroke="#000000" stroke-linecap="square"></path>
        <path d="M207.5,1338.5 L207.5,1366.5" id="Line-2" stroke="#000000" stroke-linecap="square"></path>
        <path d="M227.5,1338.5 L227.5,1366.5" id="Line-2" stroke="#000000" stroke-linecap="square"></path>
        <path d="M195.75,1338.5 L195.75,1366.5" id="Line-2" stroke="#000000" stroke-linecap="square"></path>
        <path d="M217.75,1338.5 L217.75,1366.5" id="Line-2" stroke="#000000" stroke-linecap="square"></path>
        <path d="M249.5,1338.5 L249.5,1366.5" id="Line-2" stroke="#000000" stroke-linecap="square"></path>
        <path d="M237.75,1338.5 L237.75,1366.5" id="Line-2" stroke="#000000" stroke-linecap="square"></path>
        <path d="M259.75,1338.5 L259.75,1366.5" id="Line-2" stroke="#000000" stroke-linecap="square"></path>
        <text id="……" font-family="PingFangSC-Medium, PingFang SC" font-size="16" font-weight="400" fill="#000000">
            <tspan x="154" y="1356">……</tspan>
        </text>
        <text id="0" font-family="PingFangSC-Medium, PingFang SC" font-size="12" font-weight="400" fill="#000000">
            <tspan x="80.4" y="1334">0</tspan>
        </text>
        <text id="63" font-family="PingFangSC-Medium, PingFang SC" font-size="12" font-weight="400" fill="#000000">
            <tspan x="258.3" y="1333">63</tspan>
        </text>
        <text id="xa_node" font-family="PingFangSC-Medium, PingFang SC" font-size="24" font-weight="400" fill="#000000">
            <tspan x="446.292" y="1050">xa_node</tspan>
        </text>
        <rect id="Rectangle" stroke="#000000" fill="#F8E71C" x="487.5" y="1055.5" width="195" height="312"></rect>
        <text id="offset=2" font-family="PingFangSC-Medium, PingFang SC" font-size="16" font-weight="400" fill="#000000">
            <tspan x="548.504" y="1114">offset=2</tspan>
        </text>
        <text id="shift=0" font-family="PingFangSC-Medium, PingFang SC" font-size="16" font-weight="400" fill="#000000">
            <tspan x="552.56" y="1081">shift=0</tspan>
        </text>
        <text id="count=1" font-family="PingFangSC-Medium, PingFang SC" font-size="16" font-weight="400" fill="#000000">
            <tspan x="545.052" y="1146">count=1</tspan>
        </text>
        <path d="M488,1090.5 L683,1090.5" id="Line" stroke="#000000" stroke-linecap="square"></path>
        <path d="M488,1123.5 L683,1123.5" id="Line" stroke="#000000" stroke-linecap="square"></path>
        <text id="parent" font-family="PingFangSC-Medium, PingFang SC" font-size="16" font-weight="400" fill="#000000">
            <tspan x="556.188" y="1208">parent</tspan>
        </text>
        <text id="nr_value=1" font-family="PingFangSC-Medium, PingFang SC" font-size="16" font-weight="400" fill="#000000">
            <tspan x="541.132" y="1179">nr_value=1</tspan>
        </text>
        <text id="xarray" font-family="PingFangSC-Medium, PingFang SC" font-size="16" font-weight="400" fill="#000000">
            <tspan x="559.052" y="1243">xarray</tspan>
        </text>
        <path d="M487,1189.5 L683,1189.5" id="Line" stroke="#000000" stroke-linecap="square"></path>
        <path d="M487,1156.5 L683,1156.5" id="Line" stroke="#000000" stroke-linecap="square"></path>
        <path d="M488,1220.5 L684,1220.5" id="Line" stroke="#000000" stroke-linecap="square"></path>
        <text id="tags[3][1]/marks[3][" font-family="PingFangSC-Medium, PingFang SC" font-size="16" font-weight="400" fill="#000000">
            <tspan x="503.096" y="1311">tags[3][1]/marks[3][1]</tspan>
        </text>
        <text id="private_list/rcu_hea" font-family="PingFangSC-Medium, PingFang SC" font-size="16" font-weight="400" fill="#000000">
            <tspan x="504.44" y="1274">private_list/rcu_head</tspan>
        </text>
        <path d="M488,1286.5 L683,1286.5" id="Line" stroke="#000000" stroke-linecap="square"></path>
        <path d="M487,1252.5 L683,1252.5" id="Line" stroke="#000000" stroke-linecap="square"></path>
        <text id="slots[64]" font-family="PingFangSC-Medium, PingFang SC" font-size="16" font-weight="400" fill="#000000">
            <tspan x="418.096" y="1362">slots[64]</tspan>
        </text>
        <path d="M487,1338.5 L683,1338.5" id="Line" stroke="#000000" stroke-linecap="square"></path>
        <path d="M498.5,1339.5 L498.5,1367.5" id="Line-2" stroke="#000000" stroke-linecap="square"></path>
        <path d="M518.5,1339.5 L518.5,1367.5" id="Line-2" stroke="#000000" stroke-linecap="square"></path>
        <path d="M508.75,1339.5 L508.75,1367.5" id="Line-2" stroke="#000000" stroke-linecap="square"></path>
        <path d="M540.5,1339.5 L540.5,1367.5" id="Line-2" stroke="#000000" stroke-linecap="square"></path>
        <path d="M560.5,1339.5 L560.5,1367.5" id="Line-2" stroke="#000000" stroke-linecap="square"></path>
        <path d="M528.75,1339.5 L528.75,1367.5" id="Line-2" stroke="#000000" stroke-linecap="square"></path>
        <path d="M550.75,1339.5 L550.75,1367.5" id="Line-2" stroke="#000000" stroke-linecap="square"></path>
        <path d="M617.5,1339.5 L617.5,1367.5" id="Line-2" stroke="#000000" stroke-linecap="square"></path>
        <path d="M637.5,1339.5 L637.5,1367.5" id="Line-2" stroke="#000000" stroke-linecap="square"></path>
        <path d="M605.75,1339.5 L605.75,1367.5" id="Line-2" stroke="#000000" stroke-linecap="square"></path>
        <path d="M627.75,1339.5 L627.75,1367.5" id="Line-2" stroke="#000000" stroke-linecap="square"></path>
        <path d="M659.5,1339.5 L659.5,1367.5" id="Line-2" stroke="#000000" stroke-linecap="square"></path>
        <path d="M647.75,1339.5 L647.75,1367.5" id="Line-2" stroke="#000000" stroke-linecap="square"></path>
        <path d="M669.75,1339.5 L669.75,1367.5" id="Line-2" stroke="#000000" stroke-linecap="square"></path>
        <text id="……" font-family="PingFangSC-Medium, PingFang SC" font-size="16" font-weight="400" fill="#000000">
            <tspan x="564" y="1357">……</tspan>
        </text>
        <text id="0" font-family="PingFangSC-Medium, PingFang SC" font-size="12" font-weight="400" fill="#000000">
            <tspan x="490.4" y="1335">0</tspan>
        </text>
        <text id="63" font-family="PingFangSC-Medium, PingFang SC" font-size="12" font-weight="400" fill="#000000">
            <tspan x="668.3" y="1334">63</tspan>
        </text>
        <path id="Line-3" d="M470,589.5 L470,535 L470,534.5 L471,534.5 L471,535 L471,589.5 L475,589.5 L470.5,598.5 L466,589.5 L470,589.5 Z" fill="#000000" fill-rule="nonzero"></path>
        <path id="Line-3" d="M811.5,172.5 L855,172.5 L855.5,172.5 L855.5,173.5 L855,173.5 L811.5,173.5 L811.5,177.5 L802.5,173 L811.5,168.5 L811.5,172.5 Z" fill="#000000" fill-rule="nonzero"></path>
        <path id="Line-3" d="M297.5,611.5 L1.5,611.5 L1,611.5 L1,610.5 L1.5,610.5 L297.5,610.5 L297.5,606.5 L306.5,611 L297.5,615.5 L297.5,611.5 Z" fill="#000000" fill-rule="nonzero"></path>
        <path d="M759.75,106 L855.5,106" id="Line-3" stroke="#000000" stroke-linecap="square"></path>
        <path d="M2.75,1203.5 L98.5,1203.5" id="Line-3" stroke="#000000" stroke-linecap="square"></path>
        <path id="Line-3" d="M598.5,204.5 L229.75,204.5 L229.25,204.5 L229.25,203.5 L229.75,203.5 L598.5,203.5 L598.5,199.5 L607.5,204 L598.5,208.5 L598.5,204.5 Z" fill="#000000" fill-rule="nonzero"></path>
        <path d="M231.75,750.5 L327.5,750.5" id="Line-3" stroke="#000000" stroke-linecap="square"></path>
        <path d="M470.5,535 L612.5,535" id="Line-3" stroke="#000000" stroke-linecap="square"></path>
        <path d="M612,480 L612,535" id="Line-3" stroke="#000000" stroke-linecap="square"></path>
        <path id="Line-3" d="M1006.5,595 L1006.5,535 L1006.5,534.5 L1007.5,534.5 L1007.5,535 L1007.5,595 L1011.5,595 L1007,604 L1002.5,595 L1006.5,595 Z" fill="#000000" fill-rule="nonzero"></path>
        <path d="M624.5,534 L1006,535" id="Line-3" stroke="#000000" stroke-linecap="square"></path>
        <path d="M624,479 L624,534" id="Line-3" stroke="#000000" stroke-linecap="square"></path>
        <text id="slots[0]" font-family="PingFangSC-Medium, PingFang SC" font-size="16" font-weight="400" fill="#000000">
            <tspan x="229.396" y="988.5">slots[0]</tspan>
        </text>
        <text id="slots[2]" font-family="PingFangSC-Medium, PingFang SC" font-size="16" font-weight="400" fill="#000000">
            <tspan x="376.896" y="987.5">slots[2]</tspan>
        </text>
        <path id="Line-3" d="M185,1047 L185,992.5 L185,992 L186,992 L186,992.5 L186,1047 L190,1047 L185.5,1056 L181,1047 L185,1047 Z" fill="#000000" fill-rule="nonzero"></path>
        <path d="M185.5,992.5 L312.5,992.5" id="Line-3" stroke="#000000" stroke-linecap="square"></path>
        <path d="M313.5,906 L313.5,991.5" id="Line-3" stroke="#000000" stroke-linecap="square"></path>
        <path id="Line-3" d="M584.5,1046.5 L584.5,993 L584.5,992.5 L585.5,992.5 L585.5,993 L585.5,1046.5 L589.5,1046.5 L585,1055.5 L580.5,1046.5 L584.5,1046.5 Z" fill="#000000" fill-rule="nonzero"></path>
        <path d="M333.5,991.5 L585.5,993.5" id="Line-3" stroke="#000000" stroke-linecap="square"></path>
        <path d="M333.5,905 L333.5,991.5" id="Line-3" stroke="#000000" stroke-linecap="square"></path>
        <text id="slots[0]" font-family="PingFangSC-Medium, PingFang SC" font-size="16" font-weight="400" fill="#000000">
            <tspan x="972.396" y="982">slots[0]</tspan>
        </text>
        <path id="Line-3" d="M1038.5,1039.5 L1038.5,986 L1038.5,985.5 L1039.5,985.5 L1039.5,986 L1039.5,1039.5 L1043.5,1039.5 L1039,1048.5 L1034.5,1039.5 L1038.5,1039.5 Z" fill="#000000" fill-rule="nonzero"></path>
        <path id="Line-3" d="M1126.5,602.5 L1173.5,602.5 L1174,602.5 L1174,603.5 L1173.5,603.5 L1126.5,603.5 L1126.5,607.5 L1117.5,603 L1126.5,598.5 L1126.5,602.5 Z" fill="#000000" fill-rule="nonzero"></path>
        <path d="M929.5,986 L1039,985.5" id="Line-3" stroke="#000000" stroke-linecap="square"></path>
        <path d="M929,899 L929,985.5" id="Line-3" stroke="#000000" stroke-linecap="square"></path>
        <path d="M1173.5,1197 L1173.5,603.5" id="Line-3" stroke="#000000" stroke-linecap="square"></path>
        <path d="M1173.5,1197 L1079.5,1197" id="Line-3" stroke="#000000" stroke-linecap="square"></path>
        <path id="Line-3" d="M811.5,192.5 L1152,192.5 L1152.5,192.5 L1152.5,193.5 L1152,193.5 L811.5,193.5 L811.5,197.5 L802.5,193 L811.5,188.5 L811.5,192.5 Z" fill="#000000" fill-rule="nonzero"></path>
        <path d="M1152,756 L1152,193" id="Line-3" stroke="#000000" stroke-linecap="square"></path>
        <path d="M1152,756 L1058,756" id="Line-3" stroke="#000000" stroke-linecap="square"></path>
        <path d="M855,173 L855.5,106" id="Line-3" stroke="#000000" stroke-linecap="square"></path>
        <path id="Line-3" d="M517.247812,612.464102 L745.497888,611.500004 L745.997884,611.497893 L746.002107,612.497884 L745.502112,612.499996 L517.252036,613.464093 L517.268931,617.464057 L508.250004,613.002112 L517.230917,608.464138 L517.247812,612.464102 Z" fill="#000000" fill-rule="nonzero"></path>
        <path d="M745.5,1206 L745.5,612.5" id="Line-3" stroke="#000000" stroke-linecap="square"></path>
        <path d="M0.75,1205 L0.75,611.5" id="Line-3" stroke="#000000" stroke-linecap="square"></path>
        <path d="M231,751 L229,204" id="Line-3" stroke="#000000" stroke-linecap="square"></path>
        <path d="M745.5,1206 L651.5,1206" id="Line-3" stroke="#000000" stroke-linecap="square"></path>
        <path d="M127.25,1399.75 L203.75,1399.75" id="Line-4" stroke="#000000" stroke-linecap="square"></path>
        <path id="Line-3" d="M84.25,1423.5 L84.25,1358 L84.25,1357.5 L85.25,1357.5 L85.25,1358 L85.25,1423.5 L89.25,1423.5 L84.75,1432.5 L80.25,1423.5 L84.25,1423.5 Z" fill="#000000" fill-rule="nonzero"></path>
        <text id="slots[0]" font-family="PingFangSC-Medium, PingFang SC" font-size="16" font-weight="400" fill="#000000">
            <tspan x="23.646" y="1419">slots[0]</tspan>
        </text>
        <rect id="Rectangle" stroke="#979797" fill="#D8D8D8" x="46.75" y="1433.5" width="85" height="18"></rect>
        <text id="0000000000000001" font-family="PingFangSC-Medium, PingFang SC" font-size="8" font-weight="400" fill="#000000">
            <tspan x="51.618" y="1444">0000000000000001</tspan>
        </text>
        <path id="Line-3" d="M203.25,1423.5 L203.25,1400 L203.25,1399.5 L204.25,1399.5 L204.25,1400 L204.25,1423.5 L208.25,1423.5 L203.75,1432.5 L199.25,1423.5 L203.25,1423.5 Z" fill="#000000" fill-rule="nonzero"></path>
        <text id="slots[4]" font-family="PingFangSC-Medium, PingFang SC" font-size="16" font-weight="400" fill="#000000">
            <tspan x="140.646" y="1418">slots[4]</tspan>
        </text>
        <rect id="Rectangle" stroke="#979797" fill="#D8D8D8" x="163.75" y="1432.5" width="85" height="18"></rect>
        <text id="0000000000000009" font-family="PingFangSC-Medium, PingFang SC" font-size="8" font-weight="400" fill="#000000">
            <tspan x="167.35" y="1443">0000000000000009</tspan>
        </text>
        <text id="最低位为1，表示是一个value" font-family="PingFangSC-Medium, PingFang SC" font-size="8" font-weight="400" fill="#000000">
            <tspan x="109.028" y="1477.5">最低位为1，表示是一个value</tspan>
        </text>
        <path d="M126.75,1358 L126.75,1399.75" id="Line-5" stroke="#000000" stroke-linecap="square"></path>
        <path id="Line-3" d="M524,1420.5 L524,1355 L524,1354.5 L525,1354.5 L525,1355 L525,1420.5 L529,1420.5 L524.5,1429.5 L520,1420.5 L524,1420.5 Z" fill="#000000" fill-rule="nonzero"></path>
        <text id="slots[3]" font-family="PingFangSC-Medium, PingFang SC" font-size="16" font-weight="400" fill="#000000">
            <tspan x="463.396" y="1416">slots[3]</tspan>
        </text>
        <rect id="Rectangle" stroke="#979797" fill="#D8D8D8" x="486.5" y="1430.5" width="85" height="18"></rect>
        <text id="0000000000000107" font-family="PingFangSC-Medium, PingFang SC" font-size="8" font-weight="400" fill="#000000">
            <tspan x="491.064" y="1441">0000000000000107</tspan>
        </text>
        <text id="最低位为1，表示是一个value" font-family="PingFangSC-Medium, PingFang SC" font-size="8" font-weight="400" fill="#000000">
            <tspan x="472.028" y="1466">最低位为1，表示是一个value</tspan>
        </text>
        <path id="Line-3" d="M977,1415.5 L977,1350 L977,1349.5 L978,1349.5 L978,1350 L978,1415.5 L982,1415.5 L977.5,1424.5 L973,1415.5 L977,1415.5 Z" fill="#000000" fill-rule="nonzero"></path>
        <text id="slots[4]" font-family="PingFangSC-Medium, PingFang SC" font-size="16" font-weight="400" fill="#000000">
            <tspan x="916.396" y="1411">slots[4]</tspan>
        </text>
        <rect id="Rectangle" stroke="#979797" fill="#D8D8D8" x="939.5" y="1425.5" width="85" height="18"></rect>
        <text id="0000000000002009" font-family="PingFangSC-Medium, PingFang SC" font-size="8" font-weight="400" fill="#000000">
            <tspan x="943.1" y="1436">0000000000002009</tspan>
        </text>
        <text id="最低位为1，表示是一个value" font-family="PingFangSC-Medium, PingFang SC" font-size="8" font-weight="400" fill="#000000">
            <tspan x="925.028" y="1461">最低位为1，表示是一个value</tspan>
        </text>
    </g>
</svg>
