<svg width="1166" height="863" xmlns="http://www.w3.org/2000/svg">
 <!-- Created with Method Draw - http://github.com/duopixel/Method-Draw/ -->

 <g>
  <title>background</title>
  <rect x="-1" y="-1" width="1168" height="865" id="canvas_background" fill="#fff"/>
  <g id="canvasGrid" display="none">
   <rect id="svg_10" width="1200" height="860" x="127.56138" y="6" stroke-width="0" fill="url(#gridpattern)"/>
  </g>
 </g>
 <g>
  <title>Layer 1</title>
  <rect fill="#fff" stroke-width="1.5" x="180.06138" y="454.5" width="122" height="209" id="svg_120" stroke="#000"/>
  <rect fill="#fff" stroke-width="1.5" x="182.06138" y="456.5" width="119" height="102.00001" id="svg_132" stroke="#ff0000"/>
  <rect fill="#fff" stroke-width="1.5" x="109.06138" y="78.5" width="119" height="264.99999" id="svg_1" stroke="#000"/>
  <line fill="none" stroke="#000" stroke-width="1.5" x1="108.06138" y1="109.5" x2="229.06138" y2="110.5" id="svg_2" stroke-linejoin="undefined" stroke-linecap="undefined"/>
  <line fill="none" stroke="#000" stroke-width="1.5" x1="110.06138" y1="129.5" x2="228.06138" y2="130.5" id="svg_3" stroke-linejoin="undefined" stroke-linecap="undefined"/>
  <line fill="none" stroke="#000" stroke-width="1.5" x1="109.06138" y1="173.5" x2="228.06138" y2="173.5" id="svg_4" stroke-linejoin="undefined" stroke-linecap="undefined"/>
  <line fill="none" stroke="#000" stroke-width="1.5" x1="108.06138" y1="203.5" x2="227.06138" y2="204.5" id="svg_5" stroke-linejoin="undefined" stroke-linecap="undefined"/>
  <line fill="none" stroke="#000" stroke-width="1.5" x1="108.06138" y1="236.5" x2="228.06138" y2="236.5" id="svg_6" stroke-linejoin="undefined" stroke-linecap="undefined"/>
  <line fill="none" stroke="#000" stroke-width="1.5" x1="109.06138" y1="257.5" x2="228.06138" y2="258.5" id="svg_7" stroke-linejoin="undefined" stroke-linecap="undefined"/>
  <line fill="none" stroke="#000" stroke-width="1.5" x1="109.06138" y1="315.5" x2="230.06138" y2="315.5" id="svg_8" stroke-linejoin="undefined" stroke-linecap="undefined"/>
  <text fill="#000000" stroke-width="0" stroke-opacity="null" fill-opacity="null" x="119.7493" y="82.16667" id="svg_9" font-size="24" font-family="Helvetica, Arial, sans-serif" text-anchor="start" xml:space="preserve" transform="matrix(0.5883245468139648,0,0,0.75,35.60992670059204,5.375) " stroke="#000">rootnode(cgroupfs_root)</text>
  <rect fill="#fff" stroke-width="1.5" x="347.06138" y="87.5" width="119.00001" height="354.99998" id="svg_11" stroke="#000"/>
  <line fill="none" stroke="#000" stroke-width="1.5" x1="345.06138" y1="112.5" x2="466.06138" y2="113.5" id="svg_12" stroke-linejoin="undefined" stroke-linecap="undefined"/>
  <line fill="none" stroke="#000" stroke-width="1.5" x1="347.06138" y1="132.5" x2="465.06138" y2="133.5" id="svg_13" stroke-linejoin="undefined" stroke-linecap="undefined"/>
  <line fill="none" stroke="#000" stroke-width="1.5" x1="346.06138" y1="176.5" x2="465.06138" y2="176.5" id="svg_14" stroke-linejoin="undefined" stroke-linecap="undefined"/>
  <line fill="none" stroke="#000" stroke-width="1.5" x1="345.06138" y1="206.5" x2="464.06138" y2="207.5" id="svg_15" stroke-linejoin="undefined" stroke-linecap="undefined"/>
  <line fill="none" stroke="#000" stroke-width="1.5" x1="345.06138" y1="239.5" x2="465.06138" y2="239.5" id="svg_16" stroke-linejoin="undefined" stroke-linecap="undefined"/>
  <line fill="none" stroke="#000" stroke-width="1.5" x1="346.06138" y1="260.5" x2="465.06138" y2="261.5" id="svg_17" stroke-linejoin="undefined" stroke-linecap="undefined"/>
  <line fill="none" stroke-width="1.5" x1="346.06138" y1="318.5" x2="467.06138" y2="318.5" id="svg_18" stroke-linejoin="undefined" stroke-linecap="undefined" stroke="#000"/>
  <line fill="none" stroke="#000" stroke-width="1.5" x1="346.06138" y1="393.5" x2="467.06138" y2="393.5" id="svg_19" stroke-linejoin="undefined" stroke-linecap="undefined"/>
  <line fill="none" stroke="#000" stroke-width="1.5" x1="345.06138" y1="417.5" x2="466.06138" y2="417.5" id="svg_20" stroke-linejoin="undefined" stroke-linecap="undefined"/>
  <line fill="none" stroke="#000" stroke-width="1.5" stroke-opacity="null" fill-opacity="null" x1="347.06138" y1="338.5" x2="464.06138" y2="338.5" id="svg_21" stroke-linejoin="null" stroke-linecap="null"/>
  <line fill="none" stroke="#000" stroke-width="1.5" stroke-opacity="null" fill-opacity="null" x1="347.06138" y1="360.5" x2="467.06138" y2="361.5" id="svg_22" stroke-linejoin="null" stroke-linecap="null"/>
  <text fill="#000000" stroke-width="0" stroke-opacity="null" fill-opacity="null" x="353.55305" y="24.72222" id="svg_23" font-size="24" font-family="Helvetica, Arial, sans-serif" text-anchor="start" xml:space="preserve" transform="matrix(0.659284472465515,0,0,0.6428571343421935,126.96934396028519,57.750000804662704) " stroke="#000">cgroup</text>
  <text fill="#000000" stroke-width="0" stroke-opacity="null" fill-opacity="null" x="35.29492" y="190.68518" id="svg_24" font-size="26" font-family="Helvetica, Arial, sans-serif" text-anchor="start" xml:space="preserve" transform="matrix(0.5570256823617007,0,0,0.9642857313156127,-8.132850558482039,-17.16071659326553) " stroke="#000">dummytop</text>
  <text fill="#000000" stroke-width="0" stroke-opacity="null" fill-opacity="null" x="115.06114" y="124" id="svg_25" font-size="13" font-family="Helvetica, Arial, sans-serif" text-anchor="start" xml:space="preserve" transform="matrix(0.8270270228385925,0,0,1,17.902703136205673,0) " stroke="#000">number_of_cgroups=1</text>
  <text fill="#000000" stroke="#000" stroke-width="0" stroke-opacity="null" fill-opacity="null" x="137.06138" y="192" id="svg_26" font-size="13" font-family="Helvetica, Arial, sans-serif" text-anchor="start" xml:space="preserve">top_cgroup</text>
  <text fill="#000000" stroke="#000" stroke-width="0" stroke-opacity="null" fill-opacity="null" x="136.06138" y="251" id="svg_27" font-size="13" font-family="Helvetica, Arial, sans-serif" text-anchor="start" xml:space="preserve">allcg_list</text>
  <text fill="#ff0000" stroke="#000" stroke-width="0" stroke-opacity="null" x="131.06138" y="333" id="svg_28" font-size="13" font-family="Helvetica, Arial, sans-serif" text-anchor="start" xml:space="preserve">subsys_list</text>
  <text fill="#000000" stroke="#000" stroke-width="0" stroke-opacity="null" fill-opacity="null" x="379.06138" y="126" id="svg_29" font-size="13" font-family="Helvetica, Arial, sans-serif" text-anchor="start" xml:space="preserve">root</text>
  <text fill="#ff0000" stroke="#000" stroke-width="0" stroke-opacity="null" x="379.06138" y="198" id="svg_30" font-size="13" font-family="Helvetica, Arial, sans-serif" text-anchor="start" xml:space="preserve">css_sets</text>
  <text fill="#000000" stroke="#000" stroke-width="0" stroke-opacity="null" fill-opacity="null" x="377.06138" y="227" id="svg_31" font-size="13" font-family="Helvetica, Arial, sans-serif" text-anchor="start" xml:space="preserve">name="/"</text>
  <text fill="#000000" stroke="#000" stroke-width="0" stroke-opacity="null" fill-opacity="null" x="377.06138" y="252" id="svg_32" font-size="13" font-family="Helvetica, Arial, sans-serif" text-anchor="start" xml:space="preserve">allcg_node</text>
  <text fill="#000000" stroke="#000" stroke-width="0" stroke-opacity="null" fill-opacity="null" x="390.06138" y="294" id="svg_33" font-size="13" font-family="Helvetica, Arial, sans-serif" text-anchor="start" xml:space="preserve">......</text>
  <text fill="#000000" stroke="#000" stroke-width="0" stroke-opacity="null" fill-opacity="null" x="375.06138" y="333" id="svg_34" font-size="13" font-family="Helvetica, Arial, sans-serif" text-anchor="start" xml:space="preserve">subsys[0]</text>
  <text fill="#000000" stroke="#000" stroke-width="0" stroke-opacity="null" fill-opacity="null" x="375.06138" y="355" id="svg_35" font-size="13" font-family="Helvetica, Arial, sans-serif" text-anchor="start" xml:space="preserve">subsys[1]</text>
  <text fill="#000000" stroke="#000" stroke-width="0" stroke-opacity="null" fill-opacity="null" x="374.06138" y="409" id="svg_36" font-size="13" font-family="Helvetica, Arial, sans-serif" text-anchor="start" xml:space="preserve">subsys[11]</text>
  <text fill="#000000" stroke="#000" stroke-width="0" stroke-opacity="null" fill-opacity="null" x="375.06138" y="434" id="svg_37" font-size="13" font-family="Helvetica, Arial, sans-serif" text-anchor="start" xml:space="preserve">subsys[12]</text>
  <rect fill="#fff" stroke-width="1.5" x="629.06138" y="126.5" width="119.00001" height="88.99999" id="svg_38" stroke="#000"/>
  <line fill="none" stroke-width="1.5" x1="630.06138" y1="150.5" x2="751.06138" y2="150.5" id="svg_45" stroke-linejoin="undefined" stroke-linecap="undefined" stroke="#000"/>
  <line fill="none" stroke="#000" stroke-width="1.5" stroke-opacity="null" fill-opacity="null" x1="631.06138" y1="170.5" x2="748.06138" y2="170.5" id="svg_48" stroke-linejoin="null" stroke-linecap="null"/>
  <line fill="none" stroke="#000" stroke-width="1.5" stroke-opacity="null" fill-opacity="null" x1="631.06138" y1="192.5" x2="751.06138" y2="193.5" id="svg_49" stroke-linejoin="null" stroke-linecap="null"/>
  <text fill="#000000" stroke="#000" stroke-width="0" stroke-opacity="null" fill-opacity="null" x="653.06138" y="165" id="svg_55" font-size="13" font-family="Helvetica, Arial, sans-serif" text-anchor="start" xml:space="preserve">cgrp_link_list</text>
  <text fill="#000000" stroke="#000" stroke-width="0" stroke-opacity="null" fill-opacity="null" x="674.06138" y="186" id="svg_56" font-size="13" font-family="Helvetica, Arial, sans-serif" text-anchor="start" xml:space="preserve">cgrp</text>
  <rect fill="#fff" stroke-width="1.5" x="899.06138" y="84.49999" width="119.00001" height="295.99999" id="svg_60" stroke="#000"/>
  <line fill="none" stroke="#000" stroke-width="1.5" x1="898.06138" y1="114.5" x2="1017.06138" y2="114.5" id="svg_63" stroke-linejoin="undefined" stroke-linecap="undefined"/>
  <line fill="none" stroke="#000" stroke-width="1.5" x1="897.06138" y1="177.5" x2="1017.06138" y2="177.5" id="svg_65" stroke-linejoin="undefined" stroke-linecap="undefined"/>
  <line fill="none" stroke="#000" stroke-width="1.5" x1="898.06138" y1="198.5" x2="1017.06138" y2="199.5" id="svg_66" stroke-linejoin="undefined" stroke-linecap="undefined"/>
  <line fill="none" stroke-width="1.5" x1="898.06138" y1="256.5" x2="1019.06138" y2="256.5" id="svg_67" stroke-linejoin="undefined" stroke-linecap="undefined" stroke="#000"/>
  <line fill="none" stroke="#000" stroke-width="1.5" x1="898.06138" y1="331.5" x2="1019.06138" y2="331.5" id="svg_68" stroke-linejoin="undefined" stroke-linecap="undefined"/>
  <line fill="none" stroke="#000" stroke-width="1.5" x1="897.06138" y1="355.5" x2="1018.06138" y2="355.5" id="svg_69" stroke-linejoin="undefined" stroke-linecap="undefined"/>
  <line fill="none" stroke="#000" stroke-width="1.5" stroke-opacity="null" fill-opacity="null" x1="899.06138" y1="276.5" x2="1016.06138" y2="276.5" id="svg_70" stroke-linejoin="null" stroke-linecap="null"/>
  <line fill="none" stroke="#000" stroke-width="1.5" stroke-opacity="null" fill-opacity="null" x1="899.06138" y1="298.5" x2="1019.06138" y2="299.5" id="svg_71" stroke-linejoin="null" stroke-linecap="null"/>
  <text fill="#ff0000" stroke="#000" stroke-width="0" stroke-opacity="null" x="929.06138" y="190" id="svg_75" font-size="13" font-family="Helvetica, Arial, sans-serif" text-anchor="start" xml:space="preserve">cg_links</text>
  <text fill="#000000" stroke="#000" stroke-width="0" stroke-opacity="null" fill-opacity="null" x="942.06138" y="232" id="svg_76" font-size="13" font-family="Helvetica, Arial, sans-serif" text-anchor="start" xml:space="preserve">......</text>
  <text fill="#000000" stroke="#000" stroke-width="0" stroke-opacity="null" fill-opacity="null" x="927.06138" y="271" id="svg_77" font-size="13" font-family="Helvetica, Arial, sans-serif" text-anchor="start" xml:space="preserve">subsys[0]</text>
  <text fill="#000000" stroke="#000" stroke-width="0" stroke-opacity="null" fill-opacity="null" x="927.06138" y="293" id="svg_78" font-size="13" font-family="Helvetica, Arial, sans-serif" text-anchor="start" xml:space="preserve">subsys[1]</text>
  <text fill="#000000" stroke="#000" stroke-width="0" stroke-opacity="null" fill-opacity="null" x="926.06138" y="347" id="svg_79" font-size="13" font-family="Helvetica, Arial, sans-serif" text-anchor="start" xml:space="preserve">subsys[11]</text>
  <text fill="#000000" stroke="#000" stroke-width="0" stroke-opacity="null" fill-opacity="null" x="927.06138" y="372" id="svg_80" font-size="13" font-family="Helvetica, Arial, sans-serif" text-anchor="start" xml:space="preserve">subsys[12]</text>
  <text fill="#000000" stroke="#000" stroke-width="0" stroke-opacity="null" fill-opacity="null" x="677.06138" y="143" id="svg_81" font-size="13" font-family="Helvetica, Arial, sans-serif" text-anchor="start" xml:space="preserve">cg</text>
  <text fill="#000000" stroke="#000" stroke-width="0" stroke-opacity="null" fill-opacity="null" x="661.06138" y="208" id="svg_82" font-size="13" font-family="Helvetica, Arial, sans-serif" text-anchor="start" xml:space="preserve">cg_link_list</text>
  <text fill="#000000" stroke="#000" stroke-width="0" stroke-opacity="null" fill-opacity="null" x="606.06138" y="116" id="svg_83" font-size="13" font-family="Helvetica, Arial, sans-serif" text-anchor="start" xml:space="preserve">init_css_set_link(cg_cgroup_link)</text>
  <text fill="#000000" stroke="#000" stroke-width="0" stroke-opacity="null" fill-opacity="null" x="896.06138" y="69" id="svg_84" font-size="13" font-family="Helvetica, Arial, sans-serif" text-anchor="start" xml:space="preserve">init_css_set(css_set)</text>
  <rect fill="#fff" stroke-width="1.5" x="112.06138" y="713.5" width="119.00001" height="131.99999" id="svg_85" stroke="#000"/>
  <line fill="none" stroke-width="1.5" x1="113.06138" y1="737.5" x2="234.06138" y2="737.5" id="svg_86" stroke-linejoin="undefined" stroke-linecap="undefined" stroke="#000"/>
  <line fill="none" stroke="#000" stroke-width="1.5" stroke-opacity="null" fill-opacity="null" x1="114.06138" y1="757.5" x2="231.06138" y2="757.5" id="svg_87" stroke-linejoin="null" stroke-linecap="null"/>
  <line fill="none" stroke="#000" stroke-width="1.5" stroke-opacity="null" fill-opacity="null" x1="114.06138" y1="779.5" x2="234.06138" y2="780.5" id="svg_88" stroke-linejoin="null" stroke-linecap="null"/>
  <text fill="#000000" stroke="#000" stroke-width="0" stroke-opacity="null" fill-opacity="null" x="152.06138" y="730" id="svg_89" font-size="13" font-family="Helvetica, Arial, sans-serif" text-anchor="start" xml:space="preserve">root</text>
  <text fill="#000000" stroke="#000" stroke-width="0" stroke-opacity="null" fill-opacity="null" x="152.06138" y="773" id="svg_90" font-size="13" font-family="Helvetica, Arial, sans-serif" text-anchor="start" xml:space="preserve">sibling</text>
  <text fill="#000000" stroke-width="0" stroke-opacity="null" fill-opacity="null" x="140.06138" y="751" id="svg_91" font-size="13" font-family="Helvetica, Arial, sans-serif" text-anchor="start" xml:space="preserve" stroke="#000">name=cpu</text>
  <text fill="#000000" stroke-width="0" stroke-opacity="null" fill-opacity="null" x="-51.43146" y="1001.61112" id="svg_93" font-size="24" font-family="Helvetica, Arial, sans-serif" text-anchor="start" xml:space="preserve" transform="matrix(0.659284472465515,0,0,0.6428571343421935,126.96934396028519,57.750000804662704) " stroke="#000">subsys[0](cgroup_subsys)</text>
  <rect fill="#fff" stroke-width="1.5" x="326.06138" y="715.5" width="119.00001" height="131.99999" id="svg_94" stroke="#000"/>
  <line fill="none" stroke-width="1.5" x1="327.06138" y1="739.5" x2="448.06138" y2="739.5" id="svg_95" stroke-linejoin="undefined" stroke-linecap="undefined" stroke="#000"/>
  <line fill="none" stroke="#000" stroke-width="1.5" stroke-opacity="null" fill-opacity="null" x1="328.06138" y1="759.5" x2="445.06138" y2="759.5" id="svg_96" stroke-linejoin="null" stroke-linecap="null"/>
  <line fill="none" stroke="#000" stroke-width="1.5" stroke-opacity="null" fill-opacity="null" x1="328.06138" y1="781.5" x2="448.06138" y2="782.5" id="svg_97" stroke-linejoin="null" stroke-linecap="null"/>
  <text fill="#000000" stroke="#000" stroke-width="0" stroke-opacity="null" fill-opacity="null" x="366.06138" y="732" id="svg_98" font-size="13" font-family="Helvetica, Arial, sans-serif" text-anchor="start" xml:space="preserve">root</text>
  <text fill="#000000" stroke="#000" stroke-width="0" stroke-opacity="null" fill-opacity="null" x="366.06138" y="775" id="svg_99" font-size="13" font-family="Helvetica, Arial, sans-serif" text-anchor="start" xml:space="preserve">sibling</text>
  <text fill="#000000" stroke-width="0" stroke-opacity="null" fill-opacity="null" x="354.06138" y="753" id="svg_100" font-size="13" font-family="Helvetica, Arial, sans-serif" text-anchor="start" xml:space="preserve" stroke="#000">name=debug</text>
  <text fill="#000000" stroke-width="0" stroke-opacity="null" fill-opacity="null" x="273.16286" y="1004.72223" id="svg_101" font-size="24" font-family="Helvetica, Arial, sans-serif" text-anchor="start" xml:space="preserve" transform="matrix(0.659284472465515,0,0,0.6428571343421935,126.96934396028519,57.750000804662704) " stroke="#000">subsys[1](cgroup_subsys)</text>
  <rect fill="#fff" stroke-width="1.5" x="748.06138" y="716.5" width="119.00001" height="131.99999" id="svg_102" stroke="#000"/>
  <line fill="none" stroke-width="1.5" x1="749.06138" y1="740.5" x2="870.06138" y2="740.5" id="svg_103" stroke-linejoin="undefined" stroke-linecap="undefined" stroke="#000"/>
  <line fill="none" stroke="#000" stroke-width="1.5" stroke-opacity="null" fill-opacity="null" x1="750.06138" y1="760.5" x2="867.06138" y2="760.5" id="svg_104" stroke-linejoin="null" stroke-linecap="null"/>
  <line fill="none" stroke="#000" stroke-width="1.5" stroke-opacity="null" fill-opacity="null" x1="750.06138" y1="782.5" x2="870.06138" y2="783.5" id="svg_105" stroke-linejoin="null" stroke-linecap="null"/>
  <text fill="#000000" stroke="#000" stroke-width="0" stroke-opacity="null" fill-opacity="null" x="788.06138" y="733" id="svg_106" font-size="13" font-family="Helvetica, Arial, sans-serif" text-anchor="start" xml:space="preserve">root</text>
  <text fill="#000000" stroke="#000" stroke-width="0" stroke-opacity="null" fill-opacity="null" x="788.06138" y="776" id="svg_107" font-size="13" font-family="Helvetica, Arial, sans-serif" text-anchor="start" xml:space="preserve">sibling</text>
  <text fill="#000000" stroke-width="0" stroke-opacity="null" fill-opacity="null" x="776.06138" y="754" id="svg_108" font-size="13" font-family="Helvetica, Arial, sans-serif" text-anchor="start" xml:space="preserve" stroke="#000">name=pids</text>
  <text fill="#000000" stroke-width="0" stroke-opacity="null" fill-opacity="null" x="913.25074" y="1006.27779" id="svg_109" font-size="24" font-family="Helvetica, Arial, sans-serif" text-anchor="start" xml:space="preserve" transform="matrix(0.659284472465515,0,0,0.6428571343421935,126.96934396028519,57.750000804662704) " stroke="#000">subsys[11](cgroup_subsys)</text>
  <rect fill="#fff" stroke-width="1.5" x="965.06138" y="715.5" width="119.00001" height="131.99999" id="svg_110" stroke="#000"/>
  <line fill="none" stroke-width="1.5" x1="966.06138" y1="739.5" x2="1087.06138" y2="739.5" id="svg_111" stroke-linejoin="undefined" stroke-linecap="undefined" stroke="#000"/>
  <line fill="none" stroke="#000" stroke-width="1.5" stroke-opacity="null" fill-opacity="null" x1="967.06138" y1="759.5" x2="1084.06138" y2="759.5" id="svg_112" stroke-linejoin="null" stroke-linecap="null"/>
  <line fill="none" stroke="#000" stroke-width="1.5" stroke-opacity="null" fill-opacity="null" x1="967.06138" y1="781.5" x2="1087.06138" y2="782.5" id="svg_113" stroke-linejoin="null" stroke-linecap="null"/>
  <text fill="#000000" stroke="#000" stroke-width="0" stroke-opacity="null" fill-opacity="null" x="1005.06138" y="732" id="svg_114" font-size="13" font-family="Helvetica, Arial, sans-serif" text-anchor="start" xml:space="preserve">root</text>
  <text fill="#000000" stroke="#000" stroke-width="0" stroke-opacity="null" fill-opacity="null" x="1005.06138" y="775" id="svg_115" font-size="13" font-family="Helvetica, Arial, sans-serif" text-anchor="start" xml:space="preserve">sibling</text>
  <text fill="#000000" stroke-width="0" stroke-opacity="null" fill-opacity="null" x="993.06138" y="753" id="svg_116" font-size="13" font-family="Helvetica, Arial, sans-serif" text-anchor="start" xml:space="preserve" stroke="#000">name=net_prio</text>
  <text fill="#000000" stroke-width="0" stroke-opacity="null" fill-opacity="null" x="1242.39546" y="1004.72223" id="svg_117" font-size="24" font-family="Helvetica, Arial, sans-serif" text-anchor="start" xml:space="preserve" transform="matrix(0.659284472465515,0,0,0.6428571343421935,126.96934396028519,57.750000804662704) " stroke="#000">subsys[12](cgroup_subsys)</text>
  <rect fill="#fff" stroke-width="1.5" x="538.06138" y="715.5" width="119.00001" height="131.99999" id="svg_118" stroke="#000"/>
  <text fill="#000000" stroke-width="0" stroke-opacity="null" fill-opacity="null" x="588.65642" y="1007.83334" id="svg_119" font-size="24" font-family="Helvetica, Arial, sans-serif" text-anchor="start" xml:space="preserve" transform="matrix(0.659284472465515,0,0,0.6428571343421935,126.96934396028519,57.750000804662704) " stroke="#000">subsys[3-10](cgroup_subsys)</text>
  <line fill="none" stroke="#000" stroke-width="1.5" x1="181.06138" y1="489.5" x2="300.06138" y2="489.5" id="svg_123" stroke-linejoin="undefined" stroke-linecap="undefined"/>
  <line fill="none" stroke="#000" stroke-width="1.5" x1="180.06138" y1="519.5" x2="299.06138" y2="520.5" id="svg_124" stroke-linejoin="undefined" stroke-linecap="undefined"/>
  <text fill="#000000" stroke="#000" stroke-width="0" stroke-opacity="null" fill-opacity="null" x="219.06138" y="508" id="svg_129" font-size="13" font-family="Helvetica, Arial, sans-serif" text-anchor="start" xml:space="preserve">cgroup</text>
  <text fill="#000000" stroke="#000" stroke-width="0" stroke-opacity="null" fill-opacity="null" x="564.06138" y="777" id="svg_133" font-size="13" font-family="Helvetica, Arial, sans-serif" text-anchor="start" xml:space="preserve">................</text>
  <text fill="#000000" stroke="#000" stroke-width="0" stroke-opacity="null" fill-opacity="null" x="215.06138" y="476" id="svg_134" font-size="13" font-family="Helvetica, Arial, sans-serif" text-anchor="start" xml:space="preserve">ref_cnt=1</text>
  <text fill="#000000" stroke="#000" stroke-width="0" stroke-opacity="null" fill-opacity="null" x="193.06138" y="445" id="svg_135" font-size="13" font-family="Helvetica, Arial, sans-serif" text-anchor="start" xml:space="preserve">task_cgroup</text>
  <text fill="#ff0000" stroke="#ff0000" stroke-width="0" x="186.06138" y="468" id="svg_136" font-size="13" font-family="Helvetica, Arial, sans-serif" text-anchor="start" xml:space="preserve">css</text>
  <rect fill="#fff" stroke-width="1.5" x="367.06138" y="456.5" width="119" height="102.00001" id="svg_138" stroke="#ff0000"/>
  <line fill="none" stroke="#000" stroke-width="1.5" x1="366.06138" y1="489.5" x2="485.06138" y2="489.5" id="svg_139" stroke-linejoin="undefined" stroke-linecap="undefined"/>
  <line fill="none" stroke="#000" stroke-width="1.5" x1="365.06138" y1="519.5" x2="484.06138" y2="520.5" id="svg_140" stroke-linejoin="undefined" stroke-linecap="undefined"/>
  <text fill="#000000" stroke="#000" stroke-width="0" stroke-opacity="null" fill-opacity="null" x="404.06138" y="508" id="svg_141" font-size="13" font-family="Helvetica, Arial, sans-serif" text-anchor="start" xml:space="preserve">cgroup</text>
  <text fill="#000000" stroke="#000" stroke-width="0" stroke-opacity="null" fill-opacity="null" x="400.06138" y="476" id="svg_142" font-size="13" font-family="Helvetica, Arial, sans-serif" text-anchor="start" xml:space="preserve">ref_cnt=1</text>
  <text fill="#ff0000" stroke="#ff0000" stroke-width="0" x="371.06138" y="468" id="svg_144" font-size="13" font-family="Helvetica, Arial, sans-serif" text-anchor="start" xml:space="preserve">css</text>
  <rect fill="#fff" stroke-width="1.5" x="728.06138" y="447.5" width="122" height="209" id="svg_145" stroke="#000"/>
  <rect fill="#fff" stroke-width="1.5" x="730.06138" y="449.5" width="119" height="102.00001" id="svg_146" stroke="#ff0000"/>
  <line fill="none" stroke="#000" stroke-width="1.5" x1="729.06138" y1="482.5" x2="848.06138" y2="482.5" id="svg_147" stroke-linejoin="undefined" stroke-linecap="undefined"/>
  <line fill="none" stroke="#000" stroke-width="1.5" x1="728.06138" y1="512.5" x2="847.06138" y2="513.5" id="svg_148" stroke-linejoin="undefined" stroke-linecap="undefined"/>
  <text fill="#000000" stroke="#000" stroke-width="0" stroke-opacity="null" fill-opacity="null" x="767.06138" y="501" id="svg_149" font-size="13" font-family="Helvetica, Arial, sans-serif" text-anchor="start" xml:space="preserve">cgroup</text>
  <text fill="#000000" stroke="#000" stroke-width="0" stroke-opacity="null" fill-opacity="null" x="763.06138" y="469" id="svg_150" font-size="13" font-family="Helvetica, Arial, sans-serif" text-anchor="start" xml:space="preserve">ref_cnt=1</text>
  <text fill="#000000" stroke="#000" stroke-width="0" stroke-opacity="null" fill-opacity="null" x="741.06138" y="438" id="svg_151" font-size="13" font-family="Helvetica, Arial, sans-serif" text-anchor="start" xml:space="preserve">pids_cgroup</text>
  <text fill="#ff0000" stroke="#ff0000" stroke-width="0" x="734.06138" y="461" id="svg_152" font-size="13" font-family="Helvetica, Arial, sans-serif" text-anchor="start" xml:space="preserve">css</text>
  <rect fill="#fff" stroke-width="1.5" x="937.06138" y="448.5" width="122" height="209" id="svg_153" stroke="#000"/>
  <rect fill="#fff" stroke-width="1.5" x="939.06138" y="450.5" width="119" height="102.00001" id="svg_154" stroke="#ff0000"/>
  <line fill="none" stroke="#000" stroke-width="1.5" x1="938.06138" y1="483.5" x2="1057.06138" y2="483.5" id="svg_155" stroke-linejoin="undefined" stroke-linecap="undefined"/>
  <line fill="none" stroke="#000" stroke-width="1.5" x1="937.06138" y1="513.5" x2="1056.06138" y2="514.5" id="svg_156" stroke-linejoin="undefined" stroke-linecap="undefined"/>
  <text fill="#000000" stroke="#000" stroke-width="0" stroke-opacity="null" fill-opacity="null" x="976.06138" y="502" id="svg_157" font-size="13" font-family="Helvetica, Arial, sans-serif" text-anchor="start" xml:space="preserve">cgroup</text>
  <text fill="#000000" stroke="#000" stroke-width="0" stroke-opacity="null" fill-opacity="null" x="972.06138" y="470" id="svg_158" font-size="13" font-family="Helvetica, Arial, sans-serif" text-anchor="start" xml:space="preserve">ref_cnt=1</text>
  <text fill="#000000" stroke="#000" stroke-width="0" stroke-opacity="null" fill-opacity="null" x="930.06138" y="439" id="svg_159" font-size="13" font-family="Helvetica, Arial, sans-serif" text-anchor="start" xml:space="preserve">cgroup_netprio_state</text>
  <text fill="#ff0000" stroke="#ff0000" stroke-width="0" x="943.06138" y="462" id="svg_160" font-size="13" font-family="Helvetica, Arial, sans-serif" text-anchor="start" xml:space="preserve">css</text>
  <text fill="#000000" stroke-width="0" stroke-opacity="null" fill-opacity="null" x="550.06138" y="516" id="svg_161" font-size="13" font-family="Helvetica, Arial, sans-serif" text-anchor="start" xml:space="preserve" transform="matrix(1,0,0,1.3333333730697632,0,-168.00002002716064) " stroke="#000">这里省略了一些css</text>
  <text fill="#000000" stroke-width="0" stroke-opacity="null" fill-opacity="null" x="550.87316" y="701.19083" id="svg_162" font-size="13" font-family="Helvetica, Arial, sans-serif" text-anchor="start" xml:space="preserve" transform="matrix(0.7671933770179749,0,0,1.2827405517123296,123.73672011494637,-133.1613299830678) " stroke="#000">这里省略了一些subsys</text>
  <text fill="#0000ff" stroke-width="0" x="435.66813" y="34.875" id="svg_163" font-size="13" font-family="Helvetica, Arial, sans-serif" text-anchor="start" xml:space="preserve" transform="matrix(0.894505500793457,0,0,1.0666667222976685,65.35384225845337,-2.4000020027160645) ">cgroup_init_early 和 cgroup_init初始化函数执行完各个数据的情况</text>
  <text fill="#0000ff" stroke-width="0" x="1048.06138" y="56" id="svg_164" font-size="13" font-family="Helvetica, Arial, sans-serif" text-anchor="start" xml:space="preserve">root_count = 1</text>
  <text fill="#0000ff" stroke-width="0" x="1049.06138" y="86" id="svg_166" font-size="13" font-family="Helvetica, Arial, sans-serif" text-anchor="start" xml:space="preserve">css_set_count = 1</text>
  <path fill="#0000ff" stroke-width="0" d="m228.84388,774.28249l28.12196,-5.99999l0,2.99999l40.75609,0l0,-2.99999l28.12195,5.99999l-28.12195,5.99996l0,-2.99998l-40.75608,0l0,2.99998l-28.12197,-5.99996z" id="svg_167" stroke="null"/>
  <path fill="#0000ff" stroke-width="0" d="m441.84388,773.28249l28.12197,-5.99999l0,2.99999l40.75608,0l0,-2.99999l28.12195,5.99999l-28.12195,5.99996l0,-2.99998l-40.75608,0l0,2.99998l-28.12197,-5.99996z" id="svg_168" stroke="null"/>
  <path fill="#0000ff" stroke-width="0" d="m655.84388,775.28249l28.12197,-5.99999l0,2.99999l40.75608,0l0,-2.99999l28.12195,5.99999l-28.12195,5.99996l0,-2.99998l-40.75608,0l0,2.99998l-28.12197,-5.99996z" id="svg_169" stroke="null"/>
  <path fill="#0000ff" stroke-width="0" d="m864.84388,774.28249l28.12197,-5.99999l0,2.99999l40.75608,0l0,-2.99999l28.12195,5.99999l-28.12195,5.99996l0,-2.99998l-40.75608,0l0,2.99998l-28.12197,-5.99996z" id="svg_170" stroke="null"/>
  <line fill="none" stroke="null" stroke-opacity="null" fill-opacity="null" x1="79.06138" y1="158" x2="97.06138" y2="174" id="svg_171" stroke-linejoin="null" stroke-linecap="null"/>
  <path d="m107.06138,330c-1,0 -1,0 -3,0c-1,0 -3,1 -6,2c-3,1 -6.15928,2.61066 -9,4c-3.23892,1.58411 -6,4 -9,7c-2,2 -5.36703,4.65814 -10,10c-3.27601,3.77728 -6.38055,7.76303 -10,14c-3.36703,5.802 -6,10 -9,15c-3,5 -5.40894,8.77637 -8,14c-2.39297,4.82428 -6.82294,13.65488 -9,20c-1.65482,4.82303 -4.23173,12.92767 -6,19c-2.30554,7.91736 -4.99511,15.85159 -6,26c-0.88684,8.95621 -1,17 -1,26c0,8 -0.43496,22.01352 0,29c0.50097,8.04669 2,15 3,22c1,7 2,8 2,9c0,2 0,3 0,7c0,4 0.51127,12.02997 1,16c0.50378,4.09222 1,8 1,11c0,2 0.49346,3.87854 1,7c0.16018,0.98706 0,3 0,6c0,2 0.51127,7.02997 1,11c0.50378,4.09222 2.49622,6.90778 3,11c0.48873,3.97003 1.37875,7.83209 3,12c2.63921,6.78485 3.82462,12.06134 6,18c1.85227,5.05658 2.66397,10.45874 6,18c1.45864,3.2973 4.91761,4.3869 6,7c0.38268,0.92389 0,4 0,9c0,6 0,11 0,17c0,4 -0.45951,8.05353 0,10c0.51374,2.17627 1,5 1,7c0,2 0.48626,4.82373 1,7c0.45951,1.94647 0.48626,3.82373 1,6c0.22975,0.97327 0.1731,2.85272 1,4c1.30745,1.81397 1.48626,3.82373 2,6c0.22975,0.97327 0.61732,3.07611 1,4c0.5412,1.30658 1.48626,1.82373 2,4c0.22975,0.97327 0.61732,3.07611 1,4c0.5412,1.30658 1.77025,2.02673 2,3c0.51374,2.17627 2.4588,2.69342 3,4c0.38268,0.92389 1.07612,1.61731 2,2c1.30656,0.5412 1.07612,1.61731 2,2c1.30656,0.5412 2.07612,1.61731 3,2c1.30656,0.5412 2,1 3,2c1,1 3,1 4,1c1,0 2.07612,-0.38269 3,0c1.30656,0.5412 2,1 3,1c0,0 1,0 2,0c1,0 2,0 3,0c1,0 2,0 2,0c1,0 2,0 2,0c0,0 1,0 2,0c0,0 1,0 1,0c1,0 1,0 2,0c0,0 0,0 0,0c1,0 2,0 2,0c1,0 1,0 2,1l0,0" id="svg_40" stroke-width="1.5" stroke="#000" fill="none"/>
  <path d="m100.06138,755c0,0 -0.38268,0.07611 0,1c0.5412,1.30658 3.1731,2.85272 4,4c1.30745,1.81397 2,3 3,4c0,0 0,1 0,1c1,0 0,0 0,0c0,1 -0.29289,2.29291 -1,3c-0.70711,0.70709 -1,2 -1,2c0,0 0,0 0,0c0,1 -1,1 -1,1c0,0 -1.4588,0.69342 -2,2c-0.38268,0.92389 -1,2 -1,2c0,1 0,1 -1,1c0,0 0,0 0,0c-1,0 -2.186,0.69257 -4,2c-1.14727,0.8269 -2,1 -2,2l0,0l-1,0" id="svg_41" stroke-width="1.5" stroke="#000" fill="none"/>
  <path d="m95.06138,322c0,0 1,1 3,2c2,1 2.69344,2.4588 4,3c0.92388,0.38269 0.69344,1.4588 2,2c0.92388,0.38269 2.29289,0.29291 3,1c0.70711,0.70709 1,1 1,1c0,0 0,0 -1,0c0,0 -1.34619,1.70547 -3,4c-1.30745,1.81399 -2.1731,3.85272 -3,5c-1.30745,1.81399 -1,2 -2,3l0,0" id="svg_42" stroke-width="1.5" stroke="#000" fill="none"/>
  <line stroke-linecap="undefined" stroke-linejoin="undefined" id="svg_44" y2="442" x2="345.06138" y1="203" x1="228.06138" stroke-width="1.5" stroke="#000" fill="none"/>
  <line stroke-linecap="undefined" stroke-linejoin="undefined" id="svg_46" y2="173" x2="230.06138" y1="85" x1="346.06138" stroke-width="1.5" stroke="#000" fill="none"/>
  <path stroke="null" fill="#0000ff" stroke-width="0" d="m226.84388,250.28249l34.21022,-5.99999l0,2.99999l49.57957,0l0,-2.99999l34.21021,5.99999l-34.21021,5.99996l0,-2.99998l-49.57956,0l0,2.99998l-34.21023,-5.99996z" id="svg_47"/>
  <path transform="rotate(5.8360090255737305 544.343933105468,200.28247070312443) " stroke="null" fill="#0000ff" stroke-width="0" d="m462.84388,200.28249l47.25649,-5.99999l0,2.99999l68.48704,0l0,-2.99999l47.25648,5.99999l-47.25648,5.99996l0,-2.99998l-68.48702,0l0,2.99998l-47.25651,-5.99996z" id="svg_50"/>
  <path transform="rotate(5.8360090255737305 822.3439331054693,173.28247070312443) " stroke="null" fill="#0000ff" stroke-width="0" d="m740.84388,173.28249l47.25649,-5.99999l0,2.99999l68.48704,0l0,-2.99999l47.25648,5.99999l-47.25648,5.99996l0,-2.99998l-68.48702,0l0,2.99998l-47.25651,-5.99996z" id="svg_51"/>
  <path fill="none" stroke="#000" stroke-width="1.5" id="svg_39" d="m748.06138,132c0,0 1,0 7,0c5,0 11,0 18,-1c7,-1 14.0874,-1.39827 23,-3c8.11621,-1.4586 15.95471,-3.19088 24,-5c4.97479,-1.11866 10.28369,-1.66369 18,-4c4.28027,-1.29595 7,-3 10,-4c3,-1 5,-2 7,-3c2,-1 3.15222,-1.23463 5,-2c1.30658,-0.5412 3,-2 5,-3c2,-1 3.18604,-1.69255 5,-3c1.14728,-0.8269 2,-2 3,-3c1,-1 2.47424,-2.14935 3,-3c1.1756,-1.90211 3,-2 4,-3c1,-1 2.07611,-1.61732 3,-2c1.30658,-0.5412 1.29291,-1.29289 2,-2c0.70709,-0.70711 2,-1 2,-1c1,0 0.69342,-0.4588 2,-1c0.92389,-0.38268 1.29291,0.70711 2,0c0.70709,-0.70711 0,-1 1,-1c0,0 0.07611,0.38268 1,0c1.30658,-0.5412 1,-1 1,-1l1,0"/>
  <path fill="none" stroke="#000" stroke-width="1.5" id="svg_43" d="m878.06138,78c0,0 1.15222,-0.76537 3,0c1.30658,0.5412 3.18604,1.69255 5,3c1.14728,0.8269 3.18604,1.69255 5,3c1.14728,0.8269 1,1 2,2c1,1 1,1 1,1c0,0 0,0 0,0c0,1 0,1 0,1c0,1 0.76538,3.15224 0,5c-0.5412,1.30656 -1.4588,3.69344 -2,5c-0.38269,0.92388 0,2 0,3c0,0 0,0 0,0c-1,0 -1.29291,0.29289 -2,1c-0.70709,0.70711 0.70709,1.29289 0,2c-0.70709,0.70711 -1,0 -1,1l-1,0l0,0"/>
  <path fill="none" stroke="#000" stroke-width="1.5" id="svg_52" d="m626.06138,178c-1,0 -2.23297,-0.58972 -6,-3c-5.39355,-3.45099 -17.2251,-11.67538 -26,-18c-9.24957,-6.66672 -16.93079,-13.09341 -25,-19c-6.94141,-5.08104 -12.76306,-10.38055 -19,-14c-3.86798,-2.24468 -8.13202,-4.75532 -12,-7c-3.11847,-1.80972 -9.07843,-3.78985 -12,-5c-2.06586,-0.85571 -5.02582,-1.67963 -7,-2c-3.12143,-0.50654 -4.93414,-1.14429 -7,-2c-2.92157,-1.21015 -4.90283,-1.22421 -7,-2c-3.867,-1.4305 -5.133,-1.5695 -9,-3c-2.09717,-0.77579 -4.186,-1.69255 -6,-3c-1.14728,-0.8269 -1.85272,-2.1731 -3,-3c-1.814,-1.30745 -3.186,-1.69255 -5,-3c-1.14728,-0.8269 -2.07611,-1.61732 -3,-2c-1.30655,-0.5412 -1.69345,-1.4588 -3,-2c-0.92389,-0.38268 -1.69345,-0.4588 -3,-1c-0.92389,-0.38268 -2,0 -2,0c-1,0 -1,0 -2,0c-1,0 -1,-1 -2,-1c0,0 0,0 0,0c-1,0 -1,0 -1,0l0,0"/>
  <path fill="none" stroke="#000" stroke-width="1.5" id="svg_53" d="m484.06138,72c-1,0 -1,1 -2,2c-2,2 -2.61731,3.07612 -3,4c-0.5412,1.30656 -1,1 -2,2c-1,1 -1.29291,1.29289 -2,2c-0.70709,0.70711 -1,1 -1,1c0,0 0,1 -1,1c0,0 -1,1 -2,2c-1,1 -1,1 -2,1c0,0 0,1 0,1c0,0 0,0 0,0c0,0 1,0 1,0c0,0 0,0 1,1c0,0 0.61731,1.07612 1,2c0.5412,1.30656 1,1 2,2c0,0 0,0 0,0c0,1 1,1 1,1c0,0 0.4588,0.69344 1,2c0.38269,0.92388 1,2 1,2c0,0 1,0 1,1c0,0 -1.41422,1.58578 0,3c0.70709,0.70711 1,1 1,2c0,0 0,0 0,0c0,0 1,1 1,1c0,0 0,1 1,2l0,0l0,0l0,1"/>
  <path fill="none" stroke="#000" stroke-width="1.5" id="svg_54" d="m81.06138,161c0,0 0,0 1,0c2,0 3,1 4,2c1,1 3,1 4,2c1,1 1.69344,1.4588 3,2c0.92388,0.38269 1.29289,1.29289 2,2c0.70711,0.70711 2,1 2,1c1,1 1,1 2,2c0,0 1,0 1,1c0,0 0,0 1,1c0,0 0,0 0,0c0,0 0.61732,1.07613 1,2c0.5412,1.30656 2,2 3,2l0,1l1,0"/>
  <path fill="none" stroke="#000" stroke-width="1.5" id="svg_57" d="m100.06138,161c0,1 0,1 0,2c0,1 0,2 1,4c0,0 0,1 0,2c0,0 0,0 0,0c0,1 1,1 1,1c0,0 0.2565,1.797 1,3c1.66251,2.68999 2,4 2,5c0,0 -0.70711,0.29289 0,1c0.70711,0.70711 0,0 0,0c0,0 -1,0 -1,0c-1,0 -2,0 -4,0c-1,0 -3,0 -5,0c-2,0 -4.07612,-0.38269 -5,0c-1.30656,0.5412 -2,1 -3,1c-1,0 -2,0 -2,1l0,0l0,0"/>
  <path fill="none" stroke="#ff7f00" stroke-width="1.5" id="svg_122" d="m345.06138,328c0,0 0,0 -1,0c0,0 0,0 0,0c-1,0 -1,0 -1,0c-1,0 -1,0 -1,0c-1,0 -1,0 -1,0c-1,1 -1,1 -1,1c-1,0 -1,0 -2,0c-1,0 -1,1 -2,1c0,0 -1.29291,0.29291 -2,1c-1.41422,1.41422 -2.15225,0.23462 -4,1c-1.30655,0.5412 -2,1 -4,2c-2,1 -3.02676,1.77023 -4,2c-2.17624,0.51373 -2.93414,2.14429 -5,3c-2.92157,1.21014 -6.03986,1.92398 -8,3c-5.11145,2.80591 -8.15927,3.61066 -11,5c-3.23892,1.58411 -6.19891,3.53238 -9,5c-4.42889,2.32053 -6.71899,4.31021 -10,7c-2.78833,2.28589 -6.37201,3.3851 -10,6c-2.29453,1.65381 -4,4 -4,4c0,1 -0.02676,0.77023 -1,1c-2.17625,0.51373 -4.96837,2.05334 -10,5c-6.95706,4.07422 -11.1133,6.83505 -17,11c-4.0817,2.88785 -7.31001,5.33749 -10,7c-2.40601,1.487 -4,4 -6,5c-2,1 -3.85274,3.1731 -5,4c-1.814,1.30746 -3,3 -4,4c-1,1 -2,2 -3,3c-1,1 -2,2 -2,2c-1,1 -1.61731,2.07611 -2,3c-0.5412,1.30655 -1.61731,2.07611 -2,3c-0.5412,1.30655 -2.4588,1.69345 -3,3c-0.38269,0.92389 -1.29289,1.29291 -2,2c-0.70711,0.70709 0.70711,1.29291 0,2c-0.70711,0.70709 -1,1 -1,1c-1,0 -1,1 -1,1c0,0 0,1 0,1c-1,0 -1,1 -1,1c0,0 0,1 0,1c0,0 -1,1 -1,1c0,0 0,1 0,2c0,0 -1,0 -1,1c0,1 0,1 0,1c0,1 -1,1 -1,1c0,1 -1,2 -1,2c0,1 0.70711,1.29291 0,2c-0.70711,0.70709 -1,1 -1,1c0,0 0,0 0,1c0,0 0,0 0,0c0,0 0,1 0,1c0,0 0,0 0,0c0,1 -1,1 -1,1c0,0 0,1 0,1c0,0 0,0 0,0c0,1 0,1 0,1c0,0 0,0 0,1c0,0 0,0 0,0c0,1 0,1 0,1c0,0 0,0 -1,1c0,0 0,1 0,1c0,0 0,0 0,0c0,1 0,1 0,1c0,0 0,1 0,2l0,0l0,0"/>
  <path fill="none" stroke="#ff7f00" stroke-width="1.5" id="svg_125" d="m178.06138,443c0,0 1.1731,-0.14728 2,1c1.30745,1.814 2.71413,3.21167 5,6c0.89659,1.09366 2,3 3,4c2,2 2,3 3,4c1,1 1,1 2,2c0,0 0,0 0,0c0,0 0,0 0,-1c0,0 0,0 0,0c0,-1 0,-1 0,-2c0,-1 1,-2 1,-3c0,-1 1,-2 1,-2c0,-1 -0.38269,-1.07611 0,-2c0.5412,-1.30655 0.29289,-1.29291 1,-2c0.70711,-0.70709 1,-1 1,-1c1,0 1,-1 1,-1c0,0 0,0 1,-1c0,0 0,0 0,0c0,0 1,-1 1,-1c1,0 1,-1 1,-1l0,0"/>
  <path fill="none" stroke="#ff7f00" stroke-width="1.5" id="svg_126" d="m347.06138,356c-1,0 -0.29291,0.29291 -1,1c-0.70709,0.70709 -1.4588,0.69345 -2,2c-0.38269,0.92389 -1.4588,1.69345 -2,3c-0.38269,0.92389 -1.1731,2.85272 -2,4c-1.30746,1.814 -1.75565,4.01498 -2,6c-0.50378,4.09222 -1,7 -2,10c-1,3 -1,6 -1,9c0,3 -1,6 -1,8c0,3 0,6 0,10c0,5 0,8 0,12c0,4 -0.68927,7.08026 0,10c0.51373,2.17624 0.69254,5.186 2,7c0.8269,1.14728 1.14429,2.93414 2,5c1.21014,2.92157 1.87766,5.06601 3,7c1.80972,3.11847 2.69254,5.186 4,7c1.65381,2.29453 2.85272,4.1731 4,5c1.814,1.30746 3,2 5,3c2,1 3.82376,2.48627 6,3c0.97324,0.22977 3,1 4,1c1,0 1,0 2,0l0,0l0,0"/>
  <path fill="none" stroke="#ff7f00" stroke-width="1.5" id="svg_127" d="m358.06138,456c0,0 0,1 1,2c1,1 1.61731,2.07611 2,3c0.5412,1.30655 2.4588,1.69345 3,3c0.38269,0.92389 1.4588,1.69345 2,3c0.38269,0.92389 0,2 0,2c1,0 1,0 0,0c0,0 -1,0 -2,1c-1,1 -2.41885,1.41885 -4,3c-1.58115,1.58115 -2.29291,2.29291 -3,3c-0.70709,0.70709 -0.29291,0.29291 -1,1c-0.70709,0.70709 0,1 0,1c0,0 0,0 0,0c0,1 0,1 0,1c-1,1 -1,1 -1,2l0,0"/>
  <path fill="none" stroke="#ff7f00" stroke-width="1.5" id="svg_128" d="m465.06138,406c0,0 1.00504,-0.14178 3,0c7.05328,0.50125 13.01352,1.56503 20,2c8.04669,0.50098 15,2 23,3c8,1 16.99463,1.04947 26,2c9.99438,1.05493 20.9859,1.20389 34,2c21.98163,1.3447 36.13226,2.32465 48,5c7.10187,1.60098 14.64752,4.9725 19,6c2.91974,0.68927 4,1 4,1c0,0 2.01947,-0.39417 6,0c5.07422,0.50244 10.79749,2.60931 16,4c6.83124,1.82605 15.133,2.56952 19,4c2.09717,0.77579 7.08026,2.31073 10,3c2.17627,0.51373 5.08026,1.31073 8,2c2.17627,0.51373 4.05353,1.5405 6,2c2.17627,0.51373 4,2 4,2c1,1 2.29291,0.29291 3,1c0.70709,0.70709 1,1 1,1c0,0 0,0 1,0c0,0 1.07611,0.61731 2,1c1.30658,0.5412 0.69342,1.4588 2,2c0.92389,0.38269 2,0 2,0c1,0 2,0 3,1c0,0 2,0 2,0l0,0l0,1"/>
  <path fill="none" stroke="#ff7f00" stroke-width="1.5" id="svg_130" d="m716.06138,438c0,-1 -0.14728,0.1731 1,1c1.81396,1.30746 2,2 4,4c1,1 1,1 2,2c0,0 0,0 1,1c0,0 0.4588,-0.30655 1,1c0.38269,0.92389 0,1 0,1c0,1 0,1 0,1c-2,1 -4,3 -5,4c-1,1 -4,3 -5,4c-1,1 -1.69342,2.4588 -3,3c-0.92389,0.38269 -1,1 -2,1l-1,2l0,0l0,0"/>
  <path fill="none" stroke="#ff7f00" stroke-width="1.5" id="svg_131" d="m466.06138,434c0,0 1,0 2,0c2,0 4,0 6,0c2,0 5,0 7,0c3,0 6,0 9,0c5,0 8,0 11,0c3,0 6.05164,0.64072 10,0c3.12143,-0.50653 7.75711,-2.98691 14,-4c5.92255,-0.96109 11.93365,-1.36646 22,-3c7.95813,-1.29144 16,-2 24,-3c8,-1 15.91571,-1.42648 25,-3c7.94397,-1.37601 16.05182,-1.61075 25,-3c5.03864,-0.78229 12.03809,-0.67319 22,-2c6.02954,-0.80307 14.94672,-1.49875 22,-2c5.98492,-0.42532 13.94672,-1.49875 21,-2c4.98743,-0.35443 11,-1 16,-1c4,0 7,-1 9,-1c1,0 1.85712,-0.59308 9,-2c8.8847,-1.75 16.94891,-2.4968 34,-4c16.96356,-1.49551 34,-1 50,-1c14,0 29.18677,0.03003 42,3c16.33014,3.78516 22.34344,5.76312 28,8c3.35291,1.3259 4.06598,1.87766 6,3c3.11847,1.80972 4.81268,3.20682 7,5c2.78833,2.28589 5,3 6,4c1,1 2.85272,2.1731 4,3c1.81396,1.30746 3,2 4,3c1,1 1.0979,1.82443 3,3c0.85065,0.52573 2.18604,0.69254 4,2c1.14728,0.8269 3.15222,2.23462 5,3c1.30658,0.5412 2.18604,1.69254 4,3c1.14728,0.8269 2,1 3,2c1,1 3,2 3,2c1,1 1.69342,1.4588 3,2c0.92389,0.38269 2,1 2,1c1,0 1,0 2,1c0,0 1,0 1,0c1,0 1,1 2,1c0,0 1,0 1,0l0,0"/>
  <path fill="none" stroke="#0000ff" stroke-width="1.5" id="svg_172" d="m981.06138,372c0,0 1.03143,0.41208 -1,4c-1.39355,2.4613 -4.14429,4.93414 -5,7c-1.21014,2.92157 -2.48627,4.82376 -3,7c-0.22974,0.97324 -1.4588,3.69345 -2,5c-0.76538,1.84775 -0.54047,4.0535 -1,6c-0.51373,2.17624 -1.48627,3.82376 -2,6c-0.45953,1.9465 -0.48627,3.82376 -1,6c-0.45953,1.9465 -0.48627,4.82376 -1,7c-0.45953,1.9465 -0.4588,3.69345 -1,5c-0.76538,1.84775 -0.4588,3.69345 -1,5c-0.76538,1.84775 0.22974,3.02676 0,4c-0.51373,2.17624 -1,3 -1,4c0,0 0,1 0,1c-1,1 -1,1 -1,1c0,0 0,1 0,1c0,0 0,1 0,2c0,1 0,2 0,2l0,0"/>
  <path fill="none" stroke="#0000ff" stroke-width="1.5" id="svg_173" d="m950.06138,437c1,0 1.21167,-0.28589 4,2c2.18732,1.79318 4.70544,4.34619 7,6c1.81396,1.30746 3,2 4,3c0,0 0,0 0,0c0,0 0,-1 0,-1c0,-1 1.48627,-0.82376 2,-3c0.22974,-0.97324 0.61731,-1.07611 1,-2c0.5412,-1.30655 0.69342,-2.4588 2,-3c0.92389,-0.38269 1,-1 2,-2c0,0 0,-1 1,-2c0,0 -0.70709,-0.29291 0,-1c0.70709,-0.70709 1,0 1,0l0,0l0,0"/>
  <path fill="none" stroke="#0000ff" stroke-width="1.5" id="svg_174" d="m897.06138,349c-1,0 -2,0 -3,0c-4,0 -7,0 -11,1c-4,1 -10.07843,2.78986 -13,4c-4.13171,1.71143 -7.06598,2.87766 -9,4c-3.11847,1.80972 -4.69257,3.186 -6,5c-1.65381,2.29453 -4,3 -6,5c-2,2 -5,5 -6,6c-2,2 -3.1731,3.85272 -4,5c-1.30743,1.814 -2.34619,3.70547 -4,6c-1.30743,1.814 -2.513,4.59399 -4,7c-1.66254,2.69 -4.19031,6.88153 -6,10c-1.12231,1.93399 -3.34619,3.70547 -5,6c-1.30743,1.814 -2.41888,2.41885 -4,4c-1.58112,1.58115 -2,3 -3,4c-1,1 -2,3 -3,4c-1,1 -2.4588,1.69345 -3,3c-0.38269,0.92389 -1,2 -2,3c-1,1 -1,2 -2,3c-1,1 -2,2 -3,3c-1,1 -1.61731,1.07611 -2,2c-0.5412,1.30655 -2,2 -2,2c-1,1 -1.29291,1.29291 -2,2c-0.70709,0.70709 -1,1 -2,2c0,0 -1,1 -2,1c0,0 -1,1 -1,1c-1,1 -1.29291,1.29291 -2,2c-0.70709,0.70709 -1,1 -2,1c0,0 -1,1 -2,1c0,0 0,1 -1,1c0,0 -1,1 -1,1l-1,0l0,1l0,0"/>
  <path fill="none" stroke="#0000ff" stroke-width="1.5" id="svg_175" d="m777.06138,434c0,0 0,1 1,2c1,1 1.23462,2.15225 2,4c0.5412,1.30655 1.48627,1.82376 2,4c0.22974,0.97324 1,1 1,2c0,1 -0.70709,1.29291 0,2c0.70709,0.70709 1,1 1,1c0,1 0,2 0,2c0,0 0,0 0,0c0,-1 0,-1 0,-1c0,0 0.07611,-0.61731 1,-1c1.30658,-0.5412 2.02673,-1.77023 3,-2c2.17627,-0.51373 2.69342,-2.4588 4,-3c1.84778,-0.76538 3.69342,-1.4588 5,-2c0.92389,-0.38269 3,0 4,-1c0,0 1,0 2,0l0,0l0,0"/>
  <path fill="none" stroke="#0000ff" stroke-width="1.5" id="svg_176" d="m897.06138,294c-1,0 -1.76935,-0.30322 -3,-1c-3.58795,-2.03146 -11.93762,-3.99915 -36,-5c-22.9801,-0.95584 -52.29095,-1.92603 -85,4c-33.41193,6.05338 -52.47083,12.54666 -73,20c-9.25763,3.36105 -17.50427,6.03552 -22,9c-1.18066,0.7785 -1,2 -1,2c-1,0 -5.25037,-0.94467 -22,4c-14.25775,4.20905 -32.47241,9.3674 -77,36c-25.94568,15.51846 -53.81714,38.21402 -69,51c-10.87128,9.15509 -19.22272,16.724 -23,20c-1.06836,0.92661 -1,2 -1,2c-1,0 -0.29291,0.29291 -1,1c-0.70709,0.70709 -1,0 -1,0c0,0 -1,1 -1,1c-1,0 -2.02676,0.77023 -3,1c-2.17624,0.51373 -2.85272,2.1731 -4,3c-1.814,1.30746 -3,1 -4,2c-1,1 -2,2 -2,2c-1,1 -2.07611,1.61731 -3,2c-1.30655,0.5412 -1,1 -2,2c0,0 -1,1 -1,2c0,0 -1,0 -1,0c0,1 0,1 0,1c-1,0 -1,0 -1,0l0,0l0,0"/>
  <path fill="none" stroke="#0000ff" stroke-width="1.5" id="svg_177" d="m455.06138,445c0,0 -0.22977,1.02676 0,2c0.51373,2.17624 0.69254,4.186 2,6c0.8269,1.14728 1.29291,1.29291 2,2c0.70709,0.70709 1,2 1,2c0,1 0,1 1,2c0,0 0,0 0,0c0,0 0,0 1,-1c0,0 0.85272,-0.1731 2,-1c1.814,-1.30746 2.82376,-1.48627 5,-2c1.9465,-0.4595 5.38458,-1.21179 6,-2c2.53741,-3.24985 5,-1 7,-1l0,-1l1,0l0,0"/>
  <path fill="none" stroke="#0000ff" stroke-width="1.5" id="svg_178" d="m896.06138,265c-1,0 -7,0 -48,0c-43,0 -172.24969,10.06674 -284,41c-78.0228,21.59726 -159.28592,58.39304 -198,77c-24.18451,11.62369 -36,16 -44,20c-2,1 -2.00192,-0.06213 -3,0c-8.04669,0.50098 -18.08264,2.69446 -26,5c-6.07233,1.76828 -13.62061,4.92554 -20,7c-5.78461,1.88107 -12.07843,2.78986 -15,4c-2.06586,0.85571 -2.69344,1.4588 -4,2c-0.92387,0.38269 -2,1 -3,2c-1,1 -2,1 -3,2c-1,1 -3,2 -4,3c-1,1 -2.41885,2.41885 -4,4c-1.58115,1.58115 -3,4 -4,6c-1,2 -2.61731,3.07611 -3,4c-0.5412,1.30655 -1.69344,3.4588 -3,4c-0.92387,0.38269 -1.4588,0.69345 -2,2c-0.38269,0.92389 -1,1 -2,2c0,0 0,1 0,1c0,0 -1,0 -1,0c0,0 -1,0 -2,1c0,0 -0.69344,0.4588 -2,1c-0.92387,0.38269 -1,0 -2,0l0,0"/>
  <path fill="none" stroke="#0000ff" stroke-width="1.5" id="svg_179" d="m218.06138,442c0,1 0,1 0,3c0,1 0.48625,2.82376 1,5c0.22975,0.97324 1,2 1,3c0,1 1,2 1,2c0,1 0.29289,1.29291 1,2c0.70711,0.70709 0,1 0,2c0,0 1,0 1,0c0,-1 0.07613,-0.61731 1,-1c1.30656,-0.5412 2.07843,-1.78986 5,-3c2.06586,-0.85571 2.54915,-1.95517 6,-3c1.91418,-0.57956 3.07613,-0.61731 4,-1c1.30656,-0.5412 2,-1 2,-1l1,0"/>
  <path fill="none" stroke="#ff7f00" stroke-width="1.5" id="svg_180" d="m927.06138,437c0,0 -0.76538,0.15225 0,2c0.5412,1.30655 2.4588,2.69345 3,4c0.38269,0.92389 1,2 1,2c0,1 1.29291,1.29291 2,2c0.70709,0.70709 0,2 0,2c0,0 0,0 0,1c0,0 0,0 0,0c0,1 0,1 0,1c0,0 -1.07611,0.61731 -2,1c-2.6131,1.0824 -4.41888,3.41885 -6,5c-1.58112,1.58115 -3.18604,2.69254 -5,4c-1.14728,0.8269 -2,1 -2,1l0,1"/>
  <path fill="none" stroke="#ff0000" stroke-width="1.5" id="svg_181" d="m109.06138,724c0,0 -0.29289,0.70709 -1,0c-0.70711,-0.70709 -1,-1 -2,-2c-1,-1 -1,-1 -2,-2c-1,-1 -1.61732,-3.07611 -2,-4c-0.5412,-1.30658 -1.78985,-2.07843 -3,-5c-0.85571,-2.06586 -2.98163,-6.71198 -4,-12c-0.37821,-1.96393 -2.6407,-13.06079 -4,-20c-1.5852,-8.09241 -2.87665,-16.01312 -4,-26c-0.90118,-8.01172 -1.91148,-18.12994 -4,-31c-0.66045,-4.06989 -0.85822,-5.005 -1,-7c-0.50126,-7.05328 -4.17062,-17.96686 -7,-33c-3.19295,-16.96484 -6.65316,-34.88403 -9,-50c-2.77852,-17.89636 -3.39826,-27.0874 -5,-36c-1.45861,-8.11618 -2.53374,-13.09662 -4,-19c-0.76227,-3.06903 -1,-3 -1,-6c0,-4 -1.37669,-8.88733 -3,-15c-2.61751,-9.85641 -5.28472,-19.92484 -7,-27c-2.40277,-9.91095 -2.35927,-14.05164 -3,-18c-0.50654,-3.12143 -1,-5 -1,-8c0,-5 -1,-11 -1,-16c0,-8 0,-12 0,-21c0,-8 0,-14 0,-19c0,-3 0,-5 0,-5c0,-5 -0.26602,-10.96167 -1,-17c-1.57329,-12.94315 -3,-24 -3,-32c0,-7 0,-16 0,-21c0,-6 0,-11 0,-15c0,-5 -0.14805,-10.22836 1,-13c0.5412,-1.30656 1,-2 1,-4c0,-5 -0.49903,-11.95332 -1,-20c-0.37282,-5.9884 -1,-15 -1,-20c0,-4 0,-9 0,-13c0,-5 -0.80091,-9.06456 0,-14c0.50654,-3.12144 1.49755,-6.9258 2,-12c0.29561,-2.9854 1,-9 1,-12c0,-3 1.49346,-6.87856 2,-10c0.64073,-3.94835 1,-8 2,-11c1,-3 1,-6 2,-8c1,-2 3.2565,-5.797 4,-7c1.66251,-2.68999 2.71412,-5.21168 5,-8c1.79319,-2.18734 4,-4 7,-7c2,-2 4.20681,-3.81266 6,-6c2.28588,-2.78832 5,-6 7,-8c1,-1 3,-2 5,-3c2,-1 2.82375,-1.48626 5,-2c0.97325,-0.22975 2,-1 4,-1c0,0 1,0 2,0c1,0 2,0 2,0c2,0 2.69344,0.4588 4,1c0.92388,0.38268 2.07612,0.61732 3,1c1.30656,0.5412 2,1 3,1c2,0 3,0 3,0l0,1l1,0"/>
  <path fill="none" stroke="#ff0000" stroke-width="1.5" id="svg_183" d="m95.06138,64c0,1 0,1 0,3c0,4 1.78985,7.07844 3,10c0.85571,2.06586 1.61732,3.07612 2,4c0.5412,1.30656 1.4588,1.69344 2,3c0.38268,0.92388 0.29289,1.29289 1,2c0.70711,0.70711 0,0 0,0c-1,0 -3.93414,0.14429 -6,1c-2.92156,1.21015 -6,2 -7,3l-1,1l0,0"/>
  <path fill="none" stroke="#ff0000" stroke-width="1.5" id="svg_184" d="m325.06138,730c0,0 0,0 -1,0c-1,0 -1,0 -3,0c-1,0 -4,0 -6,0c-2,0 -4,0 -6,0c-2,0 -5,0 -6,0c-3,0 -5,0 -8,0c-2,0 -3,0 -7,0c-2,0 -4,0 -5,0c-1,0 -3,0 -5,0c-1,0 -3,0 -5,0c0,0 0,0 -1,0c-1,0 -5.07843,-1.78986 -8,-3c-4.13171,-1.71143 -8.03986,-4.92401 -10,-6c-5.11145,-2.80591 -7,-5 -9,-6c-2,-1 -4.02675,-1.77026 -5,-2c-2.17625,-0.51373 -2.15224,-0.23462 -4,-1c-1.30656,-0.5412 -1,-1 -2,-1c0,0 -1,0 -1,0c-1,0 -2,0 -2,0c-1,0 -1,-1 -3,-1c0,0 -1,-1 -2,-1c-1,0 -1.29289,0.70709 -2,0c-0.70711,-0.70709 -1,-1 -2,-1c0,0 -1.07613,-0.61731 -2,-1c-1.30656,-0.5412 -2.15224,-0.23462 -4,-1c-1.30656,-0.5412 -2.15224,-0.23462 -4,-1c-1.30656,-0.5412 -3,-1 -5,-1c-2,0 -5.05165,0.64075 -9,0c-3.12144,-0.50653 -6.03874,-0.51947 -9,-1c-3.12144,-0.50653 -7.02248,-1.63342 -10,-2c-4.09221,-0.50378 -7,-2 -9,-3c-2,-1 -4.82443,-1.0979 -6,-3c-0.52573,-0.85065 -0.0535,-0.54047 -2,-1c-2.17625,-0.51373 -5,-4 -9,-7c-4,-3 -8,-7 -11,-11c-3,-4 -3.72398,-5.22272 -7,-9c-2.77979,-3.20514 -5.93789,-7.04736 -9,-11c-3.92142,-5.06189 -6.10626,-9.5929 -11,-16c-3.43368,-4.49554 -7.64012,-10.20959 -13,-19c-3.75408,-6.15686 -9,-13 -13,-21c-4,-8 -6,-13 -6,-15c0,-2 -1,-4 -1,-8c0,-6 -2.49874,-15.94672 -3,-23c-0.35445,-4.98743 -1,-10 -1,-13c0,-3 -0.51945,-6.03876 -1,-9c-0.50654,-3.12146 -1,-5 -1,-8c0,-3 0,-5 0,-7c0,-3 0,-5 0,-7c0,-3 -1,-6 -1,-8c0,-1 -0.49755,-2.92578 -1,-8c-0.49269,-4.97568 0,-9 0,-13c0,-7 -0.48626,-9.82376 -1,-12c-0.91901,-3.89301 -0.49622,-6.90778 -1,-11c-0.36655,-2.97751 -0.49346,-4.87857 -1,-8c-0.16018,-0.98709 0.15277,-3.04132 -1,-7c-0.88413,-3.03616 -1,-6 -2,-8c-1,-2 -1.48626,-3.82376 -2,-6c-0.22975,-0.97324 -0.48626,-2.82376 -1,-5c-0.68926,-2.91974 -1.33198,-9.22937 -3,-13c-1.45864,-3.29733 -4.84723,-12.04132 -6,-16c-0.88413,-3.03616 -1,-3 -1,-7c0,-6 -0.95046,-12.00461 -2,-23c-0.95494,-10.00439 -1,-16 -1,-25c0,-2 0.48055,-8.03873 0,-11c-0.50654,-3.12143 -2.99245,-5.81558 -4,-14c-0.7331,-5.95505 -1.49623,-11.90778 -2,-16c-0.12218,-0.99249 0,-2 0,-2c0,-2 0,-4 0,-10c0,-8 0.11316,-25.04379 1,-34c0.50245,-5.0742 2,-14 2,-20c0,-4 -0.76537,-7.15224 0,-9c0.54119,-1.30656 1,-2 1,-2c0,0 0,0 0,-1c0,-2 0,-5 0,-13c0,-5 1.49874,-9.94672 2,-17c0.42533,-5.98491 0.91869,-10.0121 2,-17c0.93018,-6.01122 1.90339,-11.01691 3,-17c0.91926,-5.01547 2.48626,-9.82375 3,-12c0.22975,-0.97325 0,-2 0,-2c0,0 -0.48873,-4.02997 0,-8c0.50377,-4.09221 2,-9 2,-14c0,-4 1,-8 1,-10c0,-2 0.48626,-3.82375 1,-6c0.22975,-0.97325 0,-2 0,-3c0,0 0,0 0,-1c0,0 0.29289,-0.29289 1,-1c0.70711,-0.70711 1,-2 1,-3c0,0 1,-1 1,-1c0,-1 1,-1 1,-2c0,0 -0.70711,-0.29289 0,-1c0.70711,-0.70711 1.45881,-0.69344 2,-2c0.38268,-0.92388 0,-2 1,-2c0,0 0,-1 0,-1c0,0 0,-1 0,-1l0,0l0,-1"/>
  <path fill="none" stroke="#ff0000" stroke-width="1.5" id="svg_186" d="m747.06138,725c-1,0 -1.69342,-0.4588 -3,-1c-0.92389,-0.38269 -4,0 -6,-1c-2,-1 -3.85272,-1.1731 -5,-2c-1.81396,-1.30743 -2.82373,-2.48627 -5,-3c-0.97327,-0.22974 -2.02673,-0.77026 -3,-1c-2.17627,-0.51373 -2.69342,-2.4588 -4,-3c-1.84778,-0.76538 -2.69342,-0.4588 -4,-1c-0.92389,-0.38269 -2,-1 -3,-1c-1,0 -2.07611,-0.61731 -3,-1c-1.30658,-0.5412 -2.05353,-1.54047 -4,-2c-2.17627,-0.51373 -4.93414,-2.14429 -7,-3c-2.92157,-1.21014 -7,-2 -9,-3c-2,-1 -4.15222,-1.23462 -6,-2c-1.30658,-0.5412 -3,-1 -4,-1c0,0 0,0 -1,0c-3,0 -6.9668,-0.18323 -12,-1c-7.95813,-1.29144 -18.92175,-2.49237 -30,-4c-10.94446,-1.48938 -25.94672,-4.49872 -33,-5c-5.98492,-0.42535 -11.87854,-0.49347 -15,-1c-3.94836,-0.64075 -6,0 -9,0c-1,0 -3,0 -3,0c-3,0 -6,0 -13,0c-8,0 -16,0 -28,0c-15,0 -31,0 -45,0c-13,0 -22,0 -28,0c-6,0 -12,0 -15,0c-1,0 -2,0 -2,0c-1,0 -11.01529,0.55298 -21,0c-9.04153,-0.50079 -19,-1 -29,-1c-13,0 -27,0 -35,0c-5,0 -9,0 -12,0c-3,0 -5.07611,-0.38269 -6,0c-1.30655,0.5412 -1,1 -1,1c-2,0 -6,0 -14,0c-8,0 -16.01123,-0.54028 -29,0c-12.03119,0.50043 -22,1 -29,1c-7,0 -11.87856,-0.49347 -15,-1c-1.97418,-0.32037 -4,0 -6,0c-2,0 -3,0 -5,0c-3,0 -8,0 -14,0c-5,0 -8.95332,-0.49902 -17,-1c-4.99034,-0.31067 -9.87856,-1.49347 -13,-2c-4.93544,-0.8009 -7.87856,-0.49347 -11,-1c-1.97418,-0.32037 -3.82375,-0.48627 -6,-1c-0.97325,-0.22974 -2.82375,-0.48627 -5,-1c-0.97325,-0.22974 -3.15224,0.76538 -5,0c-1.30656,-0.5412 -2,-1 -3,-1c-1,0 -2,0 -2,0c0,0 -1.45049,0.5495 -4,-2c-2.54951,-2.5495 -6,-7 -9,-11c-3,-4 -5.2068,-7.81268 -7,-10c-2.28587,-2.78833 -3.71413,-6.21167 -6,-9c-0.89659,-1.09369 -2,-3 -3,-5c-1,-2 -2.19028,-3.88153 -4,-7c-1.12234,-1.93402 -2.54136,-4.7027 -4,-8c-1.66801,-3.77063 -2.34518,-8.177 -4,-13c-1.45137,-4.2301 -2.49346,-7.87854 -3,-11c-0.32037,-1.97418 -1.51127,-9.02997 -2,-13c-0.50378,-4.09222 -1.5405,-7.05353 -2,-9c-0.51374,-2.17627 -1,-2 -1,-4c0,-5 -1.56731,-11.80963 -4,-20c-2.62504,-8.83795 -4.49161,-17.76184 -6,-32c-0.73746,-6.96106 -1,-14 -1,-22c0,-5 -1,-12 -1,-17c0,-6 -1.17964,-13.97668 -2,-21c-1.28145,-10.97076 -2.93379,-21.01828 -6,-32c-1.95779,-7.01193 -3.66233,-13.06613 -5,-19c-1.60098,-7.1019 -2.60585,-12.01947 -3,-16c-0.50245,-5.07422 -1.31074,-8.08026 -2,-11c-0.51374,-2.17624 -2,-5 -2,-6c0,-2 -0.61732,-3.07611 -1,-4c-0.5412,-1.30655 -1.29289,-1.29291 -2,-2c-1.41422,-1.41422 -1,-2 -1,-3c0,-1 0,-1 0,-1c-1,-2 -3,-4 -5,-7c-4,-6 -7.5635,-10.70251 -10,-16c-1.32138,-2.87296 -2.97252,-3.64749 -4,-8c-0.45951,-1.9465 -1.14429,-5.93414 -2,-8c-1.21015,-2.92157 -1.30322,-5.76935 -2,-7c-2.03145,-3.58792 -1.78985,-6.07843 -3,-9c-0.85571,-2.06586 -1.54049,-5.0535 -2,-7c-0.51374,-2.17624 -1,-4 -1,-6c0,-2 0,-3 0,-4c0,-2 0,-3 0,-4c0,-1 0,-2 0,-3c0,0 0.2212,-1.00613 0,-5c-0.50077,-9.04153 -1.34504,-11.9516 -3,-25c-1.26452,-9.97 -1.50512,-16.02045 -2,-22c-0.50171,-6.06204 -1,-11 -1,-15c0,-4 0.45881,-8.69344 1,-10c0.76537,-1.84776 1.45881,-4.69344 2,-6c0.38268,-0.92387 0,-2 0,-2c0,0 0,-2 0,-5c0,-3 0.49346,-4.87856 1,-8c0.32037,-1.97418 0,-5 0,-5c1,-2 1.45881,-2.69344 2,-4c0.38268,-0.92387 0.61732,-3.07613 1,-4c0.54119,-1.30656 0.77025,-2.02675 1,-3c0.51374,-2.17625 1,-3 1,-4c0,-1 1,-2 1,-3c0,-1 0.45881,-2.69344 1,-4c0.38268,-0.92387 -0.38268,-2.07613 0,-3c0.54119,-1.30656 1,-2 1,-3c0,-1 0,-1 0,-2c0,-1 0,-2 0,-2c0,-1 0,-1 0,-2c0,-1 0,-2 0,-2c0,-1 0,-2 0,-3c0,-1 0,-3 0,-4c0,-2 0,-5 0,-7c0,-1 0,-3 0,-4c0,-2 -0.76537,-3.15224 0,-5c0.54119,-1.30656 0.61732,-2.07613 1,-3c0.54119,-1.30656 1,-2 1,-3c0,0 0,-2 0,-3c0,-1 0,-1 0,-2c0,-1 0,-2 0,-3c0,-2 0,-4 0,-5c0,-1 0,-2 0,-3c0,-1 0,-2 0,-4c0,-1 0,-2 0,-2c0,-1 0,-1 0,-1c0,-1 0,-1 0,-2c0,-1 0,-2 0,-2c0,-1 0,-1 0,-1c0,-1 0,-1 0,-2l0,-1l0,0l0,-1"/>
  <path fill="none" stroke="#ff0000" stroke-width="1.5" id="svg_187" d="m963.06138,726c0,-1 -2.21008,-1.85077 -5,-6c-6.5072,-9.67761 -12.22052,-18.8313 -16,-24c-4.25635,-5.82092 -7.21167,-8.71411 -10,-11c-2.18732,-1.79321 -3.76111,-3.41589 -7,-5c-2.8407,-1.38934 -7.79028,-1.99023 -15,-3c-5.94202,-0.83221 -12,0 -18,0c-6,0 -12.01208,0.9187 -19,2c-6.01123,0.93018 -11.11237,2.54706 -16,4c-5.16193,1.53448 -10.02582,2.67963 -12,3c-3.12146,0.50653 -3,1 -4,1c-5,0 -13.93365,-0.36646 -24,-2c-7.95813,-1.29144 -18.91211,-2.99829 -36,-4c-10.98114,-0.64374 -22,-1 -31,-1c-8,0 -13,0 -21,0c-6,0 -10,0 -14,0c-2,0 -4,0 -4,0c-7,0 -20.9668,-0.31641 -29,-1c-21.94342,-1.86725 -33.97919,-1.49982 -52,-2c-20.99194,-0.58264 -39.03772,-1.06335 -54,0c-7.05328,0.50128 -13.92578,2.49756 -19,3c-1.9903,0.19708 -2,0 -2,0c-8,0 -27,-1 -46,-2c-19,-1 -36,-1 -71,-1c-22,0 -54,0 -62,0c-11,0 -17,0 -19,0c-2,0 -11.96262,-0.49939 -22,-1c-8.98883,-0.4483 -17,0 -28,0c-8,0 -15.95331,0.49902 -24,1c-2.9942,0.1864 -3,0 -4,0c-1,0 -2,0 -3,0c-1,0 -3,0 -5,0c-1,0 -2.82376,0.48627 -5,1c-1.9465,0.45953 -3,0 -3,0c-8,0 -15,0 -21,0c-4,0 -8.02045,-0.50513 -14,-1c-6.06204,-0.50171 -12.04132,-1.84723 -16,-3c-3.03616,-0.88416 -5,-1 -7,-1c-1,0 -3,0 -4,0c-1,0 -2,0 -3,0c0,0 -2,0 -4,0c-1,0 -2,0 -3,0c-1,0 -2,0 -3,0c-2,0 -2.69344,-0.4588 -4,-1c-1.84776,-0.76538 -3,0 -4,0c-1,0 -2.07613,-0.61731 -3,-1c-1.30656,-0.5412 -2.02675,-0.77026 -3,-1c-2.17625,-0.51373 -2.186,-1.69257 -4,-3c-1.14726,-0.8269 -2.48625,-2.82373 -3,-5c-0.4595,-1.94647 -0.23463,-4.15222 -1,-6c-0.5412,-1.30658 -1.1731,-2.85272 -2,-4c-1.30745,-1.81396 -2.4588,-2.69342 -3,-4c-1.14806,-2.77167 0,-4 0,-6c0,-4 0,-17 0,-28c0,-21 1,-36 1,-60c0,-15 0.58182,-28.01208 0,-42c-0.50043,-12.03119 -2.78691,-25.04089 -5,-36c-1.82497,-9.03711 -2.80617,-15.03043 -4,-22c-0.86089,-5.02582 -2,-11 -3,-13c-1,-2 -1,-4 -1,-5c0,-2 -0.71413,-2.21167 -3,-5c-6.27617,-7.6557 -13.08053,-13.93176 -19,-21c-9.12534,-10.89624 -13.88293,-16.07437 -19,-24c-1.95568,-3.02908 -2.69255,-5.186 -4,-7c-0.8269,-1.14728 -1,-2 -2,-3c-1,-1 -1,-2 -1,-3c0,0 0.15203,-3.07971 -2,-7c-2.80591,-5.11145 -8.29589,-13.85745 -13,-24c-3.20432,-6.90884 -7,-13 -9,-16c-2,-3 -2,-5 -3,-6c-1,-1 -0.61732,-2.07611 -1,-3c-0.5412,-1.30655 -1.4588,-0.69345 -2,-2c-0.38268,-0.92389 -0.23463,-2.15225 -1,-4c-0.54119,-1.30655 -2,-4 -2,-7c0,-2 -1,-7 -1,-11c0,-3 0.49755,-6.92578 1,-12c0.39415,-3.98053 1,-7 1,-9c0,-2 0,-4 0,-4c0,0 0,-4 0,-8c0,-7 -0.21824,-17.08391 -2,-30c-0.6968,-5.05118 -0.51127,-10.02997 -1,-14c-0.50377,-4.09221 -1,-7 -1,-9c0,-2 0,-5 0,-8c0,-1 0,-3 0,-5c0,-2 1,-3 1,-3c0,-1 0,-4 0,-5c0,-6 -0.49346,-10.87856 -1,-14c-0.48055,-2.96126 -0.48626,-5.82375 -1,-8c-0.45951,-1.9465 0,-3 0,-5c0,-2 0,-4 0,-6c0,-1 0.48626,-2.82375 1,-5c0.45951,-1.9465 0,-4 0,-5c0,-2 0,-4 0,-5c0,-1 0,-2 0,-3c0,-1 0,-3 0,-4c0,-1 0,-1 0,-2c0,-1 0,-2 0,-2c0,0 0,-1 0,-1c0,-1 0,-2 0,-3c0,0 0,-1 0,-1c0,0 0,0 0,-1c0,-1 0,-2 0,-3c0,0 0,0 0,0c0,-1 0,-1 0,-1c0,-2 -0.45881,-1.69344 -1,-3c-0.38268,-0.92388 0,-2 0,-2c-1,-1 -1,-1 -1,-2c0,0 0,-1 0,-1c0,0 0,-1 -1,-1c0,0 0,0 0,-1c0,0 0,0 0,0c0,-1 0,-1 0,-1c0,-1 0,-1 0,-2c0,0 0,-1 0,-1c0,0 0,-1 0,-1c0,0 0,0 0,-1c0,0 0,0 0,-1c0,0 0,0 0,-1c0,0 0,0 0,0l0,-1l0,0"/>
 </g>
</svg>